<svg id="Layer_1" data-name="Layer 1" xmlns="http://www.w3.org/2000/svg" viewBox="0 0 249.69 75.19"><defs><style>.cls-1{fill:#d8176f;}.cls-2{fill:#75cdd3;}.cls-3{fill:#3e3e3e;}</style></defs><title>evasteo-logo</title><path class="cls-1" d="M42.45,32.21v0a3.75,3.75,0,0,1-2.08,4.86l-21,8.42a3.75,3.75,0,0,1-1.37.26,3.45,3.45,0,0,1-3.49-2.37,3.75,3.75,0,0,1,2.08-4.86l17-6.83A11.67,11.67,0,0,0,24,27a11.71,11.71,0,0,0-8.65,3.6,11.67,11.67,0,0,0-3.6,8.61,11.79,11.79,0,0,0,3.6,8.65A11.77,11.77,0,0,0,24,51.47a11.61,11.61,0,0,0,9.61-4.71,3.64,3.64,0,0,1,2.52-1.41,3.58,3.58,0,0,1,2.75.78,3.7,3.7,0,0,1,.67,5.27A18.79,18.79,0,0,1,24,59a19,19,0,0,1-14-5.79,19,19,0,0,1-5.79-14,19,19,0,0,1,5.79-14,19.08,19.08,0,0,1,14-5.75A19.41,19.41,0,0,1,35.18,23a19.32,19.32,0,0,1,7.27,9.17Z" transform="translate(-4.3 -3.56)"/><path class="cls-2" d="M77.15,19.89a3.61,3.61,0,0,1,2,2.12A3.7,3.7,0,0,1,79,24.86l-14.66,32a3.76,3.76,0,0,1-6.83,0l-14.66-32A3.59,3.59,0,0,1,42.79,22a3.48,3.48,0,0,1,1.93-2.12,3.57,3.57,0,0,1,2.89-.11,3.61,3.61,0,0,1,2.08,2L60.93,46.23,72.18,21.74a3.61,3.61,0,0,1,2.12-2A3.49,3.49,0,0,1,77.15,19.89Z" transform="translate(-4.3 -3.56)"/><path class="cls-2" d="M98.57,19.55a19.7,19.7,0,0,1,19.71,19.71v16a3.64,3.64,0,0,1-1.11,2.67A3.52,3.52,0,0,1,114.52,59a3.64,3.64,0,0,1-2.67-1.11,3.71,3.71,0,0,1-1.08-2.67v-16a12.2,12.2,0,0,0-20.86-8.61,11.67,11.67,0,0,0-3.6,8.61A12.23,12.23,0,0,0,98.57,51.47a14.7,14.7,0,0,0,4.68-.89,5.31,5.31,0,0,1,2.89-.3,3.5,3.5,0,0,1,2.19,1.82,3.74,3.74,0,0,1-1.52,5.08A16.91,16.91,0,0,1,98.57,59a19,19,0,0,1-14-5.79,19,19,0,0,1-5.79-14A19.7,19.7,0,0,1,98.57,19.55Z" transform="translate(-4.3 -3.56)"/><path class="cls-2" d="M145.22,37.55a12.6,12.6,0,0,1,3.23,8.72,12.59,12.59,0,0,1-3.19,8.65,12.05,12.05,0,0,1-9.5,4.08H124.55a3.8,3.8,0,0,1-3.75-3.75,3.64,3.64,0,0,1,1.11-2.67,3.52,3.52,0,0,1,2.63-1.11h11.21a5,5,0,0,0,3.9-1.52,5.39,5.39,0,0,0,1.26-3.67,5.82,5.82,0,0,0-.71-2.82Q138.94,41,131.49,41a10.13,10.13,0,0,1-7.94-3.41,10.62,10.62,0,0,1-2.75-7.31A10.57,10.57,0,0,1,123.47,23a10.17,10.17,0,0,1,8-3.45H142.4a3.74,3.74,0,0,1,3.75,3.75A3.52,3.52,0,0,1,145,26a3.6,3.6,0,0,1-2.63,1.11H131.49a3,3,0,0,0-2.37.93,3.37,3.37,0,0,0-.78,2.3q0,3.23,3.15,3.23Q141.65,33.54,145.22,37.55Z" transform="translate(-4.3 -3.56)"/><path class="cls-2" d="M159.58,27V39.26a12.23,12.23,0,0,0,12.25,12.21,3.8,3.8,0,0,1,3.75,3.75,3.64,3.64,0,0,1-1.11,2.67A3.6,3.6,0,0,1,171.83,59a19,19,0,0,1-14-5.79,19,19,0,0,1-5.79-14v-32a3.6,3.6,0,0,1,1.11-2.63,3.52,3.52,0,0,1,2.63-1.11,3.74,3.74,0,0,1,3.75,3.75V19.55h12.25a3.74,3.74,0,0,1,3.75,3.75,3.52,3.52,0,0,1-1.11,2.63A3.6,3.6,0,0,1,171.83,27Z" transform="translate(-4.3 -3.56)"/><path class="cls-2" d="M212.91,32.21v0a3.75,3.75,0,0,1-2.08,4.86l-21,8.42a3.75,3.75,0,0,1-1.37.26A3.45,3.45,0,0,1,185,43.41,3.75,3.75,0,0,1,187,38.55l17-6.83a12.23,12.23,0,0,0-21.82,7.53A12.23,12.23,0,0,0,194.5,51.47a11.61,11.61,0,0,0,9.61-4.71,3.64,3.64,0,0,1,2.52-1.41,3.58,3.58,0,0,1,2.75.78,3.7,3.7,0,0,1,.67,5.27A18.79,18.79,0,0,1,194.5,59a19,19,0,0,1-14-5.79,19,19,0,0,1-5.79-14A19.7,19.7,0,0,1,194.5,19.55a19.78,19.78,0,0,1,18.41,12.62Z" transform="translate(-4.3 -3.56)"/><path class="cls-2" d="M234.29,19.55A19.7,19.7,0,0,1,254,39.26a19,19,0,0,1-5.79,14,19.67,19.67,0,0,1-27.87,0,19,19,0,0,1-5.79-14,19.7,19.7,0,0,1,19.74-19.71Zm0,31.91A12.23,12.23,0,0,0,246.5,39.26a12.23,12.23,0,0,0-24.46,0,12.23,12.23,0,0,0,12.25,12.21Z" transform="translate(-4.3 -3.56)"/><path class="cls-3" d="M52.9,74.9V78.6H51.27V68.82H55a3.62,3.62,0,0,1,2.54.84,3.11,3.11,0,0,1,0,4.41A3.64,3.64,0,0,1,55,74.9Zm0-1.31H55a1.79,1.79,0,0,0,1.36-.48,1.72,1.72,0,0,0,.46-1.23A1.65,1.65,0,0,0,55,70.13H52.9Z" transform="translate(-4.3 -3.56)"/><path class="cls-3" d="M61.47,72.28a2.58,2.58,0,0,1,.88-.79,2.37,2.37,0,0,1,1.15-.28,2.29,2.29,0,0,1,1.8.73A3.31,3.31,0,0,1,66,74.18V78.6H64.33V74.16A1.88,1.88,0,0,0,64,72.92a1.24,1.24,0,0,0-1-.39,2.07,2.07,0,0,0-.91.18,1.65,1.65,0,0,0-.62.51V78.6H59.84V68.12h1.63Z" transform="translate(-4.3 -3.56)"/><path class="cls-3" d="M72,78.6c-.06-.18-.11-.36-.14-.54a3.88,3.88,0,0,1-.08-.52,2.79,2.79,0,0,1-.88.86,2.27,2.27,0,0,1-1.23.35A2.42,2.42,0,0,1,68,78.16a2.12,2.12,0,0,1-.61-1.61,1.9,1.9,0,0,1,.83-1.64,4,4,0,0,1,2.34-.59H71.8v-.64a1.19,1.19,0,0,0-.33-.89,1.33,1.33,0,0,0-1-.32,1.37,1.37,0,0,0-.89.27.84.84,0,0,0-.33.69H67.72v0a1.8,1.8,0,0,1,.77-1.53,3.26,3.26,0,0,1,2.13-.67,3.11,3.11,0,0,1,2,.64,2.27,2.27,0,0,1,.78,1.85v3.23a5.93,5.93,0,0,0,.06.86,4.55,4.55,0,0,0,.19.81Zm-2-1.17a2,2,0,0,0,1.1-.31,1.55,1.55,0,0,0,.66-.71V75.35H70.5a1.64,1.64,0,0,0-1.12.35,1.07,1.07,0,0,0-.4.83.85.85,0,0,0,.27.66A1.13,1.13,0,0,0,70,77.44Z" transform="translate(-4.3 -3.56)"/><path class="cls-3" d="M78.76,72.81l-.7,0a1.46,1.46,0,0,0-.8.2,1.33,1.33,0,0,0-.49.57V78.6H75.14V71.33h1.49l.11,1.06a2.34,2.34,0,0,1,.71-.87,1.65,1.65,0,0,1,1-.32l.28,0,.24.06Z" transform="translate(-4.3 -3.56)"/><path class="cls-3" d="M81.46,71.33l.09.95a2.46,2.46,0,0,1,.89-.8,2.63,2.63,0,0,1,1.24-.28,2.25,2.25,0,0,1,1.22.32,1.94,1.94,0,0,1,.77,1,2.55,2.55,0,0,1,.89-.95,2.39,2.39,0,0,1,1.29-.34,2.13,2.13,0,0,1,1.73.76,3.55,3.55,0,0,1,.64,2.31V78.6H88.59V74.26a2.14,2.14,0,0,0-.32-1.34,1.17,1.17,0,0,0-1-.39,1.4,1.4,0,0,0-.89.28,1.57,1.57,0,0,0-.52.76c0,.07,0,.13,0,.17s0,.1,0,.14V78.6H84.28V74.26A2.12,2.12,0,0,0,84,72.94a1.16,1.16,0,0,0-1-.4,1.72,1.72,0,0,0-.84.19,1.41,1.41,0,0,0-.55.54V78.6H80V71.33Z" transform="translate(-4.3 -3.56)"/><path class="cls-3" d="M96.32,78.6c-.06-.18-.11-.36-.14-.54a3.88,3.88,0,0,1-.08-.52,2.79,2.79,0,0,1-.88.86,2.27,2.27,0,0,1-1.23.35,2.42,2.42,0,0,1-1.74-.58,2.12,2.12,0,0,1-.61-1.61,1.9,1.9,0,0,1,.83-1.64,4,4,0,0,1,2.34-.59h1.27v-.64a1.19,1.19,0,0,0-.33-.89,1.33,1.33,0,0,0-1-.32,1.37,1.37,0,0,0-.89.27.84.84,0,0,0-.33.69H92v0a1.8,1.8,0,0,1,.77-1.53,3.26,3.26,0,0,1,2.13-.67,3.11,3.11,0,0,1,2,.64,2.27,2.27,0,0,1,.78,1.85v3.23a5.93,5.93,0,0,0,.06.86,4.55,4.55,0,0,0,.19.81Zm-2-1.17a2,2,0,0,0,1.1-.31,1.55,1.55,0,0,0,.66-.71V75.35h-1.3a1.64,1.64,0,0,0-1.12.35,1.07,1.07,0,0,0-.4.83.85.85,0,0,0,.27.66A1.13,1.13,0,0,0,94.32,77.44Z" transform="translate(-4.3 -3.56)"/><path class="cls-3" d="M102.39,77.44a1.36,1.36,0,0,0,.94-.35,1.14,1.14,0,0,0,.39-.89h1.48v0A2.19,2.19,0,0,1,104.4,78a3.24,3.24,0,0,1-4.44-.3,4,4,0,0,1-.85-2.62v-.24a4,4,0,0,1,.85-2.61,3,3,0,0,1,2.42-1,2.85,2.85,0,0,1,2.06.76,2.49,2.49,0,0,1,.77,1.94v0h-1.48a1.48,1.48,0,0,0-.37-1,1.23,1.23,0,0,0-1-.42,1.33,1.33,0,0,0-1.26.68,3.34,3.34,0,0,0-.38,1.67v.24a3.37,3.37,0,0,0,.38,1.68A1.34,1.34,0,0,0,102.39,77.44Z" transform="translate(-4.3 -3.56)"/><path class="cls-3" d="M109.66,78.75a3.16,3.16,0,0,1-2.49-1,3.76,3.76,0,0,1-.9-2.6v-.27a3.89,3.89,0,0,1,.9-2.64,2.9,2.9,0,0,1,2.31-1,2.72,2.72,0,0,1,2.22.9,3.66,3.66,0,0,1,.75,2.42v.88H108v0a2.38,2.38,0,0,0,.47,1.45,1.61,1.61,0,0,0,1.34.56,3.68,3.68,0,0,0,1.15-.16,3.33,3.33,0,0,0,.9-.46l.53,1.07a3.48,3.48,0,0,1-1.1.61A4.61,4.61,0,0,1,109.66,78.75Zm-.17-6.24a1.26,1.26,0,0,0-1,.46,2.28,2.28,0,0,0-.48,1.2v0h2.84v-.13a1.84,1.84,0,0,0-.33-1.13A1.21,1.21,0,0,0,109.49,72.51Z" transform="translate(-4.3 -3.56)"/><path class="cls-3" d="M118.32,77.53a2.44,2.44,0,0,1-.86.9,2.33,2.33,0,0,1-1.22.32,2.28,2.28,0,0,1-1.83-.77,3.62,3.62,0,0,1-.66-2.39V71.33h1.63V75.6a2.43,2.43,0,0,0,.3,1.43,1.12,1.12,0,0,0,.94.39,2.09,2.09,0,0,0,1-.21,1.53,1.53,0,0,0,.63-.61V71.33h1.63V78.6h-1.4Z" transform="translate(-4.3 -3.56)"/><path class="cls-3" d="M123.67,69.57v1.77H125v1.21h-1.3v4a.87.87,0,0,0,.19.64.71.71,0,0,0,.52.19l.26,0,.24-.06.17,1.2a1.9,1.9,0,0,1-.49.18,2.69,2.69,0,0,1-.59.06,1.88,1.88,0,0,1-1.41-.53,2.3,2.3,0,0,1-.51-1.66v-4h-1.11V71.33H122V69.57Z" transform="translate(-4.3 -3.56)"/><path class="cls-3" d="M128,69.55H126.4V68.12H128Zm0,9.05H126.4V71.33H128Z" transform="translate(-4.3 -3.56)"/><path class="cls-3" d="M132.82,77.44a1.36,1.36,0,0,0,.94-.35,1.14,1.14,0,0,0,.39-.89h1.48v0a2.19,2.19,0,0,1-.81,1.76,3.24,3.24,0,0,1-4.44-.3,4,4,0,0,1-.85-2.62v-.24a4,4,0,0,1,.85-2.61,3,3,0,0,1,2.42-1,2.85,2.85,0,0,1,2.06.76,2.49,2.49,0,0,1,.77,1.94v0h-1.48a1.48,1.48,0,0,0-.37-1,1.23,1.23,0,0,0-1-.42,1.33,1.33,0,0,0-1.26.68,3.34,3.34,0,0,0-.38,1.67v.24a3.37,3.37,0,0,0,.38,1.68A1.34,1.34,0,0,0,132.82,77.44Z" transform="translate(-4.3 -3.56)"/><path class="cls-3" d="M141.39,78.6c-.06-.18-.11-.36-.14-.54a3.73,3.73,0,0,1-.08-.52,2.81,2.81,0,0,1-.88.86,2.27,2.27,0,0,1-1.23.35,2.42,2.42,0,0,1-1.74-.58,2.12,2.12,0,0,1-.61-1.61,1.9,1.9,0,0,1,.83-1.64,4,4,0,0,1,2.35-.59h1.27v-.64a1.19,1.19,0,0,0-.33-.89,1.33,1.33,0,0,0-1-.32,1.37,1.37,0,0,0-.89.27.84.84,0,0,0-.33.69h-1.57v0a1.8,1.8,0,0,1,.77-1.53A3.26,3.26,0,0,1,140,71.2a3.11,3.11,0,0,1,2.05.64,2.27,2.27,0,0,1,.78,1.85v3.23a5.86,5.86,0,0,0,.06.86,4.63,4.63,0,0,0,.19.81Zm-2-1.17a2,2,0,0,0,1.11-.31,1.55,1.55,0,0,0,.66-.71V75.35h-1.3a1.63,1.63,0,0,0-1.12.35,1.07,1.07,0,0,0-.4.83.85.85,0,0,0,.27.66A1.13,1.13,0,0,0,139.4,77.44Z" transform="translate(-4.3 -3.56)"/><path class="cls-3" d="M146.24,78.6H144.6V68.12h1.63Z" transform="translate(-4.3 -3.56)"/><path class="cls-3" d="M152.15,76.62a.75.75,0,0,0-.32-.62,3.3,3.3,0,0,0-1.21-.44,4.9,4.9,0,0,1-2-.77,1.63,1.63,0,0,1-.68-1.37,2,2,0,0,1,.77-1.56,3.06,3.06,0,0,1,2-.65,3.16,3.16,0,0,1,2.1.67,1.94,1.94,0,0,1,.76,1.61v0h-1.57a1,1,0,0,0-.35-.77,1.31,1.31,0,0,0-.93-.33,1.34,1.34,0,0,0-.9.27.84.84,0,0,0-.31.66.71.71,0,0,0,.29.59,3.17,3.17,0,0,0,1.19.4,4.93,4.93,0,0,1,2,.79,1.67,1.67,0,0,1,.68,1.39,1.93,1.93,0,0,1-.81,1.6,3.41,3.41,0,0,1-2.13.62,3.25,3.25,0,0,1-2.24-.73,2.05,2.05,0,0,1-.78-1.67v0h1.52a1.09,1.09,0,0,0,.46.92,1.83,1.83,0,0,0,1,.29,1.65,1.65,0,0,0,1-.25A.77.77,0,0,0,152.15,76.62Z" transform="translate(-4.3 -3.56)"/><path class="cls-3" d="M160.45,74.9V78.6h-1.63V68.82h3.75a3.62,3.62,0,0,1,2.54.84,3.1,3.1,0,0,1,0,4.41,3.64,3.64,0,0,1-2.54.83Zm0-1.31h2.12a1.79,1.79,0,0,0,1.36-.48,1.72,1.72,0,0,0,.46-1.23,1.65,1.65,0,0,0-1.82-1.74h-2.12Z" transform="translate(-4.3 -3.56)"/><path class="cls-3" d="M171,72.81l-.7,0a1.46,1.46,0,0,0-.8.2,1.33,1.33,0,0,0-.49.57V78.6h-1.63V71.33h1.49l.11,1.06a2.33,2.33,0,0,1,.71-.87,1.66,1.66,0,0,1,1-.32l.28,0,.24.06Z" transform="translate(-4.3 -3.56)"/><path class="cls-3" d="M174,69.55h-1.63V68.12H174Zm0,9.05h-1.63V71.33H174Z" transform="translate(-4.3 -3.56)"/><path class="cls-3" d="M178.34,76.15l.12.59h0l.13-.59,1.44-4.81h1.69l-2.58,7.27h-1.42l-2.59-7.27h1.69Z" transform="translate(-4.3 -3.56)"/><path class="cls-3" d="M187.06,78.6c-.06-.18-.11-.36-.14-.54a3.73,3.73,0,0,1-.08-.52,2.8,2.8,0,0,1-.88.86,2.27,2.27,0,0,1-1.23.35,2.42,2.42,0,0,1-1.74-.58,2.12,2.12,0,0,1-.61-1.61,1.9,1.9,0,0,1,.83-1.64,4,4,0,0,1,2.35-.59h1.27v-.64a1.19,1.19,0,0,0-.33-.89,1.33,1.33,0,0,0-1-.32,1.37,1.37,0,0,0-.89.27.84.84,0,0,0-.33.69h-1.57v0a1.8,1.8,0,0,1,.77-1.53,3.26,3.26,0,0,1,2.13-.67,3.11,3.11,0,0,1,2,.64,2.27,2.27,0,0,1,.78,1.85v3.23a6,6,0,0,0,.06.86,4.63,4.63,0,0,0,.19.81Zm-2-1.17a2,2,0,0,0,1.11-.31,1.55,1.55,0,0,0,.66-.71V75.35h-1.3a1.64,1.64,0,0,0-1.12.35,1.07,1.07,0,0,0-.4.83.85.85,0,0,0,.27.66A1.13,1.13,0,0,0,185.07,77.44Z" transform="translate(-4.3 -3.56)"/><path class="cls-3" d="M192.26,69.57v1.77h1.3v1.21h-1.3v4a.87.87,0,0,0,.19.64.71.71,0,0,0,.52.19l.26,0,.24-.06.17,1.2a1.89,1.89,0,0,1-.49.18,2.69,2.69,0,0,1-.59.06,1.88,1.88,0,0,1-1.41-.53,2.3,2.3,0,0,1-.51-1.66v-4h-1.11V71.33h1.11V69.57Z" transform="translate(-4.3 -3.56)"/><path class="cls-3" d="M198,78.75a3.16,3.16,0,0,1-2.49-1,3.76,3.76,0,0,1-.9-2.6v-.27a3.89,3.89,0,0,1,.9-2.64,2.9,2.9,0,0,1,2.31-1,2.72,2.72,0,0,1,2.22.9,3.65,3.65,0,0,1,.75,2.42v.88h-4.5v0a2.39,2.39,0,0,0,.47,1.45,1.61,1.61,0,0,0,1.34.56,3.68,3.68,0,0,0,1.15-.16,3.33,3.33,0,0,0,.9-.46l.53,1.07a3.47,3.47,0,0,1-1.1.61A4.61,4.61,0,0,1,198,78.75Zm-.17-6.24a1.26,1.26,0,0,0-1,.46,2.28,2.28,0,0,0-.48,1.2v0h2.84v-.13a1.83,1.83,0,0,0-.33-1.13A1.2,1.2,0,0,0,197.79,72.51Z" transform="translate(-4.3 -3.56)"/><path class="cls-3" d="M207.31,77.3h4.58v1.3h-6.21V68.82h1.63Z" transform="translate(-4.3 -3.56)"/><path class="cls-3" d="M214.85,69.55h-1.63V68.12h1.63Zm0,9.05h-1.63V71.33h1.63Z" transform="translate(-4.3 -3.56)"/><path class="cls-3" d="M218.17,71.33l.09.95a2.46,2.46,0,0,1,.89-.8,2.63,2.63,0,0,1,1.24-.28,2.24,2.24,0,0,1,1.22.32,2,2,0,0,1,.77,1,2.55,2.55,0,0,1,.89-.95,2.39,2.39,0,0,1,1.29-.34,2.13,2.13,0,0,1,1.73.76,3.54,3.54,0,0,1,.63,2.31V78.6h-1.63V74.26a2.15,2.15,0,0,0-.32-1.34,1.17,1.17,0,0,0-1-.39,1.4,1.4,0,0,0-.89.28,1.57,1.57,0,0,0-.52.76c0,.07,0,.13,0,.17s0,.1,0,.14V78.6H221V74.26a2.11,2.11,0,0,0-.33-1.32,1.16,1.16,0,0,0-1-.4,1.72,1.72,0,0,0-.84.19,1.41,1.41,0,0,0-.55.54V78.6h-1.63V71.33Z" transform="translate(-4.3 -3.56)"/><path class="cls-3" d="M230.38,69.55h-1.63V68.12h1.63Zm0,9.05h-1.63V71.33h1.63Z" transform="translate(-4.3 -3.56)"/><path class="cls-3" d="M234.3,69.57v1.77h1.3v1.21h-1.3v4a.87.87,0,0,0,.19.64.71.71,0,0,0,.52.19l.26,0,.24-.06.17,1.2a1.89,1.89,0,0,1-.49.18,2.69,2.69,0,0,1-.59.06,1.88,1.88,0,0,1-1.41-.53,2.3,2.3,0,0,1-.51-1.66v-4h-1.11V71.33h1.11V69.57Z" transform="translate(-4.3 -3.56)"/><path class="cls-3" d="M240,78.75a3.16,3.16,0,0,1-2.49-1,3.76,3.76,0,0,1-.9-2.6v-.27a3.89,3.89,0,0,1,.9-2.64,2.9,2.9,0,0,1,2.31-1,2.72,2.72,0,0,1,2.22.9,3.65,3.65,0,0,1,.75,2.42v.88h-4.5v0a2.39,2.39,0,0,0,.47,1.45,1.61,1.61,0,0,0,1.34.56,3.68,3.68,0,0,0,1.15-.16,3.33,3.33,0,0,0,.9-.46l.53,1.07a3.47,3.47,0,0,1-1.1.61A4.61,4.61,0,0,1,240,78.75Zm-.17-6.24a1.26,1.26,0,0,0-1,.46,2.28,2.28,0,0,0-.48,1.2v0h2.84v-.13a1.83,1.83,0,0,0-.33-1.13A1.2,1.2,0,0,0,239.83,72.51Z" transform="translate(-4.3 -3.56)"/><path class="cls-3" d="M243.82,75.07a4.8,4.8,0,0,1,.75-2.81,2.41,2.41,0,0,1,2.1-1.06,2.29,2.29,0,0,1,1.06.24,2.4,2.4,0,0,1,.81.68v-4h1.63V78.6h-1.32l-.2-.92a2.41,2.41,0,0,1-.85.79,2.35,2.35,0,0,1-1.15.27,2.47,2.47,0,0,1-2.08-1,4.1,4.1,0,0,1-.75-2.56Zm1.63.14a2.93,2.93,0,0,0,.39,1.61,1.35,1.35,0,0,0,1.23.6,1.64,1.64,0,0,0,.88-.22,1.68,1.68,0,0,0,.59-.63V73.39a1.73,1.73,0,0,0-.59-.63,1.6,1.6,0,0,0-.86-.22,1.32,1.32,0,0,0-1.23.7,3.7,3.7,0,0,0-.4,1.83Z" transform="translate(-4.3 -3.56)"/><rect class="cls-2" x="226.72" y="37.68" width="15.48" height="3.33" rx="1.67" ry="1.67" transform="translate(17.35 141.78) rotate(-36)"/></svg>