<svg id="Layer_1" data-name="Layer 1" xmlns="http://www.w3.org/2000/svg" xmlns:xlink="http://www.w3.org/1999/xlink" viewBox="0 0 138 138"><defs><style>.cls-1{fill:#fff;}.cls-2{fill:#dc3627;}.cls-3{fill:#9b9b9b;}.cls-4{mask:url(#mask);}.cls-5{fill:#f05663;}</style><mask id="mask" x="0" y="0" width="138" height="138" maskUnits="userSpaceOnUse"><g transform="translate(-1.86 -1.86)"><g id="b"><path id="a" class="cls-1" d="M1.86,139.87h138V1.86H1.86Z"/></g></g></mask></defs><title>bangalore</title><path class="cls-1" d="M139.16,70.86a68.3,68.3,0,1,1-68.3-68.3A68.3,68.3,0,0,1,139.16,70.86Z" transform="translate(-1.86 -1.86)"/><path class="cls-2" d="M70.86,3.27a67.6,67.6,0,1,0,67.6,67.6,67.67,67.67,0,0,0-67.6-67.6m0,136.6a69,69,0,1,1,69-69,69.08,69.08,0,0,1-69,69" transform="translate(-1.86 -1.86)"/><path class="cls-2" d="M133.49,98.83H114.28a.7.7,0,0,1,0-1.4h19.21a.7.7,0,0,1,0,1.4m-105.93,0H8.86a.7.7,0,0,1,0-1.4h18.7a.7.7,0,0,1,0,1.4M96,74.09H74.7a.7.7,0,1,1,0-1.4H96a.7.7,0,0,1,0,1.4" transform="translate(-1.86 -1.86)"/><path class="cls-3" d="M96,77.57a.7.7,0,0,1-.7-.63,11,11,0,0,1,2.86-8.5.7.7,0,1,1,1,.95,9.56,9.56,0,0,0-2.5,7.42.7.7,0,0,1-.62.76H96" transform="translate(-1.86 -1.86)"/><path class="cls-2" d="M67.88,74.09H45.62a.7.7,0,0,1,0-1.4H67.88a.7.7,0,0,1,0,1.4" transform="translate(-1.86 -1.86)"/><path class="cls-3" d="M45.72,77.57h-.07A.7.7,0,0,1,45,76.8h0a9.56,9.56,0,0,0-2.49-7.42.7.7,0,0,1,1-.95,11,11,0,0,1,2.86,8.5.7.7,0,0,1-.7.63M47,114.71a.7.7,0,0,1-.7-.7h0V91.89a.7.7,0,1,1,1.4,0V114a.7.7,0,0,1-.7.7h0m2.9,0a.7.7,0,0,1-.7-.7h0V91.89a.7.7,0,0,1,1.4,0V114a.7.7,0,0,1-.7.7h0m4.55,0a.7.7,0,0,1-.7-.7h0V91.89a.7.7,0,0,1,1.4,0V114a.7.7,0,0,1-.7.7h0m2.9,0a.7.7,0,0,1-.7-.7h0V91.89a.7.7,0,0,1,1.4,0V114a.7.7,0,0,1-.7.7h0m4.56,0a.7.7,0,0,1-.7-.7h0V91.89a.7.7,0,0,1,1.4,0V114a.7.7,0,0,1-.7.7h0m2.9,0a.7.7,0,0,1-.7-.7h0V91.89a.7.7,0,0,1,1.4,0V114a.7.7,0,0,1-.7.7h0m4.55,0a.7.7,0,0,1-.7-.7h0V91.89a.7.7,0,0,1,1.4,0V114a.7.7,0,0,1-.7.7h0m2.9,0a.7.7,0,0,1-.7-.7h0V91.89a.7.7,0,0,1,1.4,0V114a.7.7,0,0,1-.7.7h0m4.56,0a.7.7,0,0,1-.7-.7h0V91.89a.7.7,0,0,1,1.4,0h0V114a.7.7,0,0,1-.7.7h0m2.9,0a.7.7,0,0,1-.7-.7h0V91.89a.7.7,0,0,1,1.4,0V114a.7.7,0,0,1-.7.7h0m4.55,0a.7.7,0,0,1-.7-.7h0V91.89a.7.7,0,0,1,1.4,0V114a.7.7,0,0,1-.7.7h0m2.9,0a.7.7,0,0,1-.7-.7h0V91.89a.7.7,0,1,1,1.4,0V114a.7.7,0,0,1-.7.7h0m4.56,0a.7.7,0,0,1-.7-.7h0V91.89a.7.7,0,0,1,1.4,0h0V114a.7.7,0,0,1-.7.7h0m2.9,0a.7.7,0,0,1-.7-.7h0V91.89a.7.7,0,0,1,1.4,0V114a.7.7,0,0,1-.7.7h0" transform="translate(-1.86 -1.86)"/><path class="cls-3" d="M45.93,92.43a.7.7,0,0,1-.7-.7V85.29a.7.7,0,1,1,1.4,0v6.45a.7.7,0,0,1-.7.7m4.83,0a.7.7,0,0,1-.7-.7h0v-6.3a.7.7,0,1,1,1.4,0h0v6.3a.7.7,0,0,1-.7.7" transform="translate(-1.86 -1.86)"/><path class="cls-3" d="M47,92.59h-1a.7.7,0,0,1,0-1.4h1a.7.7,0,0,1,0,1.4m3.8,0h-.9a.7.7,0,1,1,0-1.4h.9a.7.7,0,0,1,0,1.4m2.43-.15a.7.7,0,0,1-.7-.7V85.29a.7.7,0,1,1,1.4,0v6.45a.7.7,0,0,1-.7.7m5.09,0a.7.7,0,0,1-.7-.7v-6.3a.7.7,0,0,1,1.4,0v6.3a.7.7,0,0,1-.7.7" transform="translate(-1.86 -1.86)"/><path class="cls-3" d="M54.23,92.59h-1a.7.7,0,0,1,0-1.4h1a.7.7,0,0,1,0,1.4m4,0h-.89a.7.7,0,1,1,0-1.4h.9a.7.7,0,1,1,0,1.4h0m2.35-.15a.7.7,0,0,1-.7-.7V85.29a.7.7,0,1,1,1.4,0v6.45a.7.7,0,0,1-.7.7m5.17,0a.7.7,0,0,1-.7-.7h0v-6.3a.7.7,0,1,1,1.4,0h0v6.3a.7.7,0,0,1-.7.7" transform="translate(-1.86 -1.86)"/><path class="cls-3" d="M61.67,92.59h-1a.7.7,0,0,1,0-1.4h1a.7.7,0,0,1,0,1.4m4.13,0h-.9a.7.7,0,0,1,0-1.4h.9a.7.7,0,0,1,0,1.4m2.51-.15a.7.7,0,0,1-.7-.7V85.29a.7.7,0,1,1,1.4,0v6.45a.7.7,0,0,1-.7.7m5,0a.7.7,0,0,1-.7-.7h0v-6.3a.7.7,0,1,1,1.4,0h0v6.3a.7.7,0,0,1-.7.7" transform="translate(-1.86 -1.86)"/><path class="cls-3" d="M69.35,92.59h-1a.7.7,0,0,1,0-1.4h1a.7.7,0,0,1,0,1.4m4,0h-.9a.7.7,0,0,1,0-1.4h.9a.7.7,0,0,1,0,1.4m2.38-.15a.7.7,0,0,1-.7-.7h0V85.29a.7.7,0,0,1,1.4,0v6.45a.7.7,0,0,1-.7.7m4.83,0a.7.7,0,0,1-.7-.7v-6.3a.7.7,0,0,1,1.4,0v6.3a.7.7,0,0,1-.7.7" transform="translate(-1.86 -1.86)"/><path class="cls-3" d="M76.74,92.59h-1a.7.7,0,0,1,0-1.4h1a.7.7,0,1,1,0,1.4h0m3.8,0h-.89a.7.7,0,1,1,0-1.4h.9a.7.7,0,1,1,0,1.4h0m2.69-.15a.7.7,0,0,1-.7-.7V85.29a.7.7,0,1,1,1.4,0v6.45a.7.7,0,0,1-.7.7m4.83,0a.7.7,0,0,1-.7-.7h0v-6.3a.7.7,0,0,1,1.4,0v6.3a.7.7,0,0,1-.7.7" transform="translate(-1.86 -1.86)"/><path class="cls-3" d="M84.26,92.59h-1a.7.7,0,0,1,0-1.4h1a.7.7,0,0,1,0,1.4m3.8,0h-.9a.7.7,0,0,1,0-1.4h.9a.7.7,0,0,1,0,1.4m2.6-.15a.7.7,0,0,1-.7-.7h0V85.29a.7.7,0,0,1,1.4,0v6.45a.7.7,0,0,1-.7.7m4.83,0a.7.7,0,0,1-.7-.7v-6.3a.7.7,0,1,1,1.4,0v6.3a.7.7,0,0,1-.7.7" transform="translate(-1.86 -1.86)"/><path class="cls-3" d="M91.69,92.59h-1a.7.7,0,0,1,0-1.4h1a.7.7,0,0,1,0,1.4h0m3.8,0h-.89a.7.7,0,0,1,0-1.4h.9a.7.7,0,0,1,0,1.4h0" transform="translate(-1.86 -1.86)"/><path class="cls-2" d="M52.34,73.72a.7.7,0,0,1-.7-.7v-8.6a.7.7,0,1,1,1.4,0h0V73a.7.7,0,0,1-.7.7m37.11.37a.7.7,0,0,1-.7-.7v-9a.7.7,0,1,1,1.4,0v9a.7.7,0,0,1-.7.7m11.48,9.4H41.14a.7.7,0,0,1,0-1.4h59.79a.7.7,0,0,1,0,1.4" transform="translate(-1.86 -1.86)"/><path class="cls-3" d="M67.48,52a.7.7,0,0,1-.69-.61,5.17,5.17,0,0,1,1.16-4,4,4,0,0,1,6.36-.1,5.15,5.15,0,0,1,1.3,4.12.7.7,0,0,1-1.39-.17,3.75,3.75,0,0,0-.94-3,2.91,2.91,0,0,0-2.2-1A3,3,0,0,0,69,48.29a3.78,3.78,0,0,0-.84,2.93.7.7,0,0,1-.6.79h-.1" transform="translate(-1.86 -1.86)"/><path class="cls-2" d="M91.52,64.69h-41a.7.7,0,0,1-.7-.7h0a.7.7,0,0,1,.7-.7h41a.7.7,0,0,1,0,1.4h0" transform="translate(-1.86 -1.86)"/><g class="cls-4"><path class="cls-2" d="M49.95,61.13H92.37V59.77H49.95Zm-1.4,1.4H93.77V58.37H48.55Z" transform="translate(-1.86 -1.86)"/></g><g class="cls-4"><path class="cls-2" d="M50.54,64.69a.7.7,0,0,1-.7-.7h0V61.83a.7.7,0,1,1,1.4,0V64a.7.7,0,0,1-.7.7h0" transform="translate(-1.86 -1.86)"/></g><g class="cls-4"><path class="cls-2" d="M91.52,64.69a.7.7,0,0,1-.7-.7h0V61.83a.7.7,0,1,1,1.4,0V64a.7.7,0,0,1-.7.7h0" transform="translate(-1.86 -1.86)"/></g><g class="cls-4"><path class="cls-2" d="M56.11,70.89a.7.7,0,0,1-.7-.7V66.45a.7.7,0,0,1,1.4,0v3.74a.7.7,0,0,1-.7.7" transform="translate(-1.86 -1.86)"/></g><g class="cls-4"><path class="cls-2" d="M59,70.89a.7.7,0,0,1-.7-.7V66.45a.7.7,0,0,1,1.4,0v3.74a.7.7,0,0,1-.7.7" transform="translate(-1.86 -1.86)"/></g><g class="cls-4"><path class="cls-2" d="M62,70.89a.7.7,0,0,1-.7-.7V66.45a.7.7,0,0,1,1.4,0v3.74a.7.7,0,0,1-.7.7" transform="translate(-1.86 -1.86)"/></g><g class="cls-4"><path class="cls-2" d="M64.91,70.89a.7.7,0,0,1-.7-.7V66.45a.7.7,0,0,1,1.4,0v3.74a.7.7,0,0,1-.7.7" transform="translate(-1.86 -1.86)"/></g><g class="cls-4"><path class="cls-2" d="M67.84,70.89a.7.7,0,0,1-.7-.7V66.45a.7.7,0,0,1,1.4,0v3.74a.7.7,0,0,1-.7.7" transform="translate(-1.86 -1.86)"/></g><g class="cls-4"><path class="cls-2" d="M70.77,70.89a.7.7,0,0,1-.7-.7V66.45a.7.7,0,0,1,1.4,0v3.74a.7.7,0,0,1-.7.7" transform="translate(-1.86 -1.86)"/></g><g class="cls-4"><path class="cls-2" d="M73.71,70.89a.7.7,0,0,1-.7-.7V66.45a.7.7,0,0,1,1.4,0v3.74a.7.7,0,0,1-.7.7" transform="translate(-1.86 -1.86)"/></g><g class="cls-4"><path class="cls-2" d="M76.64,70.89a.7.7,0,0,1-.7-.7V66.45a.7.7,0,0,1,1.4,0v3.74a.7.7,0,0,1-.7.7" transform="translate(-1.86 -1.86)"/></g><g class="cls-4"><path class="cls-2" d="M79.57,70.89a.7.7,0,0,1-.7-.7V66.45a.7.7,0,0,1,1.4,0v3.74a.7.7,0,0,1-.7.7" transform="translate(-1.86 -1.86)"/></g><g class="cls-4"><path class="cls-2" d="M82.5,70.89a.7.7,0,0,1-.7-.7V66.45a.7.7,0,0,1,1.4,0v3.74a.7.7,0,0,1-.7.7" transform="translate(-1.86 -1.86)"/></g><g class="cls-4"><path class="cls-2" d="M85.44,70.89a.7.7,0,0,1-.7-.7V66.45a.7.7,0,0,1,1.4,0v3.74a.7.7,0,0,1-.7.7" transform="translate(-1.86 -1.86)"/></g><g class="cls-4"><path class="cls-2" d="M55.14,59.77a.7.7,0,0,1-.7-.7V53.76a.7.7,0,1,1,1.4,0v5.32a.7.7,0,0,1-.7.7h0" transform="translate(-1.86 -1.86)"/></g><g class="cls-4"><path class="cls-2" d="M86.95,59.77a.7.7,0,0,1-.7-.7V53.76a.7.7,0,1,1,1.4,0h0v5.32a.7.7,0,0,1-.7.7" transform="translate(-1.86 -1.86)"/></g><g class="cls-4"><path class="cls-2" d="M89.45,52.21H53a.7.7,0,0,1-.09-1.4H89.45a.7.7,0,0,1,0,1.4" transform="translate(-1.86 -1.86)"/></g><g class="cls-4"><path class="cls-2" d="M86.95,54.45a.7.7,0,0,1-.47-1.22L89,51a.7.7,0,0,1,.94,1l-2.5,2.24a.7.7,0,0,1-.47.18" transform="translate(-1.86 -1.86)"/></g><g class="cls-4"><path class="cls-2" d="M86.95,54.45H55.14a.7.7,0,0,1,0-1.4h31.8a.7.7,0,0,1,0,1.4" transform="translate(-1.86 -1.86)"/></g><g class="cls-4"><path class="cls-2" d="M66.43,33.11h9.51V28.47H66.43ZM65,34.5H77.34V27.07H65Z" transform="translate(-1.86 -1.86)"/></g><g class="cls-4"><path class="cls-2" d="M68.49,27.07h5.38v-.59H68.49Zm-1.4,1.4h8.18V25.08H67.09v3.39Z" transform="translate(-1.86 -1.86)"/></g><g class="cls-4"><path class="cls-2" d="M72.89,26.48a.7.7,0,0,1-.69-.81L73,20.33a.7.7,0,0,1,1.39.21l-.82,5.34a.7.7,0,0,1-.69.59" transform="translate(-1.86 -1.86)"/></g><g class="cls-4"><path class="cls-2" d="M69.43,26.48a.7.7,0,0,1-.68-.55l-1.12-5.16a.7.7,0,0,1,.54-.83.7.7,0,0,1,.83.53h0l1.12,5.17a.7.7,0,0,1-.54.83l-.15,0" transform="translate(-1.86 -1.86)"/></g><g class="cls-4"><path class="cls-2" d="M71,24.66a.7.7,0,0,1-.7-.7V21.49a.7.7,0,0,1,1.4,0V24a.7.7,0,0,1-.7.7" transform="translate(-1.86 -1.86)"/></g><g class="cls-4"><path class="cls-2" d="M68.42,17.6a1,1,0,1,0,1,1.05,1,1,0,0,0-1-1.05h0m0,3.49a2.45,2.45,0,1,1,2.3-2.3,2.45,2.45,0,0,1-2.3,2.3" transform="translate(-1.86 -1.86)"/></g><g class="cls-4"><path class="cls-2" d="M71.43,17.87a.68.68,0,1,0,0,1.35h0a.68.68,0,0,0,0-1.35m0,2.75a2,2,0,1,1,2.08-2.08,2.08,2.08,0,0,1-2.08,2.08" transform="translate(-1.86 -1.86)"/></g><g class="cls-4"><path class="cls-2" d="M74.36,17.6a1,1,0,0,0-.11,2.09h.11a1,1,0,0,0,0-2.09m0,3.49a2.45,2.45,0,1,1,2.45-2.45h0a2.45,2.45,0,0,1-2.45,2.45" transform="translate(-1.86 -1.86)"/></g><g class="cls-4"><path class="cls-2" d="M54.08,52a.7.7,0,0,1-.69-.58c-.76-4.29,1.1-8.82,5.36-13.09a34.33,34.33,0,0,1,6.63-5.15.7.7,0,0,1,.69,1.22c-.13.07-12.95,7.46-11.3,16.77a.7.7,0,0,1-.58.81h-.11" transform="translate(-1.86 -1.86)"/></g><g class="cls-4"><path class="cls-2" d="M88.44,52h0a.7.7,0,0,1-.69-.71h0C88,40,76.46,34.49,76.34,34.44a.7.7,0,1,1,.59-1.27c.12.06,12.45,5.91,12.21,18.15a.7.7,0,0,1-.7.69" transform="translate(-1.86 -1.86)"/></g><g class="cls-4"><path class="cls-2" d="M55.14,54.45a.68.68,0,0,1-.51-.22L52.42,51.9l0-.12c-1.16-2.81-.09-8.06,0-8.29l.43-2L55,46.19a.7.7,0,0,1-1.25.64l0,0L53.36,46a12.53,12.53,0,0,0,.25,5.11l2,2.14a.7.7,0,0,1-.51,1.18" transform="translate(-1.86 -1.86)"/></g><g class="cls-4"><path class="cls-2" d="M87.25,54.45a.7.7,0,0,1-.51-1.18l2.05-2.16c.56-1.24.48-3.42.26-5.16l-.39.83a.7.7,0,0,1-1.27-.6l2.21-4.68.45,2c.05.23,1.27,5.69-.06,8.35l-.12.17-2.13,2.24a.7.7,0,0,1-.51.22" transform="translate(-1.86 -1.86)"/></g><g class="cls-4"><path class="cls-2" d="M80.3,37.11H62a.7.7,0,0,1,0-1.4H80.3a.7.7,0,0,1,0,1.4" transform="translate(-1.86 -1.86)"/></g><g class="cls-4"><path class="cls-2" d="M82.94,39.09H59.82a.7.7,0,0,1-.09-1.4h23.2a.7.7,0,0,1,0,1.4" transform="translate(-1.86 -1.86)"/></g><g class="cls-4"><path class="cls-2" d="M97.47,85.9H44.42a.7.7,0,0,1,0-1.4H97.47a.7.7,0,0,1,0,1.4h0" transform="translate(-1.86 -1.86)"/></g><g class="cls-4"><path class="cls-2" d="M97.47,85.9a.7.7,0,0,1-.7-.7h0V82.79a.7.7,0,0,1,1.4,0V85.2a.7.7,0,0,1-.7.7" transform="translate(-1.86 -1.86)"/></g><g class="cls-4"><path class="cls-2" d="M44.42,85.9a.7.7,0,0,1-.7-.7V82.79a.7.7,0,0,1,1.4,0V85.2a.7.7,0,0,1-.7.7" transform="translate(-1.86 -1.86)"/></g><g class="cls-4"><path class="cls-2" d="M97.47,117.48a.7.7,0,0,1-.7-.7h0V115c-8.68.1-17.47.16-26.18.15C62.1,115.1,53.51,115,45,115v1.82a.7.7,0,1,1-1.4,0h0v-3.24h.71c8.7.1,17.53.15,26.25.15q13.44,0,26.87-.15h.71v3.24a.7.7,0,0,1-.7.7" transform="translate(-1.86 -1.86)"/></g><g class="cls-4"><path class="cls-2" d="M101.47,120a.7.7,0,0,1-.7-.7h0v-1.82c-10,.1-20.24.13-30.23.15-9.77,0-19.7,0-29.52-.15v1.82a.7.7,0,1,1-1.4,0v-3.24h.71c10,.1,20.21.15,30.21.15,10.25,0,20.64-.05,30.92-.15h.71v3.24a.7.7,0,0,1-.7.7" transform="translate(-1.86 -1.86)"/></g><g class="cls-4"><path class="cls-2" d="M104.59,123a.7.7,0,0,1-.7-.7h0v-1.82c-11.1.1-22.32.16-33.38.15q-16.3,0-32.59-.15v1.82a.7.7,0,1,1-1.4,0h0V119.1h.71q33.68.31,67.36,0h.71v3.23a.7.7,0,0,1-.7.7" transform="translate(-1.86 -1.86)"/></g><g class="cls-4"><path class="cls-2" d="M106.5,126.68a.7.7,0,0,1-.7-.7v-2.31c-11.6.12-23.35.18-34.94.18h-.38c-11.46,0-23.05-.06-34.48-.18V126a.7.7,0,1,1-1.4,0v-3.73h.71q35.59.37,71.18,0h.71V126a.7.7,0,0,1-.7.7" transform="translate(-1.86 -1.86)"/></g><g class="cls-4"><path class="cls-2" d="M31.84,126.92a.7.7,0,0,1,0-1.4c25.78-.18,52.07-.18,78.14,0a.7.7,0,1,1,0,1.4h0c-26.06-.18-52.35-.18-78.12,0Z" transform="translate(-1.86 -1.86)"/></g><g class="cls-4"><path class="cls-3" d="M96.88,68.2h16l-.34-.53H97.26Zm18.63,1.4H94.15l2.39-3.33h16.78Z" transform="translate(-1.86 -1.86)"/></g><g class="cls-4"><path class="cls-3" d="M111.68,67.15a.7.7,0,0,1-.63-1,5.56,5.56,0,0,0,.33-4.39c-1.17-3.41-5.28-5.85-6.49-6.5-3.76,2.33-5.95,4.83-6.33,7.25A4.55,4.55,0,0,0,99.38,66a.7.7,0,0,1-1.06.92,6,6,0,0,1-1.15-4.63c.47-3,2.93-5.79,7.32-8.44l.33-.2.34.17c.24.12,6,2.94,7.53,7.48a6.92,6.92,0,0,1-.39,5.46.7.7,0,0,1-.63.39" transform="translate(-1.86 -1.86)"/></g><g class="cls-4"><path class="cls-3" d="M112.94,67.68a.7.7,0,0,1-.55-1.14c.65-.81.73-2.73.59-4.52a.7.7,0,0,1-1.25-.63l1.84-4.31.44,2.21c.12.61,1.15,6-.54,8.14a.7.7,0,0,1-.55.26" transform="translate(-1.86 -1.86)"/></g><g class="cls-4"><path class="cls-3" d="M96.9,67.68a.7.7,0,0,1-.61-.35c-1.42-2.46-.58-7.79-.55-8L96,57.56l2.63,3.88a.7.7,0,0,1-1.16.79l-.57-.84c-.12,1.76-.1,4.07.58,5.24a.7.7,0,0,1-.61,1" transform="translate(-1.86 -1.86)"/></g><g class="cls-4"><path class="cls-3" d="M108.24,67.62h-.09a.7.7,0,0,1-.6-.79,3.25,3.25,0,0,0-.73-2.57,2,2,0,0,0-1.38-.76h0a2,2,0,0,0-1.4.75,3.25,3.25,0,0,0-.75,2.58.7.7,0,0,1-.6.78h0a.7.7,0,0,1-.78-.6h0A4.64,4.64,0,0,1,103,63.33a3.35,3.35,0,0,1,2.44-1.23h0a3.35,3.35,0,0,1,2.43,1.24A4.66,4.66,0,0,1,108.93,67a.7.7,0,0,1-.7.61" transform="translate(-1.86 -1.86)"/></g><g class="cls-4"><path class="cls-3" d="M116.84,78H98.08a.7.7,0,0,1,0-1.4h18.77a.7.7,0,0,1,0,1.4" transform="translate(-1.86 -1.86)"/></g><g class="cls-4"><path class="cls-3" d="M117.79,79.65H99.06a.7.7,0,0,1,0-1.4h18.73a.7.7,0,1,1,0,1.4h0" transform="translate(-1.86 -1.86)"/></g><g class="cls-4"><path class="cls-3" d="M114.16,83.49a.7.7,0,0,1-.7-.7V78.95a.7.7,0,0,1,1.4,0v3.84a.7.7,0,0,1-.7.7" transform="translate(-1.86 -1.86)"/></g><g class="cls-4"><path class="cls-3" d="M114.16,83.49H100.92a.7.7,0,0,1,0-1.4h13.24a.7.7,0,0,1,0,1.4h0" transform="translate(-1.86 -1.86)"/></g><g class="cls-4"><path class="cls-3" d="M114.16,124.11a.7.7,0,0,1-.7-.7V82.79a.7.7,0,1,1,1.4,0v40.62a.7.7,0,0,1-.7.7" transform="translate(-1.86 -1.86)"/></g><g class="cls-4"><path class="cls-3" d="M114.21,77.62a.7.7,0,0,1-.7-.78,9.84,9.84,0,0,0-.38-4.08,9.68,9.68,0,0,0-1.88-3.41.7.7,0,1,1,1.07-.91A11.1,11.1,0,0,1,114.9,77a.7.7,0,0,1-.7.62" transform="translate(-1.86 -1.86)"/></g><g class="cls-4"><path class="cls-3" d="M117.79,79.65a.7.7,0,0,1-.61-.36l-.95-1.68a.7.7,0,0,1,1.22-.69l.95,1.68a.7.7,0,0,1-.61,1" transform="translate(-1.86 -1.86)"/></g><g class="cls-4"><path class="cls-3" d="M102.4,100.67h5.46V94.14H102.4Zm-1.4,1.4h8.26V92.74H101Z" transform="translate(-1.86 -1.86)"/></g><g class="cls-4"><path class="cls-3" d="M108.77,92.2h-7.5a.7.7,0,0,1,0-1.4h7.5a.7.7,0,0,1,0,1.4" transform="translate(-1.86 -1.86)"/></g><g class="cls-4"><path class="cls-3" d="M110,94.14a.7.7,0,0,1-.6-.33l-1.21-1.94a.7.7,0,0,1,1.19-.74h0l1.21,1.94a.7.7,0,0,1-.59,1.07" transform="translate(-1.86 -1.86)"/></g><g class="cls-4"><path class="cls-3" d="M100.25,94.12a.66.66,0,0,1-.33-.08.7.7,0,0,1-.3-.94h0l1-1.92a.7.7,0,0,1,1.24.65l-1,1.92a.7.7,0,0,1-.62.38" transform="translate(-1.86 -1.86)"/></g><g class="cls-4"><path class="cls-3" d="M110,94.14h-1.42a.7.7,0,0,1,0-1.4H110a.7.7,0,0,1,0,1.4" transform="translate(-1.86 -1.86)"/></g><g class="cls-4"><path class="cls-3" d="M101.7,94.14h-1.45a.7.7,0,0,1,0-1.4h1.45a.7.7,0,0,1,0,1.4" transform="translate(-1.86 -1.86)"/></g><g class="cls-4"><path class="cls-3" d="M102.27,90.6h5.37v-.09h-5.37Zm-1.4,1.4H109V89.11h-8.17Z" transform="translate(-1.86 -1.86)"/></g><g class="cls-4"><path class="cls-3" d="M103.5,90.34a.69.69,0,0,1-.62-.39c-.42-.85-.59-2.91,1.73-4.6l.37-.27.39.23c1,.57,2.67,2.24,2,4.44a.7.7,0,0,1-1.34-.43,2.37,2.37,0,0,0-1-2.53c-1.42,1.26-1,2.42-.9,2.56a.71.71,0,0,1-.34.93.75.75,0,0,1-.3.07" transform="translate(-1.86 -1.86)"/></g><g class="cls-4"><path class="cls-3" d="M108.38,98.11h-6.58a.7.7,0,0,1,0-1.4h6.58a.7.7,0,0,1,0,1.4h0" transform="translate(-1.86 -1.86)"/></g><g class="cls-4"><path class="cls-3" d="M105.32,108.81a.87.87,0,1,0,0,1.73h0a.87.87,0,0,0,0-1.73m0,3.14a2.27,2.27,0,1,1,2.27-2.27h0a2.27,2.27,0,0,1-2.27,2.27" transform="translate(-1.86 -1.86)"/></g><g class="cls-4"><path class="cls-2" d="M44.26,85.9a.7.7,0,0,1-.7-.7V82.79a.7.7,0,0,1,1.4,0V85.2a.7.7,0,0,1-.7.7" transform="translate(-1.86 -1.86)"/></g><g class="cls-4"><path class="cls-3" d="M28.82,68.2h16l-.38-.53H29.16Zm18.76,1.4H26.22l2.19-3.33H45.2l2.38,3.33Z" transform="translate(-1.86 -1.86)"/></g><g class="cls-4"><path class="cls-3" d="M30.05,67.15a.7.7,0,0,1-.63-.39A6.9,6.9,0,0,1,29,61.3c1.56-4.54,7.29-7.36,7.53-7.48l.34-.17.33.2c4.39,2.64,6.85,5.48,7.32,8.44a6,6,0,0,1-1.15,4.63A.7.7,0,0,1,42.35,66a4.55,4.55,0,0,0,.82-3.53c-.4-2.41-2.58-4.9-6.32-7.22-1.2.65-5.32,3.1-6.49,6.51a5.56,5.56,0,0,0,.33,4.39.7.7,0,0,1-.63,1" transform="translate(-1.86 -1.86)"/></g><g class="cls-4"><path class="cls-3" d="M28.79,67.68a.7.7,0,0,1-.55-.26c-1.69-2.12-.66-7.53-.54-8.14l.44-2.21L30,61.38a.7.7,0,0,1-1.25.63c-.14,1.8-.05,3.71.6,4.52a.7.7,0,0,1-.55,1.14" transform="translate(-1.86 -1.86)"/></g><g class="cls-4"><path class="cls-3" d="M44.83,67.68a.73.73,0,0,1-.35-.09.7.7,0,0,1-.26-1c.68-1.17.7-3.48.58-5.24l-.57.84a.7.7,0,0,1-1.16-.79l2.63-3.88L46,59.31c0,.23.87,5.56-.54,8a.7.7,0,0,1-.61.35" transform="translate(-1.86 -1.86)"/></g><g class="cls-4"><path class="cls-3" d="M33.49,67.62a.7.7,0,0,1-.7-.61,4.66,4.66,0,0,1,1.07-3.67,3.35,3.35,0,0,1,2.43-1.24h0a3.35,3.35,0,0,1,2.44,1.23A4.64,4.64,0,0,1,39.85,67a.7.7,0,0,1-1.39-.18,3.25,3.25,0,0,0-.75-2.58,2.07,2.07,0,0,0-1.4-.75,2,2,0,0,0-1.38.76,3.25,3.25,0,0,0-.73,2.57.7.7,0,0,1-.6.79h-.09" transform="translate(-1.86 -1.86)"/></g><g class="cls-4"><path class="cls-3" d="M44.42,78H24.89a.7.7,0,0,1,0-1.4H44.42a.7.7,0,0,1,0,1.4" transform="translate(-1.86 -1.86)"/></g><g class="cls-4"><path class="cls-3" d="M43.42,79.65H23.94a.7.7,0,0,1,0-1.4H43.42a.7.7,0,0,1,0,1.4h0" transform="translate(-1.86 -1.86)"/></g><g class="cls-4"><path class="cls-3" d="M27.57,83.49a.7.7,0,0,1-.7-.7V78.95a.7.7,0,0,1,1.4,0v3.84a.7.7,0,0,1-.7.7" transform="translate(-1.86 -1.86)"/></g><g class="cls-4"><path class="cls-3" d="M40.81,83.49H27.56a.7.7,0,0,1,0-1.4H40.81a.7.7,0,0,1,0,1.4h0" transform="translate(-1.86 -1.86)"/></g><g class="cls-4"><path class="cls-3" d="M27.57,124.71a.7.7,0,0,1-.7-.7h0V82.79a.7.7,0,0,1,1.4,0V124a.7.7,0,0,1-.7.7" transform="translate(-1.86 -1.86)"/></g><g class="cls-4"><path class="cls-3" d="M27.52,77.62a.7.7,0,0,1-.7-.62,11.24,11.24,0,0,1,.43-4.66,11.05,11.05,0,0,1,2.15-3.89.7.7,0,0,1,1-.08h0a.7.7,0,0,1,.08,1,9.61,9.61,0,0,0-1.88,3.41,9.83,9.83,0,0,0-.38,4.08.7.7,0,0,1-.61.78h-.08" transform="translate(-1.86 -1.86)"/></g><g class="cls-4"><path class="cls-3" d="M23.94,79.65a.7.7,0,0,1-.61-1l.95-1.68a.7.7,0,1,1,1.22.69l-.95,1.68a.7.7,0,0,1-.61.36" transform="translate(-1.86 -1.86)"/></g><g class="cls-4"><path class="cls-3" d="M33.87,100.67h5.46V94.14H33.87Zm-1.4,1.4h8.26V92.74H32.47Z" transform="translate(-1.86 -1.86)"/></g><g class="cls-4"><path class="cls-3" d="M40.46,92.2H33a.7.7,0,1,1-.09-1.4h7.59a.7.7,0,1,1,.09,1.4h-.09" transform="translate(-1.86 -1.86)"/></g><g class="cls-4"><path class="cls-3" d="M31.75,94.14a.7.7,0,0,1-.59-1.07l1.21-1.94a.7.7,0,1,1,1.19.74l-1.21,1.94a.7.7,0,0,1-.6.33" transform="translate(-1.86 -1.86)"/></g><g class="cls-4"><path class="cls-3" d="M41.48,94.12a.7.7,0,0,1-.62-.38l-1-1.92a.7.7,0,0,1,1.24-.65l1,1.92a.7.7,0,0,1-.62,1" transform="translate(-1.86 -1.86)"/></g><g class="cls-4"><path class="cls-3" d="M33.17,94.14H31.75a.7.7,0,0,1,0-1.4h1.42a.7.7,0,0,1,0,1.4" transform="translate(-1.86 -1.86)"/></g><g class="cls-4"><path class="cls-3" d="M41.48,94.14H40a.7.7,0,0,1,0-1.4h1.45a.7.7,0,0,1,0,1.4" transform="translate(-1.86 -1.86)"/></g><g class="cls-4"><path class="cls-3" d="M34.09,90.6h5.37v-.09H34.09ZM32.69,92h8.17V89.11H32.69Z" transform="translate(-1.86 -1.86)"/></g><g class="cls-4"><path class="cls-3" d="M38.22,90.35a.7.7,0,0,1-.63-1c.06-.14.52-1.3-.9-2.55a2.37,2.37,0,0,0-1,2.53.7.7,0,1,1-1.34.42c-.7-2.19,1-3.86,2-4.44l.39-.23.37.27C39.44,87,39.27,89.1,38.85,90a.71.71,0,0,1-.63.39" transform="translate(-1.86 -1.86)"/></g><g class="cls-4"><path class="cls-3" d="M39.92,98.11H33.35a.7.7,0,0,1,0-1.4h6.58a.7.7,0,0,1,0,1.4" transform="translate(-1.86 -1.86)"/></g><g class="cls-4"><path class="cls-3" d="M36.41,108.81a.87.87,0,1,0,.87.87.87.87,0,0,0-.87-.87m0,3.14a2.27,2.27,0,1,1,2.19-2.19,2.27,2.27,0,0,1-2.19,2.19" transform="translate(-1.86 -1.86)"/></g><g class="cls-4"><path class="cls-3" d="M41.06,58.46H32.23a.7.7,0,0,1,0-1.4h8.83a.7.7,0,0,1,0,1.4" transform="translate(-1.86 -1.86)"/></g><g class="cls-4"><path class="cls-3" d="M109.3,58.26h-8.5a.7.7,0,0,1,0-1.4h8.5a.7.7,0,0,1,0,1.4h0" transform="translate(-1.86 -1.86)"/></g><g class="cls-4"><path class="cls-3" d="M104.86,55.14a.7.7,0,0,1-.7-.7V52.64a.7.7,0,1,1,1.4,0h0v1.81a.7.7,0,0,1-.7.7" transform="translate(-1.86 -1.86)"/></g><g class="cls-4"><path class="cls-3" d="M36.87,55.14a.7.7,0,0,1-.7-.7v-2.1a.7.7,0,0,1,1.4,0v2.1a.7.7,0,0,1-.7.7" transform="translate(-1.86 -1.86)"/></g><g class="cls-4"><path class="cls-3" d="M114.89,19.35H95a.7.7,0,1,1,0-1.4h19.85a.7.7,0,1,1,0,1.4" transform="translate(-1.86 -1.86)"/></g><g class="cls-4"><path class="cls-2" d="M128.58,35h-13.7a.7.7,0,1,1,0-1.4h13.7a.7.7,0,1,1,0,1.4" transform="translate(-1.86 -1.86)"/></g><g class="cls-4"><path class="cls-3" d="M97.32,29.48H89.93a.7.7,0,0,1,0-1.4h7.39a.7.7,0,0,1,0,1.4" transform="translate(-1.86 -1.86)"/></g><g class="cls-4"><path class="cls-3" d="M49.25,17.6H29.94a.7.7,0,0,1,0-1.4H49.25a.7.7,0,1,1,0,1.4h0" transform="translate(-1.86 -1.86)"/></g><g class="cls-4"><path class="cls-2" d="M23.94,27.47H19.79a.7.7,0,1,1-.09-1.4h4.24a.7.7,0,0,1,0,1.4" transform="translate(-1.86 -1.86)"/></g><g class="cls-4"><path class="cls-3" d="M33.17,34.5H24.89a.7.7,0,0,1,0-1.4h8.28a.7.7,0,0,1,0,1.4" transform="translate(-1.86 -1.86)"/></g><g class="cls-4"><path class="cls-2" d="M100.92,83.49a.7.7,0,0,1-.62-.38l-2.85-5.52a.7.7,0,0,1,.3-.94h0a.7.7,0,0,1,.94.3h0l2.85,5.52a.7.7,0,0,1-.62,1" transform="translate(-1.86 -1.86)"/></g><g class="cls-4"><path class="cls-2" d="M41.14,83.49a.7.7,0,0,1-.6-1.06l3.28-5.52a.7.7,0,1,1,1.21.72l-3.28,5.52a.71.71,0,0,1-.6.34" transform="translate(-1.86 -1.86)"/></g><g class="cls-4"><path class="cls-3" d="M66.95,77.88a.7.7,0,0,1-.69-.61,5.82,5.82,0,0,1,1.31-4.52,4.53,4.53,0,0,1,7.12-.12,5.8,5.8,0,0,1,1.46,4.63.7.7,0,0,1-1.39-.17,4.4,4.4,0,0,0-1.1-3.52,3.5,3.5,0,0,0-2.59-1.22,3.42,3.42,0,0,0-2.43,1.29,4.42,4.42,0,0,0-1,3.43.7.7,0,0,1-.6.79h-.1" transform="translate(-1.86 -1.86)"/></g><g class="cls-4"><path class="cls-2" d="M98.08,78H44.42a.7.7,0,0,1,0-1.4H98.08a.7.7,0,0,1,0,1.4" transform="translate(-1.86 -1.86)"/></g><g class="cls-4"><path class="cls-5" d="M70.86,3.27a67.6,67.6,0,1,0,67.6,67.6,67.67,67.67,0,0,0-67.6-67.6m0,136.6a69,69,0,1,1,69-69,69.08,69.08,0,0,1-69,69" transform="translate(-1.86 -1.86)"/></g><g class="cls-4"><path class="cls-2" d="M105.55,130.41H36.28a.7.7,0,0,1,0-1.4h69.27a.7.7,0,0,1,0,1.4h0" transform="translate(-1.86 -1.86)"/></g><g class="cls-4"><path class="cls-2" d="M100.25,133.46H41.58a.7.7,0,1,1-.09-1.4h58.77a.7.7,0,0,1,.09,1.4h-.09" transform="translate(-1.86 -1.86)"/></g><g class="cls-4"><path class="cls-2" d="M92.32,136.71H49.51a.7.7,0,0,1,0-1.4H92.32a.7.7,0,0,1,0,1.4" transform="translate(-1.86 -1.86)"/></g></svg>