<svg xmlns="http://www.w3.org/2000/svg" viewBox="0 0 385.48 220.49"><defs><style>.cls-1{isolation:isolate;}.cls-2,.cls-9{fill:#0ba399;}.cls-3{fill:#0fafa4;}.cls-4,.cls-6,.cls-7{fill:#3fbfb6;}.cls-10,.cls-12,.cls-15,.cls-16,.cls-19,.cls-32,.cls-34,.cls-4,.cls-7,.cls-9{opacity:0.5;}.cls-10,.cls-13,.cls-16,.cls-20,.cls-34,.cls-35,.cls-36,.cls-4{mix-blend-mode:multiply;}.cls-5{fill:#0b847b;}.cls-12,.cls-15,.cls-19,.cls-31,.cls-32,.cls-7,.cls-9{mix-blend-mode:screen;}.cls-8{fill:#463936;}.cls-10,.cls-35,.cls-37{fill:#c6c6c6;}.cls-11,.cls-12,.cls-13{fill:#ffb434;}.cls-13{opacity:0.25;}.cls-14,.cls-15,.cls-16{fill:#e8692e;}.cls-17{fill:#f3b029;}.cls-18{fill:#7d6b4b;}.cls-19{fill:#90bfb8;}.cls-20{fill:#dadada;}.cls-21{fill:#617032;}.cls-22{fill:#869e3e;}.cls-23{fill:#728735;}.cls-24{fill:#97ab5b;}.cls-25{fill:#756428;}.cls-26{fill:#677a30;}.cls-27{fill:#c75f2f;}.cls-28{fill:#101716;}.cls-29{fill:#0f1716;}.cls-30{fill:#4e5958;}.cls-31,.cls-32{fill:#50736c;}.cls-31{opacity:0.2;}.cls-33{fill:#29211f;}.cls-34{fill:#b89458;}.cls-38{fill:#ebcb57;}</style></defs><title>cardimg1</title><g class="cls-1"><g id="Layer_1" data-name="Layer 1"><path class="cls-2" d="M241.13,190.69H61.06a7,7,0,0,1-7.12-7.58l3.94-49.92a7.57,7.57,0,0,1,.46-2.07,8.52,8.52,0,0,1,7.85-5.51s29.68,1,84.89,1c53.1,0,84.89-1,84.89-1a8.53,8.53,0,0,1,7.89,5.58,7.61,7.61,0,0,1,.43,2l3.95,49.92A7,7,0,0,1,241.13,190.69Z"/><path class="cls-3" d="M248.27,143.65C236.94,143.08,235,148,233,151.23s-7.87,19.23-7.87,19.23l-74-.55-74,.55s-5.83-16-7.87-19.23-3.95-8.15-15.27-7.58-16.78,2.1-16.2,13.29,5.83,24.59,10.78,32.16,7,7.28,12.82,7.28H240.86c5.83,0,7.87.29,12.82-7.28s10.2-21,10.78-32.16S259.48,144.22,248.27,143.65Z"/><path class="cls-4" d="M236.44,183.88c-9,2.65-52.68,3.24-52.68,3.24a42.6,42.6,0,0,0,.74-9.25c-.31-4.77-.27-5-.51-6.86a8,8,0,0,0-.26-1.64c-1.33-2-7.13-5.16-7.13-5.16s25.3-.2,34.77-.09c5.92.07,16.65.28,24.75,1.52,4.87.75,8.87,1.81,10.14,3.56C250.89,175.61,244.8,181.41,236.44,183.88Z"/><rect class="cls-5" x="113.84" y="168.77" width="71.92" height="17.33"/><path class="cls-4" d="M117.69,177.86a42.8,42.8,0,0,0,.74,9.25s-42.44-.76-52.69-3.24c-9.09-2.19-14.33-8.83-9.82-14.67,1.24-1.61,3.39-2.19,6.54-2.89,8.2-1.84,21.51-2.1,28.36-2.19,9.47-.12,33.77,0,33.77,0s-5,3.4-6.2,5.4a9.59,9.59,0,0,0-.19,1.52C118,172.9,118,173.09,117.69,177.86Z"/><path class="cls-4" d="M182.66,187.11H119.52a38.45,38.45,0,0,1-1.05-9.56c.18-3,.26-6.4.9-7l0,0c3.41-3.15,7.33-5.21,8.78-5.31,6.14-.44,14.05-.37,22.9-.51,8.85.13,16.76.07,22.9.51,1.44.1,5.28,2.12,8.67,5.21l.15.14c.64.6.72,4,.9,7A38.41,38.41,0,0,1,182.66,187.11Z"/><path class="cls-6" d="M236.44,182.86c-9,2.65-52.68,3.24-52.68,3.24a42.6,42.6,0,0,0,.74-9.25c-.31-4.77-.27-5-.51-6.86a1.55,1.55,0,0,0-.26-.62c-1.33-2-7.13-5.16-7.13-5.16s25.3-1.22,34.77-1.1c5.92.07,16.65.28,24.75,1.52,4.87.75,8.87,1.81,10.14,3.56C250.89,174.6,244.8,180.4,236.44,182.86Z"/><path class="cls-6" d="M117.69,176.85a42.8,42.8,0,0,0,.74,9.25s-42.44-.76-52.69-3.24c-9.09-2.2-14.33-8.83-9.82-14.67,1.24-1.61,3.39-2.19,6.54-2.89,8.2-1.84,21.51-2.1,28.36-2.19,9.47-.12,34.77,1.1,34.77,1.1s-6,3.27-7.2,5.28a1.38,1.38,0,0,0-.19.51C118,171.89,118,172.08,117.69,176.85Z"/><path class="cls-6" d="M182.66,186.1H119.52a38.45,38.45,0,0,1-1.05-9.56c.18-3,.26-6.4.9-7l0,0c3.41-3.15,7.33-5.21,8.78-5.32,6.14-.44,14.05-.37,22.9-.51,8.85.13,16.76.07,22.9.51,1.44.1,5.28,2.12,8.67,5.21l.15.14c.64.6.72,4,.9,7A38.41,38.41,0,0,1,182.66,186.1Z"/><path class="cls-7" d="M125.59,164.21s-6,3.27-7.2,5.28c-33.16-.91-49.48-3.07-55.93-4.19,8.2-1.84,21.51-2.1,28.36-2.19C100.29,163,125.59,164.21,125.59,164.21Z"/><path class="cls-7" d="M174,164.2c1.44.1,5.28,2.12,8.67,5.21-9.18.3-19.66.49-31.57.49s-22.45-.15-31.68-.38c3.41-3.15,7.33-5.21,8.78-5.32,6.14-.44,14.05-.37,22.9-.51C159.93,163.83,167.85,163.77,174,164.2Z"/><path class="cls-7" d="M236.11,164.63c-7.83,1.51-23.72,3.73-52.39,4.74-1.33-2-7.13-5.16-7.13-5.16s25.3-1.22,34.77-1.1C217.28,163.18,228,163.39,236.11,164.63Z"/><polygon class="cls-8" points="69.61 196.38 64.34 213.97 59.52 213.97 61.32 196.38 69.61 196.38"/><polygon class="cls-8" points="242.66 213.97 237.84 213.97 232.57 196.38 240.86 196.38 242.66 213.97"/><path class="cls-9" d="M243.86,131.21l-84.56.44c-56,.28-94.56-.39-101-.51a8.52,8.52,0,0,1,7.85-5.51s29.68,1,84.89,1c53.1,0,84.89-1,84.89-1A8.53,8.53,0,0,1,243.86,131.21Z"/><path class="cls-10" d="M211.2,161.77c.11-1.42.28-3.27.31-7.1,0-3.5-.09-5.35-.18-6.73a23.84,23.84,0,0,1-.06-2.88.88.88,0,0,1,.94-.87s3.92.28,10,.32c5.91,0,9.53-.15,10-.17h0a.89.89,0,0,1,.93.88c.24,2.47-.34,4.15-.38,9.6,0,4.1.1,7.16.19,8.64,0,.64.06,1,.06,1a.84.84,0,0,1-.86.85h-.08s-.55-.05-1.81-.11c-1.56-.07-4.2-.16-8.22-.19-7.25,0-10,.16-10,.16a.86.86,0,0,1-.92-.86A20.93,20.93,0,0,1,211.2,161.77Z"/><path class="cls-11" d="M210.1,163.11a.86.86,0,0,0,.92.86s2.78-.21,10-.16c4,0,6.66.12,8.22.19,1.26.06,1.81.11,1.81.11h.08a.84.84,0,0,0,.86-.85s0-.34-.06-1c-.08-1.47-.21-4.54-.18-8.64,0-5.45.62-7.13.38-9.6a.89.89,0,0,0-.93-.88h0c-.45,0-4.08.22-10,.17-6.1,0-10-.32-10-.32a.88.88,0,0,0-.94.87,23.77,23.77,0,0,0,.06,2.88c.09,1.38.21,3.23.18,6.73,0,3.83-.2,5.68-.31,7.1A21,21,0,0,0,210.1,163.11Z"/><path class="cls-12" d="M228.16,152.67a15.15,15.15,0,0,1,3-9.49h0a.89.89,0,0,1,.93.88c.24,2.47-.34,4.15-.38,9.6,0,4.1.1,7.16.18,8.64,0,.64.06,1,.06,1a.84.84,0,0,1-.86.85h0a11.84,11.84,0,0,1-1.18-2.2A26.39,26.39,0,0,1,228.16,152.67Z"/><path class="cls-13" d="M210.1,163.11a.86.86,0,0,0,.92.86s2.78-.21,10-.16c4,0,6.66.12,8.22.19,1.26.06,1.81.11,1.81.11h.08a11.84,11.84,0,0,1-1.18-2.2c-4.55-.8-13.74-2.15-19.81-1.32A21,21,0,0,0,210.1,163.11Z"/><path class="cls-10" d="M73.21,163.1c0-1.35.06-3.1-.16-6.72-.19-3.31-.43-5-.6-6.34a22.44,22.44,0,0,1-.24-2.71.83.83,0,0,1,.83-.88s3.72,0,9.48-.33c5.57-.34,9-.75,9.41-.8h0a.84.84,0,0,1,.93.77c.38,2.32-.06,3.94.25,9.08.23,3.87.55,6.75.73,8.14.07.6.12.92.12.92a.8.8,0,0,1-.75.86h-.07s-.52,0-1.72,0c-1.48,0-4,.11-7.76.34-6.84.42-9.45.79-9.45.79a.81.81,0,0,1-.93-.75A19.83,19.83,0,0,1,73.21,163.1Z"/><path class="cls-11" d="M72.27,164.44a.81.81,0,0,0,.93.75s2.61-.38,9.45-.79c3.79-.23,6.29-.31,7.76-.34,1.19,0,1.72,0,1.72,0h.07a.8.8,0,0,0,.75-.86s0-.32-.12-.92c-.17-1.39-.49-4.27-.73-8.14-.31-5.15.13-6.76-.25-9.08a.84.84,0,0,0-.93-.77h0c-.42.05-3.83.46-9.41.8-5.76.35-9.48.33-9.48.33a.83.83,0,0,0-.83.88,22.56,22.56,0,0,0,.24,2.71c.17,1.3.4,3,.6,6.34.22,3.62.17,5.38.16,6.72A19.9,19.9,0,0,0,72.27,164.44Z"/><path class="cls-12" d="M88.63,153.43a14.33,14.33,0,0,1,2.25-9.15h0a.84.84,0,0,1,.93.77c.38,2.32-.06,3.94.25,9.08.23,3.87.55,6.75.73,8.14.07.6.12.92.12.92a.8.8,0,0,1-.75.86h0a11.13,11.13,0,0,1-1.25-2A25,25,0,0,1,88.63,153.43Z"/><path class="cls-13" d="M72.27,164.44a.81.81,0,0,0,.93.75s2.61-.38,9.45-.79c3.79-.23,6.29-.31,7.76-.34,1.19,0,1.72,0,1.72,0h.07a11.13,11.13,0,0,1-1.25-2c-4.34-.46-13.1-1.16-18.77,0A19.9,19.9,0,0,0,72.27,164.44Z"/><path class="cls-10" d="M93.1,161.31c.14-1.34.36-3.08.5-6.7.13-3.31.07-5.06,0-6.37a22.5,22.5,0,0,1,0-2.72.83.83,0,0,1,.91-.79s3.7.38,9.47.6c5.58.21,9,.14,9.44.13h0a.84.84,0,0,1,.85.86c.15,2.35-.44,3.91-.64,9.06-.15,3.87-.11,6.77-.08,8.17,0,.6,0,.93,0,.93a.8.8,0,0,1-.84.78h-.07s-.52-.06-1.71-.16c-1.47-.12-4-.28-7.76-.42-6.85-.26-9.48-.14-9.48-.14a.81.81,0,0,1-.85-.84A19.83,19.83,0,0,1,93.1,161.31Z"/><path class="cls-14" d="M92,162.55a.81.81,0,0,0,.85.84s2.64-.12,9.48.14c3.79.15,6.29.31,7.76.42,1.19.09,1.71.16,1.71.16h.07a.8.8,0,0,0,.83-.78s0-.33,0-.93c0-1.4-.07-4.3.08-8.17.2-5.15.79-6.72.64-9.06a.84.84,0,0,0-.85-.86h0c-.42,0-3.86.08-9.44-.13-5.77-.22-9.47-.6-9.47-.6a.83.83,0,0,0-.91.79,22.5,22.5,0,0,0,0,2.72c0,1.31.1,3.06,0,6.37-.14,3.62-.36,5.37-.5,6.71A19.77,19.77,0,0,0,92,162.55Z"/><path class="cls-15" d="M109.4,153.2a14.33,14.33,0,0,1,3.14-8.88h0a.84.84,0,0,1,.85.86c.15,2.35-.44,3.91-.64,9.06-.15,3.87-.11,6.77-.08,8.17,0,.6,0,.93,0,.93a.8.8,0,0,1-.83.78h0a11.17,11.17,0,0,1-1.05-2.11A25,25,0,0,1,109.4,153.2Z"/><path class="cls-16" d="M92,162.55a.81.81,0,0,0,.85.84s2.64-.12,9.48.14c3.79.15,6.29.31,7.76.42,1.19.09,1.71.16,1.71.16h.07a11.17,11.17,0,0,1-1.05-2.11c-4.27-.89-12.92-2.44-18.68-1.83A19.77,19.77,0,0,0,92,162.55Z"/><path class="cls-10" d="M194.16,161.63c.14-1.34.36-3.08.5-6.7.13-3.31.07-5.06,0-6.37a22.5,22.5,0,0,1,0-2.72.83.83,0,0,1,.91-.79s3.7.38,9.47.6c5.58.21,9,.14,9.44.13h0a.84.84,0,0,1,.85.86c.15,2.35-.44,3.91-.64,9.06-.15,3.87-.11,6.77-.08,8.17,0,.6,0,.93,0,.93a.8.8,0,0,1-.84.78h-.07s-.52-.06-1.71-.16c-1.47-.12-4-.28-7.76-.42-6.85-.26-9.48-.14-9.48-.14A.81.81,0,0,1,194,164,19.83,19.83,0,0,1,194.16,161.63Z"/><path class="cls-14" d="M193.09,162.87a.81.81,0,0,0,.85.84s2.64-.12,9.48.14c3.79.15,6.29.31,7.76.42,1.19.09,1.71.16,1.71.16H213a.8.8,0,0,0,.83-.78s0-.33,0-.93c0-1.4-.07-4.3.08-8.17.2-5.15.79-6.72.64-9.06a.84.84,0,0,0-.85-.86h0c-.42,0-3.86.08-9.44-.13-5.77-.22-9.47-.6-9.47-.6a.83.83,0,0,0-.91.79,22.5,22.5,0,0,0,0,2.72c0,1.31.1,3.06,0,6.37-.14,3.62-.36,5.37-.5,6.71A19.77,19.77,0,0,0,193.09,162.87Z"/><path class="cls-15" d="M210.46,153.52a14.33,14.33,0,0,1,3.14-8.88h0a.84.84,0,0,1,.85.86c.15,2.35-.44,3.91-.64,9.06-.15,3.87-.11,6.77-.08,8.17,0,.6,0,.93,0,.93a.8.8,0,0,1-.83.78h0a11.17,11.17,0,0,1-1.05-2.11A25,25,0,0,1,210.46,153.52Z"/><path class="cls-16" d="M193.09,162.87a.81.81,0,0,0,.85.84s2.64-.12,9.48.14c3.79.15,6.29.31,7.76.42,1.19.09,1.71.16,1.71.16H213a11.17,11.17,0,0,1-1.05-2.11c-4.27-.89-12.92-2.44-18.68-1.83A19.77,19.77,0,0,0,193.09,162.87Z"/><polygon class="cls-17" points="42.07 80.75 30.28 80.75 18.5 80.75 13.68 110.66 30.28 110.66 46.88 110.66 42.07 80.75"/><rect class="cls-18" x="29.2" y="110.66" width="2.15" height="97.84"/><circle class="cls-18" cx="30.28" cy="120.16" r="2.91"/><circle class="cls-18" cx="30.28" cy="184.05" r="2.91"/><rect class="cls-18" x="21.92" y="208.49" width="16.72" height="2.84" rx="0.85" ry="0.85"/><ellipse class="cls-18" cx="30.28" cy="124.3" rx="3.31" ry="1.22"/><ellipse class="cls-18" cx="30.28" cy="115.92" rx="3.31" ry="1.22"/><ellipse class="cls-18" cx="30.28" cy="179.91" rx="3.31" ry="1.22"/><ellipse class="cls-18" cx="30.28" cy="188.19" rx="3.31" ry="1.22"/><polygon class="cls-19" points="25.24 110.66 19.1 110.66 21.14 80.75 25.24 80.75 25.24 110.66"/><path class="cls-20" d="M261.2,214c0,2-49.3,2.8-110.11,2.8S41,216,41,214s49.3-2.8,110.11-2.8S261.2,211.94,261.2,214Z"/><path class="cls-21" d="M288.58,132.43s-.73-14.39-.51-20.43,1.66-21.64,1.66-21.64.54,13.92.08,21.71S288.58,132.43,288.58,132.43Z"/><path class="cls-22" d="M313.18,142.94s-.37-.46-1-1.17a31.31,31.31,0,0,0-2.59-2.59,24.61,24.61,0,0,0-3.52-2.61,23.46,23.46,0,0,0-3.36-1.68,19.49,19.49,0,0,0-3.81-1.17,17.15,17.15,0,0,0-2.42-.29,17.89,17.89,0,0,0-2.47.05,19.06,19.06,0,0,0-4.12.84,13.26,13.26,0,0,0-1.67.65,11.51,11.51,0,0,1,1.39-.86,16.78,16.78,0,0,1,3.78-1.48,16.27,16.27,0,0,1,5.17-.52,14.54,14.54,0,0,1,2.58.39,13.28,13.28,0,0,1,2.23.76,17.51,17.51,0,0,1,3.94,2.45,22.3,22.3,0,0,1,3.19,3.23,28.21,28.21,0,0,1,2,2.8C312.93,142.49,313.18,142.94,313.18,142.94Z"/><path class="cls-22" d="M304.67,117.09s-.49.15-1.24.47a17.61,17.61,0,0,0-2.78,1.5,21.6,21.6,0,0,0-3,2.36c-.9.85-1.68,1.72-2.29,2.38s-1.45,1.59-2.32,2.67a42,42,0,0,0-2.53,3.51c-.77,1.19-1.42,2.33-1.86,3.18s-.69,1.39-.69,1.39.11-.53.36-1.37a31.19,31.19,0,0,1,1.18-3.29,28.6,28.6,0,0,1,2-3.94,19.59,19.59,0,0,1,2.56-3.33,21,21,0,0,1,3-2.57,18.33,18.33,0,0,1,3.47-1.89,16,16,0,0,1,2.87-.88C304.23,117.14,304.67,117.09,304.67,117.09Z"/><path class="cls-23" d="M252,127.85a12.54,12.54,0,0,1,1.44-.37,17.88,17.88,0,0,1,3.59-.31,26.65,26.65,0,0,1,4.39.42,27.81,27.81,0,0,1,3.74.92,35.48,35.48,0,0,1,3.79,1.54c1.44.67,3,1.48,4.35,2.28s2.62,1.57,3.51,2.16,1.43,1,1.43,1-2.16-1-5-2.09c-1.4-.56-3-1.14-4.47-1.69l-4.21-1.5c-1.22-.45-2.6-.92-4-1.32a30.51,30.51,0,0,0-4.09-.9,18.38,18.38,0,0,0-3.23-.19C252.46,127.77,252,127.85,252,127.85Z"/><path class="cls-23" d="M258.37,143.67s.16-.44.5-1.11a13.14,13.14,0,0,1,1.63-2.48,13.8,13.8,0,0,1,2.71-2.48,13.48,13.48,0,0,1,2.85-1.53,16.34,16.34,0,0,1,3.31-.84,24.4,24.4,0,0,1,4.06-.26,27.59,27.59,0,0,1,3.38.27c.87.13,1.4.25,1.4.25s-.49,0-1.28.06-1.88.16-3.08.34a37.75,37.75,0,0,0-3.77.77c-1.25.32-2.43.71-3.4,1a19.94,19.94,0,0,0-3.08,1.31,15,15,0,0,0-2.77,1.9,14.1,14.1,0,0,0-1.82,1.91C258.59,143.33,258.37,143.67,258.37,143.67Z"/><path class="cls-23" d="M261.85,152.4s0-.51.11-1.32a18.92,18.92,0,0,1,.66-3.16,17.69,17.69,0,0,1,1.57-3.66,15.26,15.26,0,0,1,2.07-2.84,17.09,17.09,0,0,1,2.87-2.4,22.76,22.76,0,0,1,3.94-2.1,24.29,24.29,0,0,1,3.53-1.16,15.34,15.34,0,0,1,1.52-.3s-.5.18-1.29.54a29.44,29.44,0,0,0-3,1.59,30.8,30.8,0,0,0-3.43,2.42c-1.09.89-2.08,1.82-2.88,2.62a22.37,22.37,0,0,0-2.41,2.78,20.05,20.05,0,0,0-1.89,3.19,21.17,21.17,0,0,0-1.06,2.7C262,152,261.85,152.4,261.85,152.4Z"/><path class="cls-23" d="M276.05,157.45s-.15-.43-.33-1.16a22.78,22.78,0,0,1-.51-2.87,32.26,32.26,0,0,1-.21-3.54,26.6,26.6,0,0,1,.14-3.1c.1-.83.3-2,.58-3.24s.63-2.6,1-3.84c.71-2.48,1.45-4.51,1.46-4.5s-.22,1.91-.46,4.34l-.39,3.85c-.14,1.3-.27,2.55-.44,3.6s-.35,2.21-.51,3.38-.28,2.35-.34,3.39-.07,2,0,2.63S276.05,157.45,276.05,157.45Z"/><path class="cls-23" d="M251.78,126.25s.48-.42,1.32-1a15.36,15.36,0,0,1,3.61-1.89,13.31,13.31,0,0,1,2.44-.62,13.06,13.06,0,0,1,2.57-.14,13.56,13.56,0,0,1,4.38.94,15.15,15.15,0,0,1,1.92.94,19.92,19.92,0,0,1,2.16,1.45,27.34,27.34,0,0,1,4,3.88,34.43,34.43,0,0,1,2.79,3.74c.65,1,1,1.68,1,1.68s-.41-.53-1.13-1.35a41.56,41.56,0,0,0-3-3.06,34.87,34.87,0,0,0-4.16-3.3,27.07,27.07,0,0,0-4.29-2.35,15,15,0,0,0-4.4-1.21,12.86,12.86,0,0,0-2.36,0,13.62,13.62,0,0,0-2.23.36,16.35,16.35,0,0,0-3.4,1.28C252.25,126,251.78,126.25,251.78,126.25Z"/><path class="cls-23" d="M261.74,119.49s.48,0,1.24.16a18.46,18.46,0,0,1,3,.72,18.17,18.17,0,0,1,3.42,1.55,15.71,15.71,0,0,1,2.67,2,17.66,17.66,0,0,1,2.3,2.66,24.19,24.19,0,0,1,2.12,3.63,25.39,25.39,0,0,1,1.28,3.26c.27.86.38,1.41.38,1.41s-.21-.46-.6-1.17a32,32,0,0,0-1.69-2.71,35.77,35.77,0,0,0-2.44-3.12c-.87-1-1.77-1.92-2.53-2.67a25.11,25.11,0,0,0-2.61-2.3,20.93,20.93,0,0,0-5.45-3C262.13,119.61,261.73,119.49,261.74,119.49Z"/><path class="cls-22" d="M280.08,100.13s-.51,2.94-.91,6.56c-.2,1.81-.38,3.79-.5,5.65s-.22,3.6-.3,4.94-.23,3.21-.33,5.27-.16,4.31-.14,6.39.11,4,.22,5.39.23,2.26.23,2.26-.22-.75-.49-2-.6-3-.85-5-.45-4.22-.52-6.38a51.39,51.39,0,0,1,.14-6c.16-1.76.41-3.71.73-5.65s.72-3.86,1.12-5.55C279.28,102.59,280.08,100.13,280.08,100.13Z"/><path class="cls-23" d="M286.5,116.78a8.09,8.09,0,0,0-.92.6,9.37,9.37,0,0,0-1.82,1.84,14.7,14.7,0,0,0-1.57,2.68c-.43.93-.76,1.83-1,2.52s-.66,1.65-1,2.74-.76,2.3-1.06,3.44-.54,2.2-.7,3-.23,1.27-.23,1.27a27.69,27.69,0,0,1-.05-4.08,26.29,26.29,0,0,1,.45-3.65,16.22,16.22,0,0,1,1-3.35,17,17,0,0,1,1.64-2.91,12.47,12.47,0,0,1,2.24-2.45,8.87,8.87,0,0,1,2.15-1.31A7.48,7.48,0,0,1,286.5,116.78Z"/><path class="cls-22" d="M298.8,116.17s-.62.11-1.59.34a25.87,25.87,0,0,0-3.69,1.2,23.19,23.19,0,0,0-4.09,2.18,27.27,27.27,0,0,0-3.14,2.49,27.82,27.82,0,0,0-3,3.09,27.05,27.05,0,0,0-2.89,4.38,28.52,28.52,0,0,0-1.78,4.11,18.56,18.56,0,0,0-.54,1.82,15.69,15.69,0,0,1,.2-1.72,24.81,24.81,0,0,1,1.06-4.14,23.2,23.2,0,0,1,2.37-4.9,18.06,18.06,0,0,1,3.37-3.93,19.68,19.68,0,0,1,4.09-2.69,21.22,21.22,0,0,1,4.53-1.61,24,24,0,0,1,3.61-.55C298.26,116.17,298.8,116.17,298.8,116.17Z"/><path class="cls-23" d="M295.81,135.54s-.35-.24-.91-.62-1.36-.86-2.26-1.33a18.67,18.67,0,0,0-2.86-1.21,15.36,15.36,0,0,0-2.54-.58,10,10,0,0,0-2.71-.08,8.3,8.3,0,0,0-1.63.36,9,9,0,0,0-1.57.7,10.92,10.92,0,0,0-2.36,1.8,8.67,8.67,0,0,0-.84,1,7.41,7.41,0,0,1,.53-1,10.23,10.23,0,0,1,1.85-2.28,9.15,9.15,0,0,1,1.5-1.12,8.32,8.32,0,0,1,1.81-.8,7.89,7.89,0,0,1,1.92-.33,7.5,7.5,0,0,1,1.75.12,11,11,0,0,1,3.18,1.17,16.21,16.21,0,0,1,2.69,1.87,22.29,22.29,0,0,1,1.79,1.7C295.57,135.26,295.81,135.54,295.81,135.54Z"/><path class="cls-23" d="M288.39,155.8a43.47,43.47,0,0,0-.6-4.34,34.09,34.09,0,0,0-.9-3.6c-.36-1.16-.76-2.2-1.08-3a26.24,26.24,0,0,0-1.39-3.07,16.7,16.7,0,0,0-2.37-3.34,13.9,13.9,0,0,0-2.68-2.27,8.37,8.37,0,0,0-1.32-.71,7.32,7.32,0,0,1,1.32.38,12.71,12.71,0,0,1,3,1.64,14.54,14.54,0,0,1,3.1,3.1,14.27,14.27,0,0,1,2,3.64,20.36,20.36,0,0,1,.91,3.76,26.59,26.59,0,0,1,.28,3.79c0,1.16-.06,2.17-.12,2.89S288.39,155.8,288.39,155.8Z"/><path class="cls-23" d="M262.63,115.81a9.92,9.92,0,0,1,1.37,0,10.43,10.43,0,0,1,3.28.68,11.69,11.69,0,0,1,1.85.9,13.56,13.56,0,0,1,1.71,1.21,14.91,14.91,0,0,1,2.48,2.64,19.87,19.87,0,0,1,1.89,3.31,31.87,31.87,0,0,1,1.58,4.27c.42,1.41.71,2.73.89,3.69s.25,1.57.25,1.57A48.34,48.34,0,0,0,276,129.5c-.58-1.24-1.28-2.59-2-3.85s-1.49-2.44-2.14-3.41a20.23,20.23,0,0,0-2.35-2.94,12.59,12.59,0,0,0-3-2.28,10.57,10.57,0,0,0-2.75-1A11,11,0,0,0,262.63,115.81Z"/><path class="cls-23" d="M289.4,118.09s.2-3.79.91-8.41c.35-2.31.85-4.83,1.45-7.16a50.16,50.16,0,0,1,2-6.13,42.28,42.28,0,0,1,3.09-6.15,37.34,37.34,0,0,1,2.36-3.42,31,31,0,0,1,2.76-3.12,24.7,24.7,0,0,1,2.92-2.47,19.35,19.35,0,0,1,2.69-1.63,13.6,13.6,0,0,1,2-.8,6.05,6.05,0,0,1,.76-.19,10.53,10.53,0,0,0-2.35,1.12,19,19,0,0,0-2.3,1.66,24.54,24.54,0,0,0-2.51,2.43,31.51,31.51,0,0,0-2.41,3.05c-.76,1.1-1.48,2.25-2.14,3.43A68.24,68.24,0,0,0,295.34,97c-.86,2-1.72,4.32-2.47,6.67s-1.4,4.73-1.91,6.86-.9,4-1.16,5.36S289.4,118.1,289.4,118.09Z"/><path class="cls-23" d="M288.24,114.9s-.29-2.78-.92-6.12c-.31-1.67-.72-3.48-1.17-5.15s-.93-3.21-1.32-4.39a46.88,46.88,0,0,0-1.69-4.55,25.63,25.63,0,0,0-2.92-5.07,18.53,18.53,0,0,0-1.79-2,14.67,14.67,0,0,0-1.72-1.46,8.44,8.44,0,0,0-1.83-1,7.79,7.79,0,0,1,1.81.68,13.76,13.76,0,0,1,1.83,1.11,17.1,17.1,0,0,1,2,1.72,22.15,22.15,0,0,1,3.68,4.85,25.7,25.7,0,0,1,2.26,5.26,39.31,39.31,0,0,1,1.16,5.25c.28,1.83.45,3.66.54,5.28C288.35,112.48,288.23,114.9,288.24,114.9Z"/><path class="cls-24" d="M288.36,124.91s0-3.1.29-6.92a56.21,56.21,0,0,1,.81-5.94,33.65,33.65,0,0,1,1.39-5.11,24.4,24.4,0,0,1,2.59-5.07,17.7,17.7,0,0,1,2.2-2.68,13.05,13.05,0,0,1,2.76-2.12,10.5,10.5,0,0,1,3-1.14,9.65,9.65,0,0,1,2.59-.19,8.7,8.7,0,0,1,1.73.28,4.81,4.81,0,0,1,.61.2,7.5,7.5,0,0,0-2.11-.17,9.45,9.45,0,0,0-2.26.37,9.86,9.86,0,0,0-2.53,1.15,12,12,0,0,0-2.36,2,17,17,0,0,0-1.93,2.57,34.12,34.12,0,0,0-2.62,5.42,52.13,52.13,0,0,0-1.82,5.49c-.53,1.94-1,3.91-1.31,5.66s-.58,3.31-.75,4.42S288.36,124.91,288.36,124.91Z"/><path class="cls-23" d="M288.51,132.43s0-.19,0-.54a14.4,14.4,0,0,1,0-1.48,15.36,15.36,0,0,1,.3-2.18,17,17,0,0,1,.77-2.6,19.36,19.36,0,0,1,1.3-2.7,21.81,21.81,0,0,1,1.7-2.52,22.38,22.38,0,0,1,3.73-3.76,20.64,20.64,0,0,1,2.1-1.44,17.82,17.82,0,0,1,2.83-1.39c.26-.1.54-.19.82-.27l.43-.11.46-.09a5.43,5.43,0,0,1,1.88.06,9,9,0,0,1,1.7.53,14.16,14.16,0,0,1,1.53.75,23,23,0,0,1,2.59,1.71c.76.58,1.42,1.13,2,1.61,1.08,1,1.71,1.62,1.71,1.62s-.63-.5-1.71-1.24c-.54-.37-1.2-.8-1.94-1.25a26.94,26.94,0,0,0-2.49-1.33,13.16,13.16,0,0,0-2.89-1,5.64,5.64,0,0,0-1.47-.11,3.36,3.36,0,0,0-.67.11,7.42,7.42,0,0,0-.71.24,17.21,17.21,0,0,0-2.72,1.41c-.85.53-1.63,1.08-2.32,1.59a27.2,27.2,0,0,0-4.16,3.8,20.61,20.61,0,0,0-3.14,4.68,16.32,16.32,0,0,0-1.36,4.16A15,15,0,0,0,288.51,132.43Z"/><path class="cls-23" d="M288.46,126.32s0-.48.08-1.27a25.41,25.41,0,0,1,.44-3,20.66,20.66,0,0,1,1.09-3.63,14.81,14.81,0,0,1,1.6-3,14.4,14.4,0,0,1,2.47-2.62,16.11,16.11,0,0,1,3.65-2.28,16.8,16.8,0,0,1,3.39-1.11c.9-.19,1.46-.24,1.46-.24s-.48.16-1.24.49a19,19,0,0,0-5.91,4,27.93,27.93,0,0,0-2.41,2.78,22.76,22.76,0,0,0-1.94,2.93,25.93,25.93,0,0,0-1.51,3.23c-.4,1-.69,2-.89,2.63S288.46,126.32,288.46,126.32Z"/><path class="cls-23" d="M308.77,127.44s-.37-.3-1-.69a10.33,10.33,0,0,0-2.62-1.16,10.5,10.5,0,0,0-3.36-.36,17.94,17.94,0,0,0-2.92.42,26.65,26.65,0,0,0-3.09.82,29.28,29.28,0,0,0-3.66,1.51,24,24,0,0,0-3.64,3v-.34c.09-.85,1.75-2.44,2.83-3.26a21.91,21.91,0,0,1,3.48-2.17,13.93,13.93,0,0,1,3.71-1.27,12.56,12.56,0,0,1,3.75-.09,10.64,10.64,0,0,1,1.88.42,9.83,9.83,0,0,1,1.65.71,10,10,0,0,1,2.23,1.66C308.52,127.12,308.77,127.44,308.77,127.44Z"/><path class="cls-23" d="M311.25,136.94s-.4-.29-1.08-.71a21.56,21.56,0,0,0-2.73-1.4A29.68,29.68,0,0,0,304,133.6c-1.17-.34-2.27-.6-3.12-.81s-2-.53-3.36-.82-2.78-.56-4.14-.76-2.63-.33-3.55-.4-1.51-.09-1.51-.09.51-.1,1.36-.21,2-.22,3.37-.26a33.49,33.49,0,0,1,4.28.13,22.08,22.08,0,0,1,4,.72,26.05,26.05,0,0,1,3.59,1.35,22.81,22.81,0,0,1,3.32,1.87,18.83,18.83,0,0,1,2.26,1.81C311,136.62,311.25,136.94,311.25,136.94Z"/><path class="cls-23" d="M271.73,95.38a10.41,10.41,0,0,1,1.61.3,11.93,11.93,0,0,1,1.69.59,13.88,13.88,0,0,1,1.94,1,18.85,18.85,0,0,1,3.71,3.17,23.18,23.18,0,0,1,2.58,3.4,30.83,30.83,0,0,1,2,4A49.68,49.68,0,0,1,287.1,113c.5,1.68.88,3.25,1.12,4.39s.36,1.87.36,1.87-.85-2.46-2.2-5.47c-.67-1.51-1.45-3.15-2.27-4.72s-1.65-3-2.35-4.27a34.16,34.16,0,0,0-2.51-3.83,19.12,19.12,0,0,0-3.15-3.28,12.78,12.78,0,0,0-3-1.82A11.14,11.14,0,0,0,271.73,95.38Z"/><path class="cls-23" d="M295.29,147.72s-.11-.31-.31-.79-.5-1.13-.85-1.83-.77-1.44-1.17-2.13-.78-1.33-1-1.84-.6-1.24-1-2-.79-1.68-1.19-2.5c-.8-1.62-1.54-3-1.54-3a26.64,26.64,0,0,1,2.19,2.23,25.45,25.45,0,0,1,1.74,2.19,14.28,14.28,0,0,1,1.33,2.27,22.92,22.92,0,0,1,1.51,4.75A16,16,0,0,1,295.29,147.72Z"/><path class="cls-25" d="M286.34,158.44c-6.09-5.11-8.23-22.42-8.28-23l.15-.11c0,.13,2.43,16.16,8.13,20.94Z"/><path class="cls-25" d="M287.39,171.07l-.37-1.84h0a11.56,11.56,0,0,0,2.34-3.31,19.21,19.21,0,0,0,1.71-10.36c-.85-9.58-3-20.62-3.07-20.73l.91-1.2c-.18-1,2.41,12.19,3.26,21.82C293.05,165.35,287.61,170.88,287.39,171.07Z"/><path class="cls-25" d="M288.24,128.75s-2.55,33-2.55,42.73a91.67,91.67,0,0,1-.61,11.36h3.18s-.87-7.31-.87-11.26c0-2.83,1.47-31.63,1.62-42Z"/><path class="cls-26" d="M268.28,151a23.28,23.28,0,0,1,.06-3.56,18.4,18.4,0,0,1,.55-3.06,12.79,12.79,0,0,1,1-2.57,12.49,12.49,0,0,1,1.71-2.41,13.92,13.92,0,0,1,2.68-2.31,12.48,12.48,0,0,1,2.62-1.33,7.47,7.47,0,0,1,1.17-.33,8.11,8.11,0,0,0-.94.55,14.13,14.13,0,0,0-2,1.65A17.64,17.64,0,0,0,273,140.1c-.62.88-1.15,1.78-1.6,2.54a23.8,23.8,0,0,0-1.32,2.55,25.45,25.45,0,0,0-1,2.73A31.51,31.51,0,0,0,268.28,151Z"/><path class="cls-24" d="M254.06,136.6s.39-.38,1-1a27.52,27.52,0,0,1,2.71-2.1,21.33,21.33,0,0,1,3.71-2,15.12,15.12,0,0,1,3.62-1,14,14,0,0,1,4,.05,14.71,14.71,0,0,1,2.36.57,15.15,15.15,0,0,1,2.22.94,15.33,15.33,0,0,1,3.27,2.28,10.11,10.11,0,0,1,1.14,1.2,10.67,10.67,0,0,0-1.2-.87,16.55,16.55,0,0,0-7.49-2.53,21.35,21.35,0,0,0-4.08.08,20.59,20.59,0,0,0-3.84.78,25.69,25.69,0,0,0-3.71,1.46c-1.11.54-2.06,1.08-2.73,1.48S254.06,136.6,254.06,136.6Z"/><path class="cls-22" d="M303.36,104.81l-.47,0a10.84,10.84,0,0,0-1.27,0,9.43,9.43,0,0,0-1.83.36,8.74,8.74,0,0,0-2,.92,9.79,9.79,0,0,0-1.88,1.52,13.26,13.26,0,0,0-1.53,1.92,24.81,24.81,0,0,0-2,3.83,45.1,45.1,0,0,0-1.66,4.38,56.51,56.51,0,0,0-1.46,5.55c-.39,1.84-.66,3.55-.83,4.8s-.24,2-.24,2a47.23,47.23,0,0,1,.07-6.45A42.18,42.18,0,0,1,289,118a25.25,25.25,0,0,1,1.7-5.26,18.76,18.76,0,0,1,2.85-4.46,12.45,12.45,0,0,1,2-1.85,9.82,9.82,0,0,1,2.26-1.23,9,9,0,0,1,2.17-.53,9.54,9.54,0,0,1,1.76,0,10.78,10.78,0,0,1,1.14.14Z"/><path class="cls-26" d="M281.8,115.12a4.86,4.86,0,0,1,.78.47,9.41,9.41,0,0,1,1.6,1.52,17.13,17.13,0,0,1,2.62,4.27,19.26,19.26,0,0,1,.73,2.36c.24.93.44,2,.61,2.91a12.44,12.44,0,0,1,0,3.85,10.34,10.34,0,0,0-.8-3.33c-.36-.83-.77-1.75-1.15-2.64s-.73-1.75-1-2.49a35.87,35.87,0,0,0-1.82-4.69,9.62,9.62,0,0,0-1-1.64A5.3,5.3,0,0,0,281.8,115.12Z"/><rect class="cls-14" x="273.85" y="182.84" width="24.97" height="20.52"/><rect class="cls-27" x="273.52" y="182.84" width="25.62" height="6.13"/><rect class="cls-19" x="277.26" y="182.84" width="4.93" height="20.55"/><polygon class="cls-28" points="389.25 173.02 378.66 173.02 379.66 167.56 388.25 167.56 389.25 173.02"/><rect class="cls-29" x="336.4" y="111.37" width="95.11" height="57.98" rx="1.33" ry="1.33"/><rect class="cls-30" x="339.76" y="114.97" width="88.25" height="49.78"/><rect class="cls-28" x="367.14" y="173.02" width="33.62" height="2.92"/><polygon class="cls-31" points="396.67 114.97 346.89 164.75 339.76 164.75 339.76 117.82 342.6 114.97 396.67 114.97"/><polygon class="cls-31" points="428 122.31 428 164.75 385.21 164.75 428 122.31"/><path class="cls-32" d="M431.39,112.7v.19H336.28v-.19a1.33,1.33,0,0,1,1.33-1.33h92.45A1.33,1.33,0,0,1,431.39,112.7Z"/><rect class="cls-18" x="305.2" y="175.94" width="158.5" height="5.28"/><rect class="cls-3" x="384.65" y="181.22" width="78.39" height="17.26"/><rect class="cls-3" x="306.27" y="181.22" width="78.39" height="17.26"/><rect class="cls-33" x="306.26" y="198.48" width="11.39" height="5.03"/><rect class="cls-34" x="383.94" y="181.21" width="1.43" height="17.27"/><rect class="cls-35" x="306.27" y="181.22" width="156.78" height="1.1"/><rect class="cls-35" x="306.26" y="198.48" width="11.39" height="2.5"/><rect class="cls-18" x="306.26" y="196.65" width="156.77" height="1.85"/><g class="cls-36"><circle class="cls-37" cx="325.41" cy="188.26" r="2.13"/><circle class="cls-37" cx="365.51" cy="188.26" r="2.13"/></g><circle class="cls-38" cx="325.41" cy="187.72" r="2.13"/><circle class="cls-38" cx="365.51" cy="187.72" r="2.13"/></g></g></svg>