<svg id="Layer_1" data-name="Layer 1" xmlns="http://www.w3.org/2000/svg" viewBox="0 0 349.02 145.59"><defs><style>.cls-1{fill:#c77246;}.cls-1,.cls-11,.cls-14,.cls-15,.cls-16,.cls-17,.cls-18,.cls-2,.cls-23,.cls-24,.cls-25,.cls-28,.cls-29,.cls-3,.cls-30,.cls-33,.cls-36,.cls-37,.cls-38,.cls-39,.cls-4,.cls-40,.cls-41,.cls-42,.cls-46,.cls-47,.cls-7,.cls-9{stroke:#640c19;}.cls-1,.cls-23,.cls-24,.cls-28,.cls-29,.cls-33,.cls-35,.cls-36,.cls-37,.cls-38,.cls-39,.cls-41,.cls-42,.cls-46,.cls-47,.cls-9{stroke-linecap:round;}.cls-1,.cls-11,.cls-14,.cls-15,.cls-2,.cls-20,.cls-23,.cls-24,.cls-25,.cls-28,.cls-29,.cls-3,.cls-30,.cls-33,.cls-36,.cls-37,.cls-4,.cls-41,.cls-46,.cls-47,.cls-5,.cls-9{stroke-miterlimit:10;}.cls-1,.cls-11,.cls-14,.cls-15,.cls-16,.cls-17,.cls-18,.cls-2,.cls-23,.cls-24,.cls-25,.cls-28,.cls-29,.cls-30,.cls-33,.cls-35,.cls-36,.cls-37,.cls-38,.cls-39,.cls-4,.cls-40,.cls-41,.cls-42,.cls-9{stroke-width:1.73px;}.cls-2{fill:#9c5443;}.cls-3{fill:#cc7f6e;}.cls-20,.cls-3,.cls-5{stroke-width:1.83px;}.cls-4{fill:#c08172;}.cls-5{fill:#a05b4a;}.cls-20,.cls-5{stroke:#4f1319;}.cls-20,.cls-44,.cls-6{fill:#74382f;}.cls-7{fill:#d7dce2;stroke-width:2px;}.cls-16,.cls-17,.cls-18,.cls-35,.cls-38,.cls-39,.cls-40,.cls-42,.cls-7{stroke-linejoin:round;}.cls-47,.cls-8,.cls-9{fill:#fff;}.cls-10{fill:#5a5f7b;opacity:0.58;}.cls-10,.cls-19,.cls-44{isolation:isolate;}.cls-11{fill:#6da5a1;}.cls-12,.cls-14{fill:#8ac5be;}.cls-13{fill:#627c8a;}.cls-15,.cls-18,.cls-23,.cls-46{fill:none;}.cls-16{fill:#eabd5a;}.cls-17,.cls-30{fill:#ffd672;}.cls-19,.cls-27{fill:#640c19;}.cls-19{opacity:0.19;}.cls-21,.cls-29,.cls-38{fill:#cee1df;}.cls-22{fill:#a5cdcb;}.cls-24{fill:#e2f3f1;}.cls-25{fill:#f7f0ee;}.cls-26{fill:#ead9d3;}.cls-28,.cls-35{fill:#e15a59;}.cls-31{fill:#edaf5d;}.cls-32,.cls-36{fill:#fcd4b6;}.cls-33{fill:#edb67a;}.cls-34,.cls-37{fill:#ffeddb;}.cls-35{stroke:#e15a59;}.cls-39{fill:#b0ccc9;}.cls-40,.cls-42{fill:#b9d67b;}.cls-41{fill:#da8657;}.cls-43{fill:#f2e6da;}.cls-44{opacity:0.75;}.cls-45{fill:#e8b592;}.cls-46{stroke-width:1.23px;}.cls-47{stroke-width:1.5px;}</style></defs><title>cardimg3</title><path class="cls-1" d="M156.5,19.89h-6.32A7.11,7.11,0,0,0,143.07,27V53.06s12.72-3.75,8.6-21c-.16-.68-3-1.16-3-1.16Z"/><path class="cls-2" d="M44.3,62.27H173.37A18.63,18.63,0,0,1,192,80.92v60.74H25.66V80.95A18.63,18.63,0,0,1,44.26,62.27h0Z"/><path class="cls-3" d="M47.66,62.27H176.71a18.63,18.63,0,0,1,18.63,18.63h0v60.71H29V80.95A18.63,18.63,0,0,1,47.62,62.27h0Z"/><rect class="cls-4" x="29.02" y="141.59" width="7.87" height="3.75"/><rect class="cls-5" x="29.02" y="108.02" width="161.81" height="33.56"/><path class="cls-3" d="M47.76,69.61H176.62A11.45,11.45,0,0,1,188,81.05v20.62H36.32V81.05A11.45,11.45,0,0,1,47.76,69.61Z"/><path class="cls-6" d="M80.73,101H44.25A11.67,11.67,0,0,1,36,97.21l-4.27-4.28L36,88.65a11.67,11.67,0,0,1,8.26-3.74H80.73a11.58,11.58,0,0,1,8,3.5l4.7,4.53-4.7,4.53A11.58,11.58,0,0,1,80.73,101Z"/><path class="cls-7" d="M190.84,96.42v19.44H29v-7.14a12.31,12.31,0,0,1,12.3-12.3Z"/><path class="cls-8" d="M87.68,97v6h-24A5.94,5.94,0,0,1,57.75,97H87.67Z"/><rect class="cls-3" x="188.05" y="120.78" width="143.02" height="20.81"/><rect class="cls-2" x="188.05" y="141.59" width="7.87" height="3.75"/><path class="cls-7" d="M154.28,96.42H117.78a11.67,11.67,0,0,1-8.26-3.74l-4.25-4.28,4.25-4.28a11.67,11.67,0,0,1,8.26-3.74h36.49a11.58,11.58,0,0,1,8,3.5l4.7,4.53-4.7,4.53A11.58,11.58,0,0,1,154.28,96.42Z"/><path class="cls-9" d="M171.06,96.42H134.57a11.67,11.67,0,0,1-8.26-3.74l-4.23-4.24,4.25-4.28a11.67,11.67,0,0,1,8.26-3.74h36.49a11.58,11.58,0,0,1,8,3.5l4.7,4.53L179.07,93A11.58,11.58,0,0,1,171.06,96.42Z"/><path class="cls-7" d="M100.62,88.43,95.93,93a11.57,11.57,0,0,1-8,3.46H51.42a11.68,11.68,0,0,1-8.26-3.74l-.28-.28-4-4,4.25-4.28a11.66,11.66,0,0,1,8.26-3.74H87.89a11.58,11.58,0,0,1,8,3.5Z"/><path class="cls-10" d="M80.4,92.43v4h-29a11.68,11.68,0,0,1-8.26-3.74l-.28-.28Z"/><path class="cls-9" d="M104.69,96.42H68.2a11.67,11.67,0,0,1-8.26-3.74l-4.25-4.28,4.25-4.28a11.67,11.67,0,0,1,8.26-3.74h36.49a11.58,11.58,0,0,1,8,3.5l4.7,4.53-4.7,4.53A11.58,11.58,0,0,1,104.69,96.42Z"/><path class="cls-11" d="M212.8,93.91v27.68H68.91v-9.93A17.75,17.75,0,0,1,86.65,93.91Z"/><path class="cls-12" d="M208.09,94.4v6.94h-135A17.7,17.7,0,0,1,87.16,94.4Z"/><path class="cls-13" d="M131.9,93.91v27.68h5.28v-9.93c0-9.77,3.95-17.75,8.82-17.75Z"/><path class="cls-13" d="M146.31,93.91V94h-25v.11l-1,27.24h-7.65V105.92a15.47,15.47,0,0,1,3-9.18l2.09-2.85Z"/><path class="cls-14" d="M215.7,93.91h87.68a27.68,27.68,0,0,1,27.68,27.68H188A27.68,27.68,0,0,1,215.7,93.91Z"/><line class="cls-15" x1="44.08" y1="134.03" x2="175.78" y2="134.03"/><line class="cls-15" x1="201.74" y1="134.03" x2="323.19" y2="134.03"/><rect class="cls-16" x="68.91" y="121.58" width="119.15" height="3.22"/><rect class="cls-17" x="188.05" y="121.58" width="143.02" height="3.22"/><line class="cls-18" x1="-62.58" y1="145.34" x2="343.43" y2="145.34"/><rect class="cls-3" x="-38.66" y="116.42" width="76.18" height="28.92"/><rect class="cls-3" x="-34.42" y="125.76" width="67.7" height="16.44"/><rect class="cls-4" x="-34.42" y="106.37" width="67.7" height="10.05"/><path class="cls-4" d="M33.13,102H-34.22a4.4,4.4,0,0,0-4.4,4.4H37.56a4.4,4.4,0,0,0-4.4-4.4Z"/><rect class="cls-4" x="33.28" y="106.37" width="4.24" height="10.05"/><path class="cls-16" d="M1.41,135.94h-4a2,2,0,0,1-2-2h0a2,2,0,0,1,2-2h4a2,2,0,0,1,2,2h0A2,2,0,0,1,1.41,135.94Z"/><path class="cls-19" d="M3.17,134.84a2,2,0,0,1-1.76,1.11h-4a2,2,0,0,1-1.76-1.11,1.87,1.87,0,0,1,.37-.53,2,2,0,0,1,1.38-.57h4A2,2,0,0,1,3.17,134.84Z"/><rect class="cls-20" x="-34.42" y="106.37" width="67.7" height="10.05"/><path id="_Path_13" data-name=" Path 13" class="cls-21" d="M6.35,112.17v3.11H7.3v1H-5a2.56,2.56,0,0,1-2.72-2.39,2.56,2.56,0,0,1,2.39-2.72H7.3v1Z"/><path id="_Path_14" data-name=" Path 14" class="cls-22" d="M5.67,113.72v2.56H-5A2.44,2.44,0,0,1-7.58,114a1.87,1.87,0,0,1,0-.27Z"/><path id="_Path_15" data-name=" Path 15" class="cls-23" d="M6.35,112.17v3.11H7.3v1H-5a2.56,2.56,0,0,1-2.72-2.39,2.56,2.56,0,0,1,2.39-2.72H7.3v1Z"/><path id="_Path_16" data-name=" Path 16" class="cls-24" d="M23.86,112.17v3.11h.46a.5.5,0,0,1,.5.5h0a.5.5,0,0,1-.5.5H5.53a2.6,2.6,0,0,1-2.62-2.52,2.56,2.56,0,0,1,2.52-2.59H24.32a.5.5,0,0,1,.5.5h0a.5.5,0,0,1-.5.5Z"/><path id="_Rectangle_6" data-name=" Rectangle 6" class="cls-25" d="M5.67,112.17H23.89v3.11H5.67a1.55,1.55,0,0,1-1.55-1.55h0a1.55,1.55,0,0,1,1.55-1.55Z"/><path id="_Path_17" data-name=" Path 17" class="cls-25" d="M1.33,116.28H.25a2.56,2.56,0,0,1-.33-5.1H1.33a2.56,2.56,0,0,0-.33,5.1h.33Z"/><path id="_Path_18" data-name=" Path 18" class="cls-26" d="M1.33,116.28H.25a2.56,2.56,0,0,1-2.56-2.56h1.08a2.56,2.56,0,0,0,2.56,2.56Z"/><path id="_Path_19" data-name=" Path 19" class="cls-26" d="M23.86,112.17v1H5.67a1.55,1.55,0,0,0-1.47,1.06,1.55,1.55,0,0,1,1.47-2.05Z"/><path id="_Path_20" data-name=" Path 20" class="cls-23" d="M-1.66,111.17h3a2.56,2.56,0,0,0-.33,5.1H.22"/><path id="_Path_21" data-name=" Path 21" class="cls-23" d="M.25,116.28a2.56,2.56,0,0,1-.28-5.1H.25"/><path id="_Rectangle_7" data-name=" Rectangle 7" class="cls-15" d="M5.67,112.17H23.89v3.11H5.67a1.55,1.55,0,0,1-1.55-1.55h0a1.55,1.55,0,0,1,1.55-1.55Z"/><polygon id="_Path_30" data-name=" Path 30" class="cls-27" points="-5.4 102.02 2.07 102.02 2.07 84.1 -5.4 102.02 -5.4 102.02"/><polygon id="_Path_31" data-name=" Path 31" class="cls-28" points="1.68 102.12 17.82 102.12 14.47 81.27 -1.67 81.27 1.68 102.12"/><polygon id="_Path_32" data-name=" Path 32" class="cls-29" points="5.03 98.17 14.47 98.17 12.23 85.23 2.79 85.23 5.03 98.17"/><polygon id="_Path_33" data-name=" Path 33" class="cls-8" points="12.93 98.17 14.47 98.17 13.73 93.9 10.24 85.23 6.95 85.23 12.93 98.17"/><polygon id="_Path_34" data-name=" Path 34" class="cls-8" points="11.46 98.17 12.23 98.17 6.25 85.23 5.47 85.23 11.46 98.17"/><polygon id="_Path_35" data-name=" Path 35" class="cls-23" points="5.03 98.17 14.47 98.17 12.23 85.23 2.79 85.23 5.03 98.17"/><path class="cls-30" d="M297.11,93.21a1.34,1.34,0,0,1-1.28.93h0l-21.21-.08L248.16,94V84.51l27.19,3.32,8.29,1L285.38,87a1.68,1.68,0,0,1,2-.33l9,4.93A1.35,1.35,0,0,1,297.11,93.21Z"/><g id="_Group_3" data-name=" Group 3"><path id="_Path_42" data-name=" Path 42" class="cls-28" d="M185.92,93.21a2.73,2.73,0,0,0,3.18.3L208.64,82A2.73,2.73,0,1,0,206,77.24h0l-.14.08L186.34,88.81a2.73,2.73,0,0,0-.42,4.4Z"/></g><path id="_Path_43" data-name=" Path 43" class="cls-30" d="M199.16,74.82l4.41,2.25c7.93,0,14.9-6.61,13-14.33L213.7,47.33c-1.55-5.59-5.85-8.14-11.68-8.14h0a10.58,10.58,0,0,0-10.58,10.21,1.63,1.63,0,0,0,.14.69V62.55A13.75,13.75,0,0,0,199.16,74.82Z"/><path id="_Path_44" data-name=" Path 44" class="cls-31" d="M211.51,71.56c-.74-.32-1.05-1.77-1.91-1.77l-.63.49c0-.15-.58.16-.56,0s-3.12,1.2-2.3-2.25l.44-3.09a9.55,9.55,0,0,0,2.76-6.61l1.27-6.59v-.28l2.36,10C214.07,66.9,212.6,69.19,211.51,71.56Z"/><path id="_Path_45" data-name=" Path 45" class="cls-28" d="M214.69,76.18,224,79.32a8.5,8.5,0,0,0,5.23.07h0a8.5,8.5,0,0,1,4.88,0L248,83.54l-.81,5.7a6,6,0,0,1-5.89,5.07H225L193.44,83.22l-2.22-4.46V76.06a6.66,6.66,0,0,1,6.66-6.66h10.8C213.14,69.44,214.69,72.46,214.69,76.18Z"/><path id="_Path_46" data-name=" Path 46" class="cls-32" d="M206,64.23v4.15a6.67,6.67,0,0,1-3.88,1.28h-1.34a5.42,5.42,0,0,1-2.5-.62h0V65.79h0Z"/><path class="cls-28" d="M210.42,77.06l11,11.62c.11.12.18.32,0,.32H206v5.25h18.89a4.07,4.07,0,0,0,3-6.7L215.75,74l-1.14-1.9a5.49,5.49,0,0,0-4.71-2.66H206V63.85L198.29,63v6.68l-3.83,6.88h.25"/><path id="_Path_47" data-name=" Path 47" class="cls-28" d="M209.81,79.12a5.33,5.33,0,0,1,.91,3h0a5.36,5.36,0,0,1-5.36,5.34H194.27a5.36,5.36,0,0,1-5.36-5.36h0a5.35,5.35,0,0,1,2.3-4.4"/><path id="_Path_48" data-name=" Path 48" class="cls-33" d="M192.65,60.86c0-3.83,1.54-9.77-.18-11.82-.9-1.09-3.26.55-3.26.63Z"/><path id="_Path_49" data-name=" Path 49" class="cls-34" d="M209.87,51.64v6.61h0a9.48,9.48,0,0,1-9.48,9.48h0a9.48,9.48,0,0,1-9.48-9.48h0V50.12a4.88,4.88,0,0,1,4.88-4.88H205a4.88,4.88,0,0,1,4.88,4.88v2.34"/><path id="_Path_50" data-name=" Path 50" class="cls-32" d="M209.87,51.64v6.61h0a9.48,9.48,0,0,1-9.48,9.48h-1.85a9.48,9.48,0,0,0,9.14-9.48h0V50.11a4.88,4.88,0,0,0-4.88-4.88H205a4.88,4.88,0,0,1,4.88,4.88v1.53Z"/><path id="_Path_51" data-name=" Path 51" class="cls-23" d="M209.87,51.59V58.2h0a9.48,9.48,0,0,1-9.47,9.48h0a9.48,9.48,0,0,1-9.48-9.48V50a4.88,4.88,0,0,1,4.88-4.88H205A4.88,4.88,0,0,1,209.92,50v2.34"/><path id="_Path_52" data-name=" Path 52" class="cls-23" d="M196.48,59.56A1.43,1.43,0,0,1,195,58.13h0"/><path id="_Path_53" data-name=" Path 53" class="cls-23" d="M191,53.33a2.35,2.35,0,0,1,3.71.18"/><circle id="_Path_54" data-name=" Path 54" class="cls-9" cx="192.65" cy="55.24" r="1.16"/><ellipse id="_Path_55" data-name=" Path 55" class="cls-27" cx="192.5" cy="55.61" rx="0.59" ry="0.59"/><circle id="_Path_56" data-name=" Path 56" class="cls-9" cx="200.09" cy="55.24" r="1.16"/><ellipse id="_Path_57" data-name=" Path 57" class="cls-27" cx="199.94" cy="55.61" rx="0.57" ry="0.59"/><path id="_Path_58" data-name=" Path 58" class="cls-35" d="M194.69,62.69a4.42,4.42,0,0,1,.29.42,1.39,1.39,0,0,0,.56.52,2.39,2.39,0,0,0,2,0,1.42,1.42,0,0,0,.51-.46l.37-.53c-.71,0-.91-.46-1.3-.46h-1.31C195.41,62.16,195.35,62.75,194.69,62.69Z"/><path id="_Path_59" data-name=" Path 59" class="cls-23" d="M198.47,53.33a2.35,2.35,0,0,1,3.71.18"/><path id="_Path_60" data-name=" Path 60" class="cls-30" d="M207.7,56.92V52.78a.63.63,0,0,0-.63-.62c-3.94,0-13.94.55-17.84-2.5h0c0-5.86,4.59-11.4,12.3-11.4h0c5.86,0,11.14,3.26,12.31,9.59l1.45,7.75"/><path id="_Path_61" data-name=" Path 61" class="cls-36" d="M207.7,57.16a2.37,2.37,0,1,1,1.2,2.06"/><path id="_Path_62" data-name=" Path 62" class="cls-37" d="M198.93,66.09l1.7,3.26a.88.88,0,0,1-.29,1.14h0a.88.88,0,0,1-1.21-.26v0l-1.3-2.37"/><path id="_Path_63" data-name=" Path 63" class="cls-23" d="M210.07,56.2a1,1,0,0,1,1,1"/><circle id="_Path_64" data-name=" Path 64" class="cls-8" cx="209.93" cy="59.09" r="0.62"/><g id="_Group_4" data-name=" Group 4"><line id="_Path_65" data-name=" Path 65" class="cls-23" x1="193.27" y1="68.3" x2="191.9" y2="65.29"/><path id="_Path_66" data-name=" Path 66" class="cls-37" d="M193.06,67.34a.68.68,0,0,0,.81-.93l-1.37-3a.68.68,0,0,0-1.24.56l1.37,3A.68.68,0,0,0,193.06,67.34Z"/></g><g id="_Group_5" data-name=" Group 5"><path id="_Path_67" data-name=" Path 67" class="cls-37" d="M187.67,93.75a2.73,2.73,0,0,0,2.59-1.87l7.1-21.52a2.73,2.73,0,0,0-5.14-1.85l0,.14-7.1,21.48a2.73,2.73,0,0,0,2.59,3.58Z"/></g><path id="_Path_68" data-name=" Path 68" class="cls-37" d="M197.18,70.94l1.92-3.37a1.3,1.3,0,0,0-.48-1.77l-.14-.07L194.34,64A1.3,1.3,0,0,0,192.52,65l-.34,3.66"/><line class="cls-23" x1="194.25" y1="78.07" x2="199.82" y2="94.26"/><polygon class="cls-38" points="184.36 72.11 194.25 78.07 210.11 78.07 215.28 94.26 199.82 94.26 189.19 88.75 184.36 72.11"/><path class="cls-30" d="M248.12,94.31l-4.88-.06,1.06-1.11a7.07,7.07,0,0,0,1.86-6l-.22-1.29a4.42,4.42,0,0,0-3-3.92h0l-4.75-14.32-2.81-8.47-2.07-1.76a1.29,1.29,0,0,1-.35-1.54h0l5-10.67a1.63,1.63,0,0,1,3.05.68,1.82,1.82,0,0,1,0,.23l-1.42,9.55L244.19,65l9.9,20.11a6.37,6.37,0,0,1-6,9.18Z"/><polyline class="cls-37" points="219.39 94.26 203.8 94.26 203.8 89 219.39 89"/><path id="_Path_69" data-name=" Path 69" class="cls-37" d="M207.18,89H202.4a.88.88,0,0,0-.88.88h0a.88.88,0,0,0,.88.88h4.79"/><path id="_Path_70" data-name=" Path 70" class="cls-37" d="M207.18,90.72H202.4a.88.88,0,0,0-.88.88h0a.88.88,0,0,0,.88.88h4.79"/><path id="_Path_71" data-name=" Path 71" class="cls-37" d="M207.18,92.51H202.4a.88.88,0,0,0-.88.88h0a.88.88,0,0,0,.88.88h4.79"/><polygon class="cls-39" points="184.36 72.11 189.19 88.75 199.82 94.26 194.25 78.07 184.36 72.11"/><path class="cls-28" d="M244.19,65l-6,2.54-2.81-8.47-2-1.68a1.36,1.36,0,0,1-.42-1.58h0l5-10.71a1.63,1.63,0,0,1,3.05.68,1.82,1.82,0,0,1,0,.23l-1.42,9.55Z"/><polygon class="cls-9" points="236.16 61.51 236.87 63.62 242.44 61.51 241.48 59.56 236.16 61.51"/><line class="cls-23" x1="237.42" y1="46.23" x2="240.77" y2="47.3"/><path class="cls-23" d="M234.42,52.72h0a5.54,5.54,0,0,1,1.13,6l-.15.38"/><path class="cls-28" d="M297.11,93.21a1.34,1.34,0,0,1-1.28.93H272.3l.7-6.62,10.58,1.29,1.74-1.88a1.68,1.68,0,0,1,2-.28l9,4.93A1.35,1.35,0,0,1,297.11,93.21Z"/><path class="cls-28" d="M295.48,91.07l-.19.14a2.85,2.85,0,0,0-1.11,2.93h0"/><path class="cls-28" d="M283.55,88.86l.15,0A5.08,5.08,0,0,0,289,87.54h0"/><polygon class="cls-9" points="276.27 87.97 275.6 94.19 278.04 94.18 278.64 88.26 276.27 87.97"/><line class="cls-23" x1="219.39" y1="89" x2="219.39" y2="94.14"/><path class="cls-37" d="M145.69,53.57,143.91,69s-12.15,9.11-12.45,9.19h-1.84A1.58,1.58,0,0,0,128,79.81h0v2.53a2.18,2.18,0,0,0,2.18,2.18h2.7l13-8.84a10.21,10.21,0,0,0,3.64-4.27L152,54.74Z"/><path id="_Path_72" data-name=" Path 72" class="cls-30" d="M154.55,39.07h0a6.35,6.35,0,0,1-3.87-4.41l-.36-1.47c-1.19-.88-2.16.41-2.08-1.07l-.87-4.88a10.79,10.79,0,0,1,10.45-12.71H158a10.37,10.37,0,0,1,10.37,10,1.58,1.58,0,0,1-.14.68l-.4,8.52C167.83,38.79,159.08,36.78,154.55,39.07Z"/><path class="cls-9" d="M149.81,84.09v9.45h-24v.11l-1,27.24h-8.65V91.58c0-4.53,3.13-7.48,9.59-7.48Z"/><path id="_Path_73" data-name=" Path 73" class="cls-40" d="M169.74,52l.45,32.9c-.61,4.72-3.33,4.5-8.09,4.52l-13.28,3.26L147.37,65l-2.12-7.62V52a7.39,7.39,0,0,1,7.39-7.39h9.71A7.39,7.39,0,0,1,169.74,52h0Z"/><path id="_Path_74" data-name=" Path 74" class="cls-37" d="M160.91,38.44V44c-.16,2.55-1.89,4.54-4,4.54h-2.21c-1.39,0-2.52-1.4-2.52-3.13V37.3Z"/><path id="_Path_75" data-name=" Path 75" class="cls-32" d="M161.08,38.44v6a7.84,7.84,0,0,1-4.39,1.37h-1.51a6.42,6.42,0,0,1-2.82-.66h0V37.6Z"/><path id="_Path_76" data-name=" Path 76" class="cls-33" d="M167.21,35.74c0-3.75-1.51-9.57.18-11.6.89-1.07,3.21.55,3.17.62Z"/><path id="_Path_77" data-name=" Path 77" class="cls-34" d="M150.31,26.71v6.51h0a9.3,9.3,0,0,0,9.3,9.3h0a9.3,9.3,0,0,0,9.3-9.3v-8a4.77,4.77,0,0,0-4.77-4.77h-9.05a4.77,4.77,0,0,0-4.77,4.77v2.3"/><path id="_Path_78" data-name=" Path 78" class="cls-32" d="M150.31,26.71v6.51h0a9.3,9.3,0,0,0,9.3,9.3h1.81a9.3,9.3,0,0,1-9-9.3h0v-8a4.77,4.77,0,0,1,4.75-4.77H155.1a4.77,4.77,0,0,0-4.77,4.77v1.51Z"/><path id="_Path_79" data-name=" Path 79" class="cls-23" d="M150.31,26.66v6.51h0a9.3,9.3,0,0,0,9.3,9.3h0a9.3,9.3,0,0,0,9.3-9.3v-8a4.77,4.77,0,0,0-4.77-4.77h-9.06a4.77,4.77,0,0,0-4.77,4.77v2.3"/><path id="_Path_80" data-name=" Path 80" class="cls-23" d="M163.46,34.47a1.41,1.41,0,0,0,1.41-1.41"/><path id="_Path_81" data-name=" Path 81" class="cls-35" d="M165.23,37.54a4.34,4.34,0,0,0-.28.42,1.37,1.37,0,0,1-.55.5,2.34,2.34,0,0,1-2,0,1.4,1.4,0,0,1-.5-.45l-.37-.52c.7,0,.9-.46,1.28-.46h1.29C164.51,37,164.59,37.6,165.23,37.54Z"/><path id="_Path_82" data-name=" Path 82" class="cls-41" d="M147.84,32.5,147,27a11.67,11.67,0,0,1,11.31-13.43h.17c7.56,0,12.07,5.43,12.07,11.18h0c-3.82,3-10.73,1.4-16,.42a.59.59,0,0,0-.62.55h0V29.6a2.28,2.28,0,0,1-2.28,2.28h0"/><path id="_Path_83" data-name=" Path 83" class="cls-36" d="M152.45,32.1a2.32,2.32,0,1,0-1.17,2"/><path id="_Path_84" data-name=" Path 84" class="cls-23" d="M150.13,31.18a.94.94,0,0,0-.94.93"/><circle id="_Path_85" data-name=" Path 85" class="cls-8" cx="150.26" cy="34.02" r="0.61"/><path id="_Path_86" data-name=" Path 86" class="cls-36" d="M143.43,82.94l-2.62-2.67a1.16,1.16,0,0,1,0-1.63h0a1.16,1.16,0,0,1,1.63,0L145,81.31a1.16,1.16,0,0,1,0,1.63h0A1.16,1.16,0,0,1,143.43,82.94Z"/><path id="_Path_87" data-name=" Path 87" class="cls-42" d="M156.71,65h-8.37A6,6,0,0,1,142.73,59h0a6.06,6.06,0,0,1,2.61-5"/><path id="_Path_88" data-name=" Path 88" class="cls-36" d="M141.9,83.68H136a1.16,1.16,0,0,1-1.16-1.16h0A1.16,1.16,0,0,1,136,81.37h5.93"/><path id="_Path_89" data-name=" Path 89" class="cls-37" d="M146.74,83a1.14,1.14,0,0,1-.81.33,1.16,1.16,0,0,1-.81-.35l-2.57-2.67A1.16,1.16,0,0,1,144,78.5l.15.15.57.59,2,2.08a1.15,1.15,0,0,1,0,1.62h0Z"/><path id="_Path_90" data-name=" Path 90" class="cls-9" d="M150,84.94H135.64a2.52,2.52,0,0,1-2.09-1.12l-10.1-15.09a1.17,1.17,0,0,1,1-1.82H138.8A2.52,2.52,0,0,1,140.89,68L151,83.09a1.17,1.17,0,0,1-1,1.86Z"/><path class="cls-37" d="M162,57.65,160.57,69s-12.16,9.1-12.44,9.18h-5.86v1.9c-1.51.63-2.6,1.34-2.39,2a3.26,3.26,0,0,0,2.39,2.22v.16h7.33l13-8.84h0a9.22,9.22,0,0,0,3.9-6.36l2.11-14.55Z"/><path id="_Path_91" data-name=" Path 91" class="cls-37" d="M145.5,80.33h-5.4a1.05,1.05,0,0,1-1.05-1.05h0a1.05,1.05,0,0,1,1.05-1.05h5.4"/><path id="_Path_92" data-name=" Path 92" class="cls-37" d="M145.5,82.43h-5.4a1.05,1.05,0,0,1-1.05-1.05h0a1.05,1.05,0,0,1,1.05-1.05h5.4"/><path id="_Path_93" data-name=" Path 93" class="cls-37" d="M145.5,84.52h-5.4a1.05,1.05,0,0,1-1.05-1.05h0a1.05,1.05,0,0,1,1.05-1.05h5.4"/><path class="cls-6" d="M118.09,132.82l-13.21,4.71a1.4,1.4,0,0,1-1.38-1.69,1.24,1.24,0,0,1,.07-.23A1.51,1.51,0,0,1,104,135c1.36-1.19,2.74-2.44,4.07-3.8l4.52-5.27v-4.61h7.65l-.08,4.61.46,2.56A3.83,3.83,0,0,1,118.09,132.82Z"/><path class="cls-6" d="M130.22,132.82,117,137.53a1.4,1.4,0,0,1-1.38-1.69,1.24,1.24,0,0,1,.07-.23,1.51,1.51,0,0,1,.42-.57c1.36-1.19,2.74-2.44,4.07-3.8L124.7,126v-4.61h7.65l-.08,4.61.46,2.56A3.83,3.83,0,0,1,130.22,132.82Z"/><path class="cls-30" d="M121.76,129.79l-13.21,4.71a1.4,1.4,0,0,1-1.38-1.69,1.24,1.24,0,0,1,.07-.23,1.51,1.51,0,0,1,.42-.57c1.36-1.19,2.74-2.44,4.07-3.8l4.52-5.27v-2.19h7.65l-.08,2.21.46,2.56A3.83,3.83,0,0,1,121.76,129.79Z"/><path class="cls-18" d="M108.94,131h0a2.63,2.63,0,0,1,1.86,2.52v.24"/><path class="cls-13" d="M160.49,93.91a9.07,9.07,0,0,1-3,.51H132.83v.11l-1,26.73-7.24-.42,1.63-26.4Z"/><path class="cls-18" d="M120.13,130.4h0a6.27,6.27,0,0,1,3.87-5.7h.09"/><path class="cls-9" d="M170.2,84.9,170,86A9.16,9.16,0,0,1,161,93.92H136.33l1,.11-1,26.74h-8.65V92A7,7,0,0,1,133.61,85l-.19-.09,5.82,0Z"/><path id="_Path_94" data-name=" Path 94" class="cls-43" d="M135.24,71.18c.63.81.44,1.51-.46,1.51A4.07,4.07,0,0,1,132,71.18c-.63-.81-.44-1.51.46-1.51A4.07,4.07,0,0,1,135.24,71.18Z"/><path class="cls-30" d="M133.27,129.79l-13.21,4.71a1.4,1.4,0,0,1-1.38-1.69,1.24,1.24,0,0,1,.07-.23,1.51,1.51,0,0,1,.42-.57c1.36-1.19,2.74-2.44,4.07-3.8l4.52-5.27v-2.19h7.65l-.08,2.21.46,2.56A3.83,3.83,0,0,1,133.27,129.79Z"/><polyline class="cls-42" points="168.8 54.23 168.02 59.24 161.82 58.15 162.38 53.9"/><path id="_Path_95" data-name=" Path 95" class="cls-37" d="M130.87,82.43h1.72a1.05,1.05,0,0,1,1.05,1.05h0a1.05,1.05,0,0,1-1.05,1.05h-2.82"/><path id="_Path_96" data-name=" Path 96" class="cls-37" d="M130.87,80.33h1.72a1.05,1.05,0,0,1,1.05,1.05h0a1.05,1.05,0,0,1-1.05,1.05h-1.81"/><path id="_Path_97" data-name=" Path 97" class="cls-37" d="M129.12,78.23h3.47a1.05,1.05,0,0,1,1.05,1.05v0h0a1.05,1.05,0,0,1-1.05,1.05h-2.05"/><path class="cls-18" d="M120.45,131h0a2.63,2.63,0,0,1,1.86,2.52v.24"/><path class="cls-18" d="M131.64,130.4h0a6.27,6.27,0,0,1,3.87-5.7h.09"/><path class="cls-44" d="M37.52,106.37l-26.1,39.25s26.1.75,26.1,0Z"/><path id="_Path_98" data-name=" Path 98" class="cls-45" d="M168.07,29a.37.37,0,0,1-.55.4,2.39,2.39,0,0,0-1.12-.28c-1.42,0-1.68.77-1.68.77a1.52,1.52,0,0,1,1.63-2C167.56,27.89,168,28.48,168.07,29Z"/><path id="_Path_99" data-name=" Path 99" class="cls-46" d="M168,28.29a2.06,2.06,0,0,0-3.26.16"/><path id="_Path_100" data-name=" Path 100" class="cls-46" d="M160.67,28.29a2.06,2.06,0,0,0-3.26.16"/><path id="_Path_101" data-name=" Path 101" class="cls-45" d="M160.52,29a.37.37,0,0,1-.55.4,2.39,2.39,0,0,0-1.12-.28c-1.42,0-1.68.77-1.68.77a1.52,1.52,0,0,1,1.63-2C160,27.89,160.41,28.48,160.52,29Z"/><circle id="_Path_102" data-name=" Path 102" class="cls-47" cx="166.56" cy="30.22" r="1.16"/><ellipse id="_Path_103" data-name=" Path 103" class="cls-27" cx="166.72" cy="30.59" rx="0.59" ry="0.59"/><circle id="_Path_104" data-name=" Path 104" class="cls-47" cx="159.13" cy="30.22" r="1.16"/><ellipse id="_Path_105" data-name=" Path 105" class="cls-27" cx="159.28" cy="30.59" rx="0.57" ry="0.59"/></svg>