<svg xmlns="http://www.w3.org/2000/svg" viewBox="0 0 488.98 145.59"><defs><style>.cls-1,.cls-7{isolation:isolate;}.cls-11,.cls-15,.cls-2{fill:none;}.cls-11,.cls-12,.cls-13,.cls-15,.cls-18,.cls-2,.cls-20,.cls-22,.cls-23,.cls-3,.cls-4,.cls-5,.cls-6,.cls-9{stroke:#640c19;}.cls-2,.cls-22,.cls-6{stroke-linejoin:round;}.cls-11,.cls-12,.cls-13,.cls-15,.cls-18,.cls-2,.cls-20,.cls-22,.cls-23,.cls-3,.cls-5,.cls-6,.cls-9{stroke-width:1.73px;}.cls-3{fill:#9c5443;}.cls-11,.cls-12,.cls-13,.cls-15,.cls-18,.cls-20,.cls-23,.cls-3,.cls-4,.cls-5,.cls-8,.cls-9{stroke-miterlimit:10;}.cls-4{fill:#cc7f6e;}.cls-4,.cls-8{stroke-width:1.83px;}.cls-5{fill:#c08172;}.cls-6{fill:#eabd5a;}.cls-21,.cls-7{fill:#640c19;}.cls-7{opacity:0.19;}.cls-8{fill:#74382f;stroke:#4f1319;}.cls-9{fill:#e15a59;}.cls-11,.cls-12,.cls-18,.cls-20,.cls-22,.cls-23,.cls-9{stroke-linecap:round;}.cls-10{fill:#cf3f3e;}.cls-12{fill:#f37575;}.cls-13{fill:#f7f0ee;}.cls-14{fill:#ead9d3;}.cls-16,.cls-23{fill:#cee1df;}.cls-17{fill:#a5cdcb;}.cls-18{fill:#f48920;}.cls-19{fill:#df7526;}.cls-20{fill:#f9a355;}.cls-22{fill:#ffd672;}.cls-24,.cls-89{fill:#fff;}.cls-25{fill:#101716;}.cls-26{fill:#0f1716;}.cls-27{fill:#4e5958;}.cls-28,.cls-29{fill:#50736c;}.cls-28{opacity:0.2;}.cls-28,.cls-29,.cls-46,.cls-49,.cls-77,.cls-81,.cls-88,.cls-96{mix-blend-mode:screen;}.cls-101,.cls-103,.cls-29,.cls-33,.cls-46,.cls-47,.cls-49,.cls-64,.cls-65,.cls-66,.cls-75,.cls-77,.cls-84,.cls-86,.cls-88,.cls-96{opacity:0.5;}.cls-30{fill:#7d6b4b;}.cls-31{fill:#0fafa4;}.cls-32{fill:#29211f;}.cls-33{fill:#b89458;}.cls-101,.cls-103,.cls-33,.cls-34,.cls-35,.cls-38,.cls-40,.cls-43,.cls-44,.cls-47,.cls-50,.cls-57,.cls-64,.cls-65,.cls-66,.cls-75,.cls-80,.cls-84,.cls-95{mix-blend-mode:multiply;}.cls-34,.cls-36,.cls-47{fill:#c6c6c6;}.cls-103,.cls-37{fill:#ebcb57;}.cls-38{fill:#c5dbd9;}.cls-39{fill:#463936;}.cls-40{fill:#c5c5c5;}.cls-41{fill:#0ba399;}.cls-42{fill:#889aa2;}.cls-43{fill:#b6ced8;opacity:0.56;}.cls-44{fill:#344b63;}.cls-45{fill:#3fbfb6;}.cls-46{fill:#e1ebef;}.cls-48,.cls-49,.cls-50{fill:#ffb434;}.cls-50,.cls-80{opacity:0.25;}.cls-51{fill:#fec9a9;}.cls-52{fill:#0b2f47;}.cls-53,.cls-57,.cls-65{fill:#ffd2a2;}.cls-54{fill:#eb4966;}.cls-55{fill:#d93250;}.cls-56{fill:#e66c82;}.cls-58,.cls-66{fill:#ffdbb5;}.cls-59{fill:#ff5f7c;}.cls-60{fill:#ed4967;}.cls-61{fill:#ff91a5;}.cls-62{fill:#3e1f19;}.cls-63,.cls-75{fill:#e6552a;}.cls-64,.cls-74{fill:#ffc699;}.cls-67{fill:#5c3128;}.cls-68{fill:#522921;}.cls-69{fill:#dd5357;}.cls-70{fill:#9e774c;}.cls-71{fill:#a9b88a;}.cls-72{fill:#ffe2c4;}.cls-73{fill:#432918;}.cls-76{fill:#e6e4d4;}.cls-77,.cls-81{fill:#a19e8a;}.cls-78{fill:#dedbc6;}.cls-79{fill:#bfbdb1;}.cls-80{fill:#afac9d;}.cls-82{fill:#bdbbb4;}.cls-83,.cls-84{fill:#db3327;}.cls-85,.cls-86{fill:#6e3f34;}.cls-86{mix-blend-mode:color-burn;}.cls-87{fill:#532f27;}.cls-88{fill:#f9be78;}.cls-89{opacity:0.83;}.cls-90{fill:#64502d;}.cls-91{fill:#728735;}.cls-92{fill:#869e3e;}.cls-93{fill:#97ab5b;}.cls-94,.cls-96{fill:#d28f42;}.cls-95{fill:#c8c5b5;}.cls-97{fill:#f2e9c6;}.cls-98{fill:#695d49;}.cls-99{fill:#6a7e7e;}.cls-100{fill:#ed8758;}.cls-101{fill:#ddede2;}.cls-102{fill:#719f9d;}</style></defs><title>cardimg2</title><g class="cls-1"><g id="Layer_1" data-name="Layer 1"><line class="cls-2" x1="426.4" y1="145.34" x2="832.42" y2="145.34"/><path class="cls-3" d="M441,102h17.24v43.37H433.8V109.13a7.15,7.15,0,0,1,7.14-7.16h0Z"/><rect class="cls-4" x="450.33" y="116.42" width="76.18" height="28.92"/><rect class="cls-4" x="454.57" y="125.76" width="67.7" height="16.44"/><rect class="cls-5" x="454.57" y="106.37" width="67.7" height="10.05"/><path class="cls-5" d="M522.11,102H454.76a4.4,4.4,0,0,0-4.4,4.4h76.18a4.4,4.4,0,0,0-4.4-4.4Z"/><rect class="cls-5" x="450.33" y="106.37" width="4.24" height="10.05"/><path class="cls-6" d="M490.4,135.94h-4a2,2,0,0,1-2-2h0a2,2,0,0,1,2-2h4a2,2,0,0,1,2,2h0A2,2,0,0,1,490.4,135.94Z"/><path class="cls-7" d="M492.15,134.84a2,2,0,0,1-1.76,1.11h-4a2,2,0,0,1-1.76-1.11,1.87,1.87,0,0,1,.37-.53,2,2,0,0,1,1.38-.57h4A2,2,0,0,1,492.15,134.84Z"/><rect class="cls-8" x="454.57" y="106.37" width="67.7" height="10.05"/><g id="_Group_" data-name=" Group "><path id="_Path_" data-name=" Path " class="cls-9" d="M473.64,109.72v2.21h.66v.71H460.54a1.82,1.82,0,1,1,0-3.63H474.3v.71Z"/><path id="_Path_2" data-name=" Path 2" class="cls-10" d="M466.85,110.82v1.82h-6.31a1.73,1.73,0,0,1-1.82-1.63,1.34,1.34,0,0,1,0-.19Z"/><path id="_Path_3" data-name=" Path 3" class="cls-11" d="M473.64,109.72v2.21h.66v.71H460.54a1.82,1.82,0,1,1,0-3.63H474.3v.71Z"/><path id="_Path_4" data-name=" Path 4" class="cls-12" d="M479.69,109.72v2.21H480a.36.36,0,0,1,.36.36h0a.36.36,0,0,1-.36.36H466.64a1.85,1.85,0,0,1-1.86-1.79,1.82,1.82,0,0,1,1.79-1.84H480a.36.36,0,0,1,.36.36h0a.36.36,0,0,1-.36.36h0Z"/><path id="_Path_5" data-name=" Path 5" class="cls-11" d="M462.48,112.65h-.31a1.82,1.82,0,1,1,0-3.63h.27"/><path id="_Path_6" data-name=" Path 6" class="cls-11" d="M464.61,112.65h-.3a1.82,1.82,0,0,1,0-3.63h.24"/><path id="_Path_7" data-name=" Path 7" class="cls-13" d="M479.69,111.93h-13a1.11,1.11,0,0,1-1.11-1.11h0a1.11,1.11,0,0,1,1.11-1.11h13Z"/><path id="_Path_8" data-name=" Path 8" class="cls-13" d="M464.3,112.65h-2.12a1.82,1.82,0,1,1,0-3.63h2.14a1.82,1.82,0,0,0,0,3.63Z"/><path id="_Path_9" data-name=" Path 9" class="cls-14" d="M464.3,112.65h-2.12a1.82,1.82,0,0,1-1.82-1.82h2.12a1.82,1.82,0,0,0,1.82,1.82Z"/><path id="_Path_10" data-name=" Path 10" class="cls-14" d="M479.69,109.72v.71h-13a1.11,1.11,0,0,0-1.05.75,1.11,1.11,0,0,1,1.05-1.47Z"/><path id="_Path_11" data-name=" Path 11" class="cls-11" d="M464.3,112.65h-2.12a1.82,1.82,0,1,1,0-3.63h2.14a1.82,1.82,0,0,0,0,3.63Z"/><path id="_Path_12" data-name=" Path 12" class="cls-15" d="M479.69,111.93h-13a1.11,1.11,0,0,1-1.11-1.11h0a1.11,1.11,0,0,1,1.11-1.11h13Z"/></g><path id="_Path_13" data-name=" Path 13" class="cls-16" d="M495.34,112.17v3.11h.94v1H484a2.56,2.56,0,0,1-.33-5.1h12.66v1Z"/><path id="_Path_14" data-name=" Path 14" class="cls-17" d="M494.65,113.72v2.56H484A2.44,2.44,0,0,1,481.4,114a1.87,1.87,0,0,1,0-.27Z"/><path id="_Path_15" data-name=" Path 15" class="cls-11" d="M495.34,112.17v3.11h.94v1H484a2.56,2.56,0,0,1-.33-5.1h12.66v1Z"/><path id="_Path_17" data-name=" Path 17" class="cls-13" d="M490.31,116.28h-1.08a2.56,2.56,0,0,1-.33-5.1h1.41a2.56,2.56,0,0,0-.33,5.1h.33Z"/><path id="_Path_18" data-name=" Path 18" class="cls-14" d="M490.31,116.28h-1.08a2.56,2.56,0,0,1-2.56-2.56h1.08a2.56,2.56,0,0,0,2.56,2.56Z"/><path id="_Path_20" data-name=" Path 20" class="cls-11" d="M487.33,111.17h3a2.56,2.56,0,0,0-.33,5.1h-.77"/><path id="_Path_21" data-name=" Path 21" class="cls-11" d="M489.23,116.28a2.56,2.56,0,0,1-.28-5.1h.28"/><g id="_Group_2" data-name=" Group 2"><path id="_Path_22" data-name=" Path 22" class="cls-18" d="M470.94,113.36v2.21h.68v.71H457.85a1.82,1.82,0,0,1,0-3.63h13.79v.71Z"/><path id="_Path_23" data-name=" Path 23" class="cls-19" d="M464.15,114.46v1.82h-6.3a1.73,1.73,0,0,1-1.82-1.63,1.34,1.34,0,0,1,0-.19Z"/><path id="_Path_24" data-name=" Path 24" class="cls-11" d="M470.94,113.36v2.21h.68v.71H457.85a1.82,1.82,0,0,1,0-3.63h13.79v.71Z"/><path id="_Path_25" data-name=" Path 25" class="cls-20" d="M477,113.36v2.21h.33a.36.36,0,0,1,.36.36h0a.36.36,0,0,1-.36.36H463.94a1.85,1.85,0,0,1-1.86-1.79,1.82,1.82,0,0,1,1.79-1.84h13.45a.36.36,0,0,1,.36.36h0a.36.36,0,0,1-.36.36h0Z"/><path id="_Path_26" data-name=" Path 26" class="cls-13" d="M477,115.57H464a1.11,1.11,0,0,1-1.11-1.11h0a1.11,1.11,0,0,1,1.11-1.11h13Z"/><path id="_Path_27" data-name=" Path 27" class="cls-14" d="M477,113.36v.71H464a1.11,1.11,0,0,0-1.05.75,1.11,1.11,0,0,1,1.05-1.47Z"/><path id="_Path_28" data-name=" Path 28" class="cls-15" d="M477,115.57H464a1.11,1.11,0,0,1-1.11-1.11h0a1.11,1.11,0,0,1,1.11-1.11h13Z"/><path id="_Path_29" data-name=" Path 29" class="cls-11" d="M461.43,116.28h-2.12a1.82,1.82,0,0,1,0-3.63h2.14a1.82,1.82,0,0,0,0,3.63Z"/></g><polygon id="_Path_30" data-name=" Path 30" class="cls-21" points="483.58 102.02 491.06 102.02 491.06 84.1 483.58 102.02 483.58 102.02"/><polygon id="_Path_31" data-name=" Path 31" class="cls-9" points="490.67 102.12 506.8 102.12 503.45 81.27 487.32 81.27 490.67 102.12"/><polygon id="_Path_36" data-name=" Path 36" class="cls-21" points="456.81 101.97 466.63 101.97 466.63 78.44 456.81 101.97 456.81 101.97"/><polygon id="_Path_37" data-name=" Path 37" class="cls-22" points="466.61 102.12 487.31 102.12 482.92 74.73 462.21 74.73 466.61 102.12"/><polygon id="_Path_38" data-name=" Path 38" class="cls-23" points="470.5 96.93 482.92 96.93 479.98 79.93 467.57 79.93 470.5 96.93"/><polygon id="_Path_39" data-name=" Path 39" class="cls-24" points="480.9 96.93 482.92 96.93 481.95 91.32 477.36 79.93 473.03 79.93 480.9 96.93"/><polygon id="_Path_40" data-name=" Path 40" class="cls-24" points="478.97 96.93 479.98 96.93 472.11 79.93 471.1 79.93 478.97 96.93"/><polygon id="_Path_41" data-name=" Path 41" class="cls-11" points="470.5 96.93 482.92 96.93 479.98 79.93 467.57 79.93 470.5 96.93"/><path class="cls-24" d="M439.45,128.29h0a1.38,1.38,0,0,1-1.38-1.38h0v-8.08h2.75v8.08a1.38,1.38,0,0,1-1.38,1.38Z"/><polygon class="cls-25" points="3.54 111.37 -3.58 111.37 -2.9 107.7 2.86 107.7 3.54 111.37"/><rect class="cls-26" x="-31.93" y="70" width="63.82" height="38.91" rx="0.89" ry="0.89"/><rect class="cls-27" x="-29.68" y="72.42" width="59.22" height="33.4"/><rect class="cls-25" x="-11.3" y="111.37" width="22.56" height="1.96"/><polygon class="cls-28" points="8.51 72.42 -24.89 105.82 -29.68 105.82 -29.68 74.33 -27.77 72.42 8.51 72.42"/><polygon class="cls-28" points="29.54 77.34 29.54 105.82 0.82 105.82 29.54 77.34"/><path class="cls-29" d="M31.81,70.89V71H-32v-.12a.89.89,0,0,1,.89-.89h62A.89.89,0,0,1,31.81,70.89Z"/><rect class="cls-30" x="-52.87" y="113.33" width="106.37" height="3.54"/><rect class="cls-31" x="0.45" y="116.87" width="52.6" height="11.58"/><rect class="cls-31" x="-52.15" y="116.87" width="52.6" height="11.58"/><rect class="cls-32" x="45.41" y="128.46" width="7.64" height="3.38"/><rect class="cls-33" x="-0.03" y="116.87" width="0.96" height="11.59"/><rect class="cls-34" x="-52.15" y="116.87" width="105.21" height="0.74"/><rect class="cls-34" x="45.41" y="128.46" width="7.64" height="1.68"/><rect class="cls-30" x="-52.15" y="127.23" width="105.21" height="1.24"/><g class="cls-35"><circle class="cls-36" cx="13.3" cy="121.6" r="1.43"/><circle class="cls-36" cx="40.2" cy="121.6" r="1.43"/></g><circle class="cls-37" cx="13.3" cy="121.24" r="1.43"/><circle class="cls-37" cx="40.2" cy="121.24" r="1.43"/><path class="cls-38" d="M257.65,131.78c0,1.71-24,1-53.71,1s-53.71.66-53.71-1c0-1.39,24-1,53.71-1S257.65,130.39,257.65,131.78Z"/><polygon class="cls-39" points="167.53 119.6 165.98 122.46 160.81 132.04 157.22 132.04 159.54 122.46 160.27 119.49 160.3 119.49 167.53 119.6"/><path class="cls-39" d="M248.95,132h-3.59l-5.17-9.57-1.55-2.86,7-.11h.24l.72,3Z"/><path class="cls-40" d="M245.9,119.49l.72,3h-6.43l-1.55-2.86H167.53L166,122.46h-6.43l.72-3h0a19,19,0,0,1-7.92-2.27H253.59a19,19,0,0,1-7.92,2.27Z"/><path class="cls-41" d="M246,57.64s0,0,0,.06l-.07,1.49-.79,15.86h0l-.25,5-.4,8.13v.19l0,.48,0,.72-.15,3.06,0,.68-.64,12.82a4.12,4.12,0,0,1-.74,2.14,4.18,4.18,0,0,1-.35.44l-.05.06a4.2,4.2,0,0,1-3,1.34H166.6a4.19,4.19,0,0,1-3-1.34l-.05-.06a4.23,4.23,0,0,1-1.09-2.58l-.64-12.82,0-.68-.15-3.06,0-.72,0-.48v-.19l-.65-13.16h0l-.79-15.87L160,57.69s0,0,0-.06a3.84,3.84,0,0,1,.25-1.53A3.74,3.74,0,0,1,162.4,54a3.8,3.8,0,0,1,1.39-.26h78.38A3.76,3.76,0,0,1,246,57.64Z"/><rect class="cls-42" x="151.54" y="92.67" width="102.45" height="21.24"/><path class="cls-31" d="M263,78.17c-.24,4.7-.9,12.66-1.4,18.69-.23,2.7-.42,5-.52,6.49a19.47,19.47,0,0,1-3.21,10,13.29,13.29,0,0,1-3,3,13.44,13.44,0,0,1-1.28.82,19,19,0,0,1-7.92,2.27h0c-.81.07-1.67.11-2.57.11H162.88q-1.36,0-2.58-.11a19,19,0,0,1-7.92-2.27c-6.38-3.63-7.26-10.51-7.51-13.88-.35-4.73-1.57-18.36-1.92-25.18s3.49-6.11,7.17-5.95a18.28,18.28,0,0,1,3,.47,74.62,74.62,0,0,1,8.21,2.52L162,89.38c-3.57,1.81-6.13,5.94-6.8,7.11h0c-.12.2-.18.32-.18.32,0,10,1.23,12,7.86,12l13.39,0,26.28,0h.85l39.67,0c6.63,0,7.86-2,7.86-12,0,0-.06-.12-.18-.32h0c-.67-1.18-3.23-5.3-6.8-7.11l.48-9.7.22-4.47a74.67,74.67,0,0,1,8.21-2.52,18.28,18.28,0,0,1,3-.47C259.52,72.05,263.37,71.35,263,78.17Z"/><path class="cls-43" d="M162,89.38c-3.57,1.81-6.13,5.94-6.8,7.11h0l-2.11-23.8a75.52,75.52,0,0,1,8.21,2.52Z"/><path class="cls-43" d="M244,89.38c3.57,1.81,6.13,5.94,6.8,7.11h0l2.11-23.8a75.47,75.47,0,0,0-8.21,2.52Z"/><path class="cls-44" d="M250.66,93.68c-2.09-4.29-11.52-7.07-16-7.07H171.34c-4.52,0-13.94,2.79-16,7.07A9.73,9.73,0,0,0,155,96.5v4.63c.77,5.18,1.26,8,8.33,7.63h79.27c7.07.4,7.56-2.45,8.33-7.63V96.5A9.71,9.71,0,0,0,250.66,93.68Z"/><path class="cls-45" d="M250.94,95.09v5c0,4.46-3.72,8.25-9.12,8.25H164.15c-5.4,0-9.12-3.79-9.12-8.25v-5a3.94,3.94,0,0,1,.41-1.71v0c.94-1.93,3.33-3.64,6.09-5l.9-.4a25.16,25.16,0,0,1,8.91-2.19h63.28l.71,0c4.72.3,13.2,3.44,15.18,7.52v0A3.92,3.92,0,0,1,250.94,95.09Z"/><path class="cls-46" d="M250.53,93.38H155.4c.95-1.94,3.36-3.67,6.14-5l.9-.4a25.13,25.13,0,0,1,8.86-2.16h64c4.72.3,13.2,3.44,15.18,7.52Z"/><path class="cls-31" d="M246,57.64H160a3.84,3.84,0,0,1,.25-1.53A3.74,3.74,0,0,1,162.4,54a3.8,3.8,0,0,1,1.39-.26h78.38A3.76,3.76,0,0,1,246,57.64Z"/><path class="cls-47" d="M227.44,83.19c.4-1.28.94-2.95,1.78-6.47.76-3.21,1-4.94,1.25-6.23a22.34,22.34,0,0,1,.55-2.66.83.83,0,0,1,1-.6s3.55,1.08,9.15,2.4c5.42,1.28,8.8,1.87,9.21,1.94h0a.84.84,0,0,1,.67,1c-.3,2.33-1.18,3.74-2.37,8.75-.89,3.76-1.41,6.61-1.64,8-.1.59-.15.92-.15.92a.8.8,0,0,1-1,.6h0l-.07,0s-.5-.16-1.64-.48c-1.42-.4-3.83-1-7.51-1.9-6.65-1.57-9.25-2-9.25-2a.81.81,0,0,1-.67-1A19.81,19.81,0,0,1,227.44,83.19Z"/><path class="cls-48" d="M226.15,84.19a.81.81,0,0,0,.67,1s2.6.39,9.25,2c3.69.87,6.1,1.51,7.51,1.9,1.15.32,1.64.48,1.64.48l.07,0h0a.79.79,0,0,0,1-.6s0-.32.15-.92c.23-1.37.76-4.22,1.64-8,1.18-5,2.06-6.42,2.36-8.75a.84.84,0,0,0-.67-1h0c-.42-.07-3.79-.66-9.21-1.94-5.6-1.32-9.15-2.4-9.15-2.4a.83.83,0,0,0-1,.6,22.44,22.44,0,0,0-.54,2.66c-.21,1.29-.49,3-1.25,6.23-.83,3.52-1.38,5.18-1.78,6.47A19.84,19.84,0,0,0,226.15,84.19Z"/><path class="cls-49" d="M244.95,78.38a14.29,14.29,0,0,1,4.77-8.09h0a.84.84,0,0,1,.67,1c-.3,2.33-1.18,3.74-2.36,8.75-.89,3.76-1.41,6.61-1.64,8-.1.59-.15.92-.15.92a.79.79,0,0,1-1,.6h0a11.24,11.24,0,0,1-.62-2.27A24.89,24.89,0,0,1,244.95,78.38Z"/><path class="cls-50" d="M226.15,84.19a.81.81,0,0,0,.67,1s2.6.39,9.25,2c3.69.87,6.1,1.51,7.51,1.9,1.15.32,1.64.48,1.64.48l.07,0a11.24,11.24,0,0,1-.62-2.27c-4-1.69-12.18-4.86-17.93-5.37A19.84,19.84,0,0,0,226.15,84.19Z"/><polygon class="cls-51" points="186.88 62.23 187.65 70.84 192.4 70.72 192.02 62.99 186.88 62.23"/><path class="cls-52" d="M189.79,92.77a12.54,12.54,0,0,1-.73-7.12,15.53,15.53,0,0,1,6-9.14c4.4.11,5.26,2.92,9.09,2.55s6.28-.81,7.11-.38c1.9,1,3.52,3.57,4.17,5.11a6,6,0,0,1-.09,4,6.58,6.58,0,0,1-2.62,3.34Z"/><path class="cls-53" d="M200.89,130.2c-2,2.49-3.44,2.32-5.46,2.25-.88,0-3.93-14.6-4.87-23.24-1.12-10.26-2-18.19-2-18.3.05-2.8,1.69-5,4.51-5a4.63,4.63,0,0,1,4.68,4.92,174.87,174.87,0,0,0-.26,18.89c.2,5,.54,9.9.85,12.35l.3.88c.71,2.12,1.44,4.43,1.76,5.38A10.93,10.93,0,0,1,200.89,130.2Z"/><path class="cls-24" d="M201.88,131.54c-.17.61-.49,2.63-.65,3.35s.73,1.42-.63,3.47-5.2,3.1-6.73,2.63a1.89,1.89,0,0,1-1.31-2.07c.52,1.29,1.21,1.23,1.21,1.23s.09-.77.7-.88,1.14.54,1.14.54a12.28,12.28,0,0,0,2.31-.83,5.9,5.9,0,0,0,2.78-3.81,14.33,14.33,0,0,0-.09-3.62,5.4,5.4,0,0,1,.56-2.17l0,.15C201.62,130.73,202.06,130.93,201.88,131.54Z"/><path class="cls-54" d="M201.17,129.37a5.4,5.4,0,0,0-.56,2.17,14.33,14.33,0,0,1,.09,3.62,5.9,5.9,0,0,1-2.78,3.81,12.28,12.28,0,0,1-2.31.83s-.52-.65-1.14-.54-.7.88-.7.88-.69.07-1.21-1.23a9.11,9.11,0,0,1,.07-.93c.1-1,.59-6.36.62-7.85a20.86,20.86,0,0,0-.18-2.84l.59-.24s.52,2.08.77,3.11a16.53,16.53,0,0,1,.09,3.7l2.66-.31a34.12,34.12,0,0,0,.52-3.55c.1-1,.19-2.46.27-3.92,0,.09,0,.17.06.27.12.67,1.1.66,1.18.13a16.66,16.66,0,0,0,0-2.07C200.22,125.28,200.78,128.09,201.17,129.37Z"/><path class="cls-55" d="M198,126.1c-.08,1.46-.17,2.88-.27,3.92a34.12,34.12,0,0,1-.52,3.55l-2.66.31a16.53,16.53,0,0,0-.09-3.7c-.25-1-.71-2.6-1-4a1.88,1.88,0,0,1,0-.76c.21-.72,1.19-.87,2.1-.79C196.92,124.69,197.71,125.22,198,126.1Z"/><rect class="cls-56" x="194.05" y="132.55" width="3.94" height="0.53" transform="translate(-9.55 15.32) rotate(-4.37)"/><rect class="cls-56" x="194" y="131.14" width="4.1" height="0.53" transform="translate(-9.44 15.31) rotate(-4.37)"/><rect class="cls-56" x="193.94" y="129.7" width="4.31" height="0.53" transform="translate(-9.33 15.32) rotate(-4.37)"/><polygon class="cls-56" points="198.39 128.78 193.7 129.13 193.66 128.6 198.35 128.25 198.39 128.78"/><rect class="cls-56" x="193.45" y="127.16" width="4.77" height="0.53" transform="translate(-9.16 15.33) rotate(-4.38)"/><path class="cls-57" d="M197.8,94.2s-3.94,25.45-5.24,28.15S200.07,111,200.07,111,198.26,97.49,197.8,94.2Z"/><path class="cls-58" d="M212.72,91.15a10.29,10.29,0,0,1-1.18.76c-.92.51-1.95,1-2.75,1.37l-2,.92a79.11,79.11,0,0,1-3.15,17.35c-1.88,5.87-6.54,14.33-7.12,15.5a37.76,37.76,0,0,1-1.93,6.58l-.21.44h0l-.37-.18-.09.09a2.28,2.28,0,0,1-1.71.7c-.69,0-.73-.14-1.4-.44-1-.45-1.93-1.87-2.6-3.28s-.55-1-.55-1.45A13.41,13.41,0,0,0,190.1,126c.86-1.43,2.16-2.61,3.23-5.19a61.83,61.83,0,0,0,2.86-11.21,148.68,148.68,0,0,0,1.43-15.71c.07-1.33.07-2.27.18-3,.39-2.78,3.51-4.67,6.22-4.61A11.57,11.57,0,0,1,212.72,91.15Z"/><path class="cls-24" d="M194.65,134.44c-.49.4-1.91,1.88-2.45,2.38s-.22,1.58-2.5,2.48-6-.43-7-1.69a1.89,1.89,0,0,1,.11-2.45c-.31,1.36.3,1.7.3,1.7s.51-.58,1.08-.32.62,1.09.62,1.09a12.3,12.3,0,0,0,2.37.64,5.9,5.9,0,0,0,4.45-1.53,14.34,14.34,0,0,0,2-3,5.39,5.39,0,0,1,1.7-1.46l0,.16C194.9,133.62,195.14,134,194.65,134.44Z"/><path class="cls-59" d="M195.3,132.26a5.39,5.39,0,0,0-1.7,1.46,14.34,14.34,0,0,1-2,3,5.9,5.9,0,0,1-4.45,1.53,12.3,12.3,0,0,1-2.37-.64s-.06-.84-.62-1.09-1.08.32-1.08.32-.61-.34-.3-1.7a9.07,9.07,0,0,1,.59-.72c.66-.76,4.12-4.88,5-6.08a20.83,20.83,0,0,0,1.48-2.43l.62.14s-.76,2-1.15,3a16.5,16.5,0,0,1-2,3.09l2.36,1.27a34.18,34.18,0,0,0,2.45-2.62c.67-.79,1.56-1.91,2.46-3.06,0,.09-.06.17-.1.26-.29.62.53,1.17.89.78a16.69,16.69,0,0,0,1.15-1.72C196.87,128.36,195.72,131,195.3,132.26Z"/><path class="cls-60" d="M194.56,127.74c-.9,1.15-1.78,2.27-2.46,3.06a34.18,34.18,0,0,1-2.45,2.62l-2.36-1.27a16.5,16.5,0,0,0,2-3.09c.38-1,.91-2.54,1.46-3.9a1.88,1.88,0,0,1,.45-.62c.58-.47,1.47,0,2.18.55C194.49,126,194.84,126.86,194.56,127.74Z"/><rect class="cls-61" x="188.84" y="130.16" width="0.53" height="3.94" transform="translate(-20.75 227.94) rotate(-59.48)"/><rect class="cls-61" x="189.68" y="128.94" width="0.53" height="4.1" transform="translate(-19.37 228.08) rotate(-59.48)"/><rect class="cls-61" x="190.53" y="127.68" width="0.53" height="4.31" transform="translate(-17.92 228.3) rotate(-59.49)"/><rect class="cls-61" x="191.21" y="126.4" width="0.53" height="4.71" transform="translate(-16.66 228.35) rotate(-59.49)"/><rect class="cls-61" x="191.77" y="125.22" width="0.53" height="4.77" transform="translate(-15.4 228.27) rotate(-59.49)"/><path class="cls-62" d="M212,42.74l-.06.18a8.35,8.35,0,0,1-.41,1,3.86,3.86,0,0,1-1.5,1.73,3.66,3.66,0,0,1-1.24.42l-.34,0c-.5.06-1.18.09-1.91.11h-2l-1.93,0-1,0-1.17.19-.83.12-.24,0-.67.09-.23,0h0l-.11,0h0c-1,.13-2,.25-2.8.3-.39,0-.74,0-1,0a3.84,3.84,0,0,1-3.34-2.17h0c-.13-.21-.27-.45-.4-.7A18.47,18.47,0,0,1,189,36.31a15.05,15.05,0,0,1,.57-4.44l0-.1h0a14.23,14.23,0,0,1,3.22-5.6,9.22,9.22,0,0,1,5.1-2.81l.31-.06.52-.07a10.53,10.53,0,0,1,1.17-.06l.39,0a9.41,9.41,0,0,1,3.68.37l.6.21h0l.08,0,.2.09a9.33,9.33,0,0,1,1.14.58,9.66,9.66,0,0,1,1.2.84,15.15,15.15,0,0,1,3.59,4.14h0A17,17,0,0,1,212,42.74Z"/><path class="cls-63" d="M214.32,49.75h0l-.08.6c0,.36-.11.87-.18,1.49-.2,1.61-.46,4-.65,6.36,0,0,0,0,0,.06a10.17,10.17,0,0,0,.07,2,.22.22,0,0,0,0,.05c0,.12,0,.24,0,.36s0,.11,0,.17a8.71,8.71,0,0,1,.06,1.14,7.86,7.86,0,0,1-.07.86,6.19,6.19,0,0,1-1.62,3.52c-.24,1.71-.44,3.28-.58,4.55-.1.86-.17,1.59-.22,2.13s-.06.81-.06,1,0,.19,0,.32.56,4.52.56,4.52-7.17,2.88-9.1,2.88c-.38,0-10.18-2-10.2-2h-.12c1-1.08,1.82-6.74,2-9.54h0a9,9,0,0,0,0-1.39c-.09-.76-.2-1.57-.32-2.42A6.4,6.4,0,0,1,192.23,62a8.72,8.72,0,0,1,.06-1.14c0-.21,0-.42.07-.63a10.14,10.14,0,0,0,.1-2v0c-.19-2.39-.47-4.73-.67-6.33-.16-1.19-.27-2-.29-2.11h0l3.5-1.41,2.39-1h0l2.06-.83.12-.05.11,0h0v3.78h3.14v0h3.29V46.5l3.34,1.29.92.38.26.11h0l.17.06,1,.39Z"/><path class="cls-53" d="M210.68,48.45c0,1.48-1.87,10.23-7.85,10.26S195,49.94,195,48.45a.78.78,0,0,1,0-.14l3-1.22,1.57-.63h0l.11,0h0l.23,0,2.9.24,1.57-.13,1.37-.11.19,0,3.58,1.38h0l.58.23.52.21v0a.09.09,0,0,1,0,0S210.68,48.39,210.68,48.45Z"/><ellipse class="cls-64" cx="203.21" cy="78.25" rx="0.49" ry="0.4"/><rect class="cls-53" x="198.49" y="44.96" width="7.53" height="3.76"/><path class="cls-53" d="M194.41,41.15a1,1,0,0,1-.1.17.92.92,0,0,1-.4.32l-.15,0a.85.85,0,0,1-.29,0h0l-.19,0a1.59,1.59,0,0,1-1-1,1.37,1.37,0,0,1,.42-1.75l.08,0a1.34,1.34,0,0,1,1.6.94A1.63,1.63,0,0,1,194.41,41.15Z"/><ellipse class="cls-53" cx="209.25" cy="39.1" rx="1.47" ry="1.13" transform="translate(122.68 233.58) rotate(-76.59)"/><path class="cls-65" d="M210.14,48c-1.4,2.46-4.19,5.17-7.07,3.84A14,14,0,0,1,198,47.1l1.57-.63h0l.11,0h0l.23,0,2.9.24,1.57-.13.65-1,1-.22v1.07l3.53,1.38h0Z"/><path class="cls-58" d="M200.23,26.88c-4.74.35-7.51,3.27-7.77,8h0c0,.39,0,.8,0,1.21h0c0,.21,0,.41,0,.63s0,.37.05.56,0,.3.06.44h0l.05.3c.06.32.13.64.21,1a14.33,14.33,0,0,0,1,2.73h0l.06.12h0c.11.23.23.45.36.67h0l.11.2h0a13.84,13.84,0,0,0,2,2.69,8.26,8.26,0,0,0,2.46,1.58l0,0,.71.35.3.14.05,0a5,5,0,0,0,1.06.35h0l.32,0a2.46,2.46,0,0,0,.39,0,5.56,5.56,0,0,0,2.91-1.45l.14-.11h0a9.07,9.07,0,0,0,2-1.81,13.9,13.9,0,0,0,1.63-3h0l.07-.19h0c.08-.2.15-.39.22-.6h0l.05-.16h0a14.16,14.16,0,0,0,.62-2.85h0c0-.3.06-.6.07-.91h0s0,0,0-.05h0c0-.28,0-.56,0-.85s0-.3,0-.45C209,29.67,205.57,26.49,200.23,26.88Z"/><path class="cls-66" d="M200.13,41.22a1,1,0,0,0,.44.45,3.32,3.32,0,0,0,1.38,0,1.52,1.52,0,0,0,.5-.45.74.74,0,0,1-.29.64,1.09,1.09,0,0,1-.4.21,4,4,0,0,1-1,0,1,1,0,0,1-.39-.2A.6.6,0,0,1,200.13,41.22Z"/><path class="cls-67" d="M205.13,29.77a4.24,4.24,0,0,0,1.3,3.83,13.41,13.41,0,0,1,3,4.11A11.57,11.57,0,0,0,211,30.86c-.49-4.66-4.2-7-5.73-7.16S205.13,29.77,205.13,29.77Z"/><path class="cls-68" d="M206.28,28.5a5.38,5.38,0,0,1-.17.63A7.71,7.71,0,0,1,201,34.64c-2.36.91-4.08-.23-6,.5-1.32.51-2.16,1.91-1.38,4.49a9.43,9.43,0,0,0,2.51,4,7.83,7.83,0,0,1-1.62-.78c-2-1.23-5.1-4.12-4.73-10.13a0,0,0,0,1,0,0,11.16,11.16,0,0,1,1.08-4.29A9.33,9.33,0,0,1,194,24.74,11,11,0,0,1,198.09,23l.31-.06.51-.08a12.14,12.14,0,0,1,1.56-.12,12.73,12.73,0,0,1,4.28.66h0a1.55,1.55,0,0,1,.28.13C206.45,24.35,206.63,26.82,206.28,28.5Z"/><rect class="cls-63" x="193.06" y="32.42" width="1.21" height="3.43" transform="translate(17.93 122.39) rotate(-36.66)"/><path class="cls-69" d="M199.51,43.87l.06,0a5.59,5.59,0,0,1-.52-.35Z"/><path class="cls-69" d="M203.8,43.43a5.49,5.49,0,0,1-.74.54l.09-.06C203.43,43.72,203.66,43.55,203.8,43.43Z"/><path class="cls-69" d="M204,43.28l-.14.13Z"/><path class="cls-24" d="M203.84,43.3a3,3,0,0,1-.68.61l-.09.06h0a3.14,3.14,0,0,1-1.31.49h-.21a3.37,3.37,0,0,1-1.94-.57h0l-.06,0a2.55,2.55,0,0,1-.47-.38l.93.05h.25c.38,0,.82,0,1.26,0s.91-.07,1.29-.12h0l.42-.05h.07Z"/><path class="cls-69" d="M204.37,42.86l-.15.19-.24.23-.14,0c-.13,0-1.66.31-2.35.34s-2.27-.14-2.44-.15h-.11l.07.06-.07-.06-.39-.3.2.06c.29.07,1.46-.23,2.69-.29A16.06,16.06,0,0,0,204.37,42.86Z"/><path class="cls-69" d="M204.37,42.86a3,3,0,0,1-2.81,2.34,2.77,2.77,0,0,1-2.67-1.47c-.11-.15-.34-.56-.34-.56l.21.15.18.15h0l.07.06h0l0,0a5.59,5.59,0,0,0,.52.35h0a3.56,3.56,0,0,0,1.93.47A2.83,2.83,0,0,0,203,44h0a5.49,5.49,0,0,0,.74-.54l0,0,.14-.13h0a2.46,2.46,0,0,0,.24-.25h0Z"/><path class="cls-69" d="M204,43.28h0l-.14.13,0,0c-.14.12-.37.29-.64.48a3,3,0,0,0,.68-.61Z"/><path class="cls-69" d="M199.51,43.87l-.46-.31,0,0-.09-.07H199A2.55,2.55,0,0,0,199.51,43.87Z"/><path class="cls-70" d="M198.92,37.42a.15.15,0,0,1-.21.06,6.05,6.05,0,0,0-2-.92,4.38,4.38,0,0,0-2.27.15.21.21,0,0,1-.24-.07.18.18,0,0,1,.11-.22A5.39,5.39,0,0,1,195.5,36a4.31,4.31,0,0,1,1.27,0,6.73,6.73,0,0,1,2.32.77.18.18,0,0,1,.08.24Z"/><path class="cls-70" d="M202.74,36.9A.14.14,0,0,0,203,37a6.06,6.06,0,0,1,2-.92,4.38,4.38,0,0,1,2.27.15.21.21,0,0,0,.24-.07.18.18,0,0,0-.11-.22,5.39,5.39,0,0,0-1.19-.37,4.33,4.33,0,0,0-1.27,0,6.7,6.7,0,0,0-2.32.77.18.18,0,0,0-.08.24Z"/><ellipse class="cls-71" cx="196.52" cy="38.69" rx="0.93" ry="0.82" transform="matrix(1, -0.03, 0.03, 1, -0.91, 4.95)"/><circle cx="196.49" cy="38.87" r="0.61" transform="translate(-0.9 4.89) rotate(-1.42)"/><ellipse class="cls-24" cx="196.12" cy="38.7" rx="0.37" ry="0.37" transform="translate(-0.95 5.17) rotate(-1.51)"/><path class="cls-72" d="M198.49,38s-1.17-1.9-3-1.06a1.42,1.42,0,0,0-.63,1A15.11,15.11,0,0,0,198.49,38Z"/><path class="cls-73" d="M194.66,38.72a5.15,5.15,0,0,0,.27-.68c0,.06-.13.58-.2.71a4.38,4.38,0,0,0,.58.14l.09-.81,0,.81c.25,0,.53.08.81.1l.06-.88V39a9.68,9.68,0,0,0,1.15,0l0-.76a5.82,5.82,0,0,0,0,.75l.38,0c0-.15,0-.64,0-.77a5.31,5.31,0,0,0,0,.77h.32c0-.16,0-.67,0-.77a4.89,4.89,0,0,0,.07.77h.21l0-.68a3.73,3.73,0,0,0,.11.68h.28c-.24-.16-.3-.95-.3-.95a10.36,10.36,0,0,1-3.59-.22l-.46.83Z"/><ellipse class="cls-71" cx="205.33" cy="37.99" rx="0.93" ry="0.82" transform="matrix(1, -0.03, 0.03, 1, -1.17, 6.96)"/><circle cx="205.38" cy="38.16" r="0.61" transform="translate(-1.18 7.02) rotate(-1.95)"/><ellipse class="cls-24" cx="204.97" cy="38.13" rx="0.37" ry="0.37" transform="translate(-1.15 6.83) rotate(-1.9)"/><path class="cls-72" d="M203.34,37.43s1.06-2,2.9-1.23a1.42,1.42,0,0,1,.69.93A15.13,15.13,0,0,1,203.34,37.43Z"/><path class="cls-73" d="M207.2,37.91a5.09,5.09,0,0,1-.31-.67c0,.06.17.58.24.7a4.48,4.48,0,0,1-.57.17l-.14-.8.09.81c-.25.06-.53.11-.81.15l-.11-.87.06.88a9.62,9.62,0,0,1-1.15.08l-.07-.75a5.8,5.8,0,0,1,0,.75h-.38c0-.15-.07-.64-.06-.77a5.38,5.38,0,0,1,0,.77l-.32,0c0-.16-.05-.67,0-.77a5,5,0,0,1,0,.77h-.21V37.7a3.82,3.82,0,0,1-.07.69h-.28c.23-.18.24-1,.24-1a10.36,10.36,0,0,0,3.57-.43l.51.8Z"/><path class="cls-74" d="M218.77,59.73c-.42-2.32-1.21-8.42-4.46-10,0,0-.58,4.18-.73,6s-.24,3.26-.24,3.26c.92,4.49,2.32,11.57,1.23,16.1-1,4.29-14.16,6.24-14.27,6.38l3.47,2.65c.5-.65,14-1.33,15.73-9.26C220.73,69.11,219.35,62.88,218.77,59.73Z"/><path class="cls-75" d="M211.9,66.39l-.58,4.55s-6.15-4.39-8.41-4.51-8.5,3.63-8.69,3.74a9,9,0,0,0,0-1.39c-.09-.76-.2-1.57-.32-2.42.7.76,2.4,2.31,8.2,0C204.6,65.38,206.93,69.55,211.9,66.39Z"/><path class="cls-76" d="M209,83.82h0a1,1,0,0,1-1,.59H183.88a1.72,1.72,0,0,1-1.25-.59h0a1.59,1.59,0,0,1-.38-.72l-.7-3.14-.25-1.11-.39-1.74,0-.15L179.78,72a1.21,1.21,0,0,1,0-.25,1,1,0,0,1,.15-.57,1.05,1.05,0,0,1,.93-.48h24.33l.11,0h0l.07,0,.15.06.1,0,.11.06.1.06h0l.1.07.09.08.07.07.1.11.07.09,0,0a1.64,1.64,0,0,1,.17.3h0l0,.06v.07a1.12,1.12,0,0,1,0,.13l.15.69.14.63L207,74l1.22,5.49.8,3.58A1.11,1.11,0,0,1,209,83.82Z"/><path class="cls-77" d="M208.95,83.82h0a1,1,0,0,1-1,.59H197.19l-.59-.59h0l-2.24-2.24-2.51-2.51-2-2-4.09-4.09-.56-.56-.62-.62.15-1.05h20.44l.11,0h0l.07,0,.15.06.1,0,.11.06.1.07h0l.1.07.09.08.07.07.1.11.07.09,0,0a1.72,1.72,0,0,1,.17.3h0l0,.06v.07a1.06,1.06,0,0,1,0,.13l.15.69.14.63L207,74l1.22,5.49.8,3.58A1.12,1.12,0,0,1,208.95,83.82Z"/><rect class="cls-78" x="182.54" y="83.82" width="26.78" height="1.67"/><ellipse class="cls-79" cx="194.41" cy="77.55" rx="1.53" ry="0.9"/><rect class="cls-80" x="182.54" y="83.82" width="26.77" height="0.84"/><path class="cls-81" d="M206.47,71.77H179.75a1,1,0,0,1,.15-.57,1.05,1.05,0,0,1,.93-.48h24.33l.11,0h0l.07,0,.15.06.1,0,.11.06.1.06h0l.1.07.09.08.07.07.1.11.07.09,0,0a1.64,1.64,0,0,1,.17.3Z"/><rect class="cls-82" x="209.32" y="83.82" width="5.55" height="1.67"/><path class="cls-83" d="M191.5,49.72l-.39.14c-1.34.49-3.08,1.54-3.85,4.8a25,25,0,0,0-.64,7.53l5.52.83.49-4.48A26.6,26.6,0,0,0,191.5,49.72Z"/><path class="cls-83" d="M214.32,49.75s2,.6,3.26,4.61,2,7.41,2,7.41L213.91,63l-.64-3.84A28.08,28.08,0,0,1,214.32,49.75Z"/><polygon class="cls-84" points="186.63 62.19 192.14 63.02 192.23 61.61 186.56 60.66 186.63 62.19"/><polygon class="cls-84" points="213.91 63.02 213.64 61.39 219.17 60.2 219.53 61.77 213.91 63.02"/><polygon class="cls-85" points="191.19 88.19 190.58 89.32 189.74 90.87 188.71 92.77 162.13 141.88 158.49 141.88 184.96 92.77 186.83 89.32 188.29 86.62 189.74 87.41 191.19 88.19"/><polygon class="cls-85" points="221.09 141.88 217.35 141.88 190.77 92.77 189.74 90.87 188.9 89.32 188.29 88.19 189.74 87.41 191.19 86.62 192.65 89.32 194.52 92.77 221.09 141.88"/><polygon class="cls-86" points="194.52 92.77 190.77 92.77 189.74 90.87 188.71 92.77 184.96 92.77 186.83 89.32 192.65 89.32 194.52 92.77"/><rect class="cls-87" x="156.52" y="85.5" width="66.44" height="3.82"/><path class="cls-48" d="M171.76,75.55v8a2,2,0,0,1-2,2h-4.49a2,2,0,0,1-2-2v-8Z"/><path class="cls-48" d="M172.49,84h-1.6a3.23,3.23,0,0,1-3.23-3.23v-.25a3.23,3.23,0,0,1,3.23-3.23h1.6a3.23,3.23,0,0,1,3.23,3.23v.25A3.23,3.23,0,0,1,172.49,84Zm-1.6-5.22a1.74,1.74,0,0,0-1.74,1.74v.25a1.74,1.74,0,0,0,1.74,1.74h1.6a1.74,1.74,0,0,0,1.74-1.74v-.25a1.74,1.74,0,0,0-1.74-1.74Z"/><path class="cls-88" d="M166,75.55V85.5h-.73a2,2,0,0,1-.8-.17V75.55Z"/><path class="cls-89" d="M166.81,74.16c-.66-2.28.2-2.93,2.73-4.16,2.32-1.13,3.16-4,3.24-5.91,0,0,2.53,2.43,1.47,4.85-1.12,2.57-3.81,2.07-5.64,3.2a3,3,0,0,0-1.26,3.07A3.44,3.44,0,0,1,166.81,74.16Z"/><path class="cls-30" d="M298.48,49.15h20.91v74.22H298.48Zm19.26,1.66h-17.6v70.91h17.6Z"/><rect class="cls-90" x="299.3" y="123.37" width="19.23" height="3.1"/><rect class="cls-30" x="299.2" y="75.78" width="19.46" height="1.54"/><rect class="cls-30" x="299.48" y="98.34" width="19.46" height="1.54"/><path class="cls-91" d="M308.11,39.7v-.27c0-.08,0-.17,0-.25s0-.33,0-.49c0-.33.08-.66.14-1a17.55,17.55,0,0,1,.47-2,15.79,15.79,0,0,1,1.35-3.22,14.24,14.24,0,0,1,1.9-2.65,13.52,13.52,0,0,1,2.2-1.94,13.82,13.82,0,0,1,2.2-1.26,14.72,14.72,0,0,1,1.94-.72,15.25,15.25,0,0,1,1.5-.36c.41-.08.74-.12,1-.15l.34,0-.32.11c-.21.07-.52.18-.9.34s-.86.35-1.38.61a16.91,16.91,0,0,0-1.72,1A15.11,15.11,0,0,0,315,28.82a14.45,14.45,0,0,0-1.82,2,15.43,15.43,0,0,0-1.56,2.49A18,18,0,0,0,310,38c-.06.3-.1.59-.14.89s0,.29,0,.44l0,.21v.19Z"/><path class="cls-91" d="M308.88,39.58l-.43.13h0l-.24.07h0l-.11,0-.78.23-.06-.2-.07-.2-.11-.33,0-.08-.29-.83-.1-.28c-.17-.47-.35-.94-.54-1.42l0,0c-.33-.85-.67-1.68-1-2.48-.44-1-.89-2.05-1.34-3L303.6,31l-.32-.65A32.56,32.56,0,0,0,301.34,27c-.39-.58-.76-1.08-1.11-1.51a13.44,13.44,0,0,0-1-1.05c-.28-.28-.51-.48-.67-.61l-.25-.2.29.14a8.86,8.86,0,0,1,.8.47,11.17,11.17,0,0,1,1.18.88,15.41,15.41,0,0,1,1.4,1.36,24.36,24.36,0,0,1,2.79,3.78l.19.32.47.82c.2.36.39.72.58,1.1.51,1,1,2.05,1.44,3.16l0,.09,0,.12.11.28.32.85v0l.3.83,0,0,.1.29.19.58.07.21.07.22.05.18v0h0l0,.16Z"/><path class="cls-92" d="M309.24,39.66h-.12l-.23,0-.22,0-.27,0-.12,0h0l-.22,0-.48.06,0-.12v-.08l0-.16,0-.15v0h0l0-.18v0l-.13-.75,0-.26c-.08-.43-.17-.86-.25-1.3-.13-.62-.25-1.23-.39-1.82-.19-.89-.4-1.75-.6-2.56-.06-.25-.12-.49-.19-.72l-.06-.24c-.11-.42-.23-.83-.34-1.22-.28-1-.57-1.86-.86-2.63A20.72,20.72,0,0,0,303.41,25c-.16-.3-.3-.54-.4-.69l-.15-.23.2.19c.13.13.33.32.56.58a15.14,15.14,0,0,1,1.74,2.43A24.86,24.86,0,0,1,307,30.72l.22.56c.1.28.2.56.3.84l.23.7c.25.79.48,1.62.68,2.48.07.3.14.59.2.9l.06.28c.11.54.21,1.08.3,1.61v.09c0,.23.08.47.11.7V39l0,.27v0h0v.15Z"/><path class="cls-93" d="M314.32,19.89l-.2.27c-.14.18-.33.46-.57.81a21.66,21.66,0,0,0-1.75,3.15,27,27,0,0,0-1.68,5c-.22.93-.41,1.93-.56,3q-.13.89-.22,1.81c0,.12,0,.25,0,.37s0,.51-.06.77,0,.32,0,.48c0,.66-.06,1.31-.06,2,0,.16,0,.32,0,.48s0,.13,0,.19,0,.19,0,.28,0,.18,0,.27,0,.13,0,.2v.34h0v.1h-.08l-.31,0-.29,0-.4,0-.25,0-.34,0v-.26l0-.25c0-.12,0-.24,0-.37s0-.09,0-.13,0-.23,0-.34,0-.44,0-.67q0-.86,0-1.74a1.13,1.13,0,0,1,0-.11c0-.07,0-.13,0-.2s0-.31,0-.47q0-.6.11-1.18c0-.32.08-.62.13-.93.07-.48.16-1,.25-1.41a25.44,25.44,0,0,1,.7-2.68l.15-.45A22.84,22.84,0,0,1,309.8,26,20.32,20.32,0,0,1,311,23.71a17.5,17.5,0,0,1,2.3-2.91c.31-.31.55-.54.73-.69Z"/><path class="cls-92" d="M318.95,20.69l-.3.22-.06,0c-.19.14-.45.35-.76.62a15.74,15.74,0,0,0-1.2,1.16,18.08,18.08,0,0,0-1.39,1.69,23,23,0,0,0-1.44,2.22c-.47.83-.93,1.73-1.37,2.71l-.08.19a48.75,48.75,0,0,0-2.27,6.37l-.23.84-.12.44q-.1.38-.19.75l0,.18c-.07.28-.13.55-.19.82l-.08.37v0a.18.18,0,0,0,0,0v.05l0,.19v0h0v.12l0,.11-.82-.13h-.09l-.64-.1h0l-.1,0,0-.14,0-.13v0h0v-.09l0-.14.1-.52.1-.48.13-.57L308,37v0l.11-.46c.09-.35.19-.71.29-1.07l0-.12q.31-1.07.67-2.08l.09-.24c.11-.31.23-.61.35-.91a31.47,31.47,0,0,1,1.57-3.37,24.82,24.82,0,0,1,1.68-2.7,19.86,19.86,0,0,1,1.76-2.14,16,16,0,0,1,1.68-1.54,13.45,13.45,0,0,1,1.41-1c.35-.21.64-.36.85-.47l.09,0Z"/><path class="cls-91" d="M309.24,35c0,.22,0,.44,0,.67,0,.71,0,1.41,0,2.1,0,0,0,0,0,.06s0,.19,0,.28,0,.37,0,.55,0,.21,0,.31v0c0,.1,0,.21,0,.32h0c0,.1,0,.2,0,.29s0,0,0,.07v.06s0,0,0,.06v0l-.82,0h-.13l-.58,0h-.13c0-.14,0-.29,0-.43s0-.1,0-.15,0,0,0,0c0-.17,0-.35,0-.53s0-.32,0-.47,0-.25,0-.37c0-.65,0-1.32,0-2v-.08c0-.25,0-.5,0-.74,0-.52,0-1,0-1.53s0-.86,0-1.28h0c0-.37,0-.75,0-1.11,0-.74,0-1.47,0-2.16,0-.52,0-1-.09-1.52s-.09-1-.16-1.39c0-.22-.08-.43-.13-.63s-.05-.19-.09-.29l-.11-.28a5.76,5.76,0,0,0-.55-1A7.64,7.64,0,0,0,305,22.2a10.58,10.58,0,0,0-1.3-.94c-.38-.24-.69-.4-.9-.5l-.32-.15.35.08a9.8,9.8,0,0,1,1,.33,10.06,10.06,0,0,1,1.5.74A7.7,7.7,0,0,1,307,23.2a6.16,6.16,0,0,1,.79,1.1l.17.32c.05.11.1.23.15.35a7.46,7.46,0,0,1,.23.72c.13.48.24,1,.32,1.48s.12.73.16,1.11c0,.15,0,.31.06.46.12,1.07.2,2.19.25,3.36q0,.44,0,.89c0,.18,0,.35,0,.53s0,.6,0,.9S309.24,34.82,309.24,35Z"/><path class="cls-91" d="M310,40l0-.1,0-.11.11-.22.23-.45q.23-.46.5-.92a28.65,28.65,0,0,1,1.88-2.9,17.27,17.27,0,0,1,1.86-2.14,12.87,12.87,0,0,1,1.51-1.25c.39-.27.62-.41.61-.41a6.65,6.65,0,0,0-.73.17,8.72,8.72,0,0,0-1.9.8,11.38,11.38,0,0,0-2.45,1.88,14.21,14.21,0,0,0-2.28,3q-.29.5-.53,1l-.24.51-.11.26-.05.13-.05.14Z"/><path class="cls-91" d="M309.25,39.74h-.46l-.39,0h-.24l-.58,0v-.13s0-.06,0-.09,0-.15,0-.23v0h0l0-.15c0-.12-.07-.24-.11-.36a5.19,5.19,0,0,0-.28-.68c-.05-.11-.11-.22-.17-.33a5.35,5.35,0,0,0-.85-1.13l-.34-.31a6,6,0,0,0-1.53-.93,8.51,8.51,0,0,0-1.64-.49,12.92,12.92,0,0,0-1.54-.21,21.67,21.67,0,0,0-2.32,0l-.87,0s.31-.13.82-.3c.27-.09.6-.19,1-.29a12.43,12.43,0,0,1,1.35-.26,10.51,10.51,0,0,1,1.69-.1,8,8,0,0,1,2,.29l.4.12a6.25,6.25,0,0,1,1.59.81l.09.06a5.71,5.71,0,0,1,.74.65l0,0,0,.05.09.09c.11.13.23.27.33.41l.14.19c.1.15.2.3.28.45l0,.09a6.48,6.48,0,0,1,.48,1.09l0,.15v0c.06.21.12.42.16.63V39h0l0,.21h0l0,.11v0h0c0,.06,0,.11,0,.17v.13h0v.06Z"/><path class="cls-93" d="M309.71,36.89v0c0,.09,0,.17,0,.26,0,.32,0,.63,0,.94,0,.09,0,.18,0,.27,0,.25,0,.49-.07.74l0,.19c0,.06,0,.12,0,.18l0,.18v.09l0,.1-.38-.06h0l-.32,0-.12,0-.23,0h0l-.32-.05-.26,0,0-.15V39.3c0-.11,0-.22,0-.33s0-.45,0-.68c0-.06,0-.11,0-.17,0-.37,0-.75,0-1.13v-.1c0-.2,0-.39,0-.59a13.74,13.74,0,0,0-.17-1.73,8.22,8.22,0,0,0-.18-.82c0-.12-.07-.23-.1-.34a4,4,0,0,0-.33-.74,2.52,2.52,0,0,0-.53-.65,3.35,3.35,0,0,0-.71-.47l-.17-.08-.34-.13a6.2,6.2,0,0,0-1.09-.28c-.27,0-.53-.08-.77-.1l-.68,0a10.39,10.39,0,0,0-1.12,0,5.52,5.52,0,0,0-.71.1l-.24.06a1.81,1.81,0,0,1,.21-.13,4.58,4.58,0,0,1,.68-.29,8.78,8.78,0,0,1,1.13-.31l.4-.07a8.17,8.17,0,0,1,1.16-.11h.37l.57,0h.09a5.16,5.16,0,0,1,.94.2,4.33,4.33,0,0,1,1.07.5l.07,0a3.4,3.4,0,0,1,.49.4,3.5,3.5,0,0,1,.4.45A5.36,5.36,0,0,1,309,33l.08.21c0,.1.07.19.1.29s.08.25.11.37,0,.12,0,.17l0,.2A12.45,12.45,0,0,1,309.71,36.89Z"/><path class="cls-94" d="M313.31,39.57l-.52,3.58,0,.18v.09l0,.18,0,.15-.76,5.2a.22.22,0,0,1-.21.18h-5.88a.22.22,0,0,1-.21-.18l-.76-5.2,0-.15,0-.18v-.09l0-.18-.52-3.58a.16.16,0,0,1,.16-.18h8.72A.15.15,0,0,1,313.31,39.57Z"/><path class="cls-95" d="M313.45,39.48l-.51,3.67a.22.22,0,0,1-.17.18v.09l0,.18,0,.15h-7.82l0-.15,0-.18v-.09a.22.22,0,0,1-.17-.18l-.51-3.67a.15.15,0,0,1,.15-.12h9A.16.16,0,0,1,313.45,39.48Z"/><path class="cls-94" d="M313.45,39.44v0h0l-.08.57-.43,3.09a.22.22,0,0,1-.17.18h-7.94a.22.22,0,0,1-.18-.18l-.43-3.09-.08-.57h0v0a.15.15,0,0,1,.15-.18h9A.15.15,0,0,1,313.45,39.44Z"/><path class="cls-96" d="M313.45,39.44v0h0l-.08.57h-9.15l-.08-.57h0v0a.15.15,0,0,1,.15-.18h9A.15.15,0,0,1,313.45,39.44Z"/><rect class="cls-97" x="302.96" y="58.83" width="11.54" height="16.78"/><path class="cls-98" d="M302.67,58.66H314.8V75.78H302.67Zm11.54.56H303.26v16h10.95Z"/><path class="cls-99" d="M308.77,64.78h0l0,0h0v0h0l0,0h0v.36l0,0h0v0h0v.12h0l0,.27h0v0h0l0,.44h0v0h0l0,.45h0v0h0l0,0v-.09l0-.39v-.09l0-.38v-.08l0-.35v0h0v-.8h0l0,0v.31Zm0-1.41,0,0v0h0Zm0-.55,0,0v0h0Zm0,.5,0,0h0v0Zm0-.55,0,0h0v0Zm0-.69,0,0v0h0Zm0,.18,0,0h0v0Zm0,0h0v0h0Zm0,.18h0v0Zm0,0,0,0v0h0Zm0,.51,0,0h0v0Zm0,0,0,0v0h0Zm0,.55,0,0h0v0Zm0,0,0,0v0h0Zm0,.3,0,0h0v0Zm0,.05,0,0v0h0Zm0,.34,0,0h0v0Zm.18,2.72h0v0Zm-.19-2.34h0l0,0h0v0h0l0,0h0v-.42h0l0,0v.31Zm0-2,0,0h0v0Zm0-.69,0,0v0h0Zm0,.18,0,0h0v0Zm0,0h0v0h0Zm0,.18h0v0Zm0,0,0,0v0h0Zm0,.29,0,0v0h0Zm0,.22,0,0h0v0Zm0,0,0,0v0h0Zm0,.23,0,0h0v0Zm0,0,0,0v0h0Zm0,.28,0,0h0v0Zm0,0,0,0v0h0Zm0,.3,0,0h0v0Zm0,.05,0,0v0h0Zm0,.34,0,0h0v0Zm0,.38h0l0,0h0v0h0l0,0h0v-.42h0l0,0v.31Zm0-2,0,0h0v0Zm0-.69,0,0v0h0Zm0,.18,0,0h0v0Zm0,0h0v0h0Zm0,.18h0v0Zm0,0,0,0v0h0Zm0,.29,0,0v0h0Zm0,.22,0,0h0v0Zm0,0,0,0v0h0Zm0,.23,0,0h0v0Zm0,0,0,0v0h0Zm0,.28,0,0h0v0Zm0,0,0,0v0h0Zm0,.3,0,0h0v0Zm0,.05,0,0v0h0Zm0,.34,0,0h0v0Zm0,.38h0l0,0h0v0h0l0,0h0v-.42h0l0,0v.31Zm0-2,0,0h0v0Zm0-.69,0,0v0h0Zm0,.18,0,0h0v0Zm0,0h0v0h0Zm0,.18h0v0Zm0,0,0,0v0h0Zm0,.29,0,0v0h0Zm0,.22,0,0h0v0Zm0,0,0,0v0h0Zm0,.23,0,0h0v0Zm0,0,0,0v0h0Zm0,.28,0,0h0v0Zm0,0,0,0v0h0Zm0,.3,0,0h0v0Zm0,.05,0,0v0h0Zm0,.34,0,0h0v0Zm0,.38h0l0,0h0v0h0l0,0h0v-.42h0l0,0v.31Zm0-2,0,0h0v0Zm0-.69,0,0v0h0Zm0,.18,0,0h0v0Zm0,0h0v0h0Zm0,.18h0v0Zm0,0,0,0v0h0Zm0,.29,0,0v0h0Zm0,.22,0,0h0v0Zm0,0,0,0v0h0Zm0,.23,0,0h0v0Zm0,0,0,0v0h0Zm0,.28,0,0h0v0Zm0,0,0,0v0h0Zm0,.3,0,0h0v0Zm0,.05,0,0v0h0Zm0,.34,0,0h0v0Zm0,.38h0l0,0h0v0h0l0,0h0v-.42h0l0,0v.31Zm0-2,0,0h0v0Zm0-.69,0,0v0h0Zm0,.18,0,0h0v0Zm0,0h0v0h0Zm0,.18h0v0Zm0,0,0,0v0h0Zm0,.29,0,0v0h0Zm0,.22,0,0h0v0Zm0,0,0,0v0h0Zm0,.23,0,0h0v0Zm0,0,0,0v0h0Zm0,.28,0,0h0v0Zm0,0,0,0v0h0Zm0,.3,0,0h0v0Zm0,.05,0,0v0h0Zm0,.34,0,0h0v0Zm0,.38h0l0,0h0v0h0l0,0h0v-.42h0l0,0v.31Zm0-2,0,0h0v0Zm0-.69,0,0v0h0Zm0,.18,0,0h0v0Zm0,0h0v0h0Zm0,.18h0v0Zm0,0,0,0v0h0Zm0,.29,0,0v0h0Zm0,.22,0,0h0v0Zm0,0,0,0v0h0Zm0,.23,0,0h0v0Zm0,0,0,0v0h0Zm0,.28,0,0h0v0Zm0,0,0,0v0h0Zm0,.3,0,0h0v0Zm0,.05,0,0v0h0Zm0,.34,0,0h0v0Zm0,.38h0l0,0h0v0h0l0,0h0v-.42h0l0,0v.31Zm0-2,0,0h0v0Zm0-.69,0,0v0h0Zm0,.18,0,0h0v0Zm0,0h0v0h0Zm0,.18h0v0Zm0,0,0,0v0h0Zm0,.29,0,0v0h0Zm0,.22,0,0h0v0Zm0,0,0,0v0h0Zm0,.23,0,0h0v0Zm0,0,0,0v0h0Zm0,.28,0,0h0v0Zm0,0,0,0v0h0Zm0,.3,0,0h0v0Zm0,.05,0,0v0h0Zm0,.34,0,0h0v0Zm0-2.59v3.42h0v0h0v.14h0l0,.27h0v0h0l0,.44h0v0h0l0,.45h0v0h0l.05.48h0v0h0l0,.47h0v0h0l0,.39h.64v0s0-.14-.06-.37h0l-.07-.48v0l-.07-.49h0l-.06-.46h0l-.05-.45h0l0-.41v0h0l0-.42h0l0-.37h0l0-.38h0l0-.34h0l0-.31h0l0-.25h0v0h0l0-.25h0v0h0l0-.27h0V62.3h0v0h0v-.21h0v0h0v-.25Zm0,0H309v1.26l0,.2v.08l0,.24v.08l0,.27v.08l0,.31v.08l0,.32v.08l0,.35v.07l0,.37v.07l0,.39v.07l.05.41v.07l.06.44v.07l.06.43v.06l.05.32v0h-.57l0-.32v-.09l0-.41v-.09l0-.41v-.09l0-.39v-.09l0-.38v-.08l0-.35v0h0Zm0,2.55,0,0h0v0Zm0-.34,0,0v0h0Zm0-.05,0,0h0v0Zm0-.3,0,0v0h0Zm0,0,0,0h0v0Zm0-.28,0,0v0h0Zm0,0,0,0h0v0Zm0-.23,0,0v0h0Zm0,0,0,0h0v0Zm0-.22,0,0v0h0Zm0-.29,0,0v0h0Zm0,0h0v0Zm0-.18h0v0h0Zm0,0,0,0h0v0Zm0-.18,0,0v0h0Zm0,.69,0,0h0v0Zm0,2h0l0,0h0v0h0l0,0h0v-.42h0l0,0v.31Zm0-.38,0,0h0v0Zm0-.34,0,0v0h0Zm0-.05,0,0h0v0Zm0-.3,0,0v0h0Zm0,0,0,0h0v0Zm0-.28,0,0v0h0Zm0,0,0,0h0v0Zm0-.23,0,0v0h0Zm0,0,0,0h0v0Zm0-.22,0,0v0h0Zm0-.29,0,0v0h0Zm0,0h0v0Zm0-.18h0v0h0Zm0,0,0,0h0v0Zm0-.18,0,0v0h0Zm0,.69,0,0h0v0Zm0,2h0l0,0h0v0h0l0,0h0v-.42h0l0,0v.31Zm0-.38,0,0h0v0Zm0-.34,0,0v0h0Zm0-.05,0,0h0v0Zm0-.3,0,0v0h0Zm0,0,0,0h0v0Zm0-.28,0,0v0h0Zm0,0,0,0h0v0Zm0-.23,0,0v0h0Zm0,0,0,0h0v0Zm0-.22,0,0v0h0Zm0-.29,0,0v0h0Zm0,0h0v0Zm0-.18h0v0h0Zm0,0,0,0h0v0Zm0-.18,0,0v0h0Zm0,.69,0,0h0v0Zm0,2h0l0,0h0v0h0l0,0h0v-.42h0l0,0v.31Zm0-.38,0,0h0v0Zm0-.34,0,0v0h0Zm0-.05,0,0h0v0Zm0-.3,0,0v0h0Zm0,0,0,0h0v0Zm0-.28,0,0v0h0Zm0,0,0,0h0v0Zm0-.23,0,0v0h0Zm0,0,0,0h0v0Zm0-.22,0,0v0h0Zm0-.29,0,0v0h0Zm0,0h0v0Zm0-.18h0v0h0Zm0,0,0,0h0v0Zm0-.18,0,0v0h0Zm0,.69,0,0h0v0Zm0,2h0l0,0h0v0h0l0,0h0v-.42h0l0,0v.31Zm0-.38,0,0h0v0Zm0-.34,0,0v0h0Zm0-.05,0,0h0v0Zm0-.3,0,0v0h0Zm0,0,0,0h0v0Zm0-.28,0,0v0h0Zm0,0,0,0h0v0Zm0-.23,0,0v0h0Zm0,0,0,0h0v0Zm0-.22,0,0v0h0Zm0-.29,0,0v0h0Zm0,0h0v0Zm0-.18h0v0h0Zm0,0,0,0h0v0Zm0-.18,0,0v0h0Zm0,.69,0,0h0v0Zm0,2h0l0,0h0v0h0l0,0h0v-.42h0l0,0v.31Zm0-.38,0,0h0v0Zm0-.34,0,0v0h0Zm0-.05,0,0h0v0Zm0-.3,0,0v0h0Zm0,0,0,0h0v0Zm0-.28,0,0v0h0Zm0,0,0,0h0v0Zm0-.23,0,0v0h0Zm0,0,0,0h0v0Zm0-.22,0,0v0h0Zm0-.29,0,0v0h0Zm0,0h0v0Zm0-.18h0v0h0Zm0,0,0,0h0v0Zm0-.18,0,0v0h0Zm0,.69,0,0h0v0Zm0,2h0l0,0h0v0h0l0,0h0v-.42h0l0,0v.31Zm0-.38,0,0h0v0Zm0-.34,0,0v0h0Zm0-.05,0,0h0v0Zm0-.3,0,0v0h0Zm0,0,0,0h0v0Zm0-.28,0,0v0h0Zm0,0,0,0h0v0Zm0-.23,0,0v0h0Zm0,0,0,0h0v0Zm0-.22,0,0v0h0Zm0-.29,0,0v0h0Zm0,0h0v0Zm0-.18h0v0h0Zm0,0,0,0h0v0Zm0-.18,0,0v0h0Zm0,.69,0,0h0v0Zm0,2h0l0,0h0v0h0l0,0h0v-.42h0l0,0v.31Zm.19,2.34h0v0Zm-.18-2.72,0,0h0v0Zm0-.34,0,0v0h0Zm0-.36,0,0v0h0Zm0-.32,0,0v0h0Zm0-.27,0,0v0h0Zm0,0,0,0h0v0Zm0-.22,0,0v0h0Zm0-.29,0,0v0h0Zm0,0h0v0Zm0-.18h0v0h0Zm0,0,0,0h0v0Zm0-.18,0,0v0h0Zm0,1.91,0,0h0v0Zm0-.35,0,0h0v0Zm0-.32,0,0h0v0Zm0-.55,0,0h0v0Zm0,2h0l0,0h0v0h0l0,0h0v.36l0,0h0v0h0v.12h0l0,.27h0v0h0l0,.44h0v0h0l0,.45h0v0h0l0,0v-.09l0-.39v-.09l0-.38v-.08l0-.35v0h0v-.8h0l0,0v.31Z"/><path class="cls-99" d="M308.61,66.61h0l0,0Zm0-.42,0,0h0v0h0l0-.44h0v0h0l0-.27h0v-.12h0v0h0l0,0v-.36h0l0,0h0v0h0l0,0h0v-.31l0,0h0v0h0l0,0,0,0v-.31l0,0,0,0h0v0h0l0,0,0,0v-.27l0,0,0,0h0v0h0l0,0,0,0v-.24l0,0,0,0h0v0h0l0,0,0,0v-.19l0,0h0v0h0l0,0,0,0v-.19l0,0,0,0h0v0h0l0,0,0,0v-.2l0,0,0,0h0v0h0l0,0v-.15h0v0h0l0,0,0,0v-.14l0,0,0,0h0v3.15h0v0l0,.35v.08l0,.38v.09Zm0,.42h0l0,0Zm0-.42,0,0h0v0h0l0-.44h0v0h0l0-.27h0v-.12h0v0h0l0,0v-.36h0l0,0h0v0h0l0,0h0v-.31l0,0h0v0h0l0,0,0,0v-.31l0,0,0,0h0v0h0l0,0,0,0v-.27l0,0,0,0h0v0h0l0,0,0,0v-.24l0,0,0,0h0v0h0l0,0,0,0v-.19l0,0h0v0h0l0,0,0,0v-.19l0,0,0,0h0v0h0l0,0,0,0v-.2l0,0,0,0h0v0h0l0,0v-.15h0v0h0l0,0,0,0v-.14l0,0,0,0h0v3.15h0v0l0,.35v.08l0,.38v.09Zm.1-4.12v2.78h0l0,0h0v0h0l0,0h0v-.31l0,0h0v0h0l0,0,0,0v-.31l0,0,0,0h0v0h0l0,0,0,0v-.27l0,0,0,0h0v0h0l0,0,0,0v-.24l0,0,0,0h0v0h0l0,0,0,0v-.19l0,0h0v0h0l0,0,0,0v-.19l0,0,0,0h0v0h0l0,0,0,0v-.2l0,0,0,0h0v0h0l0,0v-.15h0v0h0l0,0,0,0v-.14l0,0,0,0h0ZM307.95,68h0v0l.05-.32V67.6l.06-.43V67.1l.06-.44v-.07l.05-.41v-.07l0-.39v-.07l0-.37V65.2l0-.35v-.07l0-.32v-.08l0-.31V64l0-.27v-.08l0-.24v-.08l0-.2V63c0-.06,0-.13,0-.19a.23.23,0,0,0,0,0v-1h.21v3.38h0v0l0,.35v.08l0,.38v.09l0,.39v.09l0,.41v.1l0,.4v.09l0,.32v0h-.52Zm.71-1.8,0,0h0v0h0l0-.44h0v0h0l0-.27h0v-.12h0v0h0l0,0v-.36h0l0,0h0v0h0l0,0h0v-.31l0,0h0v0h0l0,0,0,0v-.31l0,0,0,0h0v0h0l0,0,0,0v-.27l0,0,0,0h0v0h0l0,0,0,0v-.24l0,0,0,0h0v0h0l0,0,0,0v-.19l0,0h0v0h0l0,0,0,0v-.19l0,0,0,0h0v0h0l0,0,0,0v-.2l0,0,0,0h0v0h0l0,0v-.15h0v0h0l0,0,0,0v-.14l0,0,0,0h0v3.15h0v0l0,.35v.08l0,.38v.09Zm0,.42h0l0,0Zm0-.42,0,0h0v0h0l0-.44h0v0h0l0-.27h0v-.12h0v0h0l0,0v-.36h0l0,0h0v0h0l0,0h0v-.31l0,0h0v0h0l0,0,0,0v-.31l0,0,0,0h0v0h0l0,0,0,0v-.27l0,0,0,0h0v0h0l0,0,0,0v-.24l0,0,0,0h0v0h0l0,0,0,0v-.19l0,0h0v0h0l0,0,0,0v-.19l0,0,0,0h0v0h0l0,0,0,0v-.2l0,0,0,0h0v0h0l0,0v-.15h0v0h0l0,0,0,0v-.14l0,0,0,0h0v3.15h0v0l0,.35v.08l0,.38v.09Zm0,.42h0l0,0ZM307.86,68h.64v0l0-.38h0v0h0l0-.47h0v0h0l.05-.48h0v0h0l0-.45h0v0h0l0-.44h0v0h0l0-.27h0v-.14h0v0h0V61.81h-.28v.25h0v0h0v.21h0v0h0v.22h0l0,.27h0v0h0l0,.25h0v0h0l0,.25h0l0,.31h0l0,.34h0l0,.38h0c0,.13,0,.25,0,.37h0l0,.42h0v0l0,.41h0l-.05.45h0l-.06.46h0l-.07.49v0l-.07.48h0l-.06.37Z"/><path class="cls-99" d="M308.5,62.07h.55v0h-.55Z"/><path class="cls-99" d="M308.49,62.3h.58v0h-.57v0Z"/><path class="cls-99" d="M308.48,62.52h.61v0h-.6v0Z"/><path class="cls-99" d="M308.46,62.81h.65v0h-.64v0Z"/><path class="cls-99" d="M308.44,63.08h.69v0h-.68v0Z"/><path class="cls-99" d="M308.41,63.36h0Z"/><rect class="cls-99" x="308.4" y="63.66" width="0.75" height="0.02"/><path class="cls-99" d="M308.36,64h0Z"/><polygon class="cls-99" points="308.32 64.43 309.24 64.43 309.24 64.43 309.24 64.42 309.24 64.41 308.32 64.41 308.32 64.42 308.32 64.43 308.32 64.43"/><polygon class="cls-99" points="308.28 64.82 309.28 64.82 309.28 64.82 309.28 64.81 309.28 64.8 308.28 64.8 308.28 64.81 308.28 64.82 308.28 64.82"/><path class="cls-99" d="M308.23,65.26h1.09v0h-1.09Z"/><polygon class="cls-99" points="308.18 65.69 309.37 65.69 309.37 65.69 309.37 65.68 309.37 65.67 308.19 65.67 308.19 65.68 308.19 65.69 308.18 65.69"/><polygon class="cls-99" points="308.13 66.16 309.43 66.16 309.43 66.15 309.43 66.14 309.43 66.14 308.13 66.14 308.13 66.14 308.13 66.15 308.13 66.16"/><polygon class="cls-99" points="308.07 66.63 309.49 66.63 309.49 66.62 309.49 66.62 309.49 66.62 309.49 66.61 308.07 66.61 308.07 66.62 308.07 66.62 308.07 66.62 308.07 66.63"/><path class="cls-99" d="M308,67.14h1.56v0H308Z"/><polygon class="cls-99" points="307.92 67.64 309.63 67.64 309.63 67.63 309.63 67.63 309.63 67.62 307.93 67.62 307.93 67.63 307.92 67.63 307.92 67.64"/><path class="cls-99" d="M309.21,64.8h0L309,65l0,0-.2.19,0,0h0l.23.17,0,0,.24.19h0l-.2.2,0,0-.19.19,0,0h0l0,0,.24.19,0,0,.26.21h0l-.21.22,0,0-.2.21,0,0h0l0,0,.25.2,0,0,.28.22h0l-.21.16,0,0-.23.17,0,0,0,0h0l.05,0,.21-.15,0,0,.22-.16,0,0h0l0,0-.28-.22,0,0-.27-.21h0l.22-.22,0,0,.21-.22,0,0h0l0,0-.26-.21,0,0-.25-.2h0l.2-.2,0,0,.2-.19,0,0h0l0,0-.24-.18,0,0-.24-.18h0L309,65l0,0,.18-.17,0,0h0l0,0-.2-.16,0,0-.19-.15h0l.17-.17,0,0,.15-.15,0,0h0l0,0-.16-.14,0,0-.15-.14h0l.14-.13,0,0,.12-.12,0,0h0l0,0-.13-.1,0,0-.13-.1h0l.12-.11,0,0,.1-.09,0,0h0v0h0l0,0-.11-.1,0,0-.11-.1h0l.1-.08,0,0,.09-.07,0,0h0v0h0l0,0-.09-.07,0,0-.09-.08h0l.09-.09,0,0,.07-.07,0,0,0,0,0,0-.07.07,0,0-.08.08,0,0,0,0h0l0,0,0,0,.08.07,0,0,.1.08h0l-.09.08,0,0-.09.08,0,0h0l0,0,0,0,.1.1,0,0,.12.11h0l-.11.1,0,0-.11.1,0,0,0,0h0l0,0,.12.09,0,0,.14.11h0l-.13.12,0,0-.13.13,0,0,0,0h0l0,0,0,0,.15.13,0,0,.17.15h0l-.16.15,0,0-.16.16,0,0,0,0h0l0,0,.18.15,0,0Z"/><path class="cls-99" d="M309.11,63.66h0l-.14.14,0,0-.15.14,0,0,0,0h0l0,0,0,0,.16.15,0,0,.19.17h0l-.17.15,0,0-.18.16,0,0,0,0h0l0,0h0l.2.17,0,0,.24.2h0l0,0-.19.18,0,0-.19.18,0,0h0l0,0,.23.19,0,0,.25.2h0l-.2.2,0,0-.2.2,0,0h0l0,0,.25.21,0,0,.27.22h0l-.21.21,0,0-.21.21,0,0h0l0,0,.26.15,0,0,.26.15.06,0,0,0,0,0-.27-.16,0,0-.27-.16h0l.22-.22,0,0,.22-.21,0,0h0l0,0-.27-.22,0,0-.26-.22h0l.21-.21,0,0,.2-.2,0,0h0l0,0-.25-.2,0,0-.24-.2h0l.2-.19,0,0,.2-.19,0,0,0,0h0l0,0-.22-.18,0,0-.21-.17h0l.19-.17,0,0,.17-.15,0,0h0l0,0-.18-.16,0,0-.17-.15h0l.16-.15,0,0,.14-.13,0,0h0l0,0L309,63.5l0,0-.14-.12h0l.13-.11,0,0,.11-.1,0,0h0v0h0l0,0-.12-.1,0,0-.12-.1h0l.11-.11,0,0,.1-.1,0,0h0v0l0,0-.1-.08,0,0-.1-.08h0l.09-.08,0,0,.08-.07,0,0h0v0h0l0,0-.08-.08,0,0-.08-.07,0,0h0l0,0,.08.07,0,0,.09.09h0l-.09.08,0,0-.08.07,0,0,0,0h0l.09.07,0,0,.1.08h0l-.1.1,0,0-.1.1,0,0,0,0h0l0,0,0,0,.11.09,0,0,.13.11h0l-.12.1,0,0-.12.1,0,0,0,0h0l0,0,0,0,.13.12,0,0Z"/><path class="cls-99" d="M307.92,67.63h0l0,0,.22.16,0,0,.22.16,0,0,0,0,0,0-.22-.17,0,0-.21-.16h0l.28-.22,0,0,.25-.2,0,0h0l0,0-.2-.21,0,0-.21-.22h0l.26-.21,0,0,.24-.19,0,0h0l0,0-.19-.19,0,0-.2-.2h0l.24-.19,0,0,.23-.17h0l0,0h0l-.2-.19,0,0-.19-.17h0l.21-.17,0,0,.18-.15h0l0,0h0l0,0,0,0h0l-.16-.16,0,0-.16-.15h0l.17-.15,0,0,.15-.13h0l0,0,0,0h0l0,0,0,0h0l-.13-.13,0,0-.13-.12h0l.14-.11,0,0,.12-.09,0,0h0l0,0,0,0-.11-.1,0,0-.11-.1h0l.12-.11,0,0,.1-.1,0,0,0,0h0l0,0-.09-.08,0,0-.09-.08h0l.1-.08,0,0,.08-.07,0,0,0,0h0l0,0,0,0-.08-.08,0,0-.07-.07,0,0,0,0,0,0,.07.07,0,0,.09.09h0l-.09.08,0,0-.09.07,0,0h0v0h0l0,0,.09.07,0,0,.1.08h0l-.11.1,0,0-.11.1,0,0h0v0h0l0,0,.1.09,0,0,.12.11h0l-.12.1,0,0-.13.1,0,0h0l0,0,.12.12,0,0,.14.13h0l-.15.14,0,0-.16.14,0,0h0l0,0,.15.15,0,0,.17.17h0l-.19.15,0,0-.2.16,0,0h0l0,0,.18.17,0,0,.21.2h0l-.24.18,0,0-.24.18,0,0h0l0,0,.2.19,0,0,.2.2h0l-.25.2,0,0-.26.21,0,0h0l0,0,.21.22,0,0,.22.22h0l-.27.21,0,0-.28.22,0,0h0Z"/><path class="cls-99" d="M307.87,68l0,0,.06,0,.26-.15,0,0,.26-.15,0,0h0l0,0-.21-.2,0,0-.21-.21h0l.27-.22,0,0,.24-.2,0,0h0l0,0-.2-.19,0,0-.2-.2h0l.25-.2,0,0,.23-.19,0,0h0l0,0-.19-.18,0,0-.19-.18,0,0h0l.24-.2,0,0,.2-.17h0l0,0h0l0,0h0l-.18-.16,0,0-.17-.15h0l.19-.17,0,0,.16-.15h0l0,0,0,0h0l0,0,0,0h0l-.15-.14,0,0-.14-.14h0l.15-.13,0,0,.13-.12,0,0,0,0h0l0,0,0,0-.12-.1,0,0-.12-.1h0l.13-.11,0,0,.11-.09,0,0,0,0h0l0,0,0,0-.1-.1,0,0-.1-.1h0l.1-.08,0,0,.09-.07h0l0,0,0,0-.08-.07,0,0-.09-.08h0l.09-.09,0,0,.08-.07,0,0h0l0,0-.08.07,0,0-.08.08,0,0h0v0h0l0,0,.08.07,0,0,.09.08h0l-.1.08,0,0-.1.08,0,0v0h0l0,0,.1.1,0,0,.11.11h0l-.12.1,0,0-.12.1,0,0h0v0h0l0,0,.11.1,0,0,.13.11h0l-.14.12,0,0-.14.13,0,0h0l0,0,.14.13,0,0,.16.15h0l-.17.15,0,0-.18.16,0,0h0l0,0,.17.15,0,0,.19.17h0l-.21.17,0,0-.22.18,0,0h0l0,0,0,0,.2.19,0,0,.2.19h0l-.24.2,0,0-.25.2,0,0h0l0,0,.2.2,0,0,.21.21h0l-.26.22,0,0-.27.22,0,0h0l0,0,.22.21,0,0,.22.22h0l-.27.16,0,0-.27.16Z"/><rect class="cls-99" x="307.62" y="68.03" width="2.31" height="0.09"/><path class="cls-99" d="M307.62,68.11v0l.14.29h2l.13-.29v0Zm0,0h2.23l-.12.24h-2Z"/><path class="cls-99" d="M309.26,68.66l0-.22h.55l.16.45v0l.15.43,0,0v0h0l.18.49V70h0v0l.19.52h0v.07l.2.55v0h-1.06l-.1-.55v-.07h0l-.09-.55h0v-.07l-.08-.45V69.4h0l-.08-.46v0l0-.18Zm-.1-.27.18,1h0l.09.52h0l.11.61h0l.11.64h1.17v0l-.22-.62h0l-.21-.58v0l-.2-.56v0l-.36-1Z"/><polygon class="cls-99" points="309.23 68.69 309.26 68.72 309.27 68.7 309.49 68.45 310.21 71.19 310.22 71.22 310.26 71.21 310.25 71.19 309.52 68.44 309.51 68.39 309.49 68.39 309.45 68.44 309.26 68.66 309.23 68.69"/><rect class="cls-99" x="307.7" y="68.71" width="2.19" height="0.02"/><rect class="cls-99" x="307.63" y="68.89" width="2.33" height="0.02"/><polygon class="cls-99" points="309.57 68.73 309.8 68.42 309.77 68.4 309.57 68.68 309.2 68.4 309.18 68.43 309.57 68.73"/><polygon class="cls-99" points="309.88 68.74 309.9 68.71 309.5 68.4 309.48 68.43 309.88 68.74"/><polygon class="cls-99" points="308.81 68.72 308.82 68.41 308.78 68.41 308.78 68.72 308.81 68.72"/><rect class="cls-99" x="309.36" y="69.4" width="0.78" height="0.04"/><rect class="cls-99" x="309.46" y="69.97" width="0.89" height="0.04"/><rect class="cls-99" x="309.56" y="70.56" width="1" height="0.04"/><polygon class="cls-99" points="309.34 69.44 309.35 69.45 309.4 69.48 310.32 69.98 310.33 69.99 310.33 69.99 309.59 70.55 309.54 70.59 309.54 70.6 309.6 70.63 310.7 71.19 310.79 71.23 310.8 71.2 310.75 71.17 309.6 70.59 310.34 70.03 310.38 70 310.37 69.97 310.31 69.93 309.4 69.44 309.4 69.43 309.44 69.4 309.95 68.93 309.98 68.9 309.95 68.88 309.93 68.89 309.39 69.4 309.38 69.4 309.37 69.42 309.34 69.44"/><polygon class="cls-99" points="310.1 69.4 310.12 69.41 310.08 69.44 309.48 69.93 309.43 69.97 309.44 69.97 309.46 69.99 309.49 70 309.49 70 310.47 70.56 310.53 70.59 310.53 70.59 309.69 71.18 309.67 71.2 309.69 71.23 309.74 71.19 310.55 70.62 310.6 70.59 310.59 70.58 310.56 70.56 310.55 70.56 310.53 70.54 309.56 70 309.5 69.97 309.5 69.96 310.13 69.44 310.14 69.44 310.15 69.43 310.17 69.41 310.17 69.39 310.1 69.36 309.3 68.89 309.28 68.88 309.26 68.91 309.31 68.94 310.1 69.4"/><path class="cls-99" d="M308.29,68.71l0,.18v0l-.08.46h0v.08l-.08.45V70h0l-.09.55h0v.07l-.1.55H306.8v0l.2-.55v-.07h0l.19-.52v0h0v-.05l.17-.49h0v0l0,0,.15-.43v0l.16-.45h.55l0,.22Zm-.54-.32-.36,1v0l-.2.56v0l-.21.58h0l-.22.62v0h1.17l.11-.64h0l.11-.61h0l.09-.52h0l.18-1Z"/><polygon class="cls-99" points="308.33 68.69 308.3 68.72 308.29 68.7 308.07 68.45 307.35 71.19 307.34 71.22 307.3 71.21 307.31 71.19 308.04 68.44 308.05 68.39 308.07 68.39 308.11 68.44 308.3 68.66 308.33 68.69"/><polygon class="cls-99" points="307.98 68.73 307.76 68.42 307.79 68.4 307.99 68.68 308.36 68.4 308.38 68.43 307.98 68.73"/><rect class="cls-99" x="307.61" y="68.55" width="0.5" height="0.04" transform="translate(22.69 203.32) rotate(-37.85)"/><rect class="cls-99" x="307.21" y="69.97" width="0.89" height="0.04"/><polygon class="cls-99" points="308.22 69.44 308.21 69.45 308.16 69.48 307.24 69.98 307.23 69.99 307.23 69.99 307.97 70.55 308.02 70.59 308.02 70.6 307.96 70.63 306.86 71.19 306.77 71.23 306.76 71.2 306.81 71.17 307.96 70.59 307.22 70.03 307.18 70 307.19 69.97 307.25 69.93 308.15 69.44 308.16 69.43 308.12 69.4 307.61 68.93 307.58 68.9 307.61 68.88 307.63 68.89 308.17 69.4 308.18 69.4 308.19 69.42 308.22 69.44"/><polygon class="cls-99" points="307.46 69.4 307.44 69.41 307.48 69.44 308.08 69.93 308.13 69.97 308.12 69.97 308.1 69.99 308.07 70 308.07 70 307.09 70.56 307.02 70.59 307.03 70.59 307.87 71.18 307.89 71.2 307.87 71.23 307.82 71.19 307 70.62 306.96 70.59 306.97 70.58 307 70.56 307.01 70.56 307.03 70.54 307.99 70 308.06 69.97 308.06 69.96 307.43 69.44 307.42 69.44 307.41 69.43 307.39 69.41 307.39 69.39 307.46 69.36 308.26 68.89 308.27 68.88 308.29 68.91 308.25 68.94 307.46 69.4"/><rect class="cls-99" x="306.44" y="70.8" width="4.66" height="0.06"/><rect class="cls-99" x="306.44" y="71.23" width="4.66" height="0.02"/><rect class="cls-99" x="306.44" y="71.56" width="4.66" height="0.05"/><path class="cls-99" d="M310,71.6l1.16,2h0l.46.82H313l-.56-.83h0l-.48-.71h0l-.25-.38h0l-.64-.95Zm.4.64,0,0-.31-.55h1l.38.56,0,0,.21.31,0,0,.21.31v0l0,0h0l.2.3,0,0,.22.32v0l0,0h0l.23.35,0,0,.24.35,0,0h-1.32l-.21-.37,0,0-.19-.34v0l0,0h0l-.19-.33,0,0-.17-.3h0l0,0h0l-.19-.33v0Z"/><rect class="cls-99" x="311.06" y="71.62" width="0.04" height="0.39"/><rect class="cls-99" x="310.8" y="71.62" width="0.04" height="0.39"/><rect class="cls-99" x="310.54" y="71.62" width="0.04" height="0.39"/><rect class="cls-99" x="310.29" y="71.62" width="0.04" height="0.39"/><rect class="cls-99" x="310.03" y="71.62" width="0.04" height="0.39"/><rect class="cls-99" x="309.77" y="71.62" width="0.04" height="0.39"/><rect class="cls-99" x="309.52" y="71.62" width="0.04" height="0.39"/><rect class="cls-99" x="309.26" y="71.62" width="0.04" height="0.39"/><rect class="cls-99" x="309" y="71.62" width="0.04" height="0.39"/><rect class="cls-99" x="308.75" y="71.62" width="0.04" height="0.39"/><rect class="cls-99" x="308.49" y="71.62" width="0.04" height="0.39"/><rect class="cls-99" x="308.23" y="71.62" width="0.04" height="0.39"/><rect class="cls-99" x="307.98" y="71.62" width="0.04" height="0.39"/><rect class="cls-99" x="307.72" y="71.62" width="0.04" height="0.39"/><rect class="cls-99" x="307.46" y="71.62" width="0.04" height="0.39"/><rect class="cls-99" x="307.21" y="71.62" width="0.04" height="0.39"/><rect class="cls-99" x="306.95" y="71.62" width="0.04" height="0.39"/><rect class="cls-99" x="306.69" y="71.62" width="0.04" height="0.39"/><rect class="cls-99" x="306.44" y="71.62" width="0.04" height="0.39"/><rect class="cls-99" x="306.26" y="71.98" width="5.08" height="0.04"/><rect class="cls-99" x="310.36" y="72.18" width="1.11" height="0.04"/><polygon class="cls-99" points="310.59 72.58 311.73 72.58 311.73 72.54 310.57 72.54 310.59 72.58"/><rect class="cls-99" x="310.77" y="72.91" width="1.19" height="0.04"/><rect class="cls-99" x="310.97" y="73.25" width="1.23" height="0.04"/><rect class="cls-99" x="311.18" y="73.63" width="1.28" height="0.04"/><rect class="cls-99" x="311.39" y="74.01" width="1.32" height="0.04"/><rect class="cls-99" x="308.39" y="61.31" width="0.79" height="0.07"/><rect class="cls-99" x="308.52" y="61.17" width="0.52" height="0.08"/><rect class="cls-99" x="308.74" y="60.07" width="0.08" height="0.92"/><path class="cls-99" d="M308.78,61h.35a.54.54,0,0,1-.24.12h-.22a.54.54,0,0,1-.24-.12Z"/><rect class="cls-99" x="310.8" y="71.24" width="0.04" height="0.32"/><rect class="cls-99" x="311.06" y="71.24" width="0.04" height="0.32"/><rect class="cls-99" x="310.54" y="71.24" width="0.04" height="0.32"/><rect class="cls-99" x="310.29" y="71.24" width="0.04" height="0.32"/><rect class="cls-99" x="310.03" y="71.24" width="0.04" height="0.32"/><rect class="cls-99" x="309.77" y="71.24" width="0.04" height="0.32"/><rect class="cls-99" x="309.52" y="71.24" width="0.04" height="0.32"/><rect class="cls-99" x="309.26" y="71.24" width="0.04" height="0.32"/><rect class="cls-99" x="309" y="71.24" width="0.04" height="0.32"/><rect class="cls-99" x="308.75" y="71.24" width="0.04" height="0.32"/><rect class="cls-99" x="308.49" y="71.24" width="0.04" height="0.32"/><rect class="cls-99" x="308.23" y="71.24" width="0.04" height="0.32"/><rect class="cls-99" x="307.98" y="71.24" width="0.04" height="0.32"/><rect class="cls-99" x="307.72" y="71.24" width="0.04" height="0.32"/><rect class="cls-99" x="307.46" y="71.24" width="0.04" height="0.32"/><rect class="cls-99" x="307.21" y="71.24" width="0.04" height="0.32"/><rect class="cls-99" x="306.95" y="71.24" width="0.04" height="0.32"/><rect class="cls-99" x="306.69" y="71.24" width="0.04" height="0.32"/><rect class="cls-99" x="306.44" y="71.24" width="0.04" height="0.32"/><rect class="cls-99" x="308.52" y="61.77" width="0.52" height="0.04"/><polygon class="cls-99" points="308.8 68.74 309.21 68.43 309.19 68.4 308.8 68.69 308.39 68.4 308.37 68.43 308.8 68.74"/><polygon class="cls-99" points="309.25 68.73 309.27 68.7 308.8 68.39 308.31 68.69 308.33 68.72 308.8 68.44 309.25 68.73"/><rect class="cls-99" x="311.07" y="70.86" width="0.03" height="0.37"/><rect class="cls-99" x="306.44" y="70.86" width="0.03" height="0.37"/><rect class="cls-99" x="310.79" y="70.86" width="0.03" height="0.37"/><rect class="cls-99" x="309.48" y="70.86" width="0.03" height="0.37"/><rect class="cls-99" x="309.21" y="70.86" width="0.03" height="0.37"/><rect class="cls-99" x="308.95" y="70.86" width="0.03" height="0.37"/><rect class="cls-99" x="306.74" y="70.86" width="0.03" height="0.37"/><rect class="cls-99" x="308.05" y="70.86" width="0.03" height="0.37"/><rect class="cls-99" x="308.32" y="70.86" width="0.03" height="0.37"/><rect class="cls-99" x="308.58" y="70.86" width="0.03" height="0.37"/><polygon class="cls-99" points="310.76 72.94 310.77 72.94 310.79 72.95 310.81 72.96 311.49 73.25 311.55 73.28 311.58 73.29 311.59 73.3 312.36 73.63 312.41 73.65 312.4 73.66 312.06 74.01 312.05 74.01 312.03 74.04 312.01 74.05 311.64 74.42 311.62 74.44 311.65 74.47 311.65 74.47 311.65 74.47 311.69 74.43 312.06 74.05 312.06 74.05 312.09 74.03 312.1 74.01 312.45 73.67 312.47 73.64 312.47 73.64 312.47 73.63 312.45 73.63 312.45 73.63 312.4 73.61 311.67 73.29 311.62 73.27 311.59 73.25 311.58 73.25 310.88 72.95 310.82 72.92 310.84 72.91 311.14 72.58 311.15 72.58 311.17 72.55 311.18 72.54 311.47 72.23 311.49 72.21 311.46 72.19 311.45 72.2 311.14 72.53 311.13 72.54 311.11 72.56 311.09 72.58 310.79 72.91 310.78 72.91 310.77 72.92 310.76 72.94"/><polygon class="cls-99" points="311.15 73.65 311.16 73.65 311.16 73.65 311.15 73.65"/><polygon class="cls-99" points="310.36 72.22 310.4 72.23 311.07 72.54 311.11 72.56 311.15 72.58 311.15 72.58 311.87 72.91 311.93 72.94 311.91 72.95 311.58 73.25 311.58 73.25 311.55 73.28 311.54 73.29 311.19 73.62 311.18 73.63 311.18 73.63 311.16 73.65 311.16 73.65 311.18 73.66 311.18 73.66 311.22 73.68 311.98 74.01 312.03 74.04 312.06 74.05 312.06 74.05 312.92 74.43 312.98 74.46 313 74.43 312.94 74.4 312.15 74.05 312.09 74.03 312.07 74.01 312.06 74.01 311.27 73.66 311.22 73.64 311.23 73.63 311.59 73.3 311.6 73.29 311.62 73.27 311.64 73.25 311.96 72.95 311.96 72.95 311.97 72.94 311.99 72.93 311.99 72.92 311.97 72.91 311.96 72.91 311.92 72.89 311.24 72.58 311.17 72.55 311.16 72.54 311.14 72.53 310.38 72.18 310.38 72.19 310.36 72.22"/><path class="cls-99" d="M306.47,71.6l-.64.95h0l-.25.38h0l-.48.71h0l-.56.83h1.41l.46-.82h0l1.16-2Zm.5,1v0l-.19.33h0l0,0h0l-.17.3,0,0-.19.33h0l0,0v0l-.19.34,0,0-.21.37h-1.32l0,0,.24-.35,0,0,.23-.35h0l0,0v0l.22-.32,0,0,.2-.3h0l0,0v0l.21-.31,0,0,.21-.31,0,0,.38-.56h1l-.31.55,0,0Z"/><rect class="cls-99" x="306.09" y="72.18" width="1.11" height="0.04"/><polygon class="cls-99" points="306.97 72.58 305.83 72.58 305.83 72.54 306.99 72.54 306.97 72.58"/><rect class="cls-99" x="305.59" y="72.91" width="1.19" height="0.04"/><rect class="cls-99" x="305.35" y="73.25" width="1.23" height="0.04"/><rect class="cls-99" x="305.11" y="73.63" width="1.28" height="0.04"/><rect class="cls-99" x="304.85" y="74.01" width="1.32" height="0.04"/><polygon class="cls-99" points="306.8 72.94 306.79 72.94 306.77 72.95 306.75 72.96 306.07 73.25 306 73.28 305.98 73.29 305.97 73.3 305.2 73.63 305.15 73.65 305.16 73.66 305.5 74.01 305.51 74.01 305.53 74.04 305.55 74.05 305.92 74.42 305.94 74.44 305.91 74.47 305.91 74.47 305.91 74.47 305.87 74.43 305.5 74.05 305.49 74.05 305.47 74.03 305.46 74.01 305.11 73.67 305.09 73.64 305.09 73.64 305.09 73.63 305.11 73.63 305.11 73.63 305.15 73.61 305.89 73.29 305.94 73.27 305.97 73.25 305.98 73.25 306.68 72.95 306.74 72.92 306.72 72.91 306.42 72.58 306.41 72.58 306.39 72.55 306.38 72.54 306.09 72.23 306.07 72.21 306.1 72.19 306.11 72.2 306.42 72.53 306.43 72.54 306.45 72.56 306.47 72.58 306.77 72.91 306.77 72.91 306.79 72.92 306.8 72.94"/><polygon class="cls-99" points="306.4 73.65 306.4 73.65 306.4 73.65 306.4 73.65"/><polygon class="cls-99" points="307.2 72.22 307.16 72.23 306.49 72.54 306.45 72.56 306.41 72.58 306.41 72.58 305.69 72.91 305.63 72.94 305.65 72.95 305.98 73.25 305.98 73.25 306 73.28 306.02 73.29 306.37 73.62 306.38 73.63 306.38 73.63 306.4 73.65 306.4 73.65 306.38 73.66 306.38 73.66 306.34 73.68 305.58 74.01 305.53 74.04 305.5 74.05 305.5 74.05 304.64 74.43 304.58 74.46 304.56 74.43 304.61 74.4 305.41 74.05 305.47 74.03 305.49 74.01 305.5 74.01 306.29 73.66 306.34 73.64 306.32 73.63 305.97 73.3 305.96 73.29 305.94 73.27 305.92 73.25 305.6 72.95 305.59 72.95 305.59 72.94 305.57 72.93 305.57 72.92 305.59 72.91 305.6 72.91 305.64 72.89 306.32 72.58 306.39 72.55 306.4 72.54 306.42 72.53 307.18 72.18 307.19 72.19 307.2 72.22"/><path class="cls-99" d="M310.82,73a2.56,2.56,0,0,0-.54-.39,3.09,3.09,0,0,0-3,0,2.56,2.56,0,0,0-.54.39l-.07.07.3-.53h0a3.37,3.37,0,0,1,3.62,0h0l.3.53Zm-.53-.41a2.85,2.85,0,0,1,.49.34l-.21-.37a3.35,3.35,0,0,0-3.59,0l-.21.37a2.83,2.83,0,0,1,.49-.34,3.12,3.12,0,0,1,3,0Z"/><rect class="cls-99" x="309.01" y="61.18" width="0.02" height="0.61"/><rect class="cls-99" x="308.9" y="61.08" width="0.02" height="0.71"/><rect class="cls-99" x="308.52" y="61.18" width="0.02" height="0.61"/><rect class="cls-99" x="308.64" y="61.08" width="0.02" height="0.71"/><polygon class="cls-99" points="309.03 61.82 309.17 61.34 309.14 61.33 309 61.8 309.03 61.82"/><polygon class="cls-99" points="308.53 61.82 308.39 61.34 308.42 61.33 308.56 61.8 308.53 61.82"/><rect class="cls-100" x="305.83" y="106.84" width="2.49" height="14.86"/><rect class="cls-101" x="307.73" y="106.84" width="0.6" height="14.86"/><rect class="cls-102" x="306.24" y="110.77" width="1.67" height="0.31"/><rect class="cls-102" x="306.24" y="111.89" width="1.67" height="0.31"/><rect class="cls-102" x="306.24" y="118.04" width="1.67" height="3.12"/><rect class="cls-100" x="295.72" y="112.92" width="14.86" height="2.49" transform="translate(131.84 389.11) rotate(-78.71)"/><rect class="cls-101" x="296.65" y="114.06" width="14.86" height="0.6" transform="translate(132.45 390.19) rotate(-78.72)"/><rect class="cls-102" x="303.65" y="110.06" width="0.31" height="1.67" transform="translate(135.61 387.13) rotate(-78.72)"/><rect class="cls-102" x="303.43" y="111.15" width="0.31" height="1.67" transform="translate(134.26 387.73) rotate(-78.69)"/><rect class="cls-102" x="300.55" y="118.56" width="3.12" height="1.67" transform="translate(125.8 392.24) rotate(-78.69)"/><rect class="cls-100" x="308.57" y="106.84" width="2.49" height="14.86"/><rect class="cls-101" x="310.47" y="106.84" width="0.6" height="14.86"/><rect class="cls-102" x="308.98" y="110.77" width="1.67" height="0.31"/><rect class="cls-102" x="308.98" y="111.89" width="1.67" height="0.31"/><rect class="cls-102" x="308.98" y="118.04" width="1.67" height="3.12"/><rect class="cls-100" x="311.31" y="106.84" width="2.49" height="14.86"/><rect class="cls-101" x="313.21" y="106.84" width="0.6" height="14.86"/><rect class="cls-102" x="311.72" y="110.77" width="1.67" height="0.31"/><rect class="cls-102" x="311.72" y="111.89" width="1.67" height="0.31"/><rect class="cls-102" x="311.72" y="118.04" width="1.67" height="3.12"/><rect class="cls-100" x="314.05" y="106.84" width="2.49" height="14.86"/><rect class="cls-101" x="315.95" y="106.84" width="0.6" height="14.86"/><rect class="cls-102" x="314.46" y="110.77" width="1.67" height="0.31"/><rect class="cls-102" x="314.46" y="111.89" width="1.67" height="0.31"/><rect class="cls-102" x="314.46" y="118.04" width="1.67" height="3.12"/><rect class="cls-37" x="299.57" y="96.98" width="14.86" height="2.49" transform="translate(150.47 380) rotate(-78.69)"/><rect class="cls-103" x="300.5" y="98.11" width="14.86" height="0.6" transform="translate(151.06 381.07) rotate(-78.69)"/><rect class="cls-93" x="307.5" y="94.11" width="0.31" height="1.67" transform="translate(154.27 378.04) rotate(-78.7)"/><rect class="cls-93" x="307.28" y="95.21" width="0.31" height="1.67" transform="translate(153.15 378.77) rotate(-78.73)"/><rect class="cls-93" x="304.39" y="102.62" width="3.12" height="1.67" transform="translate(144.68 383.28) rotate(-78.72)"/><rect class="cls-37" x="296.25" y="96.98" width="14.86" height="2.49" transform="translate(122.38 360.91) rotate(-73.31)"/><rect class="cls-103" x="297.16" y="98.2" width="14.86" height="0.6" transform="translate(122.84 362.03) rotate(-73.33)"/><rect class="cls-93" x="304.49" y="94.19" width="0.31" height="1.67" transform="translate(126.07 359.5) rotate(-73.3)"/><rect class="cls-93" x="304.17" y="95.26" width="0.31" height="1.67" transform="translate(124.92 360.03) rotate(-73.32)"/><rect class="cls-93" x="300.59" y="102.5" width="3.12" height="1.67" transform="translate(116.41 363.1) rotate(-73.31)"/><rect class="cls-37" x="309.68" y="90.9" width="2.49" height="14.86"/><rect class="cls-103" x="311.57" y="90.9" width="0.6" height="14.86"/><rect class="cls-93" x="310.09" y="94.83" width="1.67" height="0.31"/><rect class="cls-93" x="310.09" y="95.95" width="1.67" height="0.31"/><rect class="cls-93" x="310.09" y="102.1" width="1.67" height="3.12"/><rect class="cls-37" x="312.42" y="90.9" width="2.49" height="14.86"/><rect class="cls-103" x="314.31" y="90.9" width="0.6" height="14.86"/><rect class="cls-93" x="312.83" y="94.83" width="1.67" height="0.31"/><rect class="cls-93" x="312.83" y="95.95" width="1.67" height="0.31"/><rect class="cls-93" x="312.83" y="102.1" width="1.67" height="3.12"/><rect class="cls-37" x="315.16" y="90.9" width="2.49" height="14.86"/><rect class="cls-103" x="317.05" y="90.9" width="0.6" height="14.86"/><rect class="cls-93" x="315.57" y="94.83" width="1.67" height="0.31"/><rect class="cls-93" x="315.57" y="95.95" width="1.67" height="0.31"/><rect class="cls-93" x="315.57" y="102.1" width="1.67" height="3.12"/><rect class="cls-34" x="299.3" y="123.37" width="19.23" height="0.72"/></g></g></svg>