<svg id="Layer_1" data-name="Layer 1" xmlns="http://www.w3.org/2000/svg" viewBox="0 0 426 220.49"><defs><style>.cls-1{fill:#c77246;}.cls-1,.cls-11,.cls-14,.cls-15,.cls-16,.cls-17,.cls-18,.cls-2,.cls-23,.cls-24,.cls-25,.cls-28,.cls-29,.cls-3,.cls-30,.cls-33,.cls-36,.cls-37,.cls-38,.cls-39,.cls-4,.cls-40,.cls-41,.cls-42,.cls-46,.cls-47,.cls-7,.cls-9{stroke:#640c19;}.cls-1,.cls-23,.cls-24,.cls-28,.cls-29,.cls-33,.cls-35,.cls-36,.cls-37,.cls-38,.cls-39,.cls-41,.cls-42,.cls-46,.cls-47,.cls-9{stroke-linecap:round;}.cls-1,.cls-11,.cls-14,.cls-15,.cls-2,.cls-20,.cls-23,.cls-24,.cls-25,.cls-28,.cls-29,.cls-3,.cls-30,.cls-33,.cls-36,.cls-37,.cls-4,.cls-41,.cls-46,.cls-47,.cls-5,.cls-9{stroke-miterlimit:10;}.cls-1,.cls-11,.cls-14,.cls-15,.cls-16,.cls-17,.cls-18,.cls-2,.cls-23,.cls-24,.cls-25,.cls-28,.cls-29,.cls-30,.cls-33,.cls-35,.cls-36,.cls-37,.cls-38,.cls-39,.cls-4,.cls-40,.cls-41,.cls-42,.cls-9{stroke-width:1.73px;}.cls-2{fill:#9c5443;}.cls-3{fill:#cc7f6e;}.cls-20,.cls-3,.cls-5{stroke-width:1.83px;}.cls-4{fill:#c08172;}.cls-5{fill:#a05b4a;}.cls-20,.cls-5{stroke:#4f1319;}.cls-20,.cls-44,.cls-6{fill:#74382f;}.cls-7{fill:#d7dce2;stroke-width:2px;}.cls-16,.cls-17,.cls-18,.cls-35,.cls-38,.cls-39,.cls-40,.cls-42,.cls-7{stroke-linejoin:round;}.cls-47,.cls-8,.cls-9{fill:#fff;}.cls-10{fill:#5a5f7b;opacity:0.58;}.cls-10,.cls-19,.cls-44{isolation:isolate;}.cls-11{fill:#6da5a1;}.cls-12,.cls-14{fill:#8ac5be;}.cls-13{fill:#627c8a;}.cls-15,.cls-18,.cls-23,.cls-46{fill:none;}.cls-16{fill:#eabd5a;}.cls-17,.cls-30{fill:#ffd672;}.cls-19,.cls-27{fill:#640c19;}.cls-19{opacity:0.19;}.cls-21,.cls-29,.cls-38{fill:#cee1df;}.cls-22{fill:#a5cdcb;}.cls-24{fill:#e2f3f1;}.cls-25{fill:#f7f0ee;}.cls-26{fill:#ead9d3;}.cls-28,.cls-35{fill:#e15a59;}.cls-31{fill:#edaf5d;}.cls-32,.cls-36{fill:#fcd4b6;}.cls-33{fill:#edb67a;}.cls-34,.cls-37{fill:#ffeddb;}.cls-35{stroke:#e15a59;}.cls-39{fill:#b0ccc9;}.cls-40,.cls-42{fill:#b9d67b;}.cls-41{fill:#da8657;}.cls-43{fill:#f2e6da;}.cls-44{opacity:0.75;}.cls-45{fill:#e8b592;}.cls-46{stroke-width:1.23px;}.cls-47{stroke-width:1.5px;}</style></defs><title>cardimg3</title><path class="cls-1" d="M192.39,66h-7.76a8.74,8.74,0,0,0-8.74,8.74v32s15.63-4.61,10.56-25.75c-.2-.83-3.63-1.43-3.63-1.43Z"/><path class="cls-2" d="M54.56,118.06H213.11A22.89,22.89,0,0,1,236,141v74.61H31.67V141a22.89,22.89,0,0,1,22.84-22.94h.05Z"/><path class="cls-3" d="M58.69,118.06H217.22A22.89,22.89,0,0,1,240.11,141h0v74.58H35.8V141a22.89,22.89,0,0,1,22.84-22.94h.05Z"/><rect class="cls-4" x="35.8" y="215.49" width="9.67" height="4.61"/><rect class="cls-5" x="35.8" y="174.26" width="198.77" height="41.23"/><path class="cls-3" d="M58.82,127.07H217.11a14.06,14.06,0,0,1,14,14.06v25.33H44.76V141.13A14.06,14.06,0,0,1,58.82,127.07Z"/><path class="cls-6" d="M99.32,165.58H54.5A14.34,14.34,0,0,1,44.35,161l-5.24-5.26,5.22-5.26a14.34,14.34,0,0,1,10.15-4.6H99.31a14.22,14.22,0,0,1,9.85,4.3l5.77,5.56-5.77,5.56A14.22,14.22,0,0,1,99.32,165.58Z"/><path class="cls-7" d="M234.57,160v23.88H35.8v-8.77A15.12,15.12,0,0,1,50.91,160Z"/><path class="cls-8" d="M107.85,160.66V168H78.39a7.3,7.3,0,0,1-7.3-7.3h36.75Z"/><rect class="cls-3" x="231.15" y="189.93" width="175.68" height="25.56"/><rect class="cls-2" x="231.15" y="215.49" width="9.67" height="4.61"/><path class="cls-7" d="M189.66,160H144.83a14.34,14.34,0,0,1-10.15-4.6l-5.22-5.26,5.22-5.26a14.34,14.34,0,0,1,10.15-4.6h44.83a14.22,14.22,0,0,1,9.85,4.3l5.77,5.56-5.77,5.56A14.22,14.22,0,0,1,189.66,160Z"/><path class="cls-9" d="M210.27,160H165.45a14.34,14.34,0,0,1-10.15-4.6l-5.19-5.21,5.22-5.26a14.34,14.34,0,0,1,10.15-4.6h44.83a14.22,14.22,0,0,1,9.85,4.3l5.77,5.56-5.82,5.56A14.22,14.22,0,0,1,210.27,160Z"/><path class="cls-7" d="M123.75,150.19,118,155.75a14.21,14.21,0,0,1-9.87,4.25H63.31a14.35,14.35,0,0,1-10.15-4.6l-.35-.35-4.87-4.91,5.22-5.26a14.32,14.32,0,0,1,10.15-4.6h44.8a14.23,14.23,0,0,1,9.85,4.3Z"/><path class="cls-10" d="M98.91,155.1V160H63.31a14.35,14.35,0,0,1-10.15-4.6l-.35-.35Z"/><path class="cls-9" d="M128.75,160H83.92a14.34,14.34,0,0,1-10.15-4.6l-5.22-5.26,5.22-5.26a14.34,14.34,0,0,1,10.15-4.6h44.83a14.22,14.22,0,0,1,9.85,4.3l5.77,5.56-5.77,5.56A14.22,14.22,0,0,1,128.75,160Z"/><path class="cls-11" d="M261.55,156.92v34H84.79v-12.2a21.81,21.81,0,0,1,21.8-21.8Z"/><path class="cls-12" d="M255.76,157.53v8.53H89.92a21.74,21.74,0,0,1,17.29-8.53Z"/><path class="cls-13" d="M162.17,156.92v34h6.48v-12.2c0-12,4.85-21.8,10.84-21.8Z"/><path class="cls-13" d="M179.87,156.92v.17H149.11v.13l-1.18,33.46h-9.4v-19a19,19,0,0,1,3.7-11.28l2.57-3.5Z"/><path class="cls-14" d="M265.11,156.92h107.7a34,34,0,0,1,34,34H231.11a34,34,0,0,1,34-34Z"/><line class="cls-15" x1="54.29" y1="206.2" x2="216.07" y2="206.2"/><line class="cls-15" x1="247.96" y1="206.2" x2="397.15" y2="206.2"/><rect class="cls-16" x="84.79" y="190.91" width="146.36" height="3.96"/><rect class="cls-17" x="231.15" y="190.91" width="175.68" height="3.96"/><line class="cls-18" x1="-76.73" y1="220.1" x2="422.02" y2="220.1"/><rect class="cls-3" x="-47.34" y="184.57" width="93.58" height="35.52"/><rect class="cls-3" x="-42.13" y="196.05" width="83.16" height="20.19"/><rect class="cls-4" x="-42.13" y="172.23" width="83.16" height="12.34"/><path class="cls-4" d="M40.84,166.83H-41.89a5.4,5.4,0,0,0-5.4,5.4H46.29a5.4,5.4,0,0,0-5.4-5.4Z"/><rect class="cls-4" x="41.03" y="172.23" width="5.21" height="12.34"/><path class="cls-16" d="M1.88,208.55H-3a2.4,2.4,0,0,1-2.4-2.4h0a2.4,2.4,0,0,1,2.4-2.4H1.88a2.4,2.4,0,0,1,2.4,2.4h0A2.4,2.4,0,0,1,1.88,208.55Z"/><path class="cls-19" d="M4,207.2a2.41,2.41,0,0,1-2.16,1.36H-3a2.39,2.39,0,0,1-2.16-1.36,2.3,2.3,0,0,1,.46-.65,2.39,2.39,0,0,1,1.7-.7H1.88A2.4,2.4,0,0,1,4,207.2Z"/><rect class="cls-20" x="-42.13" y="172.23" width="83.16" height="12.34"/><path id="_Path_13" data-name=" Path 13" class="cls-21" d="M7.95,179.35v3.82H9.11v1.22H-6a3.14,3.14,0,0,1-3.34-2.93,3.14,3.14,0,0,1,2.93-3.34H9.11v1.22Z"/><path id="_Path_14" data-name=" Path 14" class="cls-22" d="M7.11,181.26v3.14H-6a3,3,0,0,1-3.14-2.81,2.3,2.3,0,0,1,0-.33Z"/><path id="_Path_15" data-name=" Path 15" class="cls-23" d="M7.95,179.35v3.82H9.11v1.22H-6a3.14,3.14,0,0,1-3.34-2.93,3.14,3.14,0,0,1,2.93-3.34H9.11v1.22Z"/><path id="_Path_16" data-name=" Path 16" class="cls-24" d="M29.45,179.35v3.82H30a.61.61,0,0,1,.61.61h0a.61.61,0,0,1-.61.61H6.94a3.19,3.19,0,0,1-3.22-3.09,3.14,3.14,0,0,1,3.1-3.18H30a.61.61,0,0,1,.61.61h0a.61.61,0,0,1-.61.61Z"/><path id="_Rectangle_6" data-name=" Rectangle 6" class="cls-25" d="M7.11,179.35H29.49v3.82H7.11a1.91,1.91,0,0,1-1.91-1.91h0a1.91,1.91,0,0,1,1.91-1.91Z"/><path id="_Path_17" data-name=" Path 17" class="cls-25" d="M1.78,184.4H.45A3.14,3.14,0,0,1,0,178.14H1.78a3.14,3.14,0,0,0-.41,6.27h.41Z"/><path id="_Path_18" data-name=" Path 18" class="cls-26" d="M1.78,184.4H.45a3.14,3.14,0,0,1-3.14-3.14h1.33a3.14,3.14,0,0,0,3.14,3.14Z"/><path id="_Path_19" data-name=" Path 19" class="cls-26" d="M29.45,179.35v1.23H7.11a1.91,1.91,0,0,0-1.81,1.3,1.91,1.91,0,0,1,1.81-2.52Z"/><path id="_Path_20" data-name=" Path 20" class="cls-23" d="M-1.89,178.13H1.77a3.14,3.14,0,0,0-.41,6.27H.42"/><path id="_Path_21" data-name=" Path 21" class="cls-23" d="M.45,184.4a3.14,3.14,0,0,1-.35-6.27H.45"/><path id="_Rectangle_7" data-name=" Rectangle 7" class="cls-15" d="M7.11,179.35H29.49v3.82H7.11a1.91,1.91,0,0,1-1.91-1.91h0a1.91,1.91,0,0,1,1.91-1.91Z"/><polygon id="_Path_30" data-name=" Path 30" class="cls-27" points="-6.49 166.88 2.69 166.88 2.69 144.87 -6.49 166.88 -6.49 166.88"/><polygon id="_Path_31" data-name=" Path 31" class="cls-28" points="2.21 167.01 22.03 167.01 17.92 141.4 -1.9 141.4 2.21 167.01"/><polygon id="_Path_32" data-name=" Path 32" class="cls-29" points="6.32 162.16 17.92 162.16 15.17 146.26 3.57 146.26 6.32 162.16"/><polygon id="_Path_33" data-name=" Path 33" class="cls-8" points="16.03 162.16 17.92 162.16 17.01 156.91 12.73 146.26 8.68 146.26 16.03 162.16"/><polygon id="_Path_34" data-name=" Path 34" class="cls-8" points="14.23 162.16 15.17 162.16 7.82 146.26 6.87 146.26 14.23 162.16"/><polygon id="_Path_35" data-name=" Path 35" class="cls-23" points="6.32 162.16 17.92 162.16 15.17 146.26 3.57 146.26 6.32 162.16"/><path class="cls-30" d="M365.11,156.06a1.65,1.65,0,0,1-1.57,1.14h0l-26.06-.1L305,157v-11.6l33.4,4.08,10.18,1.25,2.14-2.31a2.06,2.06,0,0,1,2.41-.4l11.08,6.05A1.66,1.66,0,0,1,365.11,156.06Z"/><g id="_Group_3" data-name=" Group 3"><path id="_Path_42" data-name=" Path 42" class="cls-28" d="M228.53,156.06a3.35,3.35,0,0,0,3.91.37l24-14.1a3.35,3.35,0,1,0-3.21-5.88h0l-.17.1-24,14.1a3.35,3.35,0,0,0-.51,5.41Z"/></g><path id="_Path_43" data-name=" Path 43" class="cls-30" d="M244.79,133.47l5.42,2.76c9.74,0,18.3-8.12,16-17.6L262.66,99.7c-1.91-6.87-7.18-10-14.35-10h0a13,13,0,0,0-13,12.54,2,2,0,0,0,.17.85V118.4A16.89,16.89,0,0,0,244.79,133.47Z"/><path id="_Path_44" data-name=" Path 44" class="cls-31" d="M260,129.47c-.91-.39-1.29-2.18-2.35-2.18l-.77.6c0-.19-.71.2-.69,0s-3.83,1.48-2.82-2.77l.54-3.79a11.73,11.73,0,0,0,3.39-8.12l1.56-8.1v-.35l2.9,12.24C263.11,123.74,261.3,126.56,260,129.47Z"/><path id="_Path_45" data-name=" Path 45" class="cls-28" d="M263.87,135.14,275.31,139a10.44,10.44,0,0,0,6.42.09h0a10.44,10.44,0,0,1,6,0l17.09,5.09-1,7a7.32,7.32,0,0,1-7.24,6.23H276.51l-38.74-13.62L235,138.31V135a8.18,8.18,0,0,1,8.18-8.18h13.27C262,126.86,263.87,130.57,263.87,135.14Z"/><path id="_Path_46" data-name=" Path 46" class="cls-32" d="M253.18,120.47v5.1a8.19,8.19,0,0,1-4.77,1.57h-1.64a6.66,6.66,0,0,1-3.07-.76h0v-4h0Z"/><path class="cls-28" d="M258.63,136.23l13.48,14.27c.13.15.22.39,0,.39H253.23v6.45h23.2a5,5,0,0,0,3.74-8.23l-15-16.66-1.4-2.33a6.75,6.75,0,0,0-5.79-3.27h-4.77V120l-9.49-1v8.21l-4.7,8.45h.31"/><path id="_Path_47" data-name=" Path 47" class="cls-28" d="M257.87,138.76a6.55,6.55,0,0,1,1.12,3.68h0a6.58,6.58,0,0,1-6.58,6.56H238.79a6.58,6.58,0,0,1-6.58-6.58h0A6.57,6.57,0,0,1,235,137"/><path id="_Path_48" data-name=" Path 48" class="cls-33" d="M236.8,116.32c0-4.7,1.89-12-.22-14.52-1.11-1.34-4,.68-4,.78Z"/><path id="_Path_49" data-name=" Path 49" class="cls-34" d="M257.95,105v8.12h0a11.65,11.65,0,0,1-11.65,11.65h0a11.64,11.64,0,0,1-11.64-11.64h0v-10a6,6,0,0,1,6-6H252a6,6,0,0,1,6,6V106"/><path id="_Path_50" data-name=" Path 50" class="cls-32" d="M257.95,105v8.12h0a11.65,11.65,0,0,1-11.65,11.64H244a11.65,11.65,0,0,0,11.23-11.64h0v-10a6,6,0,0,0-6-6h2.66a6,6,0,0,1,6,6V105Z"/><path id="_Path_51" data-name=" Path 51" class="cls-23" d="M257.95,104.94v8.12h0a11.64,11.64,0,0,1-11.63,11.65h0a11.65,11.65,0,0,1-11.64-11.64V103a6,6,0,0,1,6-6H252a6,6,0,0,1,6,6v2.88"/><path id="_Path_52" data-name=" Path 52" class="cls-23" d="M241.5,114.73a1.76,1.76,0,0,1-1.76-1.76h0"/><path id="_Path_53" data-name=" Path 53" class="cls-23" d="M234.77,107.07a2.89,2.89,0,0,1,4.56.22"/><circle id="_Path_54" data-name=" Path 54" class="cls-9" cx="236.8" cy="109.42" r="1.43"/><ellipse id="_Path_55" data-name=" Path 55" class="cls-27" cx="236.61" cy="109.88" rx="0.73" ry="0.72"/><circle id="_Path_56" data-name=" Path 56" class="cls-9" cx="245.93" cy="109.42" r="1.43"/><ellipse id="_Path_57" data-name=" Path 57" class="cls-27" cx="245.75" cy="109.88" rx="0.7" ry="0.72"/><path id="_Path_58" data-name=" Path 58" class="cls-35" d="M239.3,118.57a5.43,5.43,0,0,1,.36.52,1.71,1.71,0,0,0,.69.64,2.94,2.94,0,0,0,2.46,0,1.75,1.75,0,0,0,.63-.56l.46-.65c-.87,0-1.12-.57-1.6-.57h-1.61C240.19,117.92,240.11,118.64,239.3,118.57Z"/><path id="_Path_59" data-name=" Path 59" class="cls-23" d="M243.94,107.07a2.89,2.89,0,0,1,4.56.22"/><path id="_Path_60" data-name=" Path 60" class="cls-30" d="M255.29,111.48V106.4a.77.77,0,0,0-.77-.76c-4.84,0-17.12.68-21.91-3.07h0c0-7.2,5.64-14,15.11-14h0c7.2,0,13.69,4,15.12,11.78l1.78,9.52"/><path id="_Path_61" data-name=" Path 61" class="cls-36" d="M255.28,111.78a2.91,2.91,0,1,1,1.47,2.53"/><path id="_Path_62" data-name=" Path 62" class="cls-37" d="M244.51,122.75l2.09,4a1.08,1.08,0,0,1-.36,1.4h0a1.08,1.08,0,0,1-1.49-.32v-.06l-1.6-2.91"/><path id="_Path_63" data-name=" Path 63" class="cls-23" d="M258.19,110.6a1.18,1.18,0,0,1,1.18,1.18"/><circle id="_Path_64" data-name=" Path 64" class="cls-8" cx="258.02" cy="114.15" r="0.76"/><g id="_Group_4" data-name=" Group 4"><line id="_Path_65" data-name=" Path 65" class="cls-23" x1="237.56" y1="125.46" x2="235.88" y2="121.76"/><path id="_Path_66" data-name=" Path 66" class="cls-37" d="M237.3,124.29a.84.84,0,0,0,1-1.14l-1.68-3.7a.84.84,0,0,0-1.52.69l1.68,3.7A.83.83,0,0,0,237.3,124.29Z"/></g><g id="_Group_5" data-name=" Group 5"><path id="_Path_67" data-name=" Path 67" class="cls-37" d="M230.68,156.73a3.35,3.35,0,0,0,3.18-2.3L242.58,128a3.35,3.35,0,0,0-6.31-2.27l0,.17-8.72,26.39a3.35,3.35,0,0,0,3.18,4.4Z"/></g><path id="_Path_68" data-name=" Path 68" class="cls-37" d="M242.36,128.71l2.36-4.14a1.6,1.6,0,0,0-.59-2.18l-.17-.09-5.09-2.18a1.6,1.6,0,0,0-2.23,1.33l-.42,4.49"/><line class="cls-23" x1="238.76" y1="137.46" x2="245.6" y2="157.35"/><polygon class="cls-38" points="226.61 130.14 238.76 137.46 258.24 137.46 264.59 157.35 245.6 157.35 232.55 150.58 226.61 130.14"/><path class="cls-30" d="M304.93,157.42l-6-.07,1.3-1.36a8.68,8.68,0,0,0,2.28-7.43l-.27-1.58a5.43,5.43,0,0,0-3.7-4.82h0l-5.83-17.59-3.45-10.41L286.72,112a1.59,1.59,0,0,1-.43-1.89h0L292.41,97a2,2,0,0,1,3.75.84,2.23,2.23,0,0,1,0,.28l-1.75,11.73,5.7,11.59,12.16,24.7a7.83,7.83,0,0,1-7.34,11.28Z"/><polyline class="cls-37" points="269.64 157.35 250.49 157.35 250.49 150.89 269.64 150.89"/><path id="_Path_69" data-name=" Path 69" class="cls-37" d="M254.65,150.89h-5.88a1.08,1.08,0,0,0-1.08,1.08h0a1.08,1.08,0,0,0,1.08,1.08h5.88"/><path id="_Path_70" data-name=" Path 70" class="cls-37" d="M254.65,153h-5.88a1.08,1.08,0,0,0-1.08,1.08h0a1.08,1.08,0,0,0,1.08,1.08h5.88"/><path id="_Path_71" data-name=" Path 71" class="cls-37" d="M254.65,155.2h-5.88a1.08,1.08,0,0,0-1.08,1.08h0a1.08,1.08,0,0,0,1.08,1.08h5.88"/><polygon class="cls-39" points="226.61 130.14 232.55 150.58 245.6 157.35 238.76 137.46 226.61 130.14"/><path class="cls-28" d="M300.11,121.44l-7.36,3.12-3.45-10.41-2.47-2.06a1.67,1.67,0,0,1-.52-1.94h0L292.41,97a2,2,0,0,1,3.75.84,2.23,2.23,0,0,1,0,.28l-1.75,11.73Z"/><polygon class="cls-9" points="290.25 117.12 291.11 119.72 297.96 117.12 296.78 114.73 290.25 117.12"/><line class="cls-23" x1="291.79" y1="98.35" x2="295.91" y2="99.67"/><path class="cls-23" d="M288.11,106.33h0a6.8,6.8,0,0,1,1.39,7.35l-.19.47"/><path class="cls-28" d="M365.11,156.06a1.65,1.65,0,0,1-1.57,1.14h-28.9l.86-8.13,13,1.59,2.14-2.31a2.06,2.06,0,0,1,2.47-.35l11.08,6.05A1.66,1.66,0,0,1,365.11,156.06Z"/><path class="cls-28" d="M363.11,153.44l-.23.17a3.5,3.5,0,0,0-1.36,3.6h0"/><path class="cls-28" d="M348.46,150.72l.19.06a6.24,6.24,0,0,0,6.46-1.68h0"/><polygon class="cls-9" points="339.51 149.62 338.69 157.26 341.69 157.25 342.43 149.98 339.51 149.62"/><line class="cls-23" x1="269.64" y1="150.89" x2="269.64" y2="157.21"/><path class="cls-37" d="M179.11,107.37l-2.18,19S162,137.56,161.64,137.66h-2.26a1.94,1.94,0,0,0-1.94,1.94h0v3.11a2.68,2.68,0,0,0,2.68,2.68h3.32l16-10.86a12.54,12.54,0,0,0,4.47-5.24l3-20.48Z"/><path id="_Path_72" data-name=" Path 72" class="cls-30" d="M190,89.56h0a7.8,7.8,0,0,1-4.76-5.42l-.44-1.81c-1.46-1.08-2.65.5-2.55-1.32l-1.07-6A13.25,13.25,0,0,1,194,59.4h.21A12.74,12.74,0,0,1,207,71.71a1.94,1.94,0,0,1-.17.83L206.31,83C206.31,89.21,195.56,86.74,190,89.56Z"/><path class="cls-9" d="M184.17,144.86v11.61H154.64v.13l-1.18,33.46H142.83v-36c0-5.56,3.84-9.19,11.78-9.19Z"/><path id="_Path_73" data-name=" Path 73" class="cls-40" d="M208.66,105.43l.55,40.41c-.75,5.8-4.09,5.53-9.94,5.55l-16.31,4-1.79-34-2.6-9.36v-6.64a9.08,9.08,0,0,1,9.08-9.08h11.93a9.08,9.08,0,0,1,9.08,9.08h0Z"/><path id="_Path_74" data-name=" Path 74" class="cls-37" d="M197.81,88.78v6.86c-.2,3.13-2.32,5.58-4.9,5.58H190.2c-1.71,0-3.1-1.72-3.1-3.84v-10Z"/><path id="_Path_75" data-name=" Path 75" class="cls-32" d="M198,88.78v7.35a9.63,9.63,0,0,1-5.39,1.68h-1.85A7.89,7.89,0,0,1,187.3,97h0V87.75Z"/><path id="_Path_76" data-name=" Path 76" class="cls-33" d="M205.55,85.47c0-4.61-1.85-11.75.22-14.25,1.09-1.32,3.94.67,3.9.76Z"/><path id="_Path_77" data-name=" Path 77" class="cls-34" d="M184.79,74.38v8h0a11.43,11.43,0,0,0,11.43,11.43h0a11.42,11.42,0,0,0,11.42-11.42V72.56a5.86,5.86,0,0,0-5.86-5.86H190.66a5.86,5.86,0,0,0-5.86,5.86v2.82"/><path id="_Path_78" data-name=" Path 78" class="cls-32" d="M184.79,74.38v8h0A11.43,11.43,0,0,0,196.22,93.8h2.22a11.43,11.43,0,0,1-11-11.42h0V72.56a5.86,5.86,0,0,1,5.84-5.86h-2.61a5.86,5.86,0,0,0-5.86,5.86v1.86Z"/><path id="_Path_79" data-name=" Path 79" class="cls-23" d="M184.79,74.31v8h0a11.43,11.43,0,0,0,11.43,11.43h0a11.43,11.43,0,0,0,11.43-11.43V72.48a5.86,5.86,0,0,0-5.86-5.86H190.66a5.86,5.86,0,0,0-5.86,5.86V75.3"/><path id="_Path_80" data-name=" Path 80" class="cls-23" d="M200.94,83.91a1.73,1.73,0,0,0,1.73-1.73"/><path id="_Path_81" data-name=" Path 81" class="cls-35" d="M203.11,87.68a5.34,5.34,0,0,0-.35.51,1.68,1.68,0,0,1-.67.62,2.88,2.88,0,0,1-2.42,0,1.72,1.72,0,0,1-.62-.55l-.45-.64c.86,0,1.1-.56,1.57-.56h1.58C202.23,87,202.33,87.75,203.11,87.68Z"/><path id="_Path_82" data-name=" Path 82" class="cls-41" d="M181.75,81.49l-1-6.73a14.33,14.33,0,0,1,13.89-16.5h.21c9.29,0,14.83,6.67,14.83,13.73h0C205,75.66,196.5,73.71,190,72.5a.72.72,0,0,0-.76.68h0v4.75a2.8,2.8,0,0,1-2.8,2.8h0"/><path id="_Path_83" data-name=" Path 83" class="cls-36" d="M187.42,81A2.85,2.85,0,1,0,186,83.48"/><path id="_Path_84" data-name=" Path 84" class="cls-23" d="M184.57,79.86A1.16,1.16,0,0,0,183.41,81"/><circle id="_Path_85" data-name=" Path 85" class="cls-8" cx="184.73" cy="83.35" r="0.75"/><path id="_Path_86" data-name=" Path 86" class="cls-36" d="M176.33,143.45l-3.22-3.28a1.42,1.42,0,0,1,0-2h0a1.42,1.42,0,0,1,2,0l3.17,3.28a1.42,1.42,0,0,1,0,2h0A1.42,1.42,0,0,1,176.33,143.45Z"/><path id="_Path_87" data-name=" Path 87" class="cls-42" d="M192.65,121.44H182.37c-3.56,0-6.89-3.33-6.89-7.44h0a7.44,7.44,0,0,1,3.2-6.12"/><path id="_Path_88" data-name=" Path 88" class="cls-36" d="M174.46,144.36h-7.29a1.42,1.42,0,0,1-1.42-1.42h0a1.42,1.42,0,0,1,1.42-1.42h7.29"/><path id="_Path_89" data-name=" Path 89" class="cls-37" d="M180.4,143.48a1.4,1.4,0,0,1-1,.4,1.42,1.42,0,0,1-1-.43l-3.16-3.28a1.42,1.42,0,1,1,2-2l.7.72,2.47,2.56a1.41,1.41,0,0,1,0,2h0Z"/><path id="_Path_90" data-name=" Path 90" class="cls-9" d="M184.44,145.91H166.77a3.09,3.09,0,0,1-2.57-1.37L151.79,126a1.44,1.44,0,0,1,1.19-2.24h17.67a3.09,3.09,0,0,1,2.57,1.37l12.41,18.5a1.44,1.44,0,0,1-1.19,2.28Z"/><path class="cls-37" d="M199.11,112.38l-1.72,14s-14.94,11.18-15.28,11.28h-7.2V140c-1.85.78-3.19,1.65-2.93,2.5a4,4,0,0,0,2.93,2.73v.2h9l16-10.86H200a11.33,11.33,0,0,0,4.79-7.81l2.59-17.87Z"/><path id="_Path_91" data-name=" Path 91" class="cls-37" d="M178.88,140.24h-6.63A1.29,1.29,0,0,1,171,139h0a1.29,1.29,0,0,1,1.29-1.29h6.63"/><path id="_Path_92" data-name=" Path 92" class="cls-37" d="M178.88,142.82h-6.63a1.29,1.29,0,0,1-1.29-1.29h0a1.29,1.29,0,0,1,1.29-1.29h6.63"/><path id="_Path_93" data-name=" Path 93" class="cls-37" d="M178.88,145.39h-6.63A1.29,1.29,0,0,1,171,144.1h0a1.29,1.29,0,0,1,1.29-1.29h6.63"/><path class="cls-6" d="M145.21,204.72,129,210.5a1.72,1.72,0,0,1-1.69-2.07,1.53,1.53,0,0,1,.08-.28,1.85,1.85,0,0,1,.51-.7c1.67-1.46,3.37-3,5-4.67l5.55-6.47v-5.66h9.4l-.1,5.66.57,3.15A4.71,4.71,0,0,1,145.21,204.72Z"/><path class="cls-6" d="M160.11,204.72l-16.23,5.78a1.72,1.72,0,0,1-1.69-2.07,1.53,1.53,0,0,1,.08-.28,1.85,1.85,0,0,1,.51-.7c1.67-1.46,3.37-3,5-4.67l5.55-6.47v-5.66h9.4l-.1,5.66.57,3.15A4.71,4.71,0,0,1,160.11,204.72Z"/><path class="cls-30" d="M149.72,201l-16.23,5.78a1.72,1.72,0,0,1-1.69-2.07,1.53,1.53,0,0,1,.08-.28,1.85,1.85,0,0,1,.51-.7c1.67-1.46,3.37-3,5-4.67l5.55-6.47V189.9h9.4l-.1,2.72.57,3.15A4.71,4.71,0,0,1,149.72,201Z"/><path class="cls-18" d="M134,202.5h0a3.23,3.23,0,0,1,2.29,3.09v.29"/><path class="cls-13" d="M197.29,156.92a11.14,11.14,0,0,1-3.71.63H163.31v.13l-1.2,32.84-8.89-.51,2-32.43Z"/><path class="cls-18" d="M147.71,201.75h0a7.7,7.7,0,0,1,4.76-7h.11"/><path class="cls-9" d="M209.22,145.85l-.2,1.41a11.25,11.25,0,0,1-11.14,9.68H167.61l1.23.13-1.18,32.85H157v-35.4a8.6,8.6,0,0,1,7.24-8.5l-.23-.11,7.15-.06Z"/><path id="_Path_94" data-name=" Path 94" class="cls-43" d="M166.28,129c.78,1,.54,1.85-.56,1.85a5,5,0,0,1-3.39-1.85c-.78-1-.54-1.85.56-1.85A5,5,0,0,1,166.28,129Z"/><path class="cls-30" d="M163.85,201l-16.23,5.78a1.72,1.72,0,0,1-1.69-2.07,1.53,1.53,0,0,1,.08-.28,1.85,1.85,0,0,1,.51-.7c1.67-1.46,3.37-3,5-4.67l5.55-6.47V189.9h9.4l-.1,2.72.57,3.15A4.71,4.71,0,0,1,163.85,201Z"/><polyline class="cls-42" points="207.5 108.18 206.54 114.34 198.92 112.99 199.61 107.77"/><path id="_Path_95" data-name=" Path 95" class="cls-37" d="M160.91,142.82H163a1.29,1.29,0,0,1,1.29,1.29h0A1.29,1.29,0,0,1,163,145.4h-3.46"/><path id="_Path_96" data-name=" Path 96" class="cls-37" d="M160.91,140.24H163a1.29,1.29,0,0,1,1.29,1.29h0a1.29,1.29,0,0,1-1.29,1.29H160.8"/><path id="_Path_97" data-name=" Path 97" class="cls-37" d="M158.76,137.66H163a1.29,1.29,0,0,1,1.29,1.29V139h0a1.29,1.29,0,0,1-1.29,1.29H160.5"/><path class="cls-18" d="M148.11,202.5h0a3.23,3.23,0,0,1,2.29,3.09v.29"/><path class="cls-18" d="M161.85,201.75h0a7.7,7.7,0,0,1,4.76-7h.11"/><path class="cls-44" d="M46.24,172.23,14.18,220.45s32.06.92,32.06,0Z"/><path id="_Path_98" data-name=" Path 98" class="cls-45" d="M206.6,77.19a.46.46,0,0,1-.67.49,2.94,2.94,0,0,0-1.37-.35c-1.74,0-2.06.94-2.06.94a1.87,1.87,0,0,1,2-2.46C206,75.82,206.46,76.55,206.6,77.19Z"/><path id="_Path_99" data-name=" Path 99" class="cls-46" d="M206.56,76.32a2.53,2.53,0,0,0-4,.2"/><path id="_Path_100" data-name=" Path 100" class="cls-46" d="M197.51,76.32a2.53,2.53,0,0,0-4,.2"/><path id="_Path_101" data-name=" Path 101" class="cls-45" d="M197.33,77.19a.46.46,0,0,1-.67.49,2.94,2.94,0,0,0-1.37-.35c-1.74,0-2.06.94-2.06.94a1.87,1.87,0,0,1,2-2.46C196.7,75.82,197.19,76.55,197.33,77.19Z"/><circle id="_Path_102" data-name=" Path 102" class="cls-47" cx="204.75" cy="78.69" r="1.43"/><ellipse id="_Path_103" data-name=" Path 103" class="cls-27" cx="204.94" cy="79.14" rx="0.73" ry="0.72"/><circle id="_Path_104" data-name=" Path 104" class="cls-47" cx="195.62" cy="78.69" r="1.43"/><ellipse id="_Path_105" data-name=" Path 105" class="cls-27" cx="195.8" cy="79.14" rx="0.7" ry="0.72"/></svg>