<svg xmlns="http://www.w3.org/2000/svg" viewBox="0 0 489.25 220.49"><defs><style>.cls-1,.cls-7{isolation:isolate;}.cls-11,.cls-15,.cls-2{fill:none;}.cls-11,.cls-12,.cls-13,.cls-15,.cls-18,.cls-2,.cls-20,.cls-22,.cls-23,.cls-3,.cls-4,.cls-5,.cls-6,.cls-9{stroke:#640c19;}.cls-2,.cls-22,.cls-6{stroke-linejoin:round;}.cls-11,.cls-12,.cls-13,.cls-15,.cls-18,.cls-2,.cls-20,.cls-22,.cls-23,.cls-3,.cls-5,.cls-6,.cls-9{stroke-width:1.73px;}.cls-3{fill:#9c5443;}.cls-11,.cls-12,.cls-13,.cls-15,.cls-18,.cls-20,.cls-23,.cls-3,.cls-4,.cls-5,.cls-8,.cls-9{stroke-miterlimit:10;}.cls-4{fill:#cc7f6e;}.cls-4,.cls-8{stroke-width:1.83px;}.cls-5{fill:#c08172;}.cls-6{fill:#eabd5a;}.cls-21,.cls-7{fill:#640c19;}.cls-7{opacity:0.19;}.cls-8{fill:#74382f;stroke:#4f1319;}.cls-9{fill:#e15a59;}.cls-11,.cls-12,.cls-18,.cls-20,.cls-22,.cls-23,.cls-9{stroke-linecap:round;}.cls-10{fill:#cf3f3e;}.cls-12{fill:#f37575;}.cls-13{fill:#f7f0ee;}.cls-14{fill:#ead9d3;}.cls-16,.cls-23{fill:#cee1df;}.cls-17{fill:#a5cdcb;}.cls-18{fill:#f48920;}.cls-19{fill:#df7526;}.cls-20{fill:#f9a355;}.cls-22{fill:#ffd672;}.cls-24,.cls-88{fill:#fff;}.cls-25{fill:#101716;}.cls-26{fill:#0f1716;}.cls-27{fill:#4e5958;}.cls-28,.cls-29{fill:#50736c;}.cls-28{opacity:0.2;}.cls-28,.cls-29,.cls-45,.cls-48,.cls-76,.cls-80,.cls-87,.cls-95{mix-blend-mode:screen;}.cls-100,.cls-102,.cls-29,.cls-45,.cls-46,.cls-48,.cls-63,.cls-64,.cls-65,.cls-74,.cls-76,.cls-83,.cls-85,.cls-87,.cls-95{opacity:0.5;}.cls-30{fill:#7d6b4b;}.cls-31{fill:#0fafa4;}.cls-32{fill:#29211f;}.cls-33,.cls-35,.cls-46{fill:#c6c6c6;}.cls-100,.cls-102,.cls-33,.cls-34,.cls-37,.cls-39,.cls-42,.cls-43,.cls-46,.cls-49,.cls-56,.cls-63,.cls-64,.cls-65,.cls-74,.cls-79,.cls-83,.cls-94{mix-blend-mode:multiply;}.cls-102,.cls-36{fill:#ebcb57;}.cls-37{fill:#c5dbd9;}.cls-38{fill:#463936;}.cls-39{fill:#c5c5c5;}.cls-40{fill:#0ba399;}.cls-41{fill:#889aa2;}.cls-42{fill:#b6ced8;opacity:0.56;}.cls-43{fill:#344b63;}.cls-44{fill:#3fbfb6;}.cls-45{fill:#e1ebef;}.cls-47,.cls-48,.cls-49{fill:#ffb434;}.cls-49,.cls-79{opacity:0.25;}.cls-50{fill:#fec9a9;}.cls-51{fill:#0b2f47;}.cls-52,.cls-56,.cls-64{fill:#ffd2a2;}.cls-53{fill:#eb4966;}.cls-54{fill:#d93250;}.cls-55{fill:#e66c82;}.cls-57,.cls-65{fill:#ffdbb5;}.cls-58{fill:#ff5f7c;}.cls-59{fill:#ed4967;}.cls-60{fill:#ff91a5;}.cls-61{fill:#3e1f19;}.cls-62,.cls-74{fill:#e6552a;}.cls-63,.cls-73{fill:#ffc699;}.cls-66{fill:#5c3128;}.cls-67{fill:#522921;}.cls-68{fill:#dd5357;}.cls-69{fill:#9e774c;}.cls-70{fill:#a9b88a;}.cls-71{fill:#ffe2c4;}.cls-72{fill:#432918;}.cls-75{fill:#e6e4d4;}.cls-76,.cls-80{fill:#a19e8a;}.cls-77{fill:#dedbc6;}.cls-78{fill:#bfbdb1;}.cls-79{fill:#afac9d;}.cls-81{fill:#bdbbb4;}.cls-82,.cls-83{fill:#db3327;}.cls-84,.cls-85{fill:#6e3f34;}.cls-85{mix-blend-mode:color-burn;}.cls-86{fill:#532f27;}.cls-87{fill:#f9be78;}.cls-88{opacity:0.83;}.cls-89{fill:#64502d;}.cls-90{fill:#728735;}.cls-91{fill:#869e3e;}.cls-92{fill:#97ab5b;}.cls-93,.cls-95{fill:#d28f42;}.cls-94{fill:#c8c5b5;}.cls-96{fill:#f2e9c6;}.cls-97{fill:#695d49;}.cls-98{fill:#6a7e7e;}.cls-99{fill:#ed8758;}.cls-100{fill:#ddede2;}.cls-101{fill:#719f9d;}</style></defs><title>cardimg2</title><g class="cls-1"><g id="Layer_1" data-name="Layer 1"><line class="cls-2" x1="412.52" y1="220.1" x2="911.27" y2="220.1"/><path class="cls-3" d="M430.43,166.83h21.18V220.1h-30V175.62a8.78,8.78,0,0,1,8.77-8.79h.05Z"/><rect class="cls-4" x="441.91" y="184.57" width="93.58" height="35.52"/><rect class="cls-4" x="447.12" y="196.05" width="83.16" height="20.19"/><rect class="cls-5" x="447.12" y="172.23" width="83.16" height="12.34"/><path class="cls-5" d="M530.09,166.83H447.36a5.4,5.4,0,0,0-5.4,5.4h93.58a5.4,5.4,0,0,0-5.4-5.4Z"/><rect class="cls-5" x="441.91" y="172.23" width="5.21" height="12.34"/><path class="cls-6" d="M491.13,208.55h-4.87a2.4,2.4,0,0,1-2.4-2.4h0a2.4,2.4,0,0,1,2.4-2.4h4.87a2.4,2.4,0,0,1,2.4,2.4h0A2.4,2.4,0,0,1,491.13,208.55Z"/><path class="cls-7" d="M493.29,207.2a2.41,2.41,0,0,1-2.16,1.36h-4.87a2.39,2.39,0,0,1-2.16-1.36,2.3,2.3,0,0,1,.46-.65,2.39,2.39,0,0,1,1.7-.7h4.87A2.4,2.4,0,0,1,493.29,207.2Z"/><rect class="cls-8" x="447.12" y="172.23" width="83.16" height="12.34"/><g id="_Group_" data-name=" Group "><path id="_Path_" data-name=" Path " class="cls-9" d="M470.55,176.34v2.72h.81v.87h-16.9a2.23,2.23,0,1,1,0-4.46h16.91v.87Z"/><path id="_Path_2" data-name=" Path 2" class="cls-10" d="M462.21,177.7v2.23h-7.75a2.13,2.13,0,0,1-2.23-2,1.64,1.64,0,0,1,0-.23Z"/><path id="_Path_3" data-name=" Path 3" class="cls-11" d="M470.55,176.34v2.72h.81v.87h-16.9a2.23,2.23,0,1,1,0-4.46h16.91v.87Z"/><path id="_Path_4" data-name=" Path 4" class="cls-12" d="M478,176.34v2.72h.38a.44.44,0,0,1,.44.44h0a.44.44,0,0,1-.44.44H461.95a2.27,2.27,0,0,1-2.29-2.2,2.23,2.23,0,0,1,2.2-2.26h16.5a.44.44,0,0,1,.44.44h0a.44.44,0,0,1-.44.44h0Z"/><path id="_Path_5" data-name=" Path 5" class="cls-11" d="M456.84,179.94h-.38a2.23,2.23,0,1,1,0-4.46h.33"/><path id="_Path_6" data-name=" Path 6" class="cls-11" d="M459.45,179.94h-.37a2.23,2.23,0,1,1,0-4.46h.29"/><path id="_Path_7" data-name=" Path 7" class="cls-13" d="M478,179.06H462a1.36,1.36,0,0,1-1.36-1.36h0a1.36,1.36,0,0,1,1.36-1.36H478Z"/><path id="_Path_8" data-name=" Path 8" class="cls-13" d="M459.07,179.94h-2.61a2.23,2.23,0,1,1,0-4.46h2.63a2.23,2.23,0,0,0,0,4.46Z"/><path id="_Path_9" data-name=" Path 9" class="cls-14" d="M459.07,179.94h-2.61a2.23,2.23,0,0,1-2.23-2.23h2.61a2.23,2.23,0,0,0,2.23,2.23Z"/><path id="_Path_10" data-name=" Path 10" class="cls-14" d="M478,176.34v.87H462a1.36,1.36,0,0,0-1.29.92,1.36,1.36,0,0,1,1.29-1.8Z"/><path id="_Path_11" data-name=" Path 11" class="cls-11" d="M459.07,179.94h-2.61a2.23,2.23,0,1,1,0-4.46h2.63a2.23,2.23,0,0,0,0,4.46Z"/><path id="_Path_12" data-name=" Path 12" class="cls-15" d="M478,179.06H462a1.36,1.36,0,0,1-1.36-1.36h0a1.36,1.36,0,0,1,1.36-1.36H478Z"/></g><path id="_Path_13" data-name=" Path 13" class="cls-16" d="M497.2,179.35v3.82h1.16v1.22H483.22a3.14,3.14,0,0,1-.41-6.27h15.55v1.22Z"/><path id="_Path_14" data-name=" Path 14" class="cls-17" d="M496.36,181.26v3.14H483.22a3,3,0,0,1-3.14-2.81,2.3,2.3,0,0,1,0-.33Z"/><path id="_Path_15" data-name=" Path 15" class="cls-11" d="M497.2,179.35v3.82h1.16v1.22H483.22a3.14,3.14,0,0,1-.41-6.27h15.55v1.22Z"/><path id="_Path_17" data-name=" Path 17" class="cls-13" d="M491,184.4H489.7a3.14,3.14,0,0,1-.41-6.27H491a3.14,3.14,0,0,0-.41,6.27H491Z"/><path id="_Path_18" data-name=" Path 18" class="cls-14" d="M491,184.4H489.7a3.14,3.14,0,0,1-3.14-3.14h1.33A3.14,3.14,0,0,0,491,184.4Z"/><path id="_Path_20" data-name=" Path 20" class="cls-11" d="M487.36,178.13H491a3.14,3.14,0,0,0-.41,6.27h-.94"/><path id="_Path_21" data-name=" Path 21" class="cls-11" d="M489.7,184.4a3.14,3.14,0,0,1-.35-6.27h.35"/><g id="_Group_2" data-name=" Group 2"><path id="_Path_22" data-name=" Path 22" class="cls-18" d="M467.23,180.81v2.72h.84v.87H451.15a2.23,2.23,0,0,1,0-4.46h16.94v.87Z"/><path id="_Path_23" data-name=" Path 23" class="cls-19" d="M458.89,182.17v2.23h-7.74a2.13,2.13,0,0,1-2.23-2,1.64,1.64,0,0,1,0-.23Z"/><path id="_Path_24" data-name=" Path 24" class="cls-11" d="M467.23,180.81v2.72h.84v.87H451.15a2.23,2.23,0,0,1,0-4.46h16.94v.87Z"/><path id="_Path_25" data-name=" Path 25" class="cls-20" d="M474.66,180.81v2.72h.41a.44.44,0,0,1,.44.44h0a.44.44,0,0,1-.44.44H458.63a2.27,2.27,0,0,1-2.29-2.2,2.23,2.23,0,0,1,2.2-2.26h16.52a.44.44,0,0,1,.44.44h0a.44.44,0,0,1-.44.44h0Z"/><path id="_Path_26" data-name=" Path 26" class="cls-13" d="M474.66,183.53H458.73a1.36,1.36,0,0,1-1.36-1.36h0a1.36,1.36,0,0,1,1.36-1.36h15.93Z"/><path id="_Path_27" data-name=" Path 27" class="cls-14" d="M474.66,180.81v.87H458.73a1.36,1.36,0,0,0-1.29.92,1.36,1.36,0,0,1,1.29-1.8Z"/><path id="_Path_28" data-name=" Path 28" class="cls-15" d="M474.66,183.53H458.73a1.36,1.36,0,0,1-1.36-1.36h0a1.36,1.36,0,0,1,1.36-1.36h15.93Z"/><path id="_Path_29" data-name=" Path 29" class="cls-11" d="M455.55,184.4h-2.61a2.23,2.23,0,1,1,0-4.46h2.63a2.23,2.23,0,0,0,0,4.46Z"/></g><polygon id="_Path_30" data-name=" Path 30" class="cls-21" points="482.76 166.88 491.94 166.88 491.94 144.87 482.76 166.88 482.76 166.88"/><polygon id="_Path_31" data-name=" Path 31" class="cls-9" points="491.46 167.01 511.28 167.01 507.17 141.4 487.35 141.4 491.46 167.01"/><polygon id="_Path_36" data-name=" Path 36" class="cls-21" points="449.87 166.83 461.93 166.83 461.93 137.92 449.87 166.83 449.87 166.83"/><polygon id="_Path_37" data-name=" Path 37" class="cls-22" points="461.91 167.01 487.34 167.01 481.94 133.36 456.51 133.36 461.91 167.01"/><polygon id="_Path_38" data-name=" Path 38" class="cls-23" points="466.69 160.63 481.94 160.63 478.33 139.75 463.09 139.75 466.69 160.63"/><polygon id="_Path_39" data-name=" Path 39" class="cls-24" points="479.46 160.63 481.94 160.63 480.75 153.74 475.12 139.75 469.8 139.75 479.46 160.63"/><polygon id="_Path_40" data-name=" Path 40" class="cls-24" points="477.09 160.63 478.33 160.63 468.67 139.75 467.43 139.75 477.09 160.63"/><polygon id="_Path_41" data-name=" Path 41" class="cls-11" points="466.69 160.63 481.94 160.63 478.33 139.75 463.09 139.75 466.69 160.63"/><path class="cls-24" d="M428.55,199.16h0a1.69,1.69,0,0,1-1.69-1.69h0v-9.92h3.38v9.92a1.69,1.69,0,0,1-1.69,1.69Z"/><polygon class="cls-25" points="3.65 173.02 -6.95 173.02 -5.94 167.56 2.64 167.56 3.65 173.02"/><rect class="cls-26" x="-49.2" y="111.37" width="95.11" height="57.98" rx="1.33" ry="1.33"/><rect class="cls-27" x="-45.85" y="114.97" width="88.25" height="49.78"/><rect class="cls-25" x="-18.46" y="173.02" width="33.62" height="2.92"/><polygon class="cls-28" points="11.07 114.97 -38.71 164.75 -45.84 164.75 -45.84 117.82 -43 114.97 11.07 114.97"/><polygon class="cls-28" points="42.4 122.31 42.4 164.75 -0.39 164.75 42.4 122.31"/><path class="cls-29" d="M45.79,112.7v.19H-49.32v-.19A1.33,1.33,0,0,1-48,111.37H44.46A1.33,1.33,0,0,1,45.79,112.7Z"/><rect class="cls-30" x="-80.4" y="175.94" width="158.5" height="5.28"/><rect class="cls-31" x="-0.95" y="181.22" width="78.39" height="17.26"/><rect class="cls-32" x="66.05" y="198.48" width="11.38" height="5.03"/><rect class="cls-33" x="-79.34" y="181.22" width="156.78" height="1.1"/><rect class="cls-33" x="66.05" y="198.48" width="11.38" height="2.5"/><rect class="cls-30" x="-79.34" y="196.65" width="156.77" height="1.85"/><g class="cls-34"><circle class="cls-35" cx="18.2" cy="188.26" r="2.13"/><circle class="cls-35" cx="58.29" cy="188.26" r="2.13"/></g><circle class="cls-36" cx="18.2" cy="187.72" r="2.13"/><circle class="cls-36" cx="58.29" cy="187.72" r="2.13"/><path class="cls-37" d="M275.24,203.45c0,2.1-29.54,1.28-66,1.28s-66,.81-66-1.28c0-1.71,29.54-1.28,66-1.28S275.24,201.74,275.24,203.45Z"/><polygon class="cls-38" points="164.54 188.49 162.63 192 156.28 203.76 151.87 203.76 154.73 192 155.62 188.35 155.66 188.35 164.54 188.49"/><path class="cls-38" d="M264.55,203.76h-4.41L253.79,192l-1.9-3.51,8.63-.13h.29l.89,3.65Z"/><path class="cls-39" d="M260.81,188.35l.89,3.65h-7.9l-1.9-3.51H164.54l-1.9,3.51h-7.9l.89-3.65h0a23.31,23.31,0,0,1-9.73-2.78H270.25a23.36,23.36,0,0,1-9.72,2.79Z"/><path class="cls-40" d="M260.89,112.37s0,0,0,.07l-.09,1.83-1,19.49h0l-.31,6.18-.5,10v.23l0,.59,0,.89-.18,3.76,0,.84L257.93,172a5.06,5.06,0,0,1-.91,2.63,5.13,5.13,0,0,1-.43.54l-.06.07a5.16,5.16,0,0,1-3.74,1.65H163.4a5.15,5.15,0,0,1-3.74-1.65l-.07-.07a5.19,5.19,0,0,1-1.34-3.17l-.78-15.75,0-.84-.19-3.76,0-.89,0-.59v-.24l-.8-16.16h0l-1-19.49-.09-1.83s0,0,0-.07a4.72,4.72,0,0,1,.31-1.88,4.59,4.59,0,0,1,2.63-2.63,4.66,4.66,0,0,1,1.71-.32h96.29A4.62,4.62,0,0,1,260.89,112.37Z"/><rect class="cls-41" x="144.89" y="155.4" width="125.84" height="26.09"/><path class="cls-31" d="M281.84,137.59c-.3,5.78-1.1,15.55-1.72,23-.28,3.32-.51,6.17-.64,8-.22,2.94-.82,8-3.94,12.33a16.32,16.32,0,0,1-3.72,3.72,16.5,16.5,0,0,1-1.57,1,23.36,23.36,0,0,1-9.72,2.79h0c-1,.09-2.05.13-3.16.13H158.82q-1.67,0-3.17-.13a23.31,23.31,0,0,1-9.73-2.78c-7.84-4.46-8.92-12.91-9.23-17.05-.43-5.81-1.93-22.56-2.36-30.93s4.29-7.51,8.8-7.3a22.45,22.45,0,0,1,3.66.58,91.67,91.67,0,0,1,10.08,3.1l.87,17.41c-4.39,2.22-7.53,7.29-8.35,8.74h0c-.14.25-.22.39-.22.39,0,12.31,1.51,14.77,9.66,14.74l16.45,0,32.28,0h1l48.73.05c8.15,0,9.66-2.43,9.66-14.74,0,0-.07-.15-.22-.39h0c-.82-1.45-4-6.51-8.35-8.74l.59-11.92.27-5.49a91.72,91.72,0,0,1,10.08-3.1,22.46,22.46,0,0,1,3.66-.58C277.54,130.08,282.27,129.21,281.84,137.59Z"/><path class="cls-42" d="M157.75,151.37c-4.39,2.23-7.53,7.29-8.36,8.74h0l-2.59-29.24A92.77,92.77,0,0,1,156.89,134Z"/><path class="cls-42" d="M258.43,151.37c4.39,2.23,7.53,7.29,8.36,8.74h0l2.59-29.24A92.7,92.7,0,0,0,259.29,134Z"/><path class="cls-43" d="M266.66,156.65c-2.57-5.27-14.15-8.69-19.7-8.69H169.23c-5.55,0-17.13,3.42-19.7,8.69a12,12,0,0,0-.35,3.46v5.69c.94,6.36,1.54,9.86,10.23,9.37h97.37c8.69.49,9.29-3,10.23-9.37v-5.69A11.93,11.93,0,0,0,266.66,156.65Z"/><path class="cls-44" d="M267,158.38v6.17c0,5.48-4.57,10.13-11.21,10.13H160.38c-6.64,0-11.21-4.65-11.21-10.13v-6.17a4.85,4.85,0,0,1,.51-2.11v0c1.15-2.37,4.09-4.48,7.48-6.08l1.1-.5A30.91,30.91,0,0,1,169.23,147H247l.87,0c5.8.37,16.21,4.23,18.65,9.24v0A4.82,4.82,0,0,1,267,158.38Z"/><path class="cls-45" d="M266.5,156.28H149.64c1.16-2.38,4.13-4.5,7.54-6.11l1.1-.5A30.87,30.87,0,0,1,169.16,147h78.67c5.8.37,16.21,4.23,18.65,9.24Z"/><path class="cls-31" d="M260.89,112.37H155.3a4.72,4.72,0,0,1,.31-1.88,4.59,4.59,0,0,1,2.63-2.63,4.66,4.66,0,0,1,1.71-.32h96.29A4.62,4.62,0,0,1,260.89,112.37Z"/><path class="cls-46" d="M238.13,143.75c.49-1.58,1.16-3.62,2.18-7.94.94-3.95,1.28-6.07,1.53-7.65a27.44,27.44,0,0,1,.67-3.27,1,1,0,0,1,1.28-.74s4.36,1.33,11.24,3c6.66,1.57,10.81,2.29,11.32,2.38h.05a1,1,0,0,1,.82,1.23c-.37,2.86-1.45,4.6-2.91,10.75-1.09,4.62-1.73,8.12-2,9.8-.13.73-.19,1.13-.19,1.13a1,1,0,0,1-1.19.74h0l-.08,0s-.61-.2-2-.59c-1.74-.49-4.7-1.27-9.23-2.34-8.17-1.92-11.37-2.4-11.37-2.4a1,1,0,0,1-.82-1.21A24.33,24.33,0,0,1,238.13,143.75Z"/><path class="cls-47" d="M236.55,145a1,1,0,0,0,.82,1.21s3.2.48,11.37,2.4c4.53,1.07,7.49,1.85,9.23,2.34,1.41.39,2,.59,2,.59l.08,0h0a1,1,0,0,0,1.19-.74s.06-.4.19-1.13c.29-1.69.93-5.18,2-9.8,1.45-6.15,2.53-7.89,2.9-10.75a1,1,0,0,0-.82-1.23h-.05c-.51-.09-4.66-.81-11.32-2.38-6.88-1.62-11.24-3-11.24-3a1,1,0,0,0-1.28.74,27.57,27.57,0,0,0-.67,3.27c-.26,1.58-.6,3.7-1.53,7.65-1,4.32-1.7,6.37-2.18,7.94A24.37,24.37,0,0,0,236.55,145Z"/><path class="cls-48" d="M259.64,137.85a17.55,17.55,0,0,1,5.86-9.94h.05a1,1,0,0,1,.82,1.23c-.37,2.86-1.45,4.6-2.9,10.75-1.09,4.62-1.73,8.12-2,9.8-.13.73-.19,1.13-.19,1.13a1,1,0,0,1-1.19.74h0a13.8,13.8,0,0,1-.77-2.79A30.58,30.58,0,0,1,259.64,137.85Z"/><path class="cls-49" d="M236.55,145a1,1,0,0,0,.82,1.21s3.2.48,11.37,2.4c4.53,1.07,7.49,1.85,9.23,2.34,1.41.39,2,.59,2,.59l.08,0a13.8,13.8,0,0,1-.77-2.79c-4.93-2.07-15-6-22-6.6A24.37,24.37,0,0,0,236.55,145Z"/><polygon class="cls-50" points="188.31 118 189.26 128.59 195.09 128.43 194.63 118.94 188.31 118"/><path class="cls-51" d="M191.88,155.53a15.4,15.4,0,0,1-.9-8.75,19.08,19.08,0,0,1,7.36-11.23c5.41.14,6.47,3.59,11.17,3.13s7.71-1,8.74-.47c2.34,1.2,4.33,4.39,5.12,6.28a7.43,7.43,0,0,1-.11,4.95,8.08,8.08,0,0,1-3.22,4.1Z"/><path class="cls-52" d="M205.52,201.5c-2.43,3.06-4.23,2.85-6.71,2.76-1.08,0-4.82-17.93-6-28.55-1.37-12.6-2.41-22.35-2.41-22.47.06-3.44,2.07-6.2,5.55-6.12a5.68,5.68,0,0,1,5.75,6,214.81,214.81,0,0,0-.32,23.21c.24,6.13.67,12.16,1,15.17l.36,1.09c.87,2.61,1.77,5.45,2.16,6.61A13.42,13.42,0,0,1,205.52,201.5Z"/><path class="cls-24" d="M206.74,203.16c-.21.75-.61,3.23-.8,4.12s.89,1.75-.77,4.26-6.39,3.8-8.27,3.23a2.32,2.32,0,0,1-1.61-2.55c.64,1.59,1.49,1.51,1.49,1.51s.11-.94.86-1.08,1.4.66,1.4.66a15.08,15.08,0,0,0,2.84-1c1.95-.86,3.14-3.42,3.41-4.67a17.6,17.6,0,0,0-.12-4.45,6.63,6.63,0,0,1,.69-2.67l.06.19C206.41,202.15,207,202.41,206.74,203.16Z"/><path class="cls-53" d="M205.87,200.49a6.63,6.63,0,0,0-.69,2.67,17.6,17.6,0,0,1,.12,4.45c-.27,1.26-1.46,3.82-3.41,4.67a15.08,15.08,0,0,1-2.84,1s-.64-.8-1.4-.66-.86,1.08-.86,1.08-.85.09-1.49-1.51a11.2,11.2,0,0,1,.08-1.14c.13-1.23.72-7.82.77-9.64a25.62,25.62,0,0,0-.22-3.48l.72-.3s.64,2.56.95,3.83a20.31,20.31,0,0,1,.11,4.54l3.27-.38a41.92,41.92,0,0,0,.63-4.36c.12-1.28.23-3,.33-4.81,0,.11.06.21.08.33.15.82,1.35.81,1.45.16a20.46,20.46,0,0,0,0-2.54C204.7,195.46,205.38,198.91,205.87,200.49Z"/><path class="cls-54" d="M201.94,196.47c-.1,1.79-.21,3.54-.33,4.81a41.92,41.92,0,0,1-.63,4.36l-3.27.38a20.31,20.31,0,0,0-.11-4.54c-.31-1.27-.87-3.2-1.28-5a2.31,2.31,0,0,1,0-.94c.26-.88,1.47-1.06,2.59-1C200.64,194.74,201.61,195.38,201.94,196.47Z"/><rect class="cls-55" x="197.12" y="204.39" width="4.84" height="0.65" transform="matrix(1, -0.08, 0.08, 1, -15.01, 15.79)"/><rect class="cls-55" x="197.05" y="202.65" width="5.04" height="0.65" transform="translate(-14.88 15.79) rotate(-4.37)"/><rect class="cls-55" x="196.98" y="200.89" width="5.29" height="0.66" transform="translate(-14.75 15.79) rotate(-4.37)"/><polygon class="cls-55" points="202.45 199.75 196.69 200.19 196.64 199.54 202.4 199.1 202.45 199.75"/><rect class="cls-55" x="196.38" y="197.78" width="5.86" height="0.65" transform="translate(-14.55 15.8) rotate(-4.38)"/><path class="cls-56" d="M201.72,157.28s-4.83,31.26-6.43,34.57,9.22-13.92,9.22-13.92S202.28,161.33,201.72,157.28Z"/><path class="cls-57" d="M220,153.54a12.64,12.64,0,0,1-1.45.93c-1.13.63-2.39,1.23-3.38,1.68l-2.47,1.13a97.18,97.18,0,0,1-3.87,21.31c-2.31,7.21-8,17.61-8.75,19a46.38,46.38,0,0,1-2.37,8.08c-.08.16-.17.35-.26.54h0L197,206l-.1.1a2.8,2.8,0,0,1-2.11.86c-.84,0-.9-.17-1.72-.54-1.24-.55-2.37-2.3-3.19-4s-.67-1.22-.67-1.78c1.47-1.39,1.79-2.27,3-4.34,1.06-1.76,2.65-3.21,4-6.38a76,76,0,0,0,3.51-13.78,182.64,182.64,0,0,0,1.76-19.3c.09-1.64.09-2.79.22-3.7.48-3.41,4.31-5.74,7.64-5.67A14.21,14.21,0,0,1,220,153.54Z"/><path class="cls-24" d="M197.85,206.71c-.6.49-2.35,2.3-3,2.92s-.27,1.94-3.07,3.05-7.42-.53-8.63-2.08a2.32,2.32,0,0,1,.13-3c-.39,1.67.36,2.09.36,2.09s.63-.71,1.33-.39.77,1.34.77,1.34a15.11,15.11,0,0,0,2.92.79c2.09.41,4.53-1,5.47-1.88a17.62,17.62,0,0,0,2.45-3.71,6.62,6.62,0,0,1,2.09-1.79l-.06.19C198.16,205.7,198.46,206.22,197.85,206.71Z"/><path class="cls-58" d="M198.66,204a6.62,6.62,0,0,0-2.09,1.79,17.62,17.62,0,0,1-2.45,3.71c-.94.88-3.38,2.3-5.47,1.88a15.11,15.11,0,0,1-2.92-.79s-.07-1-.77-1.34-1.33.39-1.33.39-.75-.42-.36-2.09a11.14,11.14,0,0,1,.72-.89c.81-.94,5.07-6,6.15-7.47a25.59,25.59,0,0,0,1.81-3l.76.17s-.94,2.47-1.41,3.68a20.27,20.27,0,0,1-2.51,3.79l2.9,1.56a42,42,0,0,0,3-3.21c.83-1,1.92-2.34,3-3.76,0,.1-.08.21-.12.31-.35.76.65,1.44,1.1,1a20.5,20.5,0,0,0,1.42-2.11C200.58,199.24,199.16,202.46,198.66,204Z"/><path class="cls-59" d="M197.74,198.48c-1.1,1.42-2.19,2.78-3,3.76a42,42,0,0,1-3,3.21l-2.9-1.56a20.27,20.27,0,0,0,2.51-3.79c.47-1.22,1.12-3.12,1.79-4.8a2.31,2.31,0,0,1,.55-.76c.72-.57,1.81,0,2.68.68C197.66,196.32,198.09,197.4,197.74,198.48Z"/><rect class="cls-60" x="190.72" y="201.46" width="0.65" height="4.84" transform="translate(-81.6 264.92) rotate(-59.48)"/><rect class="cls-60" x="191.75" y="199.96" width="0.65" height="5.04" transform="translate(-79.9 265.09) rotate(-59.48)"/><rect class="cls-60" x="192.8" y="198.41" width="0.65" height="5.29" transform="translate(-78.14 265.37) rotate(-59.49)"/><rect class="cls-60" x="193.63" y="196.83" width="0.65" height="5.78" transform="translate(-76.58 265.43) rotate(-59.49)"/><rect class="cls-60" x="194.32" y="195.39" width="0.65" height="5.86" transform="translate(-75.04 265.33) rotate(-59.49)"/><path class="cls-61" d="M219.22,94.07l-.07.22a10.26,10.26,0,0,1-.5,1.22,4.74,4.74,0,0,1-1.85,2.12,4.5,4.5,0,0,1-1.52.52l-.41.06c-.61.07-1.45.11-2.34.13l-1.85,0h-.58l-2.38,0-1.2,0-1.44.23-1,.15-.3,0-.82.11-.28,0h0l-.14,0h0c-1.19.16-2.45.3-3.44.37-.48,0-.91,0-1.24,0-1.37-.06-2.77-.52-4.1-2.67h0c-.16-.26-.33-.55-.49-.86a22.69,22.69,0,0,1-2.38-9.56,18.49,18.49,0,0,1,.7-5.45l0-.12a0,0,0,0,1,0,0,17.48,17.48,0,0,1,4-6.88,11.33,11.33,0,0,1,6.27-3.45l.38-.07.63-.08a12.93,12.93,0,0,1,1.43-.07l.48-.06a11.55,11.55,0,0,1,4.52.46l.73.25h0l.1,0,.25.1a11.46,11.46,0,0,1,1.4.71,11.87,11.87,0,0,1,1.48,1,18.61,18.61,0,0,1,4.41,5.08h0C221.06,83.45,220.5,90,219.22,94.07Z"/><path class="cls-62" d="M222,102.67v0l-.1.74c-.06.45-.13,1.07-.22,1.83-.24,2-.57,4.87-.8,7.81,0,0,0,.06,0,.08a12.49,12.49,0,0,0,.09,2.48.26.26,0,0,0,0,.07c0,.15,0,.3.05.44s0,.14,0,.21a10.7,10.7,0,0,1,.07,1.39,9.65,9.65,0,0,1-.09,1.05,7.6,7.6,0,0,1-2,4.32c-.3,2.1-.53,4-.71,5.59-.12,1.06-.21,2-.27,2.62s-.07,1-.07,1.2,0,.23,0,.39.69,5.55.69,5.55S209.87,142,207.51,142c-.47,0-12.5-2.48-12.53-2.49l-.15,0c1.17-1.33,2.23-8.28,2.48-11.72h0a11,11,0,0,0,0-1.71c-.11-.93-.25-1.93-.39-3a7.86,7.86,0,0,1-2.07-5.37,10.71,10.71,0,0,1,.07-1.4c0-.25.05-.52.09-.78a12.46,12.46,0,0,0,.12-2.44V113c-.23-2.94-.58-5.81-.82-7.78-.19-1.46-.33-2.43-.36-2.59h0v0l4.3-1.73,2.94-1.19h0l2.54-1,.15-.06.14-.06h0v4.64h3.85v0h4V98.68l4.1,1.58,1.13.46.32.13h0l.21.08,1.18.48Z"/><path class="cls-52" d="M217.54,101.09c0,1.82-2.3,12.56-9.64,12.61s-9.64-10.78-9.64-12.61a1,1,0,0,1,0-.17l3.7-1.5,1.93-.78h0l.14-.06h0l.29,0,3.56.29,1.93-.16,1.68-.14.24,0,4.4,1.7h0l.71.29.63.26a.25.25,0,0,1,0,0,.11.11,0,0,1,0,0S217.54,101,217.54,101.09Z"/><ellipse class="cls-63" cx="208.37" cy="137.69" rx="0.6" ry="0.49"/><rect class="cls-52" x="202.57" y="96.79" width="9.25" height="4.62"/><path class="cls-52" d="M197.56,92.11a1.21,1.21,0,0,1-.12.21,1.13,1.13,0,0,1-.5.39l-.18.05a1,1,0,0,1-.36,0h0l-.24,0A2,2,0,0,1,195,91.55a1.68,1.68,0,0,1,.52-2.14l.1,0a1.64,1.64,0,0,1,2,1.15A2,2,0,0,1,197.56,92.11Z"/><ellipse class="cls-52" cx="215.79" cy="89.6" rx="1.8" ry="1.39" transform="translate(78.58 278.72) rotate(-76.59)"/><path class="cls-64" d="M216.88,100.58c-1.73,3-5.15,6.36-8.69,4.72-2.82-1.3-5.09-4.22-6.21-5.88l1.93-.78h0l.14-.06h0l.29,0,3.56.29,1.93-.16.8-1.19,1.18-.27V98.6l4.34,1.69h0Z"/><path class="cls-57" d="M204.71,74.59c-5.82.43-9.22,4-9.54,9.77h0c0,.48,0,1,0,1.49h0c0,.25,0,.51,0,.77s0,.46.07.69,0,.36.08.54h0l.06.37c.07.39.16.79.26,1.18a17.6,17.6,0,0,0,1.24,3.35h0l.07.14h0c.14.28.29.55.44.82h0l.14.25h0a17,17,0,0,0,2.49,3.3,10.15,10.15,0,0,0,3,1.94l0,0,.87.43.37.17.07,0a6.17,6.17,0,0,0,1.3.43h0a2.81,2.81,0,0,0,.4.05,3,3,0,0,0,.48,0,6.83,6.83,0,0,0,3.57-1.78l.17-.13h0a11.14,11.14,0,0,0,2.44-2.22,17.07,17.07,0,0,0,2-3.64h0l.09-.23h0c.1-.24.19-.49.27-.73h0l.06-.2h0a17.39,17.39,0,0,0,.76-3.5h0c0-.37.07-.74.09-1.11h0s0,0,0-.06h0c0-.35,0-.69,0-1,0-.18,0-.37,0-.55C215.53,78,211.27,74.11,204.71,74.59Z"/><path class="cls-65" d="M204.58,92.2a1.27,1.27,0,0,0,.54.56,4.08,4.08,0,0,0,1.7,0,1.87,1.87,0,0,0,.62-.56.91.91,0,0,1-.36.79,1.34,1.34,0,0,1-.5.26,4.92,4.92,0,0,1-1.27,0,1.25,1.25,0,0,1-.48-.25A.74.74,0,0,1,204.58,92.2Z"/><path class="cls-66" d="M210.73,78.13a5.21,5.21,0,0,0,1.6,4.71A16.48,16.48,0,0,1,216,87.9a14.22,14.22,0,0,0,1.94-8.42c-.61-5.72-5.16-8.59-7-8.8S210.73,78.13,210.73,78.13Z"/><path class="cls-67" d="M212.14,76.57a6.6,6.6,0,0,1-.21.78,9.47,9.47,0,0,1-6.31,6.77c-2.9,1.12-5-.29-7.36.61-1.62.62-2.65,2.34-1.69,5.52a11.58,11.58,0,0,0,3.08,4.86,9.62,9.62,0,0,1-2-1c-2.46-1.5-6.27-5.05-5.82-12.45a0,0,0,0,1,0,0,13.71,13.71,0,0,1,1.33-5.27A11.46,11.46,0,0,1,197,72a13.56,13.56,0,0,1,5.06-2.11l.39-.08.63-.1a14.91,14.91,0,0,1,1.91-.14,15.64,15.64,0,0,1,5.25.82h0a1.91,1.91,0,0,1,.35.16C212.35,71.48,212.57,74.51,212.14,76.57Z"/><rect class="cls-62" x="195.9" y="81.39" width="1.48" height="4.22" transform="translate(-10.96 133.93) rotate(-36.66)"/><path class="cls-68" d="M203.83,95.46l.08.05a6.87,6.87,0,0,1-.64-.43Z"/><path class="cls-68" d="M209.09,94.92a6.75,6.75,0,0,1-.91.66l.12-.08C208.64,95.28,208.92,95.06,209.09,94.92Z"/><path class="cls-68" d="M209.31,94.73l-.17.15Z"/><path class="cls-24" d="M209.14,94.76a3.68,3.68,0,0,1-.83.75l-.12.08,0,0a3.86,3.86,0,0,1-1.61.61h-.25a4.14,4.14,0,0,1-2.38-.7h0l-.08-.05a3.13,3.13,0,0,1-.58-.47c.07,0,.49,0,1.14.07h.3c.47,0,1,0,1.54,0s1.12-.08,1.58-.15h0l.52-.07h.08C208.84,94.79,209.09,94.77,209.14,94.76Z"/><path class="cls-68" d="M209.79,94.21l-.19.24-.3.28-.17,0c-.15,0-2,.38-2.89.42s-2.79-.17-3-.18l-.13,0,.09.07-.09-.07-.47-.37.25.07c.36.08,1.8-.29,3.31-.36S209.49,94.45,209.79,94.21Z"/><path class="cls-68" d="M209.79,94.21a3.69,3.69,0,0,1-3.45,2.87,3.4,3.4,0,0,1-3.28-1.8c-.13-.18-.42-.68-.42-.68l.25.19.22.19h0l.09.07,0,0,0,0a6.87,6.87,0,0,0,.64.43h0a4.38,4.38,0,0,0,2.37.58,3.48,3.48,0,0,0,1.87-.5l0,0a6.75,6.75,0,0,0,.91-.66l0,0,.17-.15h0a3,3,0,0,0,.3-.3h0Z"/><path class="cls-68" d="M209.31,94.73h0l-.17.15,0,0c-.18.15-.45.36-.79.59a3.68,3.68,0,0,0,.83-.75Z"/><path class="cls-68" d="M203.83,95.46l-.56-.38,0,0-.11-.09.13,0A3.13,3.13,0,0,0,203.83,95.46Z"/><path class="cls-69" d="M203.1,87.53a.18.18,0,0,1-.26.07,7.44,7.44,0,0,0-2.46-1.13,5.38,5.38,0,0,0-2.78.18.26.26,0,0,1-.29-.09.22.22,0,0,1,.13-.27,6.62,6.62,0,0,1,1.47-.45,5.3,5.3,0,0,1,1.55-.06,8.27,8.27,0,0,1,2.85.95.22.22,0,0,1,.1.3Z"/><path class="cls-69" d="M207.79,86.9A.18.18,0,0,0,208,87a7.45,7.45,0,0,1,2.47-1.13,5.38,5.38,0,0,1,2.78.19.26.26,0,0,0,.29-.09.22.22,0,0,0-.13-.27,6.62,6.62,0,0,0-1.47-.45,5.32,5.32,0,0,0-1.55-.06,8.23,8.23,0,0,0-2.85,1,.22.22,0,0,0-.1.3Z"/><ellipse class="cls-70" cx="200.15" cy="89.09" rx="1.14" ry="1" transform="translate(-2.17 5.05) rotate(-1.44)"/><circle cx="200.11" cy="89.32" r="0.75" transform="translate(-2.15 4.99) rotate(-1.42)"/><ellipse class="cls-24" cx="199.66" cy="89.11" rx="0.45" ry="0.46" transform="translate(-2.27 5.28) rotate(-1.51)"/><path class="cls-71" d="M202.57,88.26s-1.44-2.34-3.65-1.3a1.74,1.74,0,0,0-.78,1.18A18.56,18.56,0,0,0,202.57,88.26Z"/><path class="cls-72" d="M197.87,89.13a6.33,6.33,0,0,0,.33-.84c0,.08-.16.72-.24.87a5.38,5.38,0,0,0,.71.17l.11-1-.05,1c.31.05.65.09,1,.12l.08-1.08v1.08a11.89,11.89,0,0,0,1.41,0l0-.93a7.15,7.15,0,0,0,0,.92l.47,0c0-.18,0-.78,0-1a6.52,6.52,0,0,0,0,1h.4c0-.2,0-.83,0-.95a6,6,0,0,0,.09.95h.26l-.06-.84a4.58,4.58,0,0,0,.13.84h.35c-.29-.2-.37-1.17-.37-1.17a12.73,12.73,0,0,1-4.41-.27l-.57,1Z"/><ellipse class="cls-70" cx="210.97" cy="88.23" rx="1.14" ry="1" transform="translate(-2.86 7.18) rotate(-1.94)"/><circle cx="211.03" cy="88.45" r="0.75" transform="translate(-2.89 7.25) rotate(-1.95)"/><ellipse class="cls-24" cx="210.53" cy="88.4" rx="0.45" ry="0.46" transform="translate(-2.82 7.04) rotate(-1.9)"/><path class="cls-71" d="M208.53,87.54s1.3-2.42,3.57-1.51a1.74,1.74,0,0,1,.85,1.14A18.58,18.58,0,0,1,208.53,87.54Z"/><path class="cls-72" d="M213.27,88.13a6.25,6.25,0,0,1-.38-.82c0,.07.21.71.29.85a5.51,5.51,0,0,1-.7.21l-.17-1,.11,1c-.31.07-.65.13-1,.18l-.14-1.07.07,1.08a11.82,11.82,0,0,1-1.41.09l-.09-.92a7.13,7.13,0,0,1,0,.92h-.47c0-.19-.09-.78-.08-.95a6.6,6.6,0,0,1,0,1l-.4,0c0-.2-.06-.82-.05-.95a6.11,6.11,0,0,1,0,1h-.26v-.84a4.7,4.7,0,0,1-.08.85h-.35c.28-.22.3-1.19.3-1.19a12.72,12.72,0,0,0,4.39-.53l.63,1Z"/><path class="cls-73" d="M227.49,114.94c-.52-2.85-1.48-10.35-5.47-12.26,0,0-.71,5.13-.9,7.37s-.29,4-.29,4c1.13,5.51,2.85,14.21,1.51,19.77-1.27,5.27-17.39,7.66-17.53,7.84l4.26,3.26c.61-.79,17.25-1.63,19.33-11.37C229.89,126.47,228.19,118.8,227.49,114.94Z"/><path class="cls-74" d="M219,123.12l-.71,5.59s-7.56-5.39-10.33-5.53-10.44,4.46-10.68,4.6a11,11,0,0,0,0-1.71c-.11-.93-.25-1.93-.39-3,.86.93,2.95,2.83,10.07,0C210.07,121.88,212.94,127,219,123.12Z"/><path class="cls-75" d="M215.43,144.54h0a1.27,1.27,0,0,1-1.21.72h-29.6a2.12,2.12,0,0,1-1.53-.72h0a2,2,0,0,1-.47-.88l-.86-3.85-.31-1.37-.48-2.14,0-.19L179.59,130a1.48,1.48,0,0,1,0-.31,1.27,1.27,0,0,1,.18-.7,1.29,1.29,0,0,1,1.14-.59h29.88l.13,0h.06l.08,0,.19.07.12.06.13.07.12.08h0l.12.09.12.1.09.08.12.14.08.11,0,0a2,2,0,0,1,.21.37h0l0,.07,0,0v0a1.37,1.37,0,0,1,0,.16l.19.85.17.78.19.85,1.5,6.75,1,4.4A1.37,1.37,0,0,1,215.43,144.54Z"/><path class="cls-76" d="M215.41,144.54h0a1.27,1.27,0,0,1-1.2.72H201l-.72-.72h0l-2.75-2.75-3.08-3.08-2.51-2.51-5-5-.69-.69-.76-.76.19-1.29h25.11l.13,0h.06l.08,0,.18.07.12.06.13.07.13.08h0l.12.09.12.1.09.08.12.14.08.1,0,0a2.12,2.12,0,0,1,.21.37h0l0,.07v0l0,0a1.31,1.31,0,0,1,0,.16l.19.85.17.78.19.85,1.5,6.75,1,4.4A1.38,1.38,0,0,1,215.41,144.54Z"/><rect class="cls-77" x="182.98" y="144.54" width="32.9" height="2.06"/><ellipse class="cls-78" cx="197.56" cy="136.82" rx="1.88" ry="1.1"/><rect class="cls-79" x="182.98" y="144.54" width="32.88" height="1.03"/><path class="cls-80" d="M212.37,129.73H179.55a1.27,1.27,0,0,1,.18-.7,1.29,1.29,0,0,1,1.14-.59h29.88l.13,0h.06l.08,0,.19.07.12.06.13.07.12.08h0l.12.09.12.1.09.08.12.14.08.11,0,0a2,2,0,0,1,.21.37Z"/><rect class="cls-81" x="215.87" y="144.54" width="6.82" height="2.05"/><path class="cls-82" d="M194,102.65l-.48.17c-1.65.6-3.78,1.89-4.73,5.9A30.71,30.71,0,0,0,188,118l6.78,1,.6-5.5A32.67,32.67,0,0,0,194,102.65Z"/><path class="cls-82" d="M222,102.68s2.49.73,4,5.66,2.41,9.1,2.41,9.1L221.51,119l-.79-4.71A34.49,34.49,0,0,1,222,102.68Z"/><polygon class="cls-83" points="188 117.97 194.78 118.98 194.88 117.25 187.92 116.08 188 117.97"/><polygon class="cls-83" points="221.51 118.98 221.18 116.98 227.97 115.52 228.42 117.44 221.51 118.98"/><polygon class="cls-84" points="193.6 149.9 192.85 151.28 191.82 153.2 190.56 155.53 157.91 215.86 153.43 215.86 185.95 155.53 188.25 151.28 190.04 147.97 191.82 148.94 193.6 149.9"/><polygon class="cls-84" points="230.33 215.86 225.73 215.86 193.08 155.53 191.82 153.2 190.79 151.28 190.04 149.9 191.82 148.94 193.6 147.97 195.39 151.28 197.69 155.53 230.33 215.86"/><polygon class="cls-85" points="197.69 155.53 193.08 155.53 191.82 153.2 190.56 155.53 185.95 155.53 188.25 151.28 195.39 151.28 197.69 155.53"/><rect class="cls-86" x="151.01" y="146.59" width="81.62" height="4.69"/><path class="cls-47" d="M169.73,134.37v9.78a2.45,2.45,0,0,1-2.44,2.44h-5.52a2.44,2.44,0,0,1-2.44-2.44v-9.78Z"/><path class="cls-47" d="M170.63,144.75h-2a4,4,0,0,1-4-4v-.31a4,4,0,0,1,4-4h2a4,4,0,0,1,4,4v.31A4,4,0,0,1,170.63,144.75Zm-2-6.41a2.14,2.14,0,0,0-2.13,2.13v.31a2.14,2.14,0,0,0,2.13,2.13h2a2.14,2.14,0,0,0,2.13-2.13v-.31a2.14,2.14,0,0,0-2.13-2.13Z"/><path class="cls-87" d="M162.67,134.37v12.22h-.9a2.44,2.44,0,0,1-1-.21v-12Z"/><path class="cls-88" d="M163.65,132.66c-.81-2.8.25-3.59,3.35-5.11,2.85-1.39,3.88-5,4-7.26,0,0,3.11,3,1.81,6-1.38,3.16-4.68,2.54-6.92,3.93a3.64,3.64,0,0,0-1.55,3.77A4.23,4.23,0,0,1,163.65,132.66Z"/><path class="cls-30" d="M325.39,101.94h25.69v91.17H325.39ZM349,104H327.43v87.11H349Z"/><rect class="cls-89" x="326.4" y="193.11" width="23.62" height="3.81"/><rect class="cls-30" x="326.28" y="134.65" width="23.91" height="1.9"/><rect class="cls-30" x="326.63" y="162.37" width="23.91" height="1.9"/><path class="cls-90" d="M337.23,90.33V90c0-.1,0-.21,0-.31s0-.41.06-.61c0-.4.1-.81.17-1.21a21.56,21.56,0,0,1,.57-2.44,19.4,19.4,0,0,1,1.66-4,17.49,17.49,0,0,1,2.34-3.25,16.61,16.61,0,0,1,2.7-2.39,17,17,0,0,1,2.7-1.55,18.09,18.09,0,0,1,2.38-.89A18.73,18.73,0,0,1,351.7,73c.51-.1.91-.15,1.18-.19l.41,0-.39.14c-.26.09-.64.22-1.11.41s-1.05.43-1.7.75A20.78,20.78,0,0,0,348,75.22,18.56,18.56,0,0,0,345.66,77a17.76,17.76,0,0,0-2.24,2.4,19,19,0,0,0-1.92,3.06,22.17,22.17,0,0,0-2,5.81c-.07.36-.13.73-.17,1.09q0,.27-.06.54c0,.09,0,.18,0,.26v.24Z"/><path class="cls-90" d="M338.17,90.18l-.53.16h0l-.3.09h0l-.14,0-1,.29-.08-.24-.08-.25-.14-.41,0-.1-.36-1-.12-.35c-.21-.57-.43-1.16-.66-1.74l0,0c-.41-1-.82-2.06-1.23-3-.55-1.29-1.09-2.52-1.65-3.66l-.15-.31-.4-.8a40,40,0,0,0-2.38-4.13c-.48-.71-.94-1.33-1.37-1.86a16.51,16.51,0,0,0-1.17-1.3c-.35-.34-.63-.59-.83-.75l-.31-.25.35.17a10.89,10.89,0,0,1,1,.57A13.72,13.72,0,0,1,328,72.36,18.92,18.92,0,0,1,329.74,74a29.93,29.93,0,0,1,3.42,4.65l.24.39q.29.49.58,1c.24.44.48.89.72,1.35.62,1.22,1.22,2.52,1.77,3.88l0,.11.06.15.13.34.4,1v0c.12.35.25.69.37,1l0,.05.12.35.24.71.08.26.09.27.07.22v0h0l.06.19Z"/><path class="cls-91" d="M338.62,90.29h-.15l-.28,0-.28,0-.33,0-.15,0h0l-.27,0-.59.08,0-.15,0-.1,0-.19,0-.19v-.05l0-.22v0q-.08-.45-.16-.92l-.06-.31c-.1-.52-.2-1.06-.31-1.6-.16-.76-.31-1.51-.47-2.24-.24-1.09-.49-2.14-.74-3.15-.08-.3-.15-.6-.23-.89l-.08-.3c-.14-.51-.28-1-.42-1.49-.35-1.2-.7-2.28-1.06-3.23a25.45,25.45,0,0,0-1.45-3.25c-.2-.37-.37-.66-.49-.85l-.18-.29.25.23c.16.16.4.39.69.72a18.6,18.6,0,0,1,2.14,3,30.54,30.54,0,0,1,2,4.24l.26.69c.13.34.25.68.37,1s.19.57.28.86c.31,1,.59,2,.84,3.05.09.36.17.73.25,1.1,0,.11,0,.22.07.34.14.67.26,1.32.37,2v0s0,0,0,.07c0,.29.09.57.13.86v.15l0,.33v.05h0V90Z"/><path class="cls-92" d="M344.86,66l-.25.33c-.17.23-.41.56-.7,1a26.61,26.61,0,0,0-2.15,3.87,33.2,33.2,0,0,0-2.07,6.15c-.27,1.14-.5,2.36-.68,3.63q-.16,1.09-.27,2.23c0,.15,0,.3,0,.46,0,.31-.05.63-.08.95s0,.39,0,.59c0,.81-.07,1.61-.08,2.4,0,.2,0,.4,0,.59s0,.15,0,.23,0,.23,0,.34,0,.22,0,.33,0,.16,0,.24l0,.28v.14h0v.12h-.09l-.38,0-.35,0-.5.05-.3,0-.41,0,0-.16v-.16l0-.31c0-.15,0-.3,0-.45s0-.11,0-.16,0-.28,0-.42,0-.54,0-.82q0-1.06,0-2.14a1.39,1.39,0,0,1,0-.14c0-.08,0-.16,0-.24s0-.38,0-.57q.05-.74.14-1.45c0-.39.1-.77.16-1.15.09-.59.19-1.17.31-1.73a31.25,31.25,0,0,1,.86-3.29l.18-.56a28.06,28.06,0,0,1,1.14-2.84,25,25,0,0,1,1.52-2.78,21.5,21.5,0,0,1,2.83-3.57c.38-.38.68-.66.89-.85Z"/><path class="cls-91" d="M350.54,67l-.37.27-.08.06c-.23.18-.56.43-.94.76a19.34,19.34,0,0,0-1.47,1.42A22.21,22.21,0,0,0,346,71.57a28.2,28.2,0,0,0-1.77,2.73c-.58,1-1.15,2.13-1.68,3.32l-.1.23a59.88,59.88,0,0,0-2.79,7.82q-.15.52-.29,1l-.14.54q-.12.47-.23.93l-.05.22c-.08.34-.16.67-.23,1l-.09.46v0a.23.23,0,0,0,0,0V90l0,.23v.06h0v.07l0,.08,0,.13-1-.16h-.11l-.78-.12h0l-.12,0,0-.17,0-.16v0h0v-.11l0-.17.12-.64.12-.59c0-.23.1-.47.15-.7s.11-.46.16-.69v0l.14-.56c.11-.44.23-.88.36-1.32l0-.15q.38-1.31.83-2.56c0-.1.07-.2.11-.29.14-.38.28-.75.42-1.12a38.65,38.65,0,0,1,1.93-4.14A30.49,30.49,0,0,1,343,73.52a24.39,24.39,0,0,1,2.17-2.63A19.61,19.61,0,0,1,347.23,69a16.53,16.53,0,0,1,1.73-1.2c.43-.26.79-.44,1-.57l.11-.05Z"/><path class="cls-90" d="M338.62,84.6c0,.27,0,.55,0,.82,0,.87,0,1.73,0,2.58,0,0,0,0,0,.07s0,.23,0,.34,0,.45,0,.67,0,.25,0,.38v0c0,.13,0,.26,0,.39h0c0,.12,0,.24,0,.36s0,.05,0,.08,0,0,0,0,0,0,0,0,0,.05,0,.08v0l-1,0h-.16l-.72,0h-.16c0-.18,0-.35,0-.53s0-.12,0-.18,0,0,0-.06c0-.21,0-.43,0-.65s0-.39,0-.58,0-.31,0-.46c0-.8,0-1.62,0-2.45v-.1c0-.31,0-.61,0-.91,0-.63,0-1.26,0-1.87s0-1.05,0-1.57h0c0-.46,0-.92,0-1.37,0-.91,0-1.8-.06-2.66,0-.64-.06-1.26-.11-1.86s-.11-1.17-.2-1.71c0-.27-.1-.53-.16-.77s-.07-.23-.11-.35-.08-.23-.13-.35a7.07,7.07,0,0,0-.67-1.26,9.39,9.39,0,0,0-1.71-1.88,13,13,0,0,0-1.59-1.16c-.46-.29-.84-.49-1.1-.62l-.39-.19.43.1a12,12,0,0,1,1.22.41,12.36,12.36,0,0,1,1.84.92,9.46,9.46,0,0,1,2.14,1.77,7.56,7.56,0,0,1,1,1.36l.2.39c.06.13.13.28.19.42a9.17,9.17,0,0,1,.29.88c.16.59.29,1.2.4,1.82.08.45.14.9.2,1.36,0,.19,0,.38.07.56.15,1.32.25,2.7.31,4.13q0,.54,0,1.1c0,.22,0,.43,0,.65s0,.73,0,1.11S338.62,84.35,338.62,84.6Z"/><path class="cls-90" d="M339.61,90.68l.05-.12.06-.13.13-.28.28-.56q.29-.56.61-1.13a35.19,35.19,0,0,1,2.31-3.56,21.21,21.21,0,0,1,2.29-2.63,15.81,15.81,0,0,1,1.85-1.54c.47-.33.76-.5.75-.5a8.17,8.17,0,0,0-.89.2,10.71,10.71,0,0,0-2.33,1,14,14,0,0,0-3,2.31,17.45,17.45,0,0,0-2.8,3.69q-.35.62-.66,1.24l-.29.62-.13.32-.07.16-.07.17Z"/><path class="cls-90" d="M338.63,90.38h-.16l-.4,0-.48,0h-.3l-.71,0v-.16s0-.07,0-.11,0-.19-.06-.28v0l0-.18c0-.15-.08-.3-.13-.45a6.38,6.38,0,0,0-.34-.84c-.06-.14-.13-.27-.21-.4a6.57,6.57,0,0,0-1-1.39c-.13-.13-.27-.26-.42-.38a7.37,7.37,0,0,0-1.88-1.14,10.45,10.45,0,0,0-2-.61,15.87,15.87,0,0,0-1.89-.26,26.62,26.62,0,0,0-2.85-.06l-1.06,0s.38-.16,1-.36c.33-.11.74-.23,1.22-.35a15.27,15.27,0,0,1,1.66-.32,12.91,12.91,0,0,1,2.08-.12,9.87,9.87,0,0,1,2.44.36l.49.15a7.68,7.68,0,0,1,1.95,1l.11.08a7,7,0,0,1,.91.8l.05.05.06.06.11.12c.14.16.28.33.4.5l.17.24c.13.18.24.36.35.55l.06.11a8,8,0,0,1,.58,1.34l.06.19v0c.08.25.14.51.2.77v.08c0,.09,0,.17,0,.26h0s0,.08,0,.13v0h0c0,.07,0,.14,0,.21v.26Z"/><path class="cls-92" d="M339.2,86.88v.06c0,.11,0,.21,0,.32,0,.39,0,.77,0,1.15,0,.11,0,.22,0,.33,0,.3-.05.61-.08.9,0,.08,0,.15,0,.23s0,.14,0,.22l0,.22v.11l0,.12-.47-.07h0l-.4-.06-.15,0-.28,0h0l-.39-.06-.32,0,0-.18v0l0-.15v0c0-.13,0-.27,0-.41s0-.55.06-.83c0-.07,0-.14,0-.2,0-.46,0-.92,0-1.39V86.9c0-.24,0-.49,0-.73a16.88,16.88,0,0,0-.2-2.13,10.1,10.1,0,0,0-.22-1c0-.15-.08-.29-.13-.42a5,5,0,0,0-.4-.91,3.09,3.09,0,0,0-.65-.8,4.11,4.11,0,0,0-.88-.57l-.21-.1-.41-.16a7.62,7.62,0,0,0-1.34-.35c-.33-.06-.65-.1-.95-.12l-.83,0a12.77,12.77,0,0,0-1.38,0,6.78,6.78,0,0,0-.87.12,2.58,2.58,0,0,0-.29.08,2.23,2.23,0,0,1,.26-.16,5.63,5.63,0,0,1,.83-.35,10.79,10.79,0,0,1,1.39-.38l.49-.09a10,10,0,0,1,1.42-.13h.45c.23,0,.46,0,.7.05H334a6.34,6.34,0,0,1,1.15.25,5.32,5.32,0,0,1,1.31.61l.08.06a4.17,4.17,0,0,1,.6.49,4.3,4.3,0,0,1,.49.56,6.59,6.59,0,0,1,.77,1.41l.1.26c0,.12.09.24.12.36s.1.3.14.45,0,.14.06.21,0,.16.06.25A15.3,15.3,0,0,1,339.2,86.88Z"/><path class="cls-93" d="M343.62,90.17l-.64,4.4,0,.22,0,.11,0,.22,0,.19-.93,6.39a.27.27,0,0,1-.26.22h-7.23a.27.27,0,0,1-.25-.22l-.93-6.39,0-.19,0-.22,0-.11,0-.22-.64-4.4a.19.19,0,0,1,.19-.22h10.72A.19.19,0,0,1,343.62,90.17Z"/><path class="cls-94" d="M343.79,90.07l-.63,4.5a.27.27,0,0,1-.21.22l0,.11,0,.22,0,.19h-9.6l0-.19,0-.22,0-.11a.27.27,0,0,1-.21-.22l-.63-4.5a.19.19,0,0,1,.19-.14H343.6A.19.19,0,0,1,343.79,90.07Z"/><path class="cls-93" d="M343.79,90v0l-.1.7-.53,3.8a.27.27,0,0,1-.21.22h-9.75a.28.28,0,0,1-.22-.22l-.53-3.8-.1-.7v0a.19.19,0,0,1,.19-.22H343.6A.19.19,0,0,1,343.79,90Z"/><path class="cls-95" d="M343.79,90v0l-.1.7H332.45l-.1-.7v0a.19.19,0,0,1,.19-.22H343.6A.19.19,0,0,1,343.79,90Z"/><rect class="cls-96" x="330.91" y="113.84" width="14.18" height="20.61"/><path class="cls-97" d="M330.54,113.63h14.9v21h-14.9Zm14.18.69H331.27V134h13.45Z"/><path class="cls-98" d="M338,121.14h0l0,0h0v0h0l0,0,0,0v.44l0,0,0,0h0v0h0l0,.15h0l0,.33h0v0h0l.06.55h0v0h0l.06.56h0v0h0l0,0v-.11l0-.48v-.11l0-.46v-.1l0-.43v0h0v-1h0l0,0,0,0v.38Zm0-1.73,0,0v0h0Zm0-.67,0,0v0h0Zm0,.61,0,0h0v0Zm0-.67,0,0h0v0Zm0-.84,0,0v0h0Zm0,.22,0,0h0v0Zm0,.06,0,0v0h0Zm0,.22,0,0h0v0Zm0,.06,0,0v0h0Zm0,.63,0,0h0v0Zm0,.06,0,0v0h0Zm0,.67,0,0h0v0Zm0,.06,0,0v0h0Zm0,.37,0,0h0v0Zm0,.06,0,0v0h0Zm0,.42,0,0h0v0Zm.22,3.34h0v0Zm-.23-2.87h0l0,0h0v0h0l0,0,0,0v-.52h0l0,0,0,0v.38Zm0-2.46,0,0h0v0Zm0-.84,0,0v0h0Zm0,.22,0,0h0v0Zm0,.06,0,0v0h0Zm0,.22,0,0h0v0Zm0,.06,0,0v0h0Zm0,.35,0,0v0h0Zm0,.27,0,0h0v0Zm0,.06,0,0v0h0Zm0,.28,0,0h0v0Zm0,.06,0,0v0h0Zm0,.34,0,0h0v0Zm0,.06,0,0v0h0Zm0,.37,0,0h0v0Zm0,.06,0,0v0h0Zm0,.42,0,0h0v0Zm0,.47h0l0,0h0v0h0l0,0,0,0v-.52h0l0,0,0,0v.38Zm0-2.46,0,0h0v0Zm0-.84,0,0v0h0Zm0,.22,0,0h0v0Zm0,.06,0,0v0h0Zm0,.22,0,0h0v0Zm0,.06,0,0v0h0Zm0,.35,0,0v0h0Zm0,.27,0,0h0v0Zm0,.06,0,0v0h0Zm0,.28,0,0h0v0Zm0,.06,0,0v0h0Zm0,.34,0,0h0v0Zm0,.06,0,0v0h0Zm0,.37,0,0h0v0Zm0,.06,0,0v0h0Zm0,.42,0,0h0v0Zm0,.47h0l0,0h0v0h0l0,0,0,0v-.52h0l0,0,0,0v.38Zm0-2.46,0,0h0v0Zm0-.84,0,0v0h0Zm0,.22,0,0h0v0Zm0,.06,0,0v0h0Zm0,.22,0,0h0v0Zm0,.06,0,0v0h0Zm0,.35,0,0v0h0Zm0,.27,0,0h0v0Zm0,.06,0,0v0h0Zm0,.28,0,0h0v0Zm0,.06,0,0v0h0Zm0,.34,0,0h0v0Zm0,.06,0,0v0h0Zm0,.37,0,0h0v0Zm0,.06,0,0v0h0Zm0,.42,0,0h0v0Zm0,.47h0l0,0h0v0h0l0,0,0,0v-.52h0l0,0,0,0v.38Zm0-2.46,0,0h0v0Zm0-.84,0,0v0h0Zm0,.22,0,0h0v0Zm0,.06,0,0v0h0Zm0,.22,0,0h0v0Zm0,.06,0,0v0h0Zm0,.35,0,0v0h0Zm0,.27,0,0h0v0Zm0,.06,0,0v0h0Zm0,.28,0,0h0v0Zm0,.06,0,0v0h0Zm0,.34,0,0h0v0Zm0,.06,0,0v0h0Zm0,.37,0,0h0v0Zm0,.06,0,0v0h0Zm0,.42,0,0h0v0Zm0,.47h0l0,0h0v0h0l0,0,0,0v-.52h0l0,0,0,0v.38Zm0-2.46,0,0h0v0Zm0-.84,0,0v0h0Zm0,.22,0,0h0v0Zm0,.06,0,0v0h0Zm0,.22,0,0h0v0Zm0,.06,0,0v0h0Zm0,.35,0,0v0h0Zm0,.27,0,0h0v0Zm0,.06,0,0v0h0Zm0,.28,0,0h0v0Zm0,.06,0,0v0h0Zm0,.34,0,0h0v0Zm0,.06,0,0v0h0Zm0,.37,0,0h0v0Zm0,.06,0,0v0h0Zm0,.42,0,0h0v0Zm0,.47h0l0,0h0v0h0l0,0,0,0v-.52h0l0,0,0,0v.38Zm0-2.46,0,0h0v0Zm0-.84,0,0v0h0Zm0,.22,0,0h0v0Zm0,.06,0,0v0h0Zm0,.22,0,0h0v0Zm0,.06,0,0v0h0Zm0,.35,0,0v0h0Zm0,.27,0,0h0v0Zm0,.06,0,0v0h0Zm0,.28,0,0h0v0Zm0,.06,0,0v0h0Zm0,.34,0,0h0v0Zm0,.06,0,0v0h0Zm0,.37,0,0h0v0Zm0,.06,0,0v0h0Zm0,.42,0,0h0v0Zm0,.47h0l0,0h0v0h0l0,0,0,0v-.52h0l0,0,0,0v.38Zm0-2.46,0,0h0v0Zm0-.84,0,0v0h0Zm0,.22,0,0h0v0Zm0,.06,0,0v0h0Zm0,.22,0,0h0v0Zm0,.06,0,0v0h0Zm0,.35,0,0v0h0Zm0,.27,0,0h0v0Zm0,.06,0,0v0h0Zm0,.28,0,0h0v0Zm0,.06,0,0v0h0Zm0,.34,0,0h0v0Zm0,.06,0,0v0h0Zm0,.37,0,0h0v0Zm0,.06,0,0v0h0Zm0,.42,0,0h0v0Zm0-3.18v4.2h0v0h0v0l0,.15h0l0,.33h0v0h0l.06.55h0v0h0l.06.56h0v0h0l.06.59h0v0h0l.06.58h0v0h0l0,.47h.79v0s0-.17-.07-.45h0c0-.16-.05-.36-.09-.59v0l-.08-.6h0l-.07-.56h0l-.07-.55h0l-.06-.51v0h0l-.05-.51h0l0-.46h0l0-.46h0l0-.42v0l0-.38h0v0h0l0-.31h0v0h0l0-.31h0v0h0q0-.16,0-.33h0v0l0-.25h0v0h0l0-.25h0v0h0l0-.28v0Zm0,0h.25v.77s0,0,0,0v.06l0,.25v.1l0,.24v.1l0,.24v.1l0,.3v.1l0,.34v.1l0,.38v.1l0,.39v.09l0,.44v.09l.05.46v.09l.06.48v.09l.06.5v.08l.07.54v.08l.08.53v.07l.06.39v0h-.7l0-.39v-.1l-.05-.5V124l-.05-.51v-.11l0-.48v-.11l0-.46v-.1l0-.43v0h0v-4.17Zm0,3.13,0,0h0v0Zm0-.42,0,0v0h0Zm0-.06,0,0h0v0Zm0-.37,0,0v0h0Zm0-.06,0,0h0v0Zm0-.34,0,0v0h0Zm0-.06,0,0h0v0Zm0-.28,0,0v0h0Zm0-.06,0,0h0v0Zm0-.27,0,0v0h0Zm0-.35,0,0v0h0Zm0-.06,0,0h0v0Zm0-.22,0,0v0h0Zm0-.06,0,0h0v0Zm0-.22,0,0v0h0Zm0,.84,0,0h0v0Zm0,2.46h0l0,0h0v0h0l0,0,0,0v-.52h0l0,0,0,0v.38Zm0-.47,0,0h0v0Zm0-.42,0,0v0h0Zm0-.06,0,0h0v0Zm0-.37,0,0v0h0Zm0-.06,0,0h0v0Zm0-.34,0,0v0h0Zm0-.06,0,0h0v0Zm0-.28,0,0v0h0Zm0-.06,0,0h0v0Zm0-.27,0,0v0h0Zm0-.35,0,0v0h0Zm0-.06,0,0h0v0Zm0-.22,0,0v0h0Zm0-.06,0,0h0v0Zm0-.22,0,0v0h0Zm0,.84,0,0h0v0Zm0,2.46h0l0,0h0v0h0l0,0,0,0v-.52h0l0,0,0,0v.38Zm0-.47,0,0h0v0Zm0-.42,0,0v0h0Zm0-.06,0,0h0v0Zm0-.37,0,0v0h0Zm0-.06,0,0h0v0Zm0-.34,0,0v0h0Zm0-.06,0,0h0v0Zm0-.28,0,0v0h0Zm0-.06,0,0h0v0Zm0-.27,0,0v0h0Zm0-.35,0,0v0h0Zm0-.06,0,0h0v0Zm0-.22,0,0v0h0Zm0-.06,0,0h0v0Zm0-.22,0,0v0h0Zm0,.84,0,0h0v0Zm0,2.46h0l0,0h0v0h0l0,0,0,0v-.52h0l0,0,0,0v.38Zm0-.47,0,0h0v0Zm0-.42,0,0v0h0Zm0-.06,0,0h0v0Zm0-.37,0,0v0h0Zm0-.06,0,0h0v0Zm0-.34,0,0v0h0Zm0-.06,0,0h0v0Zm0-.28,0,0v0h0Zm0-.06,0,0h0v0Zm0-.27,0,0v0h0Zm0-.35,0,0v0h0Zm0-.06,0,0h0v0Zm0-.22,0,0v0h0Zm0-.06,0,0h0v0Zm0-.22,0,0v0h0Zm0,.84,0,0h0v0Zm0,2.46h0l0,0h0v0h0l0,0,0,0v-.52h0l0,0,0,0v.38Zm0-.47,0,0h0v0Zm0-.42,0,0v0h0Zm0-.06,0,0h0v0Zm0-.37,0,0v0h0Zm0-.06,0,0h0v0Zm0-.34,0,0v0h0Zm0-.06,0,0h0v0Zm0-.28,0,0v0h0Zm0-.06,0,0h0v0Zm0-.27,0,0v0h0Zm0-.35,0,0v0h0Zm0-.06,0,0h0v0Zm0-.22,0,0v0h0Zm0-.06,0,0h0v0Zm0-.22,0,0v0h0Zm0,.84,0,0h0v0Zm0,2.46h0l0,0h0v0h0l0,0,0,0v-.52h0l0,0,0,0v.38Zm0-.47,0,0h0v0Zm0-.42,0,0v0h0Zm0-.06,0,0h0v0Zm0-.37,0,0v0h0Zm0-.06,0,0h0v0Zm0-.34,0,0v0h0Zm0-.06,0,0h0v0Zm0-.28,0,0v0h0Zm0-.06,0,0h0v0Zm0-.27,0,0v0h0Zm0-.35,0,0v0h0Zm0-.06,0,0h0v0Zm0-.22,0,0v0h0Zm0-.06,0,0h0v0Zm0-.22,0,0v0h0Zm0,.84,0,0h0v0Zm0,2.46h0l0,0h0v0h0l0,0,0,0v-.52h0l0,0,0,0v.38Zm0-.47,0,0h0v0Zm0-.42,0,0v0h0Zm0-.06,0,0h0v0Zm0-.37,0,0v0h0Zm0-.06,0,0h0v0Zm0-.34,0,0v0h0Zm0-.06,0,0h0v0Zm0-.28,0,0v0h0Zm0-.06,0,0h0v0Zm0-.27,0,0v0h0Zm0-.35,0,0v0h0Zm0-.06,0,0h0v0Zm0-.22,0,0v0h0Zm0-.06,0,0h0v0Zm0-.22,0,0v0h0Zm0,.84,0,0h0v0Zm0,2.46h0l0,0h0v0h0l0,0,0,0v-.52h0l0,0,0,0v.38Zm.23,2.87h0v0Zm-.22-3.34,0,0h0v0Zm0-.42,0,0v0h0Zm0-.44,0,0v0h0Zm0-.4,0,0v0h0Zm0-.34,0,0v0h0Zm0-.06,0,0h0v0Zm0-.27,0,0v0h0Zm0-.35,0,0v0h0Zm0-.06,0,0h0v0Zm0-.22,0,0v0h0Zm0-.06,0,0h0v0Zm0-.22,0,0v0h0Zm0,2.35,0,0h0v0Zm0-.44,0,0h0v0Zm0-.4,0,0h0v0Zm0-.67,0,0h0v0Zm0,2.46h0l0,0h0v0h0l0,0,0,0v.44l0,0,0,0h0v0h0l0,.15h0l0,.33h0v0h0l.06.55h0v0h0l.06.56h0v0h0l0,0v-.11l0-.48v-.11l0-.46v-.1l0-.43v0h0v-1h0l0,0,0,0v.38Z"/><path class="cls-98" d="M337.85,123.4h0l0,0Zm.05-.52.05,0h0v0h0l.06-.54h0v0h0l0-.33h0l0-.15h0v0h0l0,0,0,0v-.44l0,0,0,0h0v0h0l0,0h0v-.38l0,0,0,0h0v0h0l0,0,0,0v-.38l0,0,0,0h0v0h0l0,0,0,0v-.33l0,0,0,0h0v0h0l0,0,0,0v-.3l0,0,0,0h0v0h0l0,0,0,0v-.24l0,0,0,0h0v0h0l0,0,0,0v-.24l0,0,0,0h0v0h0l0,0,0,0v-.24l0,0,0,0h0v0h0l0,0,0,0v-.18l0,0,0,0h0v0h0l0,0,0,0v-.18l0,0,0,0h0v3.89h0v0l0,.43v.1l0,.46v.11Zm-.05.52h0l0,0Zm.05-.52.05,0h0v0h0l.06-.54h0v0h0l0-.33h0l0-.15h0v0h0l0,0,0,0v-.44l0,0,0,0h0v0h0l0,0h0v-.38l0,0,0,0h0v0h0l0,0,0,0v-.38l0,0,0,0h0v0h0l0,0,0,0v-.33l0,0,0,0h0v0h0l0,0,0,0v-.3l0,0,0,0h0v0h0l0,0,0,0v-.24l0,0,0,0h0v0h0l0,0,0,0v-.24l0,0,0,0h0v0h0l0,0,0,0v-.24l0,0,0,0h0v0h0l0,0,0,0v-.18l0,0,0,0h0v0h0l0,0,0,0v-.18l0,0,0,0h0v3.89h0v0l0,.43v.1l0,.46v.11Zm.13-5.06v3.41h0l0,0,0,0h0v0h0l0,0h0v-.38l0,0,0,0h0v0h0l0,0,0,0v-.38l0,0,0,0h0v0h0l0,0,0,0v-.33l0,0,0,0h0v0h0l0,0,0,0v-.3l0,0,0,0h0v0h0l0,0,0,0v-.24l0,0,0,0h0v0h0l0,0,0,0v-.24l0,0,0,0h0v0h0l0,0,0,0v-.24l0,0,0,0h0v0h0l0,0,0,0v-.18l0,0,0,0h0v0h0l0,0,0,0v-.18l0,0,0,0h0Zm-1,7.27H337v0l.06-.39v-.07l.08-.53V124l.07-.54v-.08l.06-.5v-.09l.06-.48v-.09l.05-.46v-.09l0-.44v-.09l0-.39v-.1l0-.38v-.1l0-.34v-.1l0-.3v-.1l0-.24V119c0-.08,0-.16,0-.24a.28.28,0,0,0,0,0v-.07l0-.25v-.1c0-.06,0-.12,0-.18v-.59H338v4.17h0v0l0,.43v.1l0,.46v.11l-.05.47v.11l-.05.51v.12l-.05.49v.11l0,.39v0H337Zm.87-2.21.05,0h0v0h0l.06-.54h0v0h0l0-.33h0l0-.15h0v0h0l0,0,0,0v-.44l0,0,0,0h0v0h0l0,0h0v-.38l0,0,0,0h0v0h0l0,0,0,0v-.38l0,0,0,0h0v0h0l0,0,0,0v-.33l0,0,0,0h0v0h0l0,0,0,0v-.3l0,0,0,0h0v0h0l0,0,0,0v-.24l0,0,0,0h0v0h0l0,0,0,0v-.24l0,0,0,0h0v0h0l0,0,0,0v-.24l0,0,0,0h0v0h0l0,0,0,0v-.18l0,0,0,0h0v0h0l0,0,0,0v-.18l0,0,0,0h0v3.89h0v0l0,.43v.1l0,.46v.11Zm-.05.52h0l0,0Zm.05-.52.05,0h0v0h0l.06-.54h0v0h0l0-.33h0l0-.15h0v0h0l0,0,0,0v-.44l0,0,0,0h0v0h0l0,0h0v-.38l0,0,0,0h0v0h0l0,0,0,0v-.38l0,0,0,0h0v0h0l0,0,0,0v-.33l0,0,0,0h0v0h0l0,0,0,0v-.3l0,0,0,0h0v0h0l0,0,0,0v-.24l0,0,0,0h0v0h0l0,0,0,0v-.24l0,0,0,0h0v0h0l0,0,0,0v-.24l0,0,0,0h0v0h0l0,0,0,0v-.18l0,0,0,0h0v0h0l0,0,0,0v-.18l0,0,0,0h0v3.89h0v0l0,.43v.1l0,.46v.11Zm-.05.52h0l0,0Zm-.93,1.74h.78v0l0-.46h0v0h0l.06-.57h0v0h0l.06-.59h0v0h0l.06-.55h0v0h0l.06-.54h0v0h0l0-.33h0l0-.15v0h0v0h0v-4.2h-.34v0l0,.28h0v0h0v.25h0v0h0l0,.25v0h0l0,.33h0v0h0l0,.31h0v0h0l0,.31h0v0h0l0,.38v0l0,.42h0l0,.46h0c0,.16,0,.31,0,.46h0l-.05.51h0v0l-.06.51h0l-.07.55h0l-.07.56h0l-.08.6v0l-.09.59h0c0,.29-.07.45-.07.45Z"/><path class="cls-98" d="M337.71,117.82h.67v0h-.67Z"/><path class="cls-98" d="M337.7,118.1h.71v0h-.7v0Z"/><path class="cls-98" d="M337.68,118.37h.74v0h-.74v0Z"/><path class="cls-98" d="M337.65,118.73h.79v0h-.79v0Z"/><path class="cls-98" d="M337.63,119.06h.84v0h-.84v0Z"/><path class="cls-98" d="M337.6,119.4h.89v0h-.89v0Z"/><rect class="cls-98" x="337.59" y="119.77" width="0.92" height="0.02"/><path class="cls-98" d="M337.53,120.23h0Z"/><path class="cls-98" d="M337.48,120.72h0Z"/><path class="cls-98" d="M337.44,121.19h0Z"/><path class="cls-98" d="M337.38,121.73h1.34v0h-1.34Z"/><polygon class="cls-98" points="337.32 122.27 338.78 122.27 338.78 122.26 338.78 122.25 338.78 122.24 337.32 122.24 337.32 122.25 337.32 122.26 337.32 122.27"/><path class="cls-98" d="M337.25,122.83h0Z"/><path class="cls-98" d="M337.17,123.42h0Z"/><path class="cls-98" d="M337.09,124H339v0h-1.91Z"/><path class="cls-98" d="M337,124.66h0Z"/><path class="cls-98" d="M338.58,121.17h0l-.23.21,0,0-.25.23,0,0,0,0h0l.28.21,0,0,.3.23h0l-.25.24,0,0-.24.23,0,0h0l.05,0,.29.24,0,0,.31.25h0l-.26.26,0,0-.25.26,0,0h0l.05,0,.31.25,0,0,.34.27h0l-.26.19,0,0-.28.21,0,0,0,0h0l.06,0,.25-.19,0,0,.27-.2,0,0h0l0,0-.34-.27,0,0-.33-.26h0l.27-.27,0,0,.26-.27,0,0h0l0,0-.31-.25,0,0-.31-.25h0l.25-.25,0,0,.25-.24,0,0h0l0,0-.3-.23,0,0-.29-.22h0l.26-.24,0,0,.23-.21,0,0h0l0,0-.25-.2,0,0-.23-.19h0l.21-.21,0,0,.19-.18,0,0h0l0,0-.2-.17,0,0-.19-.17h0l.17-.17,0,0,.15-.14,0,0h0v0h0l0,0-.16-.12,0,0-.15-.12h0l.15-.13,0,0,.13-.11,0,0h0v0h0l0,0-.13-.13,0,0-.13-.13h0l.12-.1,0,0,.11-.09,0,0h0v0h0l0,0-.11-.09,0,0-.11-.09h0l.11-.11,0,0,.09-.09,0,0,0,0,0,0-.09.09,0,0-.1.1,0,0,0,0h0l0,0,0,0,.1.09,0,0,.12.1h0l-.11.09,0,0-.11.09,0,0,0,0h0l0,0,0,0,.12.12,0,0,.15.14h0l-.13.12,0,0-.13.12,0,0,0,0h0l0,0,0,0,.15.12,0,0,.17.13h0l-.16.15,0,0-.16.15,0,0,0,0h0l0,0,0,0,.18.16,0,0,.21.18h0l-.19.19,0,0-.2.2,0,0,0,0h0l0,0,0,0,.22.18,0,0Z"/><path class="cls-98" d="M338.46,119.77h0l-.17.17,0,0-.18.17,0,0,0,0h0l0,0,0,0,.2.18,0,0,.23.21h0l-.21.19,0,0-.22.2,0,0,0,0h0l0,0,0,0,.25.21,0,0,.29.24h0l0,0-.24.22,0,0-.23.22,0,0h0l0,0,.29.23,0,0,.3.25h0l-.25.25,0,0-.24.24,0,0h0l0,0,.3.25,0,0,.33.27h0l-.26.26,0,0-.26.25,0,0h0l0,0h0l0,0,.32.19,0,0,.32.19.07,0,0,0,0,0-.33-.2,0,0-.33-.19,0,0h0l.27-.27,0,0,.27-.26,0,0h0l0,0-.33-.27,0,0-.32-.26h0l.26-.25,0,0,.25-.25,0,0h0l0,0-.3-.24,0,0-.3-.24h0l.24-.23,0,0,.25-.23,0,0,0,0h0l-.05,0-.27-.23,0,0-.26-.21h0l.23-.21,0,0,.21-.19,0,0h0l0,0-.22-.2,0,0-.21-.19h0l.19-.18,0,0,.17-.16,0,0v0l0,0-.18-.16,0,0-.17-.15h0l.16-.13,0,0,.14-.12,0,0h0v0h0l0,0-.14-.12,0,0-.14-.12h0l.14-.14,0,0,.12-.12,0,0h0v0l0,0-.12-.09,0,0-.12-.09h0l.11-.1,0,0,.1-.09,0,0h0v0h0l0,0-.1-.09,0,0-.09-.09,0,0h0v0l0,0h0l0,0,.1.09,0,0,.12.11h0l-.11.09,0,0-.1.09,0,0,0,0h0l0,0,0,0,.11.09,0,0,.13.1h0l-.13.13,0,0-.12.13,0,0,0,0h0l0,0,0,0,.13.11,0,0,.16.13h0l-.14.12,0,0-.15.12,0,0,0,0h0l0,0,0,0,.16.14,0,0Z"/><path class="cls-98" d="M337,124.65h0l0,0,.27.2,0,0,.27.2.06,0,0,0,0,0-.27-.2,0,0-.26-.19h0l.34-.27,0,0,.31-.24,0,0h0l0,0-.25-.25,0,0-.26-.26h0l.31-.25,0,0,.29-.23.05,0h0l0,0-.24-.23,0,0-.25-.24h0l.3-.23,0,0,.28-.21h0l0,0,0,0h0l-.25-.23,0,0-.23-.21h0l.25-.21,0,0,.22-.18h0l0,0,0,0h0l0,0,0,0h0l-.2-.2,0,0-.19-.19h0l.21-.18,0,0,.18-.16h0l0,0,0,0h0l0,0,0,0h0l-.16-.15,0,0-.16-.15h0l.17-.13,0,0,.15-.12,0,0,0,0h0l0,0,0,0-.13-.12,0,0-.13-.12h0l.15-.14,0,0,.12-.12,0,0,0,0h0l0,0,0,0-.11-.09,0,0-.11-.09h0l.12-.1,0,0,.1-.09,0,0,0,0h0l0,0,0,0-.1-.1,0,0-.09-.09,0,0,0,0,0,0,.09.09,0,0,.11.11h0l-.11.09,0,0-.11.09,0,0h0v0h0l0,0,.11.09,0,0,.12.1h0l-.13.13,0,0-.13.13,0,0h0v0h0l0,0,.13.11,0,0,.15.13h0l-.15.12,0,0-.16.12,0,0h0v0h0l0,0,.15.14,0,0,.17.17h0l-.19.17,0,0-.2.17,0,0h0l0,0,.19.18,0,0,.21.21h0l-.23.19,0,0-.25.2,0,0h0l0,0,.23.21,0,0,.26.24h0l-.29.22,0,0-.3.23,0,0h0l0,0,.24.24,0,0,.25.25h0l-.31.25,0,0-.31.25,0,0h0l0,0,.26.27,0,0,.26.27h0l-.33.26,0,0-.34.27,0,0h0Z"/><path class="cls-98" d="M336.94,125.09l0,0,.07,0,.32-.19,0,0,.32-.19,0,0h0l0,0h0l0,0-.25-.25,0,0-.26-.26h0l.33-.27,0,0,.3-.25.05,0h0l0,0-.24-.24,0,0-.25-.25h0l.31-.25,0,0,.29-.23,0,0h0l0,0-.23-.22,0,0-.24-.22,0,0h0l.29-.24,0,0,.25-.21h0l0,0,0,0h0l0,0h0l-.22-.2,0,0-.21-.19h0l.23-.21,0,0,.2-.18h0l0,0,0,0h0l0,0,0,0h0l-.18-.17,0,0-.17-.17h0l.19-.17,0,0,.16-.14,0,0,0,0h0l0,0,0,0-.15-.12,0,0-.14-.12h0l.16-.13,0,0,.13-.11,0,0,0,0h0l0,0,0,0-.12-.13,0,0-.13-.13h0l.13-.1,0,0,.11-.09,0,0,0,0h0l0,0,0,0-.1-.09,0,0-.11-.09h0l.12-.11,0,0,.1-.09,0,0h0v0l0,0h0l0,0-.09.09,0,0-.1.09,0,0h0v0h0l0,0,.1.09,0,0,.11.1h0l-.12.09,0,0-.12.09,0,0v0h0l0,0,.12.12,0,0,.14.14h0l-.14.12,0,0-.14.12,0,0h0v0h0l0,0,.14.12,0,0,.16.13h0l-.17.15,0,0-.18.16,0,0v0l0,0,.17.16,0,0,.19.18h0l-.21.19,0,0-.22.2,0,0h0l0,0,.21.19,0,0,.23.21h0l-.26.21,0,0-.27.23-.05,0h0l0,0,0,0,.25.23,0,0,.24.23h0l-.3.24,0,0-.3.24,0,0h0l0,0,.25.25,0,0,.26.25h0l-.32.26,0,0-.33.27,0,0h0l0,0,.27.26,0,0,.28.27h0l0,0-.33.19,0,0-.33.2Z"/><rect class="cls-98" x="336.63" y="125.13" width="2.83" height="0.11"/><path class="cls-98" d="M336.63,125.23v0l.17.35h2.51l.16-.36v0Zm.05,0h2.74l-.14.3h-2.45Z"/><path class="cls-98" d="M338.64,125.91l0-.27h.68l.2.56,0,0,.19.52,0,.05,0,0h0l.22.6,0,0v0h0v0l.23.63h0l0,0v0l.24.68v0h-1.31l-.12-.68v-.09h0l-.12-.67h0v-.09l-.1-.56v-.09h0l-.1-.56v-.06l0-.23Zm-.12-.33.22,1.28h0l.11.64h0l.13.75h0l.14.79h1.44v0l-.27-.76h0l-.26-.72v0l-.24-.68v0l-.44-1.23Z"/><polygon class="cls-98" points="338.6 125.95 338.63 125.98 338.65 125.97 338.92 125.65 339.81 129.02 339.82 129.05 339.87 129.04 339.86 129.02 338.96 125.64 338.94 125.58 338.92 125.58 338.87 125.64 338.64 125.91 338.6 125.95"/><rect class="cls-98" x="336.72" y="125.97" width="2.69" height="0.02"/><rect class="cls-98" x="336.64" y="126.19" width="2.86" height="0.02"/><polygon class="cls-98" points="339.03 126 339.31 125.62 339.27 125.59 339.02 125.93 338.57 125.59 338.54 125.63 339.03 126"/><polygon class="cls-98" points="339.4 126 339.43 125.97 338.94 125.59 338.91 125.63 339.4 126"/><polygon class="cls-98" points="338.09 125.98 338.1 125.61 338.05 125.61 338.05 125.98 338.09 125.98"/><rect class="cls-98" x="338.77" y="126.82" width="0.96" height="0.05"/><rect class="cls-98" x="338.89" y="127.51" width="1.09" height="0.05"/><rect class="cls-98" x="339.01" y="128.24" width="1.23" height="0.05"/><polygon class="cls-98" points="338.74 126.86 338.74 126.87 338.81 126.91 339.95 127.53 339.96 127.54 339.95 127.54 339.04 128.23 338.99 128.28 338.99 128.29 339.06 128.32 340.42 129.02 340.51 129.07 340.54 129.03 340.47 129 339.06 128.28 339.97 127.59 340.02 127.55 340 127.51 339.93 127.47 338.82 126.86 338.81 126.86 338.86 126.82 339.49 126.24 339.52 126.21 339.49 126.17 339.47 126.19 338.8 126.81 338.79 126.82 338.77 126.84 338.74 126.86"/><polygon class="cls-98" points="339.67 126.82 339.69 126.83 339.65 126.86 338.91 127.47 338.86 127.51 338.86 127.52 338.89 127.54 338.92 127.56 338.92 127.56 340.13 128.24 340.2 128.28 340.2 128.28 339.17 129 339.14 129.03 339.16 129.07 339.23 129.02 340.23 128.32 340.28 128.28 340.28 128.27 340.24 128.25 340.22 128.24 340.2 128.22 339.01 127.56 338.94 127.51 338.93 127.51 339.71 126.87 339.72 126.86 339.73 126.85 339.76 126.83 339.75 126.81 339.67 126.76 338.69 126.19 338.67 126.18 338.65 126.22 338.7 126.25 339.67 126.82"/><path class="cls-98" d="M337.45,126l0,.23v.06l-.1.56h0v.09l-.1.56v.09h0l-.12.67h0v.09l-.12.68h-1.31v0l.24-.68v0l0,0h0l.23-.63v0h0v0l0,0,.21-.6h0l0,0,0-.05.19-.52,0,0,.2-.56h.68l0,.27Zm-.66-.39-.44,1.23v0l-.24.68v0l-.26.72h0l-.27.76v0H337l.14-.79h0l.13-.75h0l.11-.64h0l.22-1.28Z"/><polygon class="cls-98" points="337.5 125.95 337.47 125.98 337.45 125.97 337.19 125.65 336.29 129.02 336.28 129.05 336.23 129.04 336.24 129.02 337.14 125.64 337.16 125.58 337.18 125.58 337.23 125.64 337.46 125.91 337.5 125.95"/><polygon class="cls-98" points="337.07 126 336.79 125.62 336.83 125.59 337.08 125.93 337.53 125.59 337.56 125.63 337.07 126"/><rect class="cls-98" x="336.62" y="125.77" width="0.62" height="0.05" transform="translate(-6.31 233.19) rotate(-37.85)"/><rect class="cls-98" x="336.12" y="127.51" width="1.09" height="0.05"/><polygon class="cls-98" points="337.36 126.86 337.36 126.87 337.29 126.91 336.15 127.53 336.14 127.54 336.15 127.54 337.06 128.23 337.11 128.28 337.11 128.29 337.05 128.32 335.69 129.02 335.59 129.07 335.57 129.03 335.63 129 337.04 128.28 336.13 127.59 336.08 127.55 336.1 127.51 336.18 127.47 337.28 126.86 337.29 126.86 337.24 126.82 336.62 126.24 336.58 126.21 336.61 126.17 336.63 126.19 337.31 126.81 337.31 126.82 337.33 126.84 337.36 126.86"/><polygon class="cls-98" points="336.43 126.82 336.41 126.83 336.45 126.86 337.19 127.47 337.25 127.51 337.25 127.52 337.21 127.54 337.18 127.56 337.18 127.56 335.97 128.24 335.89 128.28 335.9 128.28 336.93 129 336.96 129.03 336.94 129.07 336.87 129.02 335.87 128.32 335.82 128.28 335.82 128.27 335.86 128.25 335.88 128.24 335.9 128.22 337.09 127.56 337.17 127.51 337.17 127.51 336.39 126.87 336.38 126.86 336.37 126.85 336.34 126.83 336.35 126.81 336.43 126.76 337.41 126.19 337.43 126.18 337.45 126.22 337.4 126.25 336.43 126.82"/><rect class="cls-98" x="335.17" y="128.54" width="5.73" height="0.07"/><rect class="cls-98" x="335.17" y="129.06" width="5.73" height="0.03"/><rect class="cls-98" x="335.17" y="129.48" width="5.72" height="0.06"/><path class="cls-98" d="M339.55,129.52,341,132h0l.57,1h1.73l-.69-1h0l-.59-.87h0l-.31-.46h0l-.79-1.16Zm.49.78,0-.06-.39-.68h1.24l.47.69,0,0,.26.39,0,0,.26.38,0,0,0,0h0l.25.37,0,0,.26.39v0l0,0h0l.29.43,0,0,.29.44,0,0h-1.63l-.26-.46,0,0-.23-.41v0l0,0h0l-.23-.41,0,0-.21-.36h0l0,0h0l-.23-.41v0Z"/><rect class="cls-98" x="340.85" y="129.54" width="0.05" height="0.47"/><rect class="cls-98" x="340.53" y="129.54" width="0.05" height="0.47"/><rect class="cls-98" x="340.22" y="129.54" width="0.05" height="0.47"/><rect class="cls-98" x="339.9" y="129.54" width="0.05" height="0.47"/><rect class="cls-98" x="339.59" y="129.54" width="0.05" height="0.47"/><rect class="cls-98" x="339.27" y="129.54" width="0.05" height="0.47"/><rect class="cls-98" x="338.96" y="129.54" width="0.05" height="0.47"/><rect class="cls-98" x="338.64" y="129.54" width="0.05" height="0.47"/><rect class="cls-98" x="338.33" y="129.54" width="0.05" height="0.47"/><rect class="cls-98" x="338.01" y="129.54" width="0.05" height="0.47"/><rect class="cls-98" x="337.7" y="129.54" width="0.05" height="0.47"/><rect class="cls-98" x="337.38" y="129.54" width="0.05" height="0.47"/><rect class="cls-98" x="337.07" y="129.54" width="0.05" height="0.47"/><rect class="cls-98" x="336.75" y="129.54" width="0.05" height="0.47"/><rect class="cls-98" x="336.43" y="129.54" width="0.05" height="0.47"/><rect class="cls-98" x="336.12" y="129.54" width="0.05" height="0.47"/><rect class="cls-98" x="335.8" y="129.54" width="0.05" height="0.47"/><rect class="cls-98" x="335.49" y="129.54" width="0.05" height="0.47"/><rect class="cls-98" x="335.17" y="129.54" width="0.05" height="0.47"/><rect class="cls-98" x="334.95" y="129.99" width="6.24" height="0.05"/><rect class="cls-98" x="339.99" y="130.23" width="1.37" height="0.05"/><polygon class="cls-98" points="340.27 130.72 341.68 130.72 341.67 130.68 340.25 130.68 340.27 130.72"/><rect class="cls-98" x="340.5" y="131.13" width="1.47" height="0.04"/><rect class="cls-98" x="340.74" y="131.55" width="1.52" height="0.04"/><rect class="cls-98" x="341" y="132.01" width="1.57" height="0.05"/><rect class="cls-98" x="341.26" y="132.49" width="1.62" height="0.05"/><rect class="cls-98" x="337.57" y="116.88" width="0.97" height="0.08"/><rect class="cls-98" x="337.73" y="116.71" width="0.64" height="0.1"/><rect class="cls-98" x="338" y="115.35" width="0.1" height="1.12"/><path class="cls-98" d="M338.05,116.48h.43a.66.66,0,0,1-.29.15h-.27a.66.66,0,0,1-.29-.15Z"/><rect class="cls-98" x="340.53" y="129.08" width="0.05" height="0.4"/><rect class="cls-98" x="340.85" y="129.08" width="0.05" height="0.4"/><rect class="cls-98" x="340.22" y="129.08" width="0.05" height="0.4"/><rect class="cls-98" x="339.9" y="129.08" width="0.05" height="0.4"/><rect class="cls-98" x="339.59" y="129.08" width="0.05" height="0.4"/><rect class="cls-98" x="339.27" y="129.08" width="0.05" height="0.4"/><rect class="cls-98" x="338.96" y="129.08" width="0.05" height="0.4"/><rect class="cls-98" x="338.64" y="129.08" width="0.05" height="0.4"/><rect class="cls-98" x="338.33" y="129.08" width="0.05" height="0.4"/><rect class="cls-98" x="338.01" y="129.08" width="0.05" height="0.4"/><rect class="cls-98" x="337.7" y="129.08" width="0.05" height="0.4"/><rect class="cls-98" x="337.38" y="129.08" width="0.05" height="0.4"/><rect class="cls-98" x="337.07" y="129.08" width="0.05" height="0.4"/><rect class="cls-98" x="336.75" y="129.08" width="0.05" height="0.4"/><rect class="cls-98" x="336.43" y="129.08" width="0.05" height="0.4"/><rect class="cls-98" x="336.12" y="129.08" width="0.05" height="0.4"/><rect class="cls-98" x="335.8" y="129.08" width="0.05" height="0.4"/><rect class="cls-98" x="335.49" y="129.08" width="0.05" height="0.4"/><rect class="cls-98" x="335.17" y="129.08" width="0.05" height="0.4"/><rect class="cls-98" x="337.73" y="117.44" width="0.63" height="0.05"/><polygon class="cls-98" points="338.07 126 338.58 125.63 338.55 125.59 338.07 125.95 337.57 125.59 337.55 125.63 338.07 126"/><polygon class="cls-98" points="338.62 126 338.65 125.96 338.07 125.58 337.47 125.95 337.5 125.98 338.07 125.63 338.62 126"/><rect class="cls-98" x="340.86" y="128.61" width="0.04" height="0.46"/><rect class="cls-98" x="335.17" y="128.61" width="0.04" height="0.46"/><rect class="cls-98" x="340.51" y="128.61" width="0.04" height="0.46"/><rect class="cls-98" x="338.91" y="128.61" width="0.04" height="0.46"/><rect class="cls-98" x="338.58" y="128.61" width="0.04" height="0.46"/><rect class="cls-98" x="338.26" y="128.61" width="0.04" height="0.46"/><rect class="cls-98" x="335.55" y="128.61" width="0.04" height="0.46"/><rect class="cls-98" x="337.16" y="128.61" width="0.04" height="0.46"/><rect class="cls-98" x="337.48" y="128.61" width="0.04" height="0.46"/><rect class="cls-98" x="337.8" y="128.61" width="0.04" height="0.46"/><polygon class="cls-98" points="340.49 131.16 340.5 131.17 340.52 131.18 340.54 131.19 341.38 131.55 341.46 131.58 341.49 131.6 341.5 131.6 342.44 132.01 342.51 132.04 342.5 132.05 342.07 132.48 342.07 132.49 342.04 132.51 342.02 132.53 341.56 132.99 341.54 133.01 341.57 133.05 341.57 133.05 341.57 133.05 341.62 133 342.08 132.53 342.09 132.53 342.12 132.5 342.13 132.49 342.55 132.06 342.59 132.03 342.59 132.03 342.58 132.02 342.56 132.01 342.56 132.01 342.5 131.99 341.6 131.6 341.54 131.57 341.5 131.55 341.5 131.55 340.63 131.18 340.56 131.15 340.58 131.13 340.95 130.72 340.96 130.72 340.99 130.69 341 130.68 341.36 130.29 341.38 130.27 341.34 130.24 341.33 130.25 340.95 130.67 340.94 130.68 340.92 130.7 340.89 130.72 340.51 131.13 340.51 131.13 340.5 131.15 340.49 131.16"/><polygon class="cls-98" points="340.97 132.04 340.98 132.04 340.97 132.03 340.97 132.04"/><polygon class="cls-98" points="339.99 130.28 340.04 130.3 340.87 130.68 340.92 130.7 340.96 130.72 340.97 130.72 341.85 131.13 341.91 131.16 341.9 131.18 341.5 131.55 341.49 131.55 341.46 131.58 341.44 131.6 341.01 132 341 132.01 341 132.01 340.97 132.03 340.98 132.04 341 132.05 341 132.05 341.05 132.07 341.98 132.49 342.04 132.51 342.08 132.53 342.08 132.53 343.13 133 343.21 133.03 343.23 132.99 343.17 132.97 342.19 132.53 342.12 132.5 342.09 132.49 342.07 132.48 341.12 132.05 341.05 132.02 341.07 132.01 341.5 131.6 341.51 131.6 341.54 131.57 341.56 131.55 341.96 131.18 341.96 131.18 341.97 131.17 341.99 131.15 341.99 131.15 341.97 131.13 341.96 131.13 341.91 131.11 341.07 130.72 340.99 130.69 340.98 130.68 340.95 130.67 340.01 130.24 340.01 130.24 339.99 130.28"/><path class="cls-98" d="M335.22,129.52l-.79,1.16h0l-.31.46h0l-.59.87h0l-.69,1h1.73l.57-1h0l1.43-2.52Zm.62,1.19v0l-.23.41h0l0,0h0l-.21.36,0,0-.23.41h0l0,0v0l-.23.41,0,0-.26.46h-1.63l0,0,.29-.44,0,0,.29-.43h0l0,0,0,0,.26-.39,0,0,.25-.37h0l0,0,0,0,.26-.38,0,0,.26-.39,0,0,.47-.69h1.24l-.39.68,0,.06Z"/><rect class="cls-98" x="334.74" y="130.23" width="1.37" height="0.05"/><polygon class="cls-98" points="335.83 130.72 334.43 130.72 334.43 130.68 335.85 130.68 335.83 130.72"/><rect class="cls-98" x="334.13" y="131.13" width="1.47" height="0.04"/><rect class="cls-98" x="333.84" y="131.55" width="1.52" height="0.04"/><rect class="cls-98" x="333.54" y="132.01" width="1.57" height="0.05"/><rect class="cls-98" x="333.22" y="132.49" width="1.62" height="0.05"/><polygon class="cls-98" points="335.62 131.16 335.6 131.17 335.58 131.18 335.56 131.19 334.72 131.55 334.64 131.58 334.61 131.6 334.6 131.6 333.66 132.01 333.59 132.04 333.6 132.05 334.03 132.48 334.03 132.49 334.06 132.51 334.08 132.53 334.54 132.99 334.56 133.01 334.53 133.05 334.53 133.05 334.53 133.05 334.48 133 334.02 132.53 334.01 132.53 333.98 132.5 333.97 132.49 333.55 132.06 333.51 132.03 333.51 132.03 333.52 132.02 333.54 132.01 333.55 132.01 333.6 131.99 334.5 131.6 334.56 131.57 334.6 131.55 334.61 131.55 335.47 131.18 335.54 131.15 335.52 131.13 335.15 130.72 335.14 130.72 335.11 130.69 335.1 130.68 334.75 130.29 334.73 130.27 334.76 130.24 334.77 130.25 335.15 130.67 335.17 130.68 335.19 130.7 335.21 130.72 335.59 131.13 335.59 131.13 335.6 131.15 335.62 131.16"/><polygon class="cls-98" points="335.13 132.04 335.13 132.04 335.13 132.03 335.13 132.04"/><polygon class="cls-98" points="336.11 130.28 336.06 130.3 335.24 130.68 335.19 130.7 335.14 130.72 335.14 130.72 334.25 131.13 334.19 131.16 334.2 131.18 334.61 131.55 334.61 131.55 334.64 131.58 334.66 131.6 335.1 132 335.1 132.01 335.11 132.01 335.13 132.03 335.13 132.04 335.11 132.05 335.1 132.05 335.06 132.07 334.13 132.49 334.06 132.51 334.02 132.53 334.02 132.53 332.97 133 332.89 133.03 332.87 132.99 332.93 132.97 333.91 132.53 333.98 132.5 334.01 132.49 334.03 132.48 334.99 132.05 335.05 132.02 335.04 132.01 334.6 131.6 334.59 131.6 334.56 131.57 334.54 131.55 334.14 131.18 334.14 131.18 334.13 131.17 334.11 131.15 334.11 131.15 334.13 131.13 334.14 131.13 334.19 131.11 335.03 130.72 335.11 130.69 335.13 130.68 335.15 130.67 336.09 130.24 336.09 130.24 336.11 130.28"/><path class="cls-98" d="M340.56,131.28a3.14,3.14,0,0,0-.66-.48,3.8,3.8,0,0,0-3.69,0,3.15,3.15,0,0,0-.66.48l-.08.08.36-.65h0a4.14,4.14,0,0,1,4.45,0h0l.36.65Zm-.65-.51a3.5,3.5,0,0,1,.6.42l-.26-.45a4.11,4.11,0,0,0-4.41,0l-.26.45a3.47,3.47,0,0,1,.6-.42,3.83,3.83,0,0,1,3.73,0Z"/><rect class="cls-98" x="338.34" y="116.72" width="0.03" height="0.75"/><rect class="cls-98" x="338.2" y="116.59" width="0.03" height="0.88"/><rect class="cls-98" x="337.73" y="116.72" width="0.03" height="0.75"/><rect class="cls-98" x="337.87" y="116.59" width="0.03" height="0.88"/><polygon class="cls-98" points="338.36 117.5 338.54 116.92 338.49 116.91 338.32 117.49 338.36 117.5"/><polygon class="cls-98" points="337.74 117.5 337.57 116.92 337.61 116.91 337.79 117.49 337.74 117.5"/><rect class="cls-99" x="334.43" y="172.81" width="3.06" height="18.26"/><rect class="cls-100" x="336.76" y="172.81" width="0.73" height="18.26"/><rect class="cls-101" x="334.93" y="177.64" width="2.06" height="0.38"/><rect class="cls-101" x="334.93" y="179.01" width="2.06" height="0.38"/><rect class="cls-101" x="334.93" y="186.57" width="2.06" height="3.84"/><rect class="cls-99" x="322.01" y="180.28" width="18.26" height="3.06" transform="translate(88.02 470.95) rotate(-78.71)"/><rect class="cls-100" x="323.15" y="181.67" width="18.26" height="0.73" transform="translate(88.76 472.29) rotate(-78.72)"/><rect class="cls-101" x="331.75" y="176.76" width="0.38" height="2.06" transform="translate(92.64 468.52) rotate(-78.72)"/><rect class="cls-101" x="331.48" y="178.1" width="0.38" height="2.06" transform="translate(91 469.25) rotate(-78.69)"/><rect class="cls-101" x="327.94" y="187.21" width="3.84" height="2.06" transform="translate(80.6 474.79) rotate(-78.69)"/><rect class="cls-99" x="337.79" y="172.81" width="3.06" height="18.26"/><rect class="cls-100" x="340.12" y="172.81" width="0.73" height="18.26"/><rect class="cls-101" x="338.3" y="177.64" width="2.06" height="0.38"/><rect class="cls-101" x="338.3" y="179.01" width="2.06" height="0.38"/><rect class="cls-101" x="338.3" y="186.57" width="2.06" height="3.84"/><rect class="cls-99" x="341.16" y="172.81" width="3.06" height="18.26"/><rect class="cls-100" x="343.49" y="172.81" width="0.73" height="18.26"/><rect class="cls-101" x="341.66" y="177.64" width="2.06" height="0.38"/><rect class="cls-101" x="341.66" y="179.01" width="2.06" height="0.38"/><rect class="cls-101" x="341.66" y="186.57" width="2.06" height="3.84"/><rect class="cls-99" x="344.53" y="172.81" width="3.06" height="18.26"/><rect class="cls-100" x="346.86" y="172.81" width="0.73" height="18.26"/><rect class="cls-101" x="345.03" y="177.64" width="2.06" height="0.38"/><rect class="cls-101" x="345.03" y="179.01" width="2.06" height="0.38"/><rect class="cls-101" x="345.03" y="186.57" width="2.06" height="3.84"/><rect class="cls-36" x="326.74" y="160.7" width="18.26" height="3.06" transform="translate(110.91 459.75) rotate(-78.69)"/><rect class="cls-102" x="327.88" y="162.09" width="18.26" height="0.73" transform="translate(111.63 461.08) rotate(-78.69)"/><rect class="cls-92" x="336.48" y="157.18" width="0.38" height="2.06" transform="translate(115.58 457.36) rotate(-78.7)"/><rect class="cls-92" x="336.21" y="158.52" width="0.38" height="2.06" transform="translate(114.17 458.27) rotate(-78.73)"/><rect class="cls-92" x="332.66" y="167.62" width="3.84" height="2.06" transform="translate(103.77 463.8) rotate(-78.72)"/><rect class="cls-36" x="322.66" y="160.7" width="18.26" height="3.06" transform="translate(81.11 433.46) rotate(-73.31)"/><rect class="cls-102" x="323.78" y="162.2" width="18.26" height="0.73" transform="translate(81.66 434.83) rotate(-73.33)"/><rect class="cls-92" x="332.78" y="157.27" width="0.38" height="2.06" transform="translate(85.65 431.72) rotate(-73.3)"/><rect class="cls-92" x="332.39" y="158.58" width="0.38" height="2.06" transform="translate(84.23 432.38) rotate(-73.32)"/><rect class="cls-92" x="327.99" y="167.47" width="3.84" height="2.06" transform="translate(73.78 436.14) rotate(-73.31)"/><rect class="cls-36" x="339.15" y="153.22" width="3.06" height="18.26"/><rect class="cls-102" x="341.48" y="153.22" width="0.73" height="18.26"/><rect class="cls-92" x="339.66" y="158.06" width="2.06" height="0.38"/><rect class="cls-92" x="339.66" y="159.43" width="2.06" height="0.38"/><rect class="cls-92" x="339.66" y="166.98" width="2.06" height="3.84"/><rect class="cls-36" x="342.52" y="153.22" width="3.06" height="18.26"/><rect class="cls-102" x="344.85" y="153.22" width="0.73" height="18.26"/><rect class="cls-92" x="343.02" y="158.06" width="2.06" height="0.38"/><rect class="cls-92" x="343.02" y="159.43" width="2.06" height="0.38"/><rect class="cls-92" x="343.02" y="166.98" width="2.06" height="3.84"/><rect class="cls-36" x="345.89" y="153.22" width="3.06" height="18.26"/><rect class="cls-102" x="348.22" y="153.22" width="0.73" height="18.26"/><rect class="cls-92" x="346.39" y="158.06" width="2.06" height="0.38"/><rect class="cls-92" x="346.39" y="159.43" width="2.06" height="0.38"/><rect class="cls-92" x="346.39" y="166.98" width="2.06" height="3.84"/><rect class="cls-33" x="326.4" y="193.11" width="23.62" height="0.88"/></g></g></svg>