<svg xmlns="http://www.w3.org/2000/svg" viewBox="0 0 331.18 145.59"><defs><style>.cls-1{isolation:isolate;}.cls-2,.cls-9{fill:#0ba399;}.cls-3{fill:#0fafa4;}.cls-4,.cls-6,.cls-7{fill:#3fbfb6;}.cls-10,.cls-12,.cls-15,.cls-16,.cls-19,.cls-32,.cls-34,.cls-4,.cls-7,.cls-9{opacity:0.5;}.cls-10,.cls-13,.cls-16,.cls-20,.cls-34,.cls-35,.cls-36,.cls-4{mix-blend-mode:multiply;}.cls-5{fill:#0b847b;}.cls-12,.cls-15,.cls-19,.cls-31,.cls-32,.cls-7,.cls-9{mix-blend-mode:screen;}.cls-8{fill:#463936;}.cls-10,.cls-35,.cls-37{fill:#c6c6c6;}.cls-11,.cls-12,.cls-13{fill:#ffb434;}.cls-13{opacity:0.25;}.cls-14,.cls-15,.cls-16{fill:#e8692e;}.cls-17{fill:#f3b029;}.cls-18{fill:#7d6b4b;}.cls-19{fill:#90bfb8;}.cls-20{fill:#dadada;}.cls-21{fill:#617032;}.cls-22{fill:#869e3e;}.cls-23{fill:#728735;}.cls-24{fill:#97ab5b;}.cls-25{fill:#756428;}.cls-26{fill:#677a30;}.cls-27{fill:#c75f2f;}.cls-28{fill:#101716;}.cls-29{fill:#0f1716;}.cls-30{fill:#4e5958;}.cls-31,.cls-32{fill:#50736c;}.cls-31{opacity:0.2;}.cls-33{fill:#29211f;}.cls-34{fill:#b89458;}.cls-38{fill:#ebcb57;}</style></defs><title>cardimg3</title><g class="cls-1"><g id="Layer_1" data-name="Layer 1"><path class="cls-2" d="M213.84,121.4H67.25a5.68,5.68,0,0,1-5.79-6.17L64.66,74.6A6.16,6.16,0,0,1,65,72.91a6.94,6.94,0,0,1,6.39-4.48s24.17.83,69.11.83c43.22,0,69.1-.83,69.1-.83A6.94,6.94,0,0,1,216.06,73a6.2,6.2,0,0,1,.35,1.62l3.21,40.63A5.68,5.68,0,0,1,213.84,121.4Z"/><path class="cls-3" d="M219.65,83.1c-9.22-.47-10.77,3.56-12.43,6.17s-6.4,15.65-6.4,15.65l-60.27-.45-60.27.45s-4.74-13-6.4-15.65-3.21-6.63-12.43-6.17S47.77,84.81,48.25,93.92,53,113.94,57,120.1,62.72,126,67.46,126H213.62c4.74,0,6.4.24,10.44-5.93s8.3-17.08,8.78-26.18S228.78,83.56,219.65,83.1Z"/><path class="cls-4" d="M210,115.85c-7.3,2.16-42.89,2.64-42.89,2.64a34.68,34.68,0,0,0,.6-7.53c-.25-3.89-.22-4-.41-5.58a6.5,6.5,0,0,0-.21-1.33c-1.08-1.64-5.8-4.2-5.8-4.2s20.59-.17,28.31-.07A160.9,160.9,0,0,1,209.75,101c4,.61,7.22,1.47,8.26,2.9C221.79,109.12,216.83,113.84,210,115.85Z"/><rect class="cls-5" x="110.22" y="103.56" width="58.55" height="14.11"/><path class="cls-4" d="M113.35,111a34.84,34.84,0,0,0,.61,7.53s-34.55-.62-42.89-2.64c-7.4-1.79-11.67-7.19-8-11.94,1-1.31,2.76-1.78,5.32-2.35,6.68-1.5,17.51-1.71,23.08-1.78,7.71-.09,27.49,0,27.49,0s-4.09,2.77-5,4.4a7.81,7.81,0,0,0-.16,1.24C113.57,106.92,113.6,107.07,113.35,111Z"/><path class="cls-4" d="M166.24,118.49H114.84a31.3,31.3,0,0,1-.86-7.78c.15-2.45.21-5.21.73-5.7l0,0c2.77-2.56,6-4.24,7.15-4.33,5-.35,11.44-.3,18.64-.41,7.2.11,13.65.06,18.64.41,1.17.08,4.3,1.73,7.06,4.24l.12.11c.52.49.59,3.25.73,5.7A31.27,31.27,0,0,1,166.24,118.49Z"/><path class="cls-6" d="M210,115c-7.3,2.16-42.89,2.64-42.89,2.64a34.68,34.68,0,0,0,.6-7.53c-.25-3.89-.22-4-.41-5.58a1.26,1.26,0,0,0-.21-.51c-1.08-1.64-5.8-4.2-5.8-4.2s20.59-1,28.31-.89a160.72,160.72,0,0,1,20.15,1.24c4,.61,7.22,1.47,8.26,2.9C221.79,108.3,216.83,113,210,115Z"/><path class="cls-6" d="M113.35,110.13a34.84,34.84,0,0,0,.61,7.53S79.41,117,71.06,115c-7.4-1.79-11.67-7.19-8-11.94,1-1.31,2.76-1.78,5.32-2.35,6.68-1.5,17.51-1.71,23.08-1.78,7.71-.09,28.31.89,28.31.89s-4.9,2.66-5.86,4.3a1.13,1.13,0,0,0-.16.41C113.57,106.09,113.6,106.24,113.35,110.13Z"/><path class="cls-6" d="M166.24,117.66H114.84a31.3,31.3,0,0,1-.86-7.78c.15-2.45.21-5.21.73-5.7l0,0c2.77-2.56,6-4.24,7.15-4.33,5-.35,11.44-.3,18.64-.41,7.2.11,13.65.06,18.64.41,1.17.08,4.3,1.73,7.06,4.24l.12.11c.52.49.59,3.25.73,5.7A31.27,31.27,0,0,1,166.24,117.66Z"/><path class="cls-7" d="M119.78,99.84s-4.9,2.66-5.86,4.3c-27-.74-40.28-2.5-45.53-3.41,6.68-1.5,17.51-1.71,23.08-1.78C99.18,98.85,119.78,99.84,119.78,99.84Z"/><path class="cls-7" d="M159.18,99.83c1.17.08,4.3,1.73,7.06,4.24-7.47.25-16,.4-25.7.4s-18.28-.12-25.79-.31c2.77-2.56,6-4.24,7.15-4.33,5-.35,11.44-.3,18.64-.41C147.74,99.53,154.19,99.48,159.18,99.83Z"/><path class="cls-7" d="M209.75,100.18c-6.38,1.23-19.31,3-42.65,3.86-1.08-1.64-5.8-4.2-5.8-4.2s20.59-1,28.31-.89A160.72,160.72,0,0,1,209.75,100.18Z"/><polygon class="cls-8" points="74.21 126.03 69.92 140.35 66 140.35 67.46 126.03 74.21 126.03"/><polygon class="cls-8" points="215.08 140.35 211.16 140.35 206.88 126.03 213.62 126.03 215.08 140.35"/><path class="cls-9" d="M216.06,73l-68.84.36c-45.62.23-77-.32-82.19-.42a6.94,6.94,0,0,1,6.39-4.48s24.17.83,69.11.83c43.22,0,69.1-.83,69.1-.83A6.94,6.94,0,0,1,216.06,73Z"/><path class="cls-10" d="M189.47,97.85c.09-1.16.23-2.66.25-5.78,0-2.85-.07-4.36-.15-5.48a19.41,19.41,0,0,1-.05-2.34.72.72,0,0,1,.76-.71s3.19.23,8.16.26c4.81,0,7.76-.12,8.12-.14h0a.73.73,0,0,1,.75.71c.19,2-.28,3.38-.31,7.82,0,3.34.08,5.83.15,7,0,.52,0,.8,0,.8a.69.69,0,0,1-.7.69h-.06s-.45,0-1.48-.09c-1.27-.06-3.42-.13-6.69-.16-5.9,0-8.16.13-8.16.13a.7.7,0,0,1-.75-.7A17,17,0,0,1,189.47,97.85Z"/><path class="cls-11" d="M188.58,98.95a.7.7,0,0,0,.75.7s2.26-.17,8.16-.13c3.27,0,5.42.1,6.69.16,1,0,1.48.09,1.48.09h.06a.69.69,0,0,0,.7-.69s0-.28,0-.8c-.07-1.2-.17-3.7-.15-7,0-4.44.5-5.8.31-7.82a.73.73,0,0,0-.75-.71h0c-.36,0-3.32.18-8.13.14-5,0-8.16-.26-8.16-.26a.72.72,0,0,0-.76.71,19.35,19.35,0,0,0,.05,2.34c.07,1.12.17,2.63.15,5.48,0,3.12-.17,4.63-.25,5.78A17.09,17.09,0,0,0,188.58,98.95Z"/><path class="cls-12" d="M203.28,90.44a12.33,12.33,0,0,1,2.46-7.73h0a.73.73,0,0,1,.75.71c.19,2-.28,3.38-.31,7.82,0,3.34.08,5.83.15,7,0,.52,0,.8,0,.8a.69.69,0,0,1-.7.69h0a9.64,9.64,0,0,1-1-1.79A21.48,21.48,0,0,1,203.28,90.44Z"/><path class="cls-13" d="M188.58,98.95a.7.7,0,0,0,.75.7s2.26-.17,8.16-.13c3.27,0,5.42.1,6.69.16,1,0,1.48.09,1.48.09h.06a9.64,9.64,0,0,1-1-1.79c-3.7-.65-11.19-1.75-16.12-1.08A17.09,17.09,0,0,0,188.58,98.95Z"/><path class="cls-10" d="M77.14,98.93c0-1.1,0-2.53-.13-5.47-.16-2.69-.35-4.1-.49-5.16a18.27,18.27,0,0,1-.2-2.21.68.68,0,0,1,.67-.71s3,0,7.72-.27c4.54-.27,7.31-.61,7.66-.65h0a.69.69,0,0,1,.76.63c.31,1.89,0,3.2.21,7.39.19,3.15.45,5.5.59,6.62.06.49.1.75.1.75a.65.65,0,0,1-.61.7h-.06s-.43,0-1.4,0c-1.2,0-3.23.09-6.32.28-5.57.34-7.69.65-7.69.65a.66.66,0,0,1-.75-.61A16.14,16.14,0,0,1,77.14,98.93Z"/><path class="cls-11" d="M76.37,100a.66.66,0,0,0,.75.61s2.13-.31,7.69-.65c3.09-.19,5.12-.25,6.32-.28,1,0,1.4,0,1.4,0h.06a.65.65,0,0,0,.61-.7s0-.26-.1-.75c-.14-1.13-.4-3.48-.59-6.62-.25-4.19.1-5.51-.21-7.39a.69.69,0,0,0-.76-.63h0c-.34,0-3.12.38-7.66.65-4.69.28-7.72.27-7.72.27a.68.68,0,0,0-.67.71,18.37,18.37,0,0,0,.2,2.21c.14,1.06.33,2.47.49,5.16.18,2.95.14,4.38.13,5.47A16.2,16.2,0,0,0,76.37,100Z"/><path class="cls-12" d="M89.7,91.06a11.66,11.66,0,0,1,1.83-7.45h0a.69.69,0,0,1,.76.63c.31,1.89,0,3.2.21,7.39.19,3.15.45,5.5.59,6.62.06.49.1.75.1.75a.65.65,0,0,1-.61.7h0a9.06,9.06,0,0,1-1-1.63A20.31,20.31,0,0,1,89.7,91.06Z"/><path class="cls-13" d="M76.37,100a.66.66,0,0,0,.75.61s2.13-.31,7.69-.65c3.09-.19,5.12-.25,6.32-.28,1,0,1.4,0,1.4,0h.06a9.06,9.06,0,0,1-1-1.63c-3.53-.38-10.66-.94-15.28,0A16.2,16.2,0,0,0,76.37,100Z"/><path class="cls-10" d="M93.34,97.48c.12-1.09.29-2.51.41-5.46.11-2.69.06-4.12,0-5.18a18.31,18.31,0,0,1,0-2.22.68.68,0,0,1,.74-.64s3,.31,7.71.49c4.54.17,7.34.11,7.68.11h0a.69.69,0,0,1,.69.7c.12,1.91-.36,3.18-.52,7.38-.12,3.15-.09,5.51-.06,6.65,0,.49,0,.76,0,.76a.65.65,0,0,1-.68.63h-.06s-.42-.05-1.39-.13c-1.2-.09-3.23-.23-6.32-.35-5.57-.21-7.72-.11-7.72-.11a.66.66,0,0,1-.69-.69A16.14,16.14,0,0,1,93.34,97.48Z"/><path class="cls-14" d="M92.46,98.49a.66.66,0,0,0,.69.68s2.15-.1,7.72.11c3.09.12,5.12.25,6.32.35,1,.08,1.39.13,1.39.13h.06a.65.65,0,0,0,.68-.63s0-.27,0-.76c0-1.14-.06-3.5.07-6.65.16-4.19.64-5.47.52-7.38a.69.69,0,0,0-.69-.7h0c-.34,0-3.14.07-7.68-.11-4.69-.18-7.71-.49-7.71-.49a.68.68,0,0,0-.74.64,18.31,18.31,0,0,0,0,2.22c0,1.06.08,2.49,0,5.18-.12,3-.29,4.37-.41,5.46A16.09,16.09,0,0,0,92.46,98.49Z"/><path class="cls-15" d="M106.61,90.88a11.66,11.66,0,0,1,2.55-7.23h0a.69.69,0,0,1,.69.7c.12,1.91-.36,3.18-.52,7.38-.12,3.15-.09,5.51-.07,6.65,0,.49,0,.76,0,.76a.65.65,0,0,1-.68.63h0a9.09,9.09,0,0,1-.86-1.72A20.32,20.32,0,0,1,106.61,90.88Z"/><path class="cls-16" d="M92.46,98.49a.66.66,0,0,0,.69.68s2.15-.1,7.72.11c3.09.12,5.12.25,6.32.35,1,.08,1.39.13,1.39.13h.06a9.09,9.09,0,0,1-.86-1.72c-3.48-.72-10.52-2-15.21-1.49A16.09,16.09,0,0,0,92.46,98.49Z"/><path class="cls-10" d="M175.6,97.74c.12-1.09.29-2.51.41-5.46.11-2.69.06-4.12,0-5.18a18.31,18.31,0,0,1,0-2.22.68.68,0,0,1,.74-.64s3,.31,7.71.49c4.54.17,7.34.11,7.68.11h0a.69.69,0,0,1,.69.7c.12,1.91-.36,3.18-.52,7.38-.12,3.15-.09,5.51-.06,6.65,0,.49,0,.76,0,.76a.65.65,0,0,1-.68.63h-.06s-.42-.05-1.39-.13c-1.2-.09-3.23-.23-6.32-.35-5.57-.21-7.72-.11-7.72-.11a.66.66,0,0,1-.69-.68A16.14,16.14,0,0,1,175.6,97.74Z"/><path class="cls-14" d="M174.73,98.75a.66.66,0,0,0,.69.68s2.15-.1,7.72.11c3.09.12,5.12.25,6.32.35,1,.08,1.39.13,1.39.13h.06a.65.65,0,0,0,.68-.63s0-.27,0-.76c0-1.14-.06-3.5.07-6.65.16-4.19.64-5.47.52-7.38a.69.69,0,0,0-.69-.7h0c-.34,0-3.14.07-7.68-.11-4.69-.18-7.71-.49-7.71-.49a.68.68,0,0,0-.74.64,18.31,18.31,0,0,0,0,2.22c0,1.06.08,2.49,0,5.18-.12,3-.29,4.37-.41,5.46A16.09,16.09,0,0,0,174.73,98.75Z"/><path class="cls-15" d="M188.87,91.14a11.66,11.66,0,0,1,2.55-7.23h0a.69.69,0,0,1,.69.7c.12,1.91-.36,3.18-.52,7.38-.12,3.15-.09,5.51-.07,6.65,0,.49,0,.76,0,.76a.65.65,0,0,1-.68.63h0A9.09,9.09,0,0,1,190,98.3,20.32,20.32,0,0,1,188.87,91.14Z"/><path class="cls-16" d="M174.73,98.75a.66.66,0,0,0,.69.68s2.15-.1,7.72.11c3.09.12,5.12.25,6.32.35,1,.08,1.39.13,1.39.13h.06A9.09,9.09,0,0,1,190,98.3c-3.48-.72-10.52-2-15.21-1.49A16.09,16.09,0,0,0,174.73,98.75Z"/><polygon class="cls-17" points="51.79 31.9 42.19 31.9 32.6 31.9 28.68 56.24 42.19 56.24 55.71 56.24 51.79 31.9"/><rect class="cls-18" x="41.32" y="56.24" width="1.75" height="79.65"/><circle class="cls-18" cx="42.19" cy="63.98" r="2.37"/><circle class="cls-18" cx="42.19" cy="115.99" r="2.37"/><path class="cls-18" d="M36.08,135.89H48.31a.69.69,0,0,1,.69.69v.92a.69.69,0,0,1-.69.69H36.08a.69.69,0,0,1-.69-.69v-.92A.7.7,0,0,1,36.08,135.89Z"/><ellipse class="cls-18" cx="42.19" cy="67.35" rx="2.7" ry="0.99"/><ellipse class="cls-18" cx="42.19" cy="60.53" rx="2.7" ry="0.99"/><ellipse class="cls-18" cx="42.19" cy="112.62" rx="2.7" ry="0.99"/><ellipse class="cls-18" cx="42.19" cy="119.36" rx="2.7" ry="0.99"/><polygon class="cls-19" points="38.09 56.24 33.09 56.24 34.75 31.9 38.09 31.9 38.09 56.24"/><path class="cls-20" d="M230.18,140.35c0,1.66-40.13,2.28-89.64,2.28S50.9,142,50.9,140.35s40.13-2.28,89.64-2.28S230.18,138.69,230.18,140.35Z"/><path class="cls-21" d="M252.46,74s-.59-11.71-.41-16.63,1.35-17.62,1.35-17.62.44,11.33.07,17.67S252.46,74,252.46,74Z"/><path class="cls-22" d="M272.49,82.52s-.3-.37-.82-.95a25.49,25.49,0,0,0-2.11-2.11,20,20,0,0,0-2.86-2.12A19.1,19.1,0,0,0,264,76a15.86,15.86,0,0,0-3.1-1,14,14,0,0,0-2-.23,14.56,14.56,0,0,0-2,0,15.51,15.51,0,0,0-3.35.69,10.8,10.8,0,0,0-1.36.53,9.37,9.37,0,0,1,1.13-.7,13.66,13.66,0,0,1,3.07-1.21,13.25,13.25,0,0,1,4.21-.42,11.84,11.84,0,0,1,2.1.32,10.81,10.81,0,0,1,1.82.62,14.25,14.25,0,0,1,3.2,2,18.15,18.15,0,0,1,2.6,2.63,23,23,0,0,1,1.62,2.28C272.29,82.16,272.49,82.52,272.49,82.52Z"/><path class="cls-22" d="M265.57,61.48s-.4.13-1,.39a14.34,14.34,0,0,0-2.26,1.22A17.59,17.59,0,0,0,259.89,65c-.74.69-1.37,1.4-1.86,1.94s-1.18,1.29-1.89,2.18A34.22,34.22,0,0,0,254.07,72c-.63,1-1.15,1.9-1.52,2.59S252,75.7,252,75.7s.09-.43.29-1.12a25.39,25.39,0,0,1,1-2.68,23.28,23.28,0,0,1,1.65-3.21A16,16,0,0,1,257,66a17.12,17.12,0,0,1,2.48-2.09,14.92,14.92,0,0,1,2.82-1.54,13,13,0,0,1,2.33-.71C265.21,61.52,265.57,61.48,265.57,61.48Z"/><path class="cls-23" d="M222.66,70.24a10.21,10.21,0,0,1,1.17-.3,14.55,14.55,0,0,1,2.92-.25,21.69,21.69,0,0,1,3.57.34,22.64,22.64,0,0,1,3,.75A28.88,28.88,0,0,1,236.45,72c1.17.55,2.42,1.2,3.54,1.85s2.14,1.28,2.86,1.76,1.16.79,1.16.79-1.76-.8-4-1.7c-1.14-.45-2.4-.93-3.64-1.38l-3.42-1.22c-1-.36-2.11-.75-3.25-1.08a24.84,24.84,0,0,0-3.33-.73,15,15,0,0,0-2.63-.16C223.06,70.18,222.66,70.24,222.66,70.24Z"/><path class="cls-23" d="M227.87,83.12s.13-.36.4-.91a10.7,10.7,0,0,1,1.32-2,11.24,11.24,0,0,1,2.2-2,11,11,0,0,1,2.32-1.25,13.3,13.3,0,0,1,2.7-.68,19.86,19.86,0,0,1,3.31-.21,22.46,22.46,0,0,1,2.75.22c.7.1,1.14.2,1.14.2s-.4,0-1,0-1.53.13-2.51.28a30.73,30.73,0,0,0-3.07.63c-1,.26-2,.57-2.77.84a16.23,16.23,0,0,0-2.51,1.06,12.17,12.17,0,0,0-2.26,1.55,11.48,11.48,0,0,0-1.48,1.55C228.05,82.84,227.88,83.12,227.87,83.12Z"/><path class="cls-23" d="M230.71,90.22s0-.41.09-1.08a15.41,15.41,0,0,1,.53-2.57,14.4,14.4,0,0,1,1.28-3,12.43,12.43,0,0,1,1.69-2.32,13.91,13.91,0,0,1,2.34-2,18.53,18.53,0,0,1,3.2-1.71,19.78,19.78,0,0,1,2.87-.95,12.49,12.49,0,0,1,1.24-.25s-.41.15-1,.44a24,24,0,0,0-2.43,1.29,25.07,25.07,0,0,0-2.79,2c-.89.72-1.69,1.48-2.35,2.13a18.21,18.21,0,0,0-2,2.27,16.32,16.32,0,0,0-1.54,2.6,17.23,17.23,0,0,0-.86,2.2C230.79,89.88,230.71,90.23,230.71,90.22Z"/><path class="cls-23" d="M242.27,94.33s-.12-.35-.27-.94a18.55,18.55,0,0,1-.41-2.33,26.26,26.26,0,0,1-.17-2.88,21.66,21.66,0,0,1,.12-2.52c.08-.68.24-1.62.47-2.64s.51-2.12.81-3.13c.58-2,1.18-3.67,1.19-3.67s-.18,1.55-.38,3.53l-.32,3.14c-.11,1.06-.22,2.08-.36,2.93s-.29,1.8-.41,2.76-.23,1.91-.28,2.76-.06,1.6,0,2.14S242.27,94.33,242.27,94.33Z"/><path class="cls-23" d="M222.51,68.94s.39-.35,1.08-.83a12.5,12.5,0,0,1,2.94-1.54,10.83,10.83,0,0,1,2-.51,10.64,10.64,0,0,1,2.09-.11,11,11,0,0,1,3.57.77,12.33,12.33,0,0,1,1.56.77,16.22,16.22,0,0,1,1.76,1.18,22.26,22.26,0,0,1,3.3,3.16,28,28,0,0,1,2.27,3c.53.82.81,1.36.81,1.37s-.33-.43-.92-1.1a33.83,33.83,0,0,0-2.44-2.49A28.39,28.39,0,0,0,237.13,70,22,22,0,0,0,233.65,68a12.18,12.18,0,0,0-3.58-1,10.47,10.47,0,0,0-1.92,0,11.09,11.09,0,0,0-1.81.29,13.31,13.31,0,0,0-2.77,1C222.89,68.7,222.51,68.94,222.51,68.94Z"/><path class="cls-23" d="M230.61,63.43s.39,0,1,.13a15,15,0,0,1,2.41.59,14.79,14.79,0,0,1,2.78,1.26A12.79,12.79,0,0,1,239,67a14.37,14.37,0,0,1,1.87,2.17,19.69,19.69,0,0,1,1.73,3,20.67,20.67,0,0,1,1,2.65c.22.7.31,1.15.31,1.15s-.17-.37-.49-1a26,26,0,0,0-1.38-2.21,29.12,29.12,0,0,0-2-2.54c-.71-.82-1.44-1.56-2.06-2.18a20.44,20.44,0,0,0-2.12-1.88,17,17,0,0,0-4.43-2.45C230.94,63.53,230.61,63.43,230.61,63.43Z"/><path class="cls-22" d="M245.54,47.67s-.41,2.39-.74,5.34c-.16,1.47-.31,3.08-.41,4.6s-.18,2.93-.25,4-.19,2.61-.27,4.29-.13,3.51-.11,5.2.09,3.26.18,4.39.18,1.84.19,1.84-.18-.61-.4-1.63-.49-2.45-.69-4.07-.36-3.43-.42-5.2a41.84,41.84,0,0,1,.11-4.91c.13-1.43.33-3,.6-4.6s.59-3.14.91-4.52C244.89,49.68,245.55,47.67,245.54,47.67Z"/><path class="cls-23" d="M250.78,61.23a6.59,6.59,0,0,0-.75.49,7.63,7.63,0,0,0-1.48,1.5,12,12,0,0,0-1.28,2.18c-.35.76-.62,1.49-.84,2s-.54,1.35-.85,2.23-.62,1.87-.86,2.8-.44,1.79-.57,2.43-.19,1-.19,1a22.54,22.54,0,0,1,0-3.32,21.4,21.4,0,0,1,.36-3,13.2,13.2,0,0,1,.82-2.73,13.83,13.83,0,0,1,1.33-2.37,10.15,10.15,0,0,1,1.83-2A7.22,7.22,0,0,1,250,61.5,6.09,6.09,0,0,1,250.78,61.23Z"/><path class="cls-22" d="M260.79,60.73s-.5.09-1.29.28a21.06,21.06,0,0,0-3,1,18.88,18.88,0,0,0-3.33,1.78,22.2,22.2,0,0,0-2.55,2,22.65,22.65,0,0,0-2.41,2.52,22,22,0,0,0-2.36,3.56,23.22,23.22,0,0,0-1.45,3.35A15.11,15.11,0,0,0,244,76.7a12.77,12.77,0,0,1,.16-1.4,20.2,20.2,0,0,1,.86-3.37,18.89,18.89,0,0,1,1.93-4,14.71,14.71,0,0,1,2.75-3.2A16,16,0,0,1,253,62.55a17.27,17.27,0,0,1,3.69-1.31,19.5,19.5,0,0,1,2.94-.45C260.35,60.73,260.79,60.73,260.79,60.73Z"/><path class="cls-23" d="M258.35,76.5l-.74-.5c-.46-.3-1.11-.7-1.84-1.08a15.2,15.2,0,0,0-2.33-1,12.51,12.51,0,0,0-2.07-.48,8.17,8.17,0,0,0-2.21-.07,6.75,6.75,0,0,0-1.32.29,7.3,7.3,0,0,0-1.28.57,8.89,8.89,0,0,0-1.92,1.47,7.06,7.06,0,0,0-.69.78,6,6,0,0,1,.44-.85,8.33,8.33,0,0,1,1.51-1.86,7.45,7.45,0,0,1,1.22-.91,6.77,6.77,0,0,1,1.48-.65,6.43,6.43,0,0,1,1.56-.27,6.11,6.11,0,0,1,1.42.1,9,9,0,0,1,2.59,1,13.19,13.19,0,0,1,2.19,1.52,18.14,18.14,0,0,1,1.46,1.38C258.16,76.27,258.35,76.5,258.35,76.5Z"/><path class="cls-23" d="M252.32,93a35.39,35.39,0,0,0-.49-3.53,27.75,27.75,0,0,0-.73-2.93c-.29-.94-.62-1.79-.88-2.44a21.36,21.36,0,0,0-1.13-2.5,13.59,13.59,0,0,0-1.93-2.72A11.31,11.31,0,0,0,245,77a6.81,6.81,0,0,0-1.07-.58,6,6,0,0,1,1.08.31,10.35,10.35,0,0,1,2.45,1.34A11.84,11.84,0,0,1,250,80.6a11.61,11.61,0,0,1,1.59,3,16.57,16.57,0,0,1,.74,3.06,21.65,21.65,0,0,1,.22,3.09c0,.95,0,1.77-.1,2.35S252.31,93,252.32,93Z"/><path class="cls-23" d="M231.34,60.44a8.08,8.08,0,0,1,1.11,0,8.49,8.49,0,0,1,2.67.55,9.51,9.51,0,0,1,1.51.73,11,11,0,0,1,1.39,1,12.14,12.14,0,0,1,2,2.15,16.17,16.17,0,0,1,1.54,2.7A26,26,0,0,1,242.87,71c.34,1.15.58,2.22.72,3s.21,1.28.21,1.28a39.35,39.35,0,0,0-1.53-3.71c-.47-1-1-2.11-1.63-3.14s-1.21-2-1.74-2.78A16.47,16.47,0,0,0,237,63.28a10.25,10.25,0,0,0-2.43-1.85,8.6,8.6,0,0,0-2.24-.83A8.91,8.91,0,0,0,231.34,60.44Z"/><path class="cls-23" d="M253.14,62.3s.16-3.09.74-6.85c.29-1.88.69-3.93,1.18-5.83a40.84,40.84,0,0,1,1.6-5,34.42,34.42,0,0,1,2.52-5,30.4,30.4,0,0,1,1.92-2.79,25.24,25.24,0,0,1,2.25-2.54,20.1,20.1,0,0,1,2.38-2A15.75,15.75,0,0,1,267.91,31a11.07,11.07,0,0,1,1.61-.65,4.93,4.93,0,0,1,.62-.16,8.57,8.57,0,0,0-1.91.91,15.49,15.49,0,0,0-1.87,1.35,20,20,0,0,0-2,2,25.65,25.65,0,0,0-2,2.49c-.62.89-1.21,1.84-1.74,2.79A55.55,55.55,0,0,0,258,45.16c-.7,1.64-1.4,3.52-2,5.43s-1.14,3.85-1.56,5.58-.73,3.27-.94,4.37S253.14,62.3,253.14,62.3Z"/><path class="cls-23" d="M252.19,59.69s-.24-2.26-.75-5c-.26-1.36-.59-2.83-.95-4.19s-.76-2.61-1.08-3.57a38.16,38.16,0,0,0-1.38-3.7,20.86,20.86,0,0,0-2.38-4.13,15.09,15.09,0,0,0-1.45-1.67,11.94,11.94,0,0,0-1.4-1.19,6.87,6.87,0,0,0-1.49-.85,6.34,6.34,0,0,1,1.47.56,11.2,11.2,0,0,1,1.49.9,13.92,13.92,0,0,1,1.66,1.4,18,18,0,0,1,3,4,20.92,20.92,0,0,1,1.84,4.28,32,32,0,0,1,.94,4.27c.23,1.49.37,3,.44,4.3C252.28,57.73,252.18,59.7,252.19,59.69Z"/><path class="cls-24" d="M252.29,67.85s0-2.53.23-5.63a45.76,45.76,0,0,1,.66-4.83,27.39,27.39,0,0,1,1.13-4.16,19.86,19.86,0,0,1,2.1-4.13,14.41,14.41,0,0,1,1.79-2.18,10.63,10.63,0,0,1,2.25-1.72,8.55,8.55,0,0,1,2.42-.93,7.86,7.86,0,0,1,2.11-.16,7.09,7.09,0,0,1,1.41.22,3.92,3.92,0,0,1,.5.16,6.11,6.11,0,0,0-1.72-.14,7.69,7.69,0,0,0-1.84.3,8,8,0,0,0-2.06.94,9.74,9.74,0,0,0-1.92,1.62,13.82,13.82,0,0,0-1.58,2.09,27.78,27.78,0,0,0-2.13,4.41,42.44,42.44,0,0,0-1.48,4.47c-.43,1.58-.79,3.18-1.06,4.61s-.48,2.7-.61,3.6S252.29,67.85,252.29,67.85Z"/><path class="cls-23" d="M252.41,74s0-.16,0-.44a11.73,11.73,0,0,1,0-1.2,12.5,12.5,0,0,1,.25-1.77,13.84,13.84,0,0,1,.63-2.11,15.76,15.76,0,0,1,1.05-2.2,17.76,17.76,0,0,1,1.39-2.05,18.22,18.22,0,0,1,3-3.06A16.8,16.8,0,0,1,260.47,60a14.5,14.5,0,0,1,2.3-1.13c.22-.08.44-.16.67-.22l.35-.09.37-.08a4.42,4.42,0,0,1,1.53,0,7.35,7.35,0,0,1,1.39.43,11.53,11.53,0,0,1,1.24.61,18.7,18.7,0,0,1,2.11,1.39c.62.47,1.16.92,1.6,1.31.88.78,1.39,1.32,1.39,1.32s-.51-.41-1.39-1c-.44-.3-1-.65-1.58-1a21.93,21.93,0,0,0-2-1.09,10.71,10.71,0,0,0-2.35-.81,4.59,4.59,0,0,0-1.2-.09,2.73,2.73,0,0,0-.55.09,6,6,0,0,0-.58.19A14,14,0,0,0,261.53,61c-.69.43-1.32.88-1.89,1.3a22.14,22.14,0,0,0-3.39,3.1,16.78,16.78,0,0,0-2.56,3.81,13.28,13.28,0,0,0-1.11,3.38A12.21,12.21,0,0,0,252.41,74Z"/><path class="cls-23" d="M252.37,69s0-.39.06-1a20.68,20.68,0,0,1,.36-2.48,16.82,16.82,0,0,1,.89-3,12.06,12.06,0,0,1,1.3-2.41A11.72,11.72,0,0,1,257,58a13.11,13.11,0,0,1,3-1.85,13.67,13.67,0,0,1,2.76-.9c.73-.15,1.19-.2,1.19-.2s-.39.13-1,.4a15.44,15.44,0,0,0-4.81,3.26,22.74,22.74,0,0,0-2,2.26,18.53,18.53,0,0,0-1.58,2.39A21.11,21.11,0,0,0,253.33,66c-.33.84-.56,1.6-.72,2.14S252.37,69,252.37,69Z"/><path class="cls-23" d="M268.9,69.9s-.3-.24-.82-.56A8.41,8.41,0,0,0,266,68.4a8.55,8.55,0,0,0-2.73-.29,14.6,14.6,0,0,0-2.37.34,21.69,21.69,0,0,0-2.52.67,23.83,23.83,0,0,0-3,1.23,19.53,19.53,0,0,0-3,2.43v-.28c.07-.69,1.42-2,2.31-2.65a17.84,17.84,0,0,1,2.83-1.77,11.34,11.34,0,0,1,3-1,10.23,10.23,0,0,1,3.06-.08,8.66,8.66,0,0,1,1.53.35,8,8,0,0,1,1.34.58,8.17,8.17,0,0,1,1.82,1.35C268.7,69.64,268.9,69.91,268.9,69.9Z"/><path class="cls-23" d="M270.92,77.64s-.33-.24-.88-.58a17.55,17.55,0,0,0-2.22-1.14,24.16,24.16,0,0,0-2.84-1c-.95-.28-1.85-.49-2.54-.66s-1.66-.43-2.73-.67-2.26-.46-3.37-.62-2.14-.27-2.89-.33-1.23-.07-1.23-.07.42-.08,1.11-.17,1.65-.18,2.74-.22a27.27,27.27,0,0,1,3.48.1,18,18,0,0,1,3.24.59,21.21,21.21,0,0,1,2.93,1.1,18.57,18.57,0,0,1,2.7,1.53A15.33,15.33,0,0,1,270.26,77C270.69,77.38,270.92,77.64,270.92,77.64Z"/><path class="cls-23" d="M238.75,43.81a8.47,8.47,0,0,1,1.31.24,9.71,9.71,0,0,1,1.37.48,11.3,11.3,0,0,1,1.58.85A15.34,15.34,0,0,1,246,48a18.87,18.87,0,0,1,2.1,2.76A25.1,25.1,0,0,1,249.78,54a40.44,40.44,0,0,1,1.48,4.15c.41,1.37.72,2.64.92,3.57s.29,1.52.29,1.52-.7-2-1.79-4.46c-.54-1.23-1.18-2.57-1.85-3.84s-1.34-2.48-1.92-3.48a27.81,27.81,0,0,0-2-3.12,15.57,15.57,0,0,0-2.57-2.67,10.41,10.41,0,0,0-2.45-1.48A9.07,9.07,0,0,0,238.75,43.81Z"/><path class="cls-23" d="M257.93,86.42s-.09-.25-.25-.64-.4-.92-.7-1.49-.63-1.17-1-1.73-.63-1.08-.85-1.5-.49-1-.79-1.67-.64-1.37-1-2c-.65-1.32-1.25-2.41-1.25-2.41a21.69,21.69,0,0,1,1.78,1.82,20.72,20.72,0,0,1,1.41,1.79,11.62,11.62,0,0,1,1.09,1.85,18.66,18.66,0,0,1,1.23,3.87A13,13,0,0,1,257.93,86.42Z"/><path class="cls-25" d="M250.64,95.15c-5-4.16-6.7-18.25-6.74-18.72l.12-.09c0,.11,2,13.16,6.62,17Z"/><path class="cls-25" d="M251.5,105.42l-.3-1.49h0a9.41,9.41,0,0,0,1.9-2.7,15.64,15.64,0,0,0,1.39-8.44C253.79,85,252,76,252,75.92l.74-1c-.14-.8,2,9.92,2.66,17.77C256.11,100.76,251.68,105.27,251.5,105.42Z"/><path class="cls-25" d="M252.19,71s-2.08,26.9-2.08,34.78a74.63,74.63,0,0,1-.5,9.25h2.59s-.71-6-.71-9.17c0-2.3,1.2-25.75,1.32-34.23Z"/><path class="cls-26" d="M235.94,89.1a19,19,0,0,1,0-2.9,15,15,0,0,1,.45-2.49,10.42,10.42,0,0,1,.8-2.1,10.17,10.17,0,0,1,1.39-2,11.33,11.33,0,0,1,2.18-1.88,10.16,10.16,0,0,1,2.13-1.08,6.08,6.08,0,0,1,1-.27,6.6,6.6,0,0,0-.76.45,11.5,11.5,0,0,0-1.65,1.35,14.36,14.36,0,0,0-1.69,2c-.51.72-.94,1.45-1.3,2.06a19.38,19.38,0,0,0-1.08,2.08,20.72,20.72,0,0,0-.83,2.22A25.65,25.65,0,0,0,235.94,89.1Z"/><path class="cls-24" d="M224.36,77.36s.31-.31.85-.78a22.41,22.41,0,0,1,2.21-1.71,17.36,17.36,0,0,1,3-1.65,12.31,12.31,0,0,1,2.95-.84,11.39,11.39,0,0,1,3.29,0,12,12,0,0,1,1.92.46,12.33,12.33,0,0,1,1.81.76,12.48,12.48,0,0,1,2.66,1.86,8.23,8.23,0,0,1,.93,1,8.69,8.69,0,0,0-1-.71,13.47,13.47,0,0,0-6.1-2.06,17.38,17.38,0,0,0-3.32.07,16.76,16.76,0,0,0-3.12.63,20.91,20.91,0,0,0-3,1.19c-.91.44-1.68.88-2.22,1.21S224.36,77.36,224.36,77.36Z"/><path class="cls-22" d="M264.5,51.48h-.38a8.82,8.82,0,0,0-1,0,7.68,7.68,0,0,0-1.49.29,7.11,7.11,0,0,0-1.65.75,8,8,0,0,0-1.53,1.24,10.79,10.79,0,0,0-1.25,1.57,20.2,20.2,0,0,0-1.63,3.12A36.71,36.71,0,0,0,254.18,62,46,46,0,0,0,253,66.55c-.32,1.49-.54,2.89-.68,3.91s-.19,1.66-.19,1.66a38.45,38.45,0,0,1,.05-5.25,34.34,34.34,0,0,1,.66-4.69,20.56,20.56,0,0,1,1.39-4.29,15.27,15.27,0,0,1,2.32-3.63,10.14,10.14,0,0,1,1.64-1.51,8,8,0,0,1,1.84-1,7.32,7.32,0,0,1,1.77-.43,7.77,7.77,0,0,1,1.43,0,8.78,8.78,0,0,1,.93.11Z"/><path class="cls-26" d="M246.95,59.88a4,4,0,0,1,.63.38,7.66,7.66,0,0,1,1.3,1.24A14,14,0,0,1,251,65a15.68,15.68,0,0,1,.59,1.92c.19.76.36,1.59.49,2.37a10.13,10.13,0,0,1,0,3.13,8.42,8.42,0,0,0-.65-2.71c-.3-.68-.63-1.43-.93-2.15s-.6-1.43-.8-2a29.2,29.2,0,0,0-1.48-3.82,7.83,7.83,0,0,0-.83-1.33A4.32,4.32,0,0,0,246.95,59.88Z"/><rect class="cls-14" x="240.48" y="115" width="20.33" height="16.71"/><rect class="cls-27" x="240.21" y="115" width="20.86" height="4.99"/><rect class="cls-19" x="243.25" y="115" width="4.02" height="16.73"/><polygon class="cls-28" points="334.42 107.01 325.8 107.01 326.62 102.56 333.6 102.56 334.42 107.01"/><rect class="cls-29" x="291.4" y="56.82" width="77.42" height="47.2" rx="1.08" ry="1.08"/><rect class="cls-30" x="294.13" y="59.76" width="71.84" height="40.52"/><rect class="cls-28" x="316.42" y="107.01" width="27.37" height="2.38"/><polygon class="cls-31" points="340.46 59.76 299.94 100.28 294.13 100.28 294.13 62.07 296.44 59.76 340.46 59.76"/><polygon class="cls-31" points="365.97 65.73 365.97 100.28 331.13 100.28 365.97 65.73"/><path class="cls-32" d="M368.72,57.91v.15H291.3v-.15a1.08,1.08,0,0,1,1.08-1.08h75.26A1.08,1.08,0,0,1,368.72,57.91Z"/><rect class="cls-18" x="266" y="109.39" width="129.03" height="4.3"/><rect class="cls-3" x="330.68" y="113.68" width="63.81" height="14.05"/><rect class="cls-3" x="266.86" y="113.68" width="63.81" height="14.05"/><rect class="cls-33" x="266.86" y="127.74" width="9.27" height="4.1"/><rect class="cls-34" x="330.09" y="113.68" width="1.17" height="14.06"/><rect class="cls-35" x="266.86" y="113.68" width="127.63" height="0.89"/><rect class="cls-35" x="266.86" y="127.74" width="9.27" height="2.04"/><rect class="cls-18" x="266.86" y="126.25" width="127.62" height="1.51"/><g class="cls-36"><circle class="cls-37" cx="282.45" cy="119.41" r="1.73"/><circle class="cls-37" cx="315.09" cy="119.41" r="1.73"/></g><circle class="cls-38" cx="282.45" cy="118.98" r="1.73"/><circle class="cls-38" cx="315.09" cy="118.98" r="1.73"/></g></g></svg>