<svg id="Layer_1" data-name="Layer 1" xmlns="http://www.w3.org/2000/svg" viewBox="0 0 142.27 142.27"><defs><style>.cls-1{fill:#f04844;}.cls-2{fill:#fff;}</style></defs><title>logo</title><rect class="cls-1" width="142.27" height="142.27"/><path class="cls-2" d="M117.15,40.8a17.53,17.53,0,0,0-2.81-3.15h0c-.45-.39-.91-.73-1.36-1.05-.21-.14-.39-.29-.6-.41l-.77-.47a17.88,17.88,0,0,0-4-1.68.24.24,0,0,1-.13,0c-.46-.12-.95-.21-1.43-.3l-.5-.07a12,12,0,0,0-1.29-.15c-.39,0-.81,0-1.23,0-.21,0-.43,0-.64,0A17,17,0,0,0,91.58,38l-.48.45a1.07,1.07,0,0,0-.14.14,18.34,18.34,0,0,0-3.25,4,15.15,15.15,0,0,0-.87,1.73c-.09.18-.2.36-.29.55h0S81,58.51,75.89,64.49A32.19,32.19,0,0,1,52.72,75.78h-.24a29.16,29.16,0,0,1-13.78-2.45c-.57-.25-1.14-.52-1.75-.82l-.15-.09c-.57-.29-1.15-.59-1.72-.93a7.11,7.11,0,0,1-.6-.39c-.43-.27-.88-.52-1.3-.84-.65-.43-1.31-.91-2-1.41a2.74,2.74,0,0,0-.37-.32c-.53-.45-1.05-.91-1.59-1.41-.18-.16-.36-.32-.52-.48a19,19,0,0,1-3.43-4.74,38.27,38.27,0,0,0-1,10.15,37.8,37.8,0,0,0,74.13,8.76c.13-.45.23-.87.34-1.3a58.56,58.56,0,0,0,1.29-6.08c.21-1.38.27-2.19.27-2.19.09-.65.19-1.24.28-1.86.06-.42.13-.79.18-1.18s.11-.57.16-.87c4.76-27.84,15.44-26.4,16.35-26.22h0l.06,0-.27-.32" transform="translate(0.27 0.27)"/></svg>