<svg id="Layer_1" data-name="Layer 1" xmlns="http://www.w3.org/2000/svg" xmlns:xlink="http://www.w3.org/1999/xlink" viewBox="0 0 137.67 137.67"><defs><style>.cls-1{fill:#fff;}.cls-2{fill:#9b9b9b;}.cls-3{fill:#dc3627;}.cls-4{mask:url(#mask);}.cls-5{fill:#f05555;}.cls-6{mask:url(#mask-2);}.cls-7{fill:#f05763;}</style><mask id="mask" x="0" y="0" width="137.67" height="137.67" maskUnits="userSpaceOnUse"><g transform="translate(-2.03 -2.03)"><g id="qP"><path id="qO" class="cls-1" d="M139.7,139.7H2V2H139.7Z"/></g></g></mask><mask id="mask-2" x="0" y="0" width="137.67" height="137.67" maskUnits="userSpaceOnUse"><g transform="translate(-2.03 -2.03)"><g id="qR"><path id="qQ" class="cls-1" d="M2,139.7H139.7V2H2Z"/></g></g></mask></defs><title>mumbai</title><path class="cls-1" d="M139.7,70.87A68.83,68.83,0,1,1,70.86,2,68.83,68.83,0,0,1,139.7,70.87Z" transform="translate(-2.03 -2.03)"/><path class="cls-2" d="M56,82.79a.71.71,0,0,1-.71-.7V73.45a.71.71,0,0,1,1.41,0v8.63a.7.7,0,0,1-.7.7h0m3.76,0a.71.71,0,0,1-.71-.7V73.45a.71.71,0,0,1,1.41,0v8.63a.7.7,0,0,1-.7.7h0m3.76,0a.7.7,0,0,1-.7-.7h0V73.45a.7.7,0,0,1,1.41,0h0v8.63a.7.7,0,0,1-.7.7h0m3.76,0a.7.7,0,0,1-.7-.7h0V73.45a.71.71,0,0,1,1.41,0v8.63a.71.71,0,0,1-.71.7m3.76,0a.7.7,0,0,1-.7-.7h0V73.45a.71.71,0,0,1,1.41,0v8.63a.71.71,0,0,1-.71.7m3.76,0a.71.71,0,0,1-.71-.7V73.45a.71.71,0,0,1,1.41,0v8.63a.7.7,0,0,1-.7.7h0m3.76,0a.71.71,0,0,1-.71-.7V73.45a.71.71,0,0,1,1.41,0v8.63a.7.7,0,0,1-.7.7h0m3.76,0a.7.7,0,0,1-.7-.7h0V73.45a.71.71,0,0,1,1.41,0v8.63a.71.71,0,0,1-.71.7m3.76,0a.7.7,0,0,1-.7-.7h0V73.45a.71.71,0,0,1,1.41,0v8.63a.71.71,0,0,1-.71.7" transform="translate(-2.03 -2.03)"/><path class="cls-3" d="M91.82,53.75H85.37a.71.71,0,0,1,0-1.41h6.46a.71.71,0,1,1,0,1.41" transform="translate(-2.03 -2.03)"/><path class="cls-2" d="M52.31,16.44H31A.71.71,0,0,1,30.9,15H52.31a.71.71,0,1,1,0,1.41m47.43-1.62H90.61a.71.71,0,1,1,0-1.41h9.12a.71.71,0,1,1,0,1.41m33.4,29.92h-8.46a.71.71,0,0,1-.09-1.41h8.55a.71.71,0,0,1,.09,1.41h-.09M10.75,49.2H7a.71.71,0,0,1,0-1.41h3.78a.71.71,0,0,1,0,1.41M61.57,34.43H56.69A.71.71,0,1,1,56.6,33h5a.71.71,0,0,1,.09,1.41h-.09M22.19,42.32H17.31a.7.7,0,0,1,0-1.41h4.88a.7.7,0,1,1,0,1.41h0m4.71,0H25.85a.7.7,0,0,1,0-1.41h1.05a.7.7,0,1,1,0,1.41h0M99.24,25.11H96.73a.71.71,0,0,1-.12-1.41h2.63a.7.7,0,1,1,0,1.41h0M78.55,18.93a3.45,3.45,0,0,0-3.23,2.19l-.17.42-.45,0a3.19,3.19,0,0,0-3,3.15v.56l-.54.12a2.27,2.27,0,0,0,.51,4.48H84.35a3.3,3.3,0,0,0,.18-6.59l-.9,0,.26-.86a.77.77,0,0,0-1.1-.89l-.7.39-.29-.75a3.45,3.45,0,0,0-3.23-2.2m5.8,12.36H71.7a3.69,3.69,0,0,1-1.34-7.11,4.63,4.63,0,0,1,3.82-4,4.88,4.88,0,0,1,8.62-.2,2.18,2.18,0,0,1,2.49,1.81q0,.08,0,.15a4.71,4.71,0,0,1-1,9.32" transform="translate(-2.03 -2.03)"/><g class="cls-4"><path class="cls-5" d="M116.12,19a2.79,2.79,0,0,1-1,.66,67.52,67.52,0,1,1-12.07-8.37,3.23,3.23,0,0,1,.57-1,69.08,69.08,0,1,0,12.46,8.69" transform="translate(-2.03 -2.03)"/></g><path class="cls-2" d="M89.09,136.78a.71.71,0,0,1-.71-.71V87.4a.71.71,0,1,1,1.41,0v48.67a.7.7,0,0,1-.7.71h0m12.73-5a.7.7,0,0,1-.7-.7h0V87.2a.71.71,0,0,1,1.41,0v43.87a.7.7,0,0,1-.7.7h0" transform="translate(-2.03 -2.03)"/><path class="cls-2" d="M103.72,87.91H38.27a.71.71,0,1,1-.09-1.41h65.54a.71.71,0,1,1,0,1.41m0-5.12H38.27a.71.71,0,1,1-.09-1.41h65.54a.71.71,0,1,1,0,1.41m-8.45,42.74a.7.7,0,0,1-.7-.7h0V100.33a.71.71,0,0,1,1.41,0v24.49a.7.7,0,0,1-.7.7h0" transform="translate(-2.03 -2.03)"/><path class="cls-3" d="M88.25,73.74H53.58a.7.7,0,1,1,0-1.41H88.25a.7.7,0,0,1,0,1.41h0M40,74.16H3.51a.71.71,0,0,1,0-1.41H40a.71.71,0,1,1,0,1.41" transform="translate(-2.03 -2.03)"/><path class="cls-2" d="M38.27,85.89h-33a.7.7,0,1,1,0-1.41h33a.7.7,0,1,1,0,1.41h0m99.13,0H103.8a.7.7,0,0,1,0-1.41H137.4a.7.7,0,0,1,0,1.41h0M101,82.79a.71.71,0,0,1-.71-.7V76.13a.71.71,0,1,1,1.41,0v5.95a.7.7,0,0,1-.7.7h0" transform="translate(-2.03 -2.03)"/><path class="cls-3" d="M138.62,74.16H102a.71.71,0,0,1,0-1.41h36.61a.71.71,0,0,1,.09,1.41h-.09" transform="translate(-2.03 -2.03)"/><path class="cls-2" d="M101.82,62.56H39.94a.71.71,0,1,1,0-1.41h61.88a.71.71,0,0,1,.09,1.41h-.09" transform="translate(-2.03 -2.03)"/><path class="cls-3" d="M88.47,59.23H53.62a.71.71,0,0,1,0-1.41H88.47a.71.71,0,1,1,.09,1.41h-.09" transform="translate(-2.03 -2.03)"/><path class="cls-2" d="M99.08,56.61a.71.71,0,0,1-.7-.71V49.36a.71.71,0,0,1,1.41,0V55.9a.71.71,0,0,1-.71.71m-7.26,0a.7.7,0,0,1-.7-.7h0V49.36a.7.7,0,0,1,1.41,0V55.9a.7.7,0,0,1-.7.71h0" transform="translate(-2.03 -2.03)"/><g class="cls-6"><path class="cls-2" d="M91,48.65h9.3V46.13H91Zm-1.41,1.41h12.12V44.72H89.57Z" transform="translate(-2.03 -2.03)"/></g><g class="cls-6"><path class="cls-2" d="M93.26,60.15h4.18V57.81H93.26Z" transform="translate(-2.03 -2.03)"/></g><g class="cls-6"><path class="cls-2" d="M93.26,68h4.18V65.63H93.26Z" transform="translate(-2.03 -2.03)"/></g><g class="cls-6"><path class="cls-2" d="M93.26,80.14h4.18V77.8H93.26Z" transform="translate(-2.03 -2.03)"/></g><g class="cls-6"><path class="cls-3" d="M56.3,53.75h-6a.71.71,0,1,1,0-1.41h6a.71.71,0,1,1,0,1.41" transform="translate(-2.03 -2.03)"/></g><g class="cls-6"><path class="cls-3" d="M65.17,53.75H60.23a.71.71,0,1,1,0-1.41h4.94a.71.71,0,1,1,0,1.41" transform="translate(-2.03 -2.03)"/></g><g class="cls-6"><path class="cls-3" d="M73.56,53.75H68.8a.71.71,0,0,1-.09-1.41h4.85a.71.71,0,1,1,0,1.41" transform="translate(-2.03 -2.03)"/></g><g class="cls-6"><path class="cls-3" d="M82.13,53.75h-4.7a.71.71,0,0,1,0-1.41h4.7a.71.71,0,1,1,0,1.41h0" transform="translate(-2.03 -2.03)"/></g><g class="cls-6"><path class="cls-3" d="M85.37,56.85a.7.7,0,0,1-.7-.7h0V53a.71.71,0,1,1,1.41,0v3.09a.71.71,0,0,1-.71.7" transform="translate(-2.03 -2.03)"/></g><g class="cls-6"><path class="cls-3" d="M82.13,56.85a.71.71,0,0,1-.71-.7V53a.71.71,0,1,1,1.41,0v3.09a.7.7,0,0,1-.7.7h0" transform="translate(-2.03 -2.03)"/></g><g class="cls-6"><path class="cls-3" d="M85.37,56.85H82.12a.71.71,0,0,1,0-1.41h3.24a.71.71,0,0,1,.09,1.41h-.09" transform="translate(-2.03 -2.03)"/></g><g class="cls-6"><path class="cls-3" d="M77.42,56.85a.7.7,0,0,1-.7-.7h0V53a.71.71,0,1,1,1.41,0v3.09a.71.71,0,0,1-.71.7" transform="translate(-2.03 -2.03)"/></g><g class="cls-6"><path class="cls-3" d="M73.56,56.85a.71.71,0,0,1-.71-.7V53a.71.71,0,0,1,1.41,0v3.09a.7.7,0,0,1-.7.7h0" transform="translate(-2.03 -2.03)"/></g><g class="cls-6"><path class="cls-3" d="M77.42,56.85H73.55a.71.71,0,1,1,0-1.41h3.87a.71.71,0,1,1,.09,1.41h-.09" transform="translate(-2.03 -2.03)"/></g><g class="cls-6"><path class="cls-3" d="M68.8,57.08a.71.71,0,0,1-.71-.71V53a.71.71,0,0,1,1.41,0v3.33a.7.7,0,0,1-.7.71h0" transform="translate(-2.03 -2.03)"/></g><g class="cls-6"><path class="cls-3" d="M65.17,57.08a.71.71,0,0,1-.71-.71V53a.71.71,0,0,1,1.41,0v3.33a.71.71,0,0,1-.7.71" transform="translate(-2.03 -2.03)"/></g><g class="cls-6"><path class="cls-3" d="M68.8,57.08H65.17a.71.71,0,0,1-.09-1.41H68.8a.71.71,0,1,1,0,1.41" transform="translate(-2.03 -2.03)"/></g><g class="cls-6"><path class="cls-3" d="M60.23,57.08a.7.7,0,0,1-.7-.7h0V53a.7.7,0,0,1,1.41,0h0v3.33a.7.7,0,0,1-.7.71h0" transform="translate(-2.03 -2.03)"/></g><g class="cls-6"><path class="cls-3" d="M56.3,56.85a.71.71,0,0,1-.71-.7V53A.71.71,0,1,1,57,53v3.09a.7.7,0,0,1-.7.7h0" transform="translate(-2.03 -2.03)"/></g><g class="cls-6"><path class="cls-3" d="M60.23,57.08H56.3a.71.71,0,1,1,0-1.41h3.93a.71.71,0,1,1,0,1.41" transform="translate(-2.03 -2.03)"/></g><g class="cls-6"><path class="cls-2" d="M101.82,56.61H88.6a.71.71,0,1,1-.09-1.41h13.31a.71.71,0,0,1,.09,1.41h-.09" transform="translate(-2.03 -2.03)"/></g><g class="cls-6"><path class="cls-2" d="M101.82,62.56a.7.7,0,0,1-.7-.7h0V55.9a.71.71,0,0,1,1.41,0v5.95a.71.71,0,0,1-.71.71" transform="translate(-2.03 -2.03)"/></g><g class="cls-6"><path class="cls-2" d="M88.6,62.56a.71.71,0,0,1-.71-.71V55.9a.71.71,0,0,1,1.41,0v5.95a.71.71,0,0,1-.7.71" transform="translate(-2.03 -2.03)"/></g><g class="cls-6"><path class="cls-2" d="M90.28,71.48a.7.7,0,0,1-.7-.7h0V61.85a.7.7,0,0,1,1.41,0v8.93a.7.7,0,0,1-.7.7h0" transform="translate(-2.03 -2.03)"/></g><g class="cls-6"><path class="cls-2" d="M89,75.42h12.15V71.48H89Zm-1.41,1.41h15V70.07h-15Z" transform="translate(-2.03 -2.03)"/></g><g class="cls-6"><path class="cls-2" d="M90.28,82.79a.7.7,0,0,1-.7-.7h0V76.13a.7.7,0,0,1,1.41,0v5.95a.7.7,0,0,1-.7.7h0" transform="translate(-2.03 -2.03)"/></g><g class="cls-6"><path class="cls-2" d="M54.61,87.91a.71.71,0,0,1-.71-.71V82.08a.71.71,0,1,1,1.41,0V87.2a.7.7,0,0,1-.7.71h0" transform="translate(-2.03 -2.03)"/></g><g class="cls-6"><path class="cls-2" d="M87.81,87.91a.7.7,0,0,1-.7-.7h0V82.08a.71.71,0,1,1,1.41,0V87.2a.71.71,0,0,1-.71.71" transform="translate(-2.03 -2.03)"/></g><g class="cls-6"><path class="cls-2" d="M40.65,131.85a.7.7,0,0,1-.7-.7h0V87.67a.71.71,0,1,1,1.41,0v43.48a.71.71,0,0,1-.71.7" transform="translate(-2.03 -2.03)"/></g><g class="cls-6"><path class="cls-2" d="M53.15,136.78a.71.71,0,0,1-.7-.71V87.67a.71.71,0,0,1,1.41,0v48.4a.71.71,0,0,1-.71.71" transform="translate(-2.03 -2.03)"/></g><g class="cls-6"><path class="cls-2" d="M46.48,125.52a.7.7,0,0,1-.7-.7h0V100.33a.7.7,0,1,1,1.41,0v24.49a.7.7,0,0,1-.7.7h0" transform="translate(-2.03 -2.03)"/></g><g class="cls-6"><path class="cls-2" d="M51.6,71.48a.71.71,0,0,1-.71-.7V61.85a.71.71,0,0,1,1.41,0v8.93a.7.7,0,0,1-.7.7h0" transform="translate(-2.03 -2.03)"/></g><g class="cls-6"><path class="cls-2" d="M41.61,71.48a.7.7,0,0,1-.7-.7h0V61.85a.7.7,0,1,1,1.41,0v8.93a.7.7,0,0,1-.7.7h0" transform="translate(-2.03 -2.03)"/></g><g class="cls-6"><path class="cls-2" d="M51.6,82.79a.71.71,0,0,1-.71-.7V76.13a.71.71,0,1,1,1.41,0v5.95a.7.7,0,0,1-.7.7h0" transform="translate(-2.03 -2.03)"/></g><g class="cls-6"><path class="cls-2" d="M42.56,56.61a.71.71,0,0,1-.71-.71V49.36a.71.71,0,0,1,1.41,0V55.9a.7.7,0,0,1-.7.71h0" transform="translate(-2.03 -2.03)"/></g><g class="cls-6"><path class="cls-2" d="M41.36,48.65H50.9V46.13H41.36Zm-1.41,1.41H52.31V44.72H39.95Z" transform="translate(-2.03 -2.03)"/></g><g class="cls-6"><path class="cls-2" d="M44.71,60.15h4.18V57.81H44.71Z" transform="translate(-2.03 -2.03)"/></g><g class="cls-6"><path class="cls-2" d="M44.71,68h4.18V65.63H44.71Z" transform="translate(-2.03 -2.03)"/></g><g class="cls-6"><path class="cls-2" d="M6.77,80.27h4.18V77.94H6.77Z" transform="translate(-2.03 -2.03)"/></g><g class="cls-6"><path class="cls-2" d="M14.45,80.27h4.18V77.94H14.45Z" transform="translate(-2.03 -2.03)"/></g><g class="cls-6"><path class="cls-2" d="M22.12,80.27H26.3V77.94H22.12Z" transform="translate(-2.03 -2.03)"/></g><g class="cls-6"><path class="cls-2" d="M29.8,80.27H34V77.94H29.8Z" transform="translate(-2.03 -2.03)"/></g><g class="cls-6"><path class="cls-2" d="M107.61,80.27h4.18V77.94h-4.18Z" transform="translate(-2.03 -2.03)"/></g><g class="cls-6"><path class="cls-2" d="M115.28,80.27h4.18V77.94h-4.18Z" transform="translate(-2.03 -2.03)"/></g><g class="cls-6"><path class="cls-2" d="M123,80.27h4.18V77.94H123Z" transform="translate(-2.03 -2.03)"/></g><g class="cls-6"><path class="cls-2" d="M130.64,80.27h4.18V77.94h-4.18Z" transform="translate(-2.03 -2.03)"/></g><g class="cls-6"><path class="cls-2" d="M44.71,80.14h4.18V77.8H44.71Z" transform="translate(-2.03 -2.03)"/></g><g class="cls-6"><path class="cls-2" d="M39.94,62.56a.7.7,0,0,1-.7-.7h0V55.9a.7.7,0,1,1,1.41,0v5.95a.7.7,0,0,1-.7.71h0" transform="translate(-2.03 -2.03)"/></g><g class="cls-6"><path class="cls-2" d="M53.62,62.56a.7.7,0,0,1-.7-.7h0V55.9a.71.71,0,0,1,1.41,0v5.95a.71.71,0,0,1-.71.71" transform="translate(-2.03 -2.03)"/></g><g class="cls-6"><path class="cls-2" d="M53.62,56.61H39.94a.71.71,0,1,1,0-1.41H53.62a.71.71,0,1,1,.09,1.41h-.09" transform="translate(-2.03 -2.03)"/></g><g class="cls-6"><path class="cls-2" d="M41.61,82.79a.7.7,0,0,1-.7-.7h0V76.13a.7.7,0,1,1,1.41,0v5.95a.7.7,0,0,1-.7.7h0" transform="translate(-2.03 -2.03)"/></g><g class="cls-6"><path class="cls-2" d="M40.72,75.42H52.87V71.48H40.72Zm-1.41,1.41h15V70.07h-15Z" transform="translate(-2.03 -2.03)"/></g><g class="cls-6"><path class="cls-2" d="M49.93,45.84a.7.7,0,0,1-.7-.7h0c0-3.43-1.42-5.91-2.71-6.07a1.45,1.45,0,0,0-1.13.44c-1.13,1-1.87,3.2-1.89,5.63a.7.7,0,0,1-.7.7h0a.7.7,0,0,1-.7-.7h0c0-2.86.93-5.42,2.36-6.68a2.83,2.83,0,0,1,2.24-.78c2.23.27,3.93,3.48,4,7.46a.7.7,0,0,1-.7.71h0Z" transform="translate(-2.03 -2.03)"/></g><g class="cls-6"><path class="cls-2" d="M47.72,39.06a.7.7,0,0,1-.7-.7c0-1.22-.5-1.86-.65-1.88s-.65.66-.66,1.89a.72.72,0,0,1-.71.7.71.71,0,0,1-.7-.71,4,4,0,0,1,1-2.87,1.5,1.5,0,0,1,1.19-.4c1.08.13,1.88,1.51,1.89,3.28a.7.7,0,0,1-.7.71h0Z" transform="translate(-2.03 -2.03)"/></g><g class="cls-6"><path class="cls-2" d="M99.21,45.89a.71.71,0,0,1-.71-.7c0-3.14-1.41-5.4-2.7-5.55a1.61,1.61,0,0,0-1.25.48,7.14,7.14,0,0,0-1.77,5.07.7.7,0,0,1-.7.7h0a.71.71,0,0,1-.7-.71,8.45,8.45,0,0,1,2.25-6.12A3,3,0,0,1,96,38.23c2.24.25,3.94,3.24,4,6.94a.7.7,0,0,1-.7.71h0Z" transform="translate(-2.03 -2.03)"/></g><g class="cls-6"><path class="cls-2" d="M97,39.63a.71.71,0,0,1-.71-.7c0-1-.46-1.67-.64-1.69a.26.26,0,0,0-.14.08A2.28,2.28,0,0,0,95,38.93a.71.71,0,0,1-.7.7h0a.71.71,0,0,1-.7-.71,3.62,3.62,0,0,1,1-2.65,1.59,1.59,0,0,1,1.23-.42c1.09.12,1.89,1.42,1.9,3.08a.71.71,0,0,1-.7.71Z" transform="translate(-2.03 -2.03)"/></g><g class="cls-6"><path class="cls-2" d="M50.29,56.61a.7.7,0,0,1-.7-.7h0V49.36a.7.7,0,1,1,1.41,0h0V55.9a.7.7,0,0,1-.7.71h0" transform="translate(-2.03 -2.03)"/></g><g class="cls-6"><path class="cls-2" d="M100.27,71.48a.71.71,0,0,1-.71-.7V61.85a.71.71,0,0,1,1.41,0v8.93a.7.7,0,0,1-.7.7h0" transform="translate(-2.03 -2.03)"/></g><g class="cls-6"><path class="cls-3" d="M59.78,71.48a.7.7,0,0,1-.7-.7h0V63.92a.71.71,0,1,1,1.41,0v6.86a.71.71,0,0,1-.71.7" transform="translate(-2.03 -2.03)"/></g><g class="cls-6"><path class="cls-3" d="M65.14,71.48a.71.71,0,0,1-.71-.7V63.92a.71.71,0,1,1,1.41,0v6.86a.7.7,0,0,1-.7.7h0" transform="translate(-2.03 -2.03)"/></g><g class="cls-6"><path class="cls-3" d="M70.5,71.48a.7.7,0,0,1-.7-.7h0V63.92a.71.71,0,1,1,1.41,0v6.86a.71.71,0,0,1-.71.7" transform="translate(-2.03 -2.03)"/></g><g class="cls-6"><path class="cls-3" d="M75.86,71.48a.71.71,0,0,1-.71-.7V63.92a.71.71,0,1,1,1.41,0v6.86a.7.7,0,0,1-.7.7h0" transform="translate(-2.03 -2.03)"/></g><g class="cls-6"><path class="cls-3" d="M81.22,71.48a.7.7,0,0,1-.7-.7h0V63.92a.7.7,0,1,1,1.41,0h0v6.86a.7.7,0,0,1-.7.7h0" transform="translate(-2.03 -2.03)"/></g><g class="cls-6"><path class="cls-2" d="M38.27,87.91a.71.71,0,0,1-.71-.71V82.08a.71.71,0,1,1,1.41,0V87.2a.7.7,0,0,1-.7.71h0" transform="translate(-2.03 -2.03)"/></g><g class="cls-6"><path class="cls-2" d="M103.72,87.91a.71.71,0,0,1-.71-.71V82.08a.71.71,0,1,1,1.41,0V87.2a.7.7,0,0,1-.7.71h0" transform="translate(-2.03 -2.03)"/></g><g class="cls-6"><path class="cls-3" d="M58.07,138.05a.7.7,0,0,1-.7-.7h0V114.87a.7.7,0,1,1,1.41,0v22.47a.7.7,0,0,1-.7.71h0" transform="translate(-2.03 -2.03)"/></g><g class="cls-6"><path class="cls-3" d="M84.35,138.52a.7.7,0,0,1-.7-.7h0V114.87a.7.7,0,1,1,1.41,0v22.94a.7.7,0,0,1-.7.71h0" transform="translate(-2.03 -2.03)"/></g><g class="cls-6"><path class="cls-2" d="M89.09,93.6H53.3a.7.7,0,1,1,0-1.41H89.09a.7.7,0,0,1,0,1.41" transform="translate(-2.03 -2.03)"/></g><g class="cls-6"><path class="cls-2" d="M56.47,95.73a.21.21,0,0,0,0,.42h0a.21.21,0,0,0,0-.42m0,1.84a1.62,1.62,0,1,1,1.62-1.62,1.63,1.63,0,0,1-1.62,1.62" transform="translate(-2.03 -2.03)"/></g><g class="cls-6"><path class="cls-2" d="M85.68,95.73a.21.21,0,1,0,.21.21.21.21,0,0,0-.21-.21m0,1.84a1.62,1.62,0,1,1,1.63-1.62,1.62,1.62,0,0,1-1.63,1.62" transform="translate(-2.03 -2.03)"/></g><g class="cls-6"><path class="cls-7" d="M122.68,116.12a2.79,2.79,0,0,1-.66-1,67.52,67.52,0,1,1,8.37-12.07,3.23,3.23,0,0,1,1,.57,69.08,69.08,0,1,0-8.69,12.46" transform="translate(-2.03 -2.03)"/></g><g class="cls-6"><path class="cls-3" d="M58.07,115.58a.7.7,0,0,1-.7-.7h0c0-7.91,6.09-10.61,13.8-14a.71.71,0,0,1,.57,1.29c-7.52,3.33-13,5.74-13,12.73a.7.7,0,0,1-.7.7h0" transform="translate(-2.03 -2.03)"/></g><g class="cls-6"><path class="cls-3" d="M84.36,115.58a.7.7,0,0,1-.7-.7h0c0-7-5.25-9.41-12.51-12.74a.71.71,0,1,1,.59-1.28c7.15,3.28,13.33,6.11,13.33,14a.71.71,0,0,1-.71.7" transform="translate(-2.03 -2.03)"/></g><g class="cls-6"><path class="cls-3" d="M58.07,138.05a.7.7,0,0,1-.7-.7h0V114.87a.7.7,0,1,1,1.41,0v22.47a.7.7,0,0,1-.7.71h0" transform="translate(-2.03 -2.03)"/></g><g class="cls-6"><path class="cls-3" d="M84.35,138.52a.7.7,0,0,1-.7-.7h0V114.87a.7.7,0,1,1,1.41,0v22.94a.7.7,0,0,1-.7.71h0" transform="translate(-2.03 -2.03)"/></g><g class="cls-6"><path class="cls-3" d="M58.07,115.58a.7.7,0,0,1-.7-.7h0c0-7.91,6.09-10.61,13.8-14a.71.71,0,0,1,.57,1.29c-7.52,3.33-13,5.74-13,12.73a.7.7,0,0,1-.7.7h0" transform="translate(-2.03 -2.03)"/></g><g class="cls-6"><path class="cls-3" d="M84.36,115.58a.7.7,0,0,1-.7-.7h0c0-7-5.25-9.41-12.51-12.74a.71.71,0,1,1,.59-1.28c7.15,3.28,13.33,6.11,13.33,14a.71.71,0,0,1-.71.7" transform="translate(-2.03 -2.03)"/></g><g class="cls-6"><path class="cls-3" d="M58.07,138.05a.7.7,0,0,1-.7-.7h0V114.87a.7.7,0,1,1,1.41,0v22.47a.7.7,0,0,1-.7.71h0" transform="translate(-2.03 -2.03)"/></g><g class="cls-6"><path class="cls-3" d="M58.07,115.58a.7.7,0,0,1-.7-.7h0c0-7.91,6.09-10.61,13.8-14a.71.71,0,0,1,.57,1.29c-7.52,3.33-13,5.74-13,12.73a.7.7,0,0,1-.7.7h0" transform="translate(-2.03 -2.03)"/></g><g class="cls-6"><path class="cls-3" d="M84.36,115.58a.7.7,0,0,1-.7-.7h0c0-7-5.25-9.41-12.51-12.74a.71.71,0,1,1,.59-1.28c7.15,3.28,13.33,6.11,13.33,14a.71.71,0,0,1-.71.7" transform="translate(-2.03 -2.03)"/></g><g class="cls-6"><path class="cls-3" d="M58.07,138.05a.7.7,0,0,1-.7-.7h0V114.87a.7.7,0,1,1,1.41,0v22.47a.7.7,0,0,1-.7.71h0" transform="translate(-2.03 -2.03)"/></g><g class="cls-6"><path class="cls-3" d="M58.07,115.58a.7.7,0,0,1-.7-.7h0c0-7.91,6.09-10.61,13.8-14a.71.71,0,0,1,.57,1.29c-7.52,3.33-13,5.74-13,12.73a.7.7,0,0,1-.7.7h0" transform="translate(-2.03 -2.03)"/></g><g class="cls-6"><path class="cls-3" d="M84.36,115.58a.7.7,0,0,1-.7-.7h0c0-7-5.25-9.41-12.51-12.74a.71.71,0,1,1,.59-1.28c7.15,3.28,13.33,6.11,13.33,14a.71.71,0,0,1-.71.7" transform="translate(-2.03 -2.03)"/></g><g class="cls-6"><path class="cls-3" d="M12.46,106.82a.7.7,0,0,1-.71-.7h0v-3.17a.71.71,0,1,1,1.41,0h0v3.17a.7.7,0,0,1-.7.7h0" transform="translate(-2.03 -2.03)"/></g><g class="cls-6"><path class="cls-3" d="M31.05,127a.7.7,0,0,1-.7-.7h0v-23.4a.71.71,0,1,1,1.41,0v23.4a.71.71,0,0,1-.71.7" transform="translate(-2.03 -2.03)"/></g><g class="cls-6"><path class="cls-3" d="M12.46,103.65a.7.7,0,0,1-.71-.7h0c0-7.07,4.56-9.61,9.83-12.55a.71.71,0,1,1,.69,1.23h0c-5.29,3-9.11,5.09-9.11,11.32a.7.7,0,0,1-.7.7h0" transform="translate(-2.03 -2.03)"/></g><g class="cls-6"><path class="cls-3" d="M31.06,103.65a.7.7,0,0,1-.7-.7h0c0-6.24-3.69-8.38-8.79-11.33a.71.71,0,0,1,.7-1.22c5.1,2.95,9.5,5.49,9.5,12.55a.7.7,0,0,1-.7.7h0" transform="translate(-2.03 -2.03)"/></g><g class="cls-6"><path class="cls-3" d="M12.46,103.65a.7.7,0,0,1-.71-.7h0c0-7.07,4.56-9.61,9.83-12.55a.71.71,0,1,1,.69,1.23h0c-5.29,3-9.11,5.09-9.11,11.32a.7.7,0,0,1-.7.7h0" transform="translate(-2.03 -2.03)"/></g><g class="cls-6"><path class="cls-3" d="M112.39,125.52a.7.7,0,0,1-.7-.7h0V102.94a.71.71,0,1,1,1.41,0v21.88a.7.7,0,0,1-.7.7h0" transform="translate(-2.03 -2.03)"/></g><g class="cls-6"><path class="cls-3" d="M131,103.65a.7.7,0,0,1-.71-.7h0c0-6.24-3.82-8.37-9.11-11.32a.71.71,0,1,1,.69-1.23h0c5.28,2.94,9.83,5.49,9.83,12.55a.7.7,0,0,1-.7.7h0" transform="translate(-2.03 -2.03)"/></g><g class="cls-6"><path class="cls-3" d="M112.39,103.65a.7.7,0,0,1-.7-.7h0c0-7.06,4.4-9.6,9.5-12.55a.71.71,0,0,1,.71,1.22c-5.1,3-8.79,5.08-8.79,11.33a.7.7,0,0,1-.7.7h0" transform="translate(-2.03 -2.03)"/></g><g class="cls-6"><path class="cls-3" d="M131,103.65a.7.7,0,0,1-.71-.7h0c0-6.24-3.82-8.37-9.11-11.32a.71.71,0,1,1,.69-1.23h0c5.28,2.94,9.83,5.49,9.83,12.55a.7.7,0,0,1-.7.7h0" transform="translate(-2.03 -2.03)"/></g></svg>