<?xml version="1.0" encoding="utf-8"?>
<!-- Generator: Adobe Illustrator 21.1.0, SVG Export Plug-In . SVG Version: 6.00 Build 0)  -->
<svg version="1.1" id="Layer_1" xmlns="http://www.w3.org/2000/svg" xmlns:xlink="http://www.w3.org/1999/xlink" x="0px" y="0px"
	 viewBox="0 0 171 90.4" style="enable-background:new 0 0 171 90.4;" xml:space="preserve">
<style type="text/css">
	.st0{fill:#FFFFFF;}
</style>
<title>one-logo</title>
<path class="st0" d="M69.8,17.3v37.6h-9.7V0h9.7l36.1,36.8V0h9.7v54.9h-8.7L69.8,17.3z"/>
<path class="st0" d="M131.5,30.8v15H171v9h-50.2V0H170v9h-38.5v13H158v8.8L131.5,30.8z"/>
<path class="st0" d="M38.9,2.5L25.8,17.9H13.4L29,0c-0.5,0-1.1,0-1.6,0C12.3-0.3-0.3,11.8-0.6,26.9s11.7,27.7,26.9,28
	c1.7,0,3.4-0.1,5-0.4V11.7h10.1v39.4c13-7.7,17.4-24.5,9.7-37.6C48.2,8.7,44,4.8,38.9,2.5L38.9,2.5z"/>
<path class="st0" d="M16.9,65.6h0.8v3.2c0.3-0.3,0.6-0.5,0.9-0.6c0.3-0.2,0.7-0.2,1.1-0.2c0.7,0,1.3,0.3,1.7,0.8
	c0.5,0.6,0.8,1.4,0.7,2.2c0,0.6-0.1,1.1-0.3,1.6c-0.5,1.2-1.8,1.7-3,1.3c0,0,0,0-0.1,0c-0.4-0.2-0.7-0.4-1-0.7v0.8H17L16.9,65.6z
	 M17.7,72.3c0.3,0.3,0.6,0.5,1,0.7c0.3,0.1,0.6,0.2,0.9,0.2c0.5,0,1-0.2,1.3-0.6c0.4-0.5,0.6-1.1,0.5-1.8c0-0.6-0.1-1.2-0.5-1.7
	c-0.3-0.4-0.8-0.5-1.3-0.5c-0.3,0-0.6,0.1-0.9,0.2c-0.3,0.2-0.7,0.4-0.9,0.7L17.7,72.3z"/>
<path class="st0" d="M22.8,67.9h0.8l1.8,4.8l1.8-4.8h0.8l-2.4,6.2c-0.1,0.4-0.3,0.8-0.5,1.2c-0.1,0.2-0.3,0.3-0.4,0.4
	c-0.2,0.1-0.4,0.2-0.6,0.3c-0.3,0.1-0.5,0.1-0.8,0.1c-0.3,0-0.5,0-0.8-0.1l0.2-0.8c0.2,0,0.4,0.1,0.6,0.1c0.4,0,0.7-0.1,1-0.2
	c0.3-0.3,0.5-0.7,0.6-1.1l0.1-0.3L22.8,67.9z"/>
<path class="st0" d="M45.6,83.7h-2.3V72c0-1.3-0.5-2.6-1.5-3.5c-2-2-5.1-2-7.1,0c0,0,0,0,0,0c-0.5,0.5-0.9,1-1.2,1.6v13.7h-2.3v-18
	h2.3v0.6c1.3-1.1,3-1.7,4.7-1.7c3.9-0.2,7.1,2.8,7.3,6.7c0,0,0,0,0,0c0,0.1,0,0.3,0,0.4L45.6,83.7L45.6,83.7z M44,83.1h0.9V71.8
	c0.1-3.5-2.7-6.4-6.2-6.4h-0.4c-1.8,0-3.5,0.7-4.8,2.1L32.9,68v-1.6H32v16.7h0.9V69.8c0.3-0.7,0.8-1.3,1.3-1.9c2.2-2.2,5.8-2.2,8,0
	c1.1,1,1.7,2.5,1.7,4V83L44,83.1z"/>
<path class="st0" d="M57.4,84.2c-5.5,0-10-4.4-10.1-9.9c0,0,0,0,0-0.1l0,0c0-5.5,4.5-10,10-10c2.3,0,4.5,0.7,6.2,2.1
	c0.3,0.2,0.6,0.5,0.9,0.8l0.3,0.3l0.3,0.2L52.6,80.1c1.3,1.1,3.1,1.7,4.8,1.7c2,0,4-0.8,5.4-2.2c0.2-0.2,0.4-0.4,0.6-0.6l0.2-0.2
	l2.3,0.8L65.6,80c-0.3,0.5-0.7,0.9-1.1,1.3C62.6,83.2,60.1,84.3,57.4,84.2z M57.4,64.9c-5.2,0-9.3,4.2-9.3,9.3s4.2,9.3,9.3,9.3l0,0
	c2.5,0,4.9-1,6.6-2.7c0.3-0.3,0.5-0.5,0.7-0.8l-1-0.4l-0.4,0.5c-3.1,3.1-8.2,3.3-11.5,0.3l-0.3-0.2l12.5-12.5L64,67.6
	c-0.3-0.3-0.6-0.5-0.8-0.8C61.6,65.5,59.5,64.8,57.4,64.9z M51,79.5l-0.2-0.3c-2.7-3.7-1.9-9,1.9-11.7c2.9-2.1,6.9-2.1,9.8,0
	l0.3,0.2L51,79.5z M57.4,66.5c-4.2,0-7.6,3.4-7.6,7.7c0,0,0,0,0,0l0,0c0,1.5,0.4,3,1.3,4.3l10.6-10.6C60.4,67,58.9,66.5,57.4,66.5
	L57.4,66.5z"/>
<path class="st0" d="M72.3,84.2c-1.5,0-2.9-0.6-3.9-1.6c-1-0.9-1.5-2.2-1.6-3.5v-0.3l2.2-0.6v0.4c0,0.9,0.3,1.8,1,2.4
	c1.3,1.2,3.4,1.1,4.6-0.3c1.1-1.2,1.1-3.1,0-4.3c-0.7-0.6-1.4-1.1-2.2-1.6c-1.1-0.5-2.1-1.1-3-1.9c-0.8-0.8-1.3-2-1.3-3.2
	c0-1.2,0.5-2.3,1.3-3.2c0.8-0.9,2-1.3,3.2-1.3c1.2,0,2.3,0.4,3.1,1.2c0.8,0.7,1.2,1.7,1.2,2.8v0.3l-2,0.7v-0.4
	c0-0.7-0.3-1.3-0.7-1.8c-0.4-0.4-0.9-0.6-1.5-0.6c-0.6,0-1.2,0.2-1.6,0.7c-0.9,0.9-0.9,2.3,0,3.2l0,0c0.6,0.5,1.2,0.9,1.8,1.3
	c1.2,0.6,2.3,1.4,3.3,2.2c2.1,2.2,2.1,5.6-0.1,7.8C75.1,83.6,73.8,84.1,72.3,84.2L72.3,84.2z M67.5,79.3c0.1,1.1,0.6,2.1,1.4,2.8
	c1.9,1.9,4.9,1.9,6.8,0l0,0c1.9-1.9,1.9-4.9,0-6.8c-0.9-0.8-2-1.6-3.1-2.1c-0.7-0.4-1.4-0.9-2-1.4c-1.1-1.1-1.2-3,0-4.1
	c0.6-0.6,1.3-0.9,2.1-0.9c0.7,0,1.5,0.2,2,0.8c0.5,0.5,0.8,1.1,0.9,1.8l0.8-0.3c0-0.8-0.4-1.6-1-2.1c-0.7-0.7-1.6-1-2.6-1
	c-1,0-2,0.4-2.7,1.1c-0.7,0.7-1.1,1.7-1.1,2.7c0,1,0.4,2,1.1,2.7c0.8,0.7,1.7,1.4,2.7,1.9l0,0c0.8,0.5,1.6,1.1,2.3,1.7
	c1.5,1.5,1.5,4,0,5.5c-1.5,1.5-4,1.5-5.5,0c-0.6-0.6-1-1.5-1.1-2.4L67.5,79.3z"/>
<path class="st0" d="M84.9,83.7h-2.3V68h-3.5v-2.3h3.5v-7.4h2.3v7.4h3.5V68h-3.5V83.7z M83.3,83.1h0.9V67.3h3.5v-1h-3.5v-7.3h-0.9
	v7.3h-3.5v0.9h3.5L83.3,83.1L83.3,83.1z"/>
<path class="st0" d="M82.6,65.7v-7.4h2.3v7.4 M83.3,83.1h0.9V67.3h3.5v-1h-3.5v-7.3h-0.9v7.3h-3.5v0.9h3.5V83.1L83.3,83.1z"/>
<path class="st0" d="M102.5,83.7c-0.1-0.6-0.2-1.1-0.2-1.5c-0.1-0.4-0.1-0.9-0.1-1.3c-0.6,0.9-1.4,1.7-2.4,2.2
	c-1.1,0.6-2.3,0.9-3.6,0.9c-1.4,0.1-2.7-0.4-3.8-1.3c-0.9-0.9-1.4-2.2-1.3-3.5c0-1.5,0.7-2.8,1.9-3.6c1.5-1,3.3-1.4,5.1-1.3h4.1
	v-2.1c0.1-1-0.4-2.1-1.1-2.8c-0.9-0.7-2-1.1-3.2-1c-1.1,0-2.1,0.3-3,0.9c-0.7,0.5-1.2,1.4-1.2,2.3h-1.9v-0.1c0-1.3,0.6-2.5,1.6-3.3
	c1.3-1,2.8-1.5,4.4-1.4c1.6-0.1,3.1,0.4,4.4,1.4c1.1,1,1.7,2.5,1.7,4v8.2c0,0.6,0,1.1,0.1,1.7c0.1,0.6,0.2,1.1,0.3,1.6L102.5,83.7
	L102.5,83.7z M96.4,82.4c1.3,0,2.6-0.3,3.7-1c1-0.6,1.7-1.5,2.1-2.6v-3.2h-4.1c-1.3,0-2.6,0.3-3.7,1.1c-0.9,0.6-1.4,1.5-1.5,2.6
	c0,0.9,0.3,1.7,0.9,2.3C94.6,82.2,95.5,82.5,96.4,82.4L96.4,82.4z"/>
<polygon class="st0" points="110.9,78.4 111.5,81.4 111.6,81.4 112.4,78.4 115.9,67.2 117.5,67.2 121.1,78.4 121.8,81.5 121.9,81.5 
	122.6,78.4 125.6,67.2 127.6,67.2 122.7,83.7 121.1,83.7 117.4,72.4 116.7,69.7 116.6,69.7 115.9,72.4 112.3,83.7 110.7,83.7 
	105.9,67.2 107.9,67.2 "/>
<path class="st0" d="M140,83.7c-0.1-0.6-0.2-1.1-0.2-1.5c-0.1-0.4-0.1-0.9-0.1-1.3c-0.6,0.9-1.4,1.7-2.4,2.2
	c-1.1,0.6-2.3,0.9-3.6,0.9c-1.4,0.1-2.7-0.4-3.8-1.3c-0.9-0.9-1.4-2.2-1.3-3.5c0-1.5,0.7-2.8,1.9-3.6c1.5-1,3.2-1.4,5-1.4h4.1v-2
	c0.1-1-0.4-2.1-1.1-2.8c-0.9-0.7-2-1.1-3.2-1c-1.1,0-2.1,0.3-3,0.9c-0.7,0.5-1.2,1.4-1.2,2.3h-1.7v-0.2c0-1.3,0.6-2.5,1.6-3.3
	c1.3-1,2.8-1.5,4.4-1.4c1.6-0.1,3.1,0.4,4.4,1.4c1.1,1,1.7,2.5,1.6,4v8.2c0,0.6,0,1.1,0.1,1.7c0.1,0.6,0.2,1.1,0.3,1.6L140,83.7
	L140,83.7z M133.9,82.4c1.3,0,2.6-0.3,3.7-1c1-0.6,1.7-1.5,2.1-2.6v-3.2h-4.1c-1.3,0-2.6,0.4-3.7,1.1c-0.9,0.6-1.4,1.5-1.5,2.6
	c0,0.9,0.3,1.7,0.9,2.3C132.1,82.2,133,82.5,133.9,82.4L133.9,82.4z"/>
<path class="st0" d="M149.4,79.3l0.6,2h0.1l5-14.1h2.1l-7.2,19.2c-0.4,1-0.9,2-1.7,2.9c-0.8,0.8-1.9,1.3-3,1.2c-0.3,0-0.5,0-0.8-0.1
	c-0.2,0-0.5-0.1-0.7-0.1l0.2-1.5l0.6,0.1h0.6c0.7,0,1.4-0.3,1.9-0.8c0.5-0.7,0.9-1.4,1.2-2.2l0.9-2.2l-6.4-16.3h2L149.4,79.3z"/>
<path class="st0" d="M33.2,70v13.4h-1.6V66.1h1.6v1.1c1.3-1.3,3.1-2.1,5-2.1c3.7-0.2,6.8,2.6,7,6.3c0,0,0,0,0,0.1c0,0.1,0,0.3,0,0.4
	v11.6h-1.6V72c0-1.4-0.6-2.8-1.6-3.8c-2.1-2.1-5.5-2.1-7.6,0C34,68.7,33.5,69.3,33.2,70z"/>
<path class="st0" d="M52.1,80.2c1.4,1.3,3.4,2,5.3,2c2.1,0,4.2-0.8,5.7-2.3c0.2-0.2,0.4-0.4,0.6-0.6l1.7,0.6c-0.3,0.4-0.6,0.8-1,1.2
	c-3.8,3.8-9.9,3.8-13.7,0c0,0,0,0,0,0l0,0c-3.8-3.8-3.8-9.9,0-13.7c0,0,0,0,0,0l0,0c3.5-3.4,8.9-3.8,12.8-0.8
	c0.3,0.2,0.6,0.5,0.8,0.8l0.3,0.3l-1.2,1.2L52.1,80.2z M62.2,67.8c-3.6-2.6-8.6-1.7-11.2,1.9c-2,2.8-2,6.5,0,9.3L62.2,67.8z"/>
<path class="st0" d="M72.6,74.5c-1-0.5-2-1.1-2.8-1.9c-0.8-0.8-1.2-1.8-1.2-2.9c0-1.1,0.4-2.2,1.2-3c0.8-0.8,1.8-1.2,2.9-1.1
	c1.1,0,2.1,0.4,2.8,1.1c0.7,0.7,1.1,1.6,1.1,2.5v0.1l-1.4,0.6c-0.1-0.7-0.3-1.4-0.8-2c-0.5-0.4-1.1-0.7-1.7-0.7
	c-1.4,0-2.6,1.2-2.5,2.7c0,0.6,0.3,1.2,0.7,1.7c0.6,0.5,1.2,0.9,1.9,1.3c1.2,0.6,2.3,1.3,3.2,2.2c2,2,2.1,5.2,0.2,7.3
	c-2,2-5.2,2.1-7.3,0.1l-0.2-0.2c-0.9-0.9-1.5-2-1.5-3.3l1.6-0.4c0,1,0.4,1.9,1.1,2.6c1.6,1.2,3.8,0.9,5-0.7c1-1.3,1-3,0-4.3
	C74.1,75.6,73.4,75,72.6,74.5z"/>
<polygon class="st0" points="83,66.1 83,58.7 84.6,58.7 84.6,66.1 88.1,66.1 88.1,67.7 84.6,67.7 84.6,83.4 83,83.4 83,67.7 
	79.4,67.7 79.4,66.1 "/>
<rect x="82.6" y="61.7" class="st0" width="2.3" height="6.3"/>
<path class="st0" d="M92.3,51.4c-0.1-0.2-0.3-0.4-0.5-0.5l0,0l-0.2-0.2l-0.1-0.1l-0.1-0.1c-0.2-0.1-0.4-0.2-0.7-0.3h-0.9
	c-0.7,0-1.3,0.3-1.8,0.8l-0.1,0.1l0,0c-0.2,0.2-0.4,0.4-0.6,0.7c-0.1,0.1-0.1,0.2-0.1,0.3v0.1l0,0c-0.5,1.1-1.1,2.2-1.9,3.2
	c-1,1.1-2.4,1.8-3.9,1.9l0,0c-0.8,0.1-1.6-0.1-2.3-0.4l-0.3-0.1l0,0l-0.3-0.2l-0.1-0.1l-0.2-0.1l-0.3-0.2l0,0l-0.3-0.2l-0.1-0.1
	c-0.2-0.2-0.4-0.5-0.6-0.8c-0.1,0.6-0.2,1.1-0.2,1.7c0.1,3.5,3.1,6.2,6.6,6.1c2.7-0.1,5.1-2,5.8-4.6v-0.2c0.1-0.3,0.2-0.7,0.2-1v-1
	c0.8-4.7,2.6-4.4,2.7-4.4l0,0"/>
</svg>
