<svg xmlns="http://www.w3.org/2000/svg" viewBox="0 0 171 90.45"><title>one-logo</title><path d="M72.31,28.74V66.31H62.58V11.44h9.65l36.12,36.77V11.44h9.73V66.31H109.4Z" transform="translate(-2.5 -11.44)" fill="#1c0106"/><path d="M134,42.26v15h39.5v9H123.3V11.44h49.24v9H134v13h26.47v8.77Z" transform="translate(-2.5 -11.44)" fill="#1c0106"/><path d="M41.37,13.94,28.29,29.39H15.86l15.67-17.9c-.53,0-1.06,0-1.6,0A27.44,27.44,0,1,0,33.81,66V23.14H43.9V62.5a27.44,27.44,0,0,0-2.52-48.56Z" transform="translate(-2.5 -11.44)" fill="#1c0106"/><path d="M19.44,77h.79v3.15a3,3,0,0,1,.94-.63,2.68,2.68,0,0,1,1.06-.24,2.21,2.21,0,0,1,1.71.82,3.24,3.24,0,0,1,.72,2.23,3.9,3.9,0,0,1-.32,1.61,2.32,2.32,0,0,1-3.09,1.23,4.22,4.22,0,0,1-1-.68v.77h-.79Zm.79,6.79a4.77,4.77,0,0,0,1,.67,2.21,2.21,0,0,0,.87.18A1.56,1.56,0,0,0,23.36,84a2.64,2.64,0,0,0,.51-1.75,2.56,2.56,0,0,0-.51-1.73A1.62,1.62,0,0,0,22.08,80a2.19,2.19,0,0,0-.93.22,3.52,3.52,0,0,0-.93.65Z" transform="translate(-2.5 -11.44)" fill="#1c0106"/><path d="M25.3,79.38h.82l1.81,4.78,1.81-4.78h.82l-2.35,6.23a7.71,7.71,0,0,1-.52,1.18,1.63,1.63,0,0,1-.42.44,1.88,1.88,0,0,1-.6.28,2.94,2.94,0,0,1-.81.1,3.77,3.77,0,0,1-.76-.09l.2-.76a3,3,0,0,0,.56.06,1.59,1.59,0,0,0,1-.24,2.3,2.3,0,0,0,.58-1.07l.1-.26Z" transform="translate(-2.5 -11.44)" fill="#1c0106"/><path d="M48.08,95.19H45.82V83.4a4.71,4.71,0,0,0-1.5-3.51,5,5,0,0,0-7.08,0,5.7,5.7,0,0,0-1.17,1.61V95.19H33.8v-18h2.26v.64a7.18,7.18,0,0,1,4.67-1.68,7,7,0,0,1,7.3,6.7q0,.21,0,.41V95.19Zm-1.59-.68h.9V83.26a6.33,6.33,0,0,0-6.21-6.44h-.44a6.64,6.64,0,0,0-4.8,2.06l-.59.57V77.83h-.87V94.5h.9V81.25a6.33,6.33,0,0,1,1.3-1.89,5.73,5.73,0,0,1,8,0,5.43,5.43,0,0,1,1.7,4v11.1Z" transform="translate(-2.5 -11.44)" fill="#ea5962"/><path d="M59.91,95.69a10,10,0,0,1-10.06-10s0,0,0,0a10,10,0,0,1,10-10,9.71,9.71,0,0,1,6.22,2.13c.3.25.59.52.87.81l.31.34.27.23L55.06,91.59a7.31,7.31,0,0,0,4.83,1.72,7.42,7.42,0,0,0,5.41-2.25,7.83,7.83,0,0,0,.55-.6l.16-.18,2.33.83-.26.36A10.41,10.41,0,0,1,67,92.77,9.72,9.72,0,0,1,59.91,95.69Zm0-19.38a9.34,9.34,0,0,0,0,18.69h0a9.11,9.11,0,0,0,6.61-2.73,9.94,9.94,0,0,0,.73-.81l-1-.36-.43.46a8.31,8.31,0,0,1-11.45.31l-.26-.25L66.6,79.13l-.07-.07c-.27-.27-.55-.52-.82-.75A9,9,0,0,0,59.91,76.31ZM53.48,90.95l-.23-.31A8.35,8.35,0,0,1,64.93,79l.31.23Zm6.43-13a7.65,7.65,0,0,0-7.64,7.67v0a7.37,7.37,0,0,0,1.3,4.27L64.17,79.29A7.37,7.37,0,0,0,59.91,78Z" transform="translate(-2.5 -11.44)" fill="#ea5962"/><path d="M74.83,95.61A5.28,5.28,0,0,1,70.92,94a5,5,0,0,1-1.55-3.54v-.26l2.25-.59v.44a3.15,3.15,0,0,0,1,2.36,3.23,3.23,0,0,0,4.56-4.56,15.08,15.08,0,0,0-2.21-1.6A12.92,12.92,0,0,1,72,84.34a4.33,4.33,0,0,1-1.3-3.16A4.39,4.39,0,0,1,72,78a4.32,4.32,0,0,1,3.18-1.3,4.22,4.22,0,0,1,3.1,1.22,3.9,3.9,0,0,1,1.2,2.76V81l-2,.74v-.43a3.11,3.11,0,0,0-.74-1.81,2,2,0,0,0-1.5-.57,2.15,2.15,0,0,0-1.57.65,2.23,2.23,0,0,0,0,3.15l0,0A12.18,12.18,0,0,0,75.49,84a15,15,0,0,1,3.27,2.24,5.49,5.49,0,0,1-3.93,9.33ZM70,90.72a4.32,4.32,0,0,0,1.39,2.8,4.79,4.79,0,0,0,6.77,0h0a4.82,4.82,0,0,0,0-6.79,14.49,14.49,0,0,0-3.14-2.12,12.52,12.52,0,0,1-2-1.39,2.92,2.92,0,0,1,2.06-5,2.67,2.67,0,0,1,2,.77A3.46,3.46,0,0,1,78,80.77l.77-.34a3.16,3.16,0,0,0-1-2.13,3.51,3.51,0,0,0-2.6-1,3.62,3.62,0,0,0-2.68,1.12,3.68,3.68,0,0,0-1.12,2.71,3.63,3.63,0,0,0,1.12,2.68,12.57,12.57,0,0,0,2.71,1.86h0a15.38,15.38,0,0,1,2.33,1.7,3.9,3.9,0,1,1-6.65,3.12Z" transform="translate(-2.5 -11.44)" fill="#ea5962"/><path d="M87.38,95.19H85.12V79.46H81.59V77.19h3.53V69.81h2.26v7.37h3.53v2.26H87.38Zm-1.59-.68h.9V78.78h3.5v-1h-3.5V70.5h-.9v7.33H82.27v.9H85.8V94.5Z" transform="translate(-2.5 -11.44)" fill="#ea5962"/><path d="M85.12,77.19V69.81h2.26v7.37M85.8,94.52h.9V78.78h3.5v-1h-3.5V70.5h-.9v7.33H82.27v.9H85.8V94.5Z" transform="translate(-2.5 -11.44)" fill="#ea5962"/><path d="M105,95.19q-.17-.87-.25-1.5a9.57,9.57,0,0,1-.09-1.3,6.72,6.72,0,0,1-2.41,2.23,7.05,7.05,0,0,1-3.55.89,5.21,5.21,0,0,1-3.77-1.3,4.66,4.66,0,0,1-1.3-3.51,4.23,4.23,0,0,1,1.94-3.61,8.55,8.55,0,0,1,5.09-1.35h4.07V83.67a3.55,3.55,0,0,0-1.12-2.79,4.59,4.59,0,0,0-3.18-1,4.74,4.74,0,0,0-3,.92,2.84,2.84,0,0,0-1.16,2.32H94.41V83A3.9,3.9,0,0,1,96,79.74a6.65,6.65,0,0,1,4.41-1.42,6.51,6.51,0,0,1,4.37,1.39,4.93,4.93,0,0,1,1.65,4v8.15a14.15,14.15,0,0,0,.1,1.7,10.71,10.71,0,0,0,.33,1.64H105Zm-6.09-1.3a6.57,6.57,0,0,0,3.66-1,5,5,0,0,0,2.1-2.6V87.14h-4.09a6.09,6.09,0,0,0-3.7,1.11,3.11,3.11,0,0,0-1.46,2.6,2.94,2.94,0,0,0,.92,2.26,3.61,3.61,0,0,0,2.56.78Z" transform="translate(-2.5 -11.44)" fill="#00a09b"/><polygon points="110.89 78.38 111.53 81.41 111.62 81.41 112.42 78.38 115.95 67.18 117.53 67.18 121.05 78.38 121.82 81.5 121.91 81.5 122.63 78.38 125.58 67.18 127.55 67.18 122.68 83.75 121.12 83.75 117.37 72.41 116.71 69.73 116.61 69.73 115.95 72.41 112.28 83.75 110.71 83.75 105.92 67.18 107.88 67.18 110.89 78.38" fill="#00a09b"/><path d="M142.54,95.19q-.17-.87-.25-1.5a9.63,9.63,0,0,1-.08-1.3,6.72,6.72,0,0,1-2.41,2.23,7.05,7.05,0,0,1-3.55.89,5.21,5.21,0,0,1-3.77-1.3,4.66,4.66,0,0,1-1.3-3.51,4.23,4.23,0,0,1,1.94-3.61,8.55,8.55,0,0,1,5-1.38h4.09v-2a3.55,3.55,0,0,0-1.12-2.79,4.59,4.59,0,0,0-3.18-1,4.74,4.74,0,0,0-3,.92,2.84,2.84,0,0,0-1.16,2.32H132V83a3.9,3.9,0,0,1,1.6-3.28A6.65,6.65,0,0,1,138,78.32a6.51,6.51,0,0,1,4.37,1.39,4.93,4.93,0,0,1,1.65,4v8.15a14.15,14.15,0,0,0,.1,1.7,10.67,10.67,0,0,0,.33,1.64h-1.93Zm-6.09-1.3a6.57,6.57,0,0,0,3.66-1,5,5,0,0,0,2.1-2.6V87.14h-4.09a6.09,6.09,0,0,0-3.67,1.11,3.11,3.11,0,0,0-1.46,2.6,2.94,2.94,0,0,0,.92,2.26,3.61,3.61,0,0,0,2.52.78Z" transform="translate(-2.5 -11.44)" fill="#00a09b"/><path d="M151.87,90.7l.59,2h.09l5-14.06h2.06l-7.21,19.21a9.46,9.46,0,0,1-1.67,2.86,3.76,3.76,0,0,1-3,1.18,5.39,5.39,0,0,1-.78-.07,3.9,3.9,0,0,1-.68-.14l.21-1.54.59.07h.59a2.38,2.38,0,0,0,1.91-.85,7.43,7.43,0,0,0,1.22-2.19l.87-2.24-6.38-16.31h2Z" transform="translate(-2.5 -11.44)" fill="#00a09b"/><path d="M35.73,81.4V94.84H34.14V77.53h1.59v1.11a7,7,0,0,1,5-2.11,6.66,6.66,0,0,1,7,6.36q0,.21,0,.41V94.88H46.15V83.4a5.08,5.08,0,0,0-1.6-3.76,5.39,5.39,0,0,0-7.56,0A6,6,0,0,0,35.73,81.4Z" transform="translate(-2.5 -11.44)" fill="#ea5962"/><path d="M54.59,91.6a7.63,7.63,0,0,0,5.32,2,7.72,7.72,0,0,0,5.66-2.34q.3-.3.56-.61l1.68.6a10,10,0,0,1-1,1.21,9.68,9.68,0,0,1-13.69,0h0a9.68,9.68,0,0,1,0-13.69h0A9.72,9.72,0,0,1,65.92,78a10,10,0,0,1,.85.78l.31.34-1.2,1.2ZM64.71,79.24A8,8,0,0,0,53.55,90.4Z" transform="translate(-2.5 -11.44)" fill="#ea5962"/><path d="M75.07,85.94a12.79,12.79,0,0,1-2.8-1.87,4,4,0,0,1-1.21-2.93,4,4,0,0,1,1.21-3A4,4,0,0,1,75.2,77a3.9,3.9,0,0,1,2.85,1.13,3.5,3.5,0,0,1,1.09,2.52v.09l-1.38.55a3.42,3.42,0,0,0-.83-2,2.33,2.33,0,0,0-1.73-.66A2.6,2.6,0,0,0,73.38,83a12.34,12.34,0,0,0,1.87,1.3,14.72,14.72,0,0,1,3.23,2.21,5.14,5.14,0,0,1-7.12,7.42l-.15-.15a4.61,4.61,0,0,1-1.5-3.31l1.57-.4a3.5,3.5,0,0,0,1.05,2.6,3.57,3.57,0,0,0,5-5A15.31,15.31,0,0,0,75.07,85.94Z" transform="translate(-2.5 -11.44)" fill="#ea5962"/><polygon points="82.96 66.09 82.96 58.72 84.55 58.72 84.55 66.09 88.07 66.09 88.07 67.69 84.55 67.69 84.55 83.4 82.96 83.4 82.96 67.69 79.43 67.69 79.43 66.09 82.96 66.09" fill="#ea5962"/><rect x="82.62" y="61.7" width="2.29" height="6.31"/><path d="M94.8,62.81a2.93,2.93,0,0,0-.47-.52h0l-.23-.17-.1-.07L93.87,62a3,3,0,0,0-.68-.29h-.86a2.84,2.84,0,0,0-1.8.75l-.08.08h0a3.07,3.07,0,0,0-.55.68,2.6,2.6,0,0,0-.14.29v.09h0a15.84,15.84,0,0,1-1.86,3.19A5.38,5.38,0,0,1,84,68.65h0a4.87,4.87,0,0,1-2.3-.4l-.29-.14h0l-.33-.17-.1-.07-.22-.14-.33-.23h0l-.26-.23-.09-.08a3.19,3.19,0,0,1-.57-.79,6.39,6.39,0,0,0-.17,1.69,6.31,6.31,0,0,0,12.38,1.46v-.22a9.8,9.8,0,0,0,.22-1v-1c.79-4.65,2.6-4.41,2.73-4.37h0" transform="translate(-2.5 -11.44)"/></svg>