<?xml version="1.0" encoding="utf-8"?>
<!-- Generator: Adobe Illustrator 21.1.0, SVG Export Plug-In . SVG Version: 6.00 Build 0)  -->
<svg version="1.1" id="Layer_1" xmlns="http://www.w3.org/2000/svg" xmlns:xlink="http://www.w3.org/1999/xlink" x="0px" y="0px"
	 viewBox="0 0 495 495" style="enable-background:new 0 0 495 495;" xml:space="preserve">
<style type="text/css">
	.st0{fill:#FFA733;}
	.st1{fill:#FFCD00;}
	.st2{fill:#554431;}
	.st3{fill:#6A563D;}
	.st4{fill:#FF5023;}
	.st5{fill:#FF7956;}
</style>
<g>
	<path class="st0" d="M247.5,0v355c44.8,0,85.4-28.3,100.9-70.4l37.5,13.8C364.6,356.2,309,395,247.5,395v100
		C384.2,495,495,384.2,495,247.5S384.2,0,247.5,0z M323.5,241.5c-22.1,0-40-17.9-40-40s17.9-40,40-40s40,17.9,40,40
		S345.6,241.5,323.5,241.5z"/>
	<path class="st1" d="M109.1,298.4l37.5-13.8c15.5,42.1,56.1,70.4,100.9,70.4V0C110.8,0,0,110.8,0,247.5S110.8,495,247.5,495V395
		C186,395,130.4,356.2,109.1,298.4z M171.5,161.5c22.1,0,40,17.9,40,40s-17.9,40-40,40s-40-17.9-40-40S149.4,161.5,171.5,161.5z"/>
	<path class="st2" d="M323.5,161.5c-22.1,0-40,17.9-40,40s17.9,40,40,40s40-17.9,40-40S345.6,161.5,323.5,161.5z"/>
	<path class="st3" d="M171.5,241.5c22.1,0,40-17.9,40-40s-17.9-40-40-40s-40,17.9-40,40S149.4,241.5,171.5,241.5z"/>
	<path class="st4" d="M385.9,298.4l-37.5-13.8c-15.5,42.1-56.1,70.4-100.9,70.4v40C309,395,364.6,356.2,385.9,298.4z"/>
	<path class="st5" d="M146.6,284.6l-37.5,13.8C130.4,356.2,186,395,247.5,395v-40C202.7,355,162.1,326.7,146.6,284.6z"/>
</g>
</svg>
