<?xml version="1.0" encoding="utf-8"?>
<!-- Generator: Adobe Illustrator 21.1.0, SVG Export Plug-In . SVG Version: 6.00 Build 0)  -->
<svg version="1.1" id="Layer_1" xmlns="http://www.w3.org/2000/svg" xmlns:xlink="http://www.w3.org/1999/xlink" x="0px" y="0px"
	 viewBox="0 0 64 64" style="enable-background:new 0 0 64 64;" xml:space="preserve">
<style type="text/css">
	.st0{fill:#47B24C;}
</style>
<g>
	<g>
		<path class="st0" d="M46,18.1L24.1,42.3l-6.9-7.6c-0.7-0.8-2-0.9-2.8-0.1c-0.8,0.7-0.9,2-0.1,2.8l8,8.9c0.4,0.5,1,0.8,1.6,0.8
			c0.1,0,0.1,0,0.2,0c0.1,0,0.1,0,0.1,0c0.6,0,1.2-0.3,1.6-0.7L49,20.8c0.7-0.8,0.7-2.1-0.1-2.8C48,17.2,46.8,17.3,46,18.1z"/>
		<path class="st0" d="M32,0C14.4,0,0,14.4,0,32s14.4,32,32,32c17.6,0,32-14.4,32-32S49.6,0,32,0z M32,60C16.6,60,4,47.4,4,32
			S16.6,4,32,4c15.4,0,28,12.6,28,28S47.4,60,32,60z"/>
	</g>
</g>
</svg>
