<?xml version="1.0" encoding="iso-8859-1"?>
<!-- Generator: Adobe Illustrator 19.0.0, SVG Export Plug-In . SVG Version: 6.00 Build 0)  -->
<svg version="1.1" id="Capa_1" xmlns="http://www.w3.org/2000/svg" xmlns:xlink="http://www.w3.org/1999/xlink" x="0px" y="0px"
	 viewBox="0 0 512 512" style="enable-background:new 0 0 512 512;" xml:space="preserve">
<g>
	<g>
		<path d="M265.008,447.202c-1.86-1.861-4.44-2.93-7.069-2.93c-2.63,0-5.21,1.069-7.069,2.93c-1.86,1.87-2.93,4.44-2.93,7.079
			c0,2.63,1.07,5.2,2.93,7.059c1.86,1.87,4.44,2.94,7.069,2.94c2.63,0,5.21-1.07,7.069-2.94c1.86-1.859,2.93-4.43,2.93-7.059
			C267.938,451.641,266.868,449.072,265.008,447.202z"/>
	</g>
</g>
<g>
	<g>
		<path d="M511.958,453.435v-50.13c0-48.346-32.73-90.25-79.594-101.902c-5.36-1.336-10.784,1.932-12.117,7.29
			c-1.333,5.359,1.932,10.784,7.291,12.116c37.931,9.432,64.422,43.355,64.422,82.495v40.972h-37.846v-49.291
			c0-5.522-4.477-9.999-9.999-9.999c-5.523,0-9.999,4.478-9.999,9.999v49.291h-75.609V420.53c0-33.578-22.734-62.683-55.284-70.776
			c-0.11-0.027-0.22-0.053-0.331-0.077l-0.86-0.183c11.252-11.563,18.201-27.323,18.201-44.681v-11.225
			c0-0.517-0.027-1.027-0.039-1.541c11.958,7.941,26.295,12.582,41.701,12.582c41.638,0,75.512-33.828,75.512-75.408v-43.672
			c0-5.522-4.477-9.999-9.999-9.999h-26.688l7.046-34.519c0.872-4.27-1.122-8.61-4.927-10.732
			c-3.807-2.124-8.546-1.536-11.721,1.449l-46.573,43.803h-48.163c-5.523,0-9.999,4.478-9.999,9.999v43.672
			c0,2.707,0.151,5.379,0.431,8.013c-6.262-3.44-13.155-5.859-20.457-7.05v-66.548c0-52.891,43.029-95.919,95.918-95.919
			s95.919,43.029,95.919,95.919v119.358c0,5.522,4.477,9.999,9.999,9.999c5.523,0,9.999-4.478,9.999-9.999V163.637
			c0-63.917-52-115.917-115.917-115.917c-39.52,0-74.478,19.884-95.411,50.17V64.153c0-3.653-1.992-7.015-5.196-8.77
			c-3.204-1.755-7.11-1.623-10.188,0.345l-28.992,18.527c-6.886,4.401-14.847,6.728-23.019,6.728H121.28
			c-39.313,0-71.296,31.982-71.296,71.296v59.719c0,5.522,4.477,9.999,9.999,9.999h6.217c0.344,0,0.685-0.015,1.028-0.023v0.31
			c0,45.427,37.009,82.385,82.499,82.385c15.334,0,29.696-4.213,42.011-11.52c-0.001,0.146-0.011,0.291-0.011,0.438v11.225
			c0,17.362,6.951,33.124,18.206,44.687l-0.786,0.161c-0.137,0.028-0.274,0.06-0.411,0.094
			c-32.55,8.093-55.284,37.198-55.284,70.776v23.747H87.226v-49.291c0-5.522-4.477-9.999-9.999-9.999
			c-5.523,0-9.999,4.478-9.999,9.999v49.291H19.998v-40.962c0-39.153,26.5-73.087,64.443-82.522
			c5.36-1.332,8.623-6.757,7.291-12.116c-1.332-5.359-6.758-8.628-12.117-7.29C32.739,313.043,0,354.957,0,403.315v50.961
			c0,5.522,4.477,9.999,9.999,9.999h202.316c5.523,0,9.999-4.478,9.999-9.999s-4.477-9.999-9.999-9.999h-38.867V420.53
			c0-24.306,16.403-45.38,39.916-51.32l20.43-4.176c6.917,2.55,14.39,3.945,22.183,3.945c7.902,0,15.473-1.44,22.471-4.059
			l20.104,4.28c23.532,5.928,39.955,27.012,39.955,51.33v23.747h-28.276c-5.523,0-9.999,4.478-9.999,9.999s4.477,9.999,9.999,9.999
			h191.768c5.523,0,9.999-4.478,9.999-9.999C512,453.992,511.981,453.712,511.958,453.435z M306.38,195.548h42.128
			c2.546,0,4.997-0.972,6.85-2.716l26.511-24.935l-3.195,15.651c-0.601,2.942,0.153,5.997,2.052,8.323
			c1.899,2.326,4.743,3.676,7.745,3.676h28.936v33.673c0,30.553-24.903,55.409-55.513,55.409c-30.61,0-55.513-24.856-55.513-55.409
			V195.548z M255.979,249.333c19.331,0,35.796,12.463,41.809,29.773c-7.214-1.069-13.651-4.858-17.713-10.593
			c-2.11-2.98-5.676-4.572-9.304-4.155c-3.627,0.418-6.738,2.78-8.116,6.161c-4.547,11.159-16.319,18.656-29.293,18.656
			c-6.784,0-13.242-1.968-18.674-5.69c-0.508-0.348-1.04-0.635-1.583-0.878C218.001,263.499,235.366,249.333,255.979,249.333z
			 M231.346,234.253c0.572-3.909,0.881-7.902,0.881-11.967V174.06c5.183-3.195,9.927-7.027,14.142-11.378
			c-0.003,0.318-0.013,0.635-0.013,0.955v66.421C241.119,230.848,236.091,232.275,231.346,234.253z M69.981,201.737V152.28
			c0-28.286,23.012-51.298,51.298-51.298h78.188c11.997,0,23.681-3.415,33.789-9.876l13.607-8.695v29.778
			c0,29.024-23.613,52.638-52.638,52.638h-90.853c-5.523,0-9.999,4.478-9.999,9.999C93.373,188.526,83.181,199.891,69.981,201.737z
			 M149.728,284.672c-34.463,0-62.502-27.987-62.502-62.387v-5.247c12.608-6.305,22.019-18.086,25.08-32.214h81.92
			c6.212,0,12.243-0.787,18.003-2.261v39.722C212.229,256.685,184.191,284.672,149.728,284.672z M300.234,304.813
			c0,24.355-19.852,44.169-44.254,44.169c-24.402,0-44.255-19.814-44.255-44.17v-0.179c6.729,2.985,14.068,4.542,21.637,4.542
			c15.977,0,30.911-7.225,40.487-18.862c7.503,5.504,16.699,8.728,26.386,9.075V304.813z"/>
	</g>
</g>
<g>
	<g>
		<path d="M130.43,214.017l-0.495-0.306c-4.705-2.895-10.862-1.429-13.757,3.275s-1.428,10.862,3.276,13.757l0.495,0.306
			c1.635,1.006,3.444,1.484,5.232,1.484c3.357,0,6.636-1.69,8.525-4.76C136.6,223.07,135.134,216.912,130.43,214.017z"/>
	</g>
</g>
<g>
	<g>
		<path d="M183.104,214.024l-0.506-0.313c-4.705-2.895-10.862-1.429-13.757,3.275c-2.895,4.704-1.428,10.862,3.276,13.757
			l0.483,0.299c1.637,1.011,3.451,1.491,5.243,1.491c3.353,0,6.628-1.687,8.518-4.749
			C189.261,223.086,187.804,216.925,183.104,214.024z"/>
	</g>
</g>
<g>
	<g>
		<path d="M341.052,214.017l-0.496-0.306c-4.705-2.895-10.862-1.429-13.757,3.275c-2.895,4.704-1.428,10.863,3.276,13.758
			l0.495,0.306c1.635,1.006,3.444,1.484,5.232,1.484c3.357,0,6.636-1.69,8.525-4.76C347.221,223.07,345.755,216.912,341.052,214.017
			z"/>
	</g>
</g>
<g>
	<g>
		<path d="M393.713,214.017l-0.506-0.313c-4.707-2.887-10.864-1.414-13.752,3.294c-2.889,4.708-1.414,10.864,3.293,13.753
			l0.484,0.299c1.635,1.006,3.444,1.484,5.232,1.484c3.357,0,6.636-1.69,8.525-4.76C399.883,223.07,398.416,216.912,393.713,214.017
			z"/>
	</g>
</g>
<g>
	<g>
		<path d="M374.824,248.362c-2.443-4.536-7.882-6.423-12.551-4.531c-4.667-1.894-10.109-0.004-12.551,4.532
			c-2.618,4.863-0.798,10.927,4.065,13.545c2.597,1.397,5.532,2.137,8.486,2.137c2.956,0,5.891-0.739,8.488-2.138
			C375.623,259.288,377.442,253.224,374.824,248.362z"/>
	</g>
</g>
<g>
	<g>
		<path d="M162.278,248.362c-2.443-4.536-7.882-6.423-12.551-4.531c-4.667-1.894-10.109-0.004-12.551,4.532
			c-2.618,4.863-0.798,10.927,4.065,13.545c2.597,1.397,5.532,2.137,8.486,2.137c2.956,0,5.891-0.739,8.488-2.138
			C163.077,259.288,164.895,253.224,162.278,248.362z"/>
	</g>
</g>
<g>
</g>
<g>
</g>
<g>
</g>
<g>
</g>
<g>
</g>
<g>
</g>
<g>
</g>
<g>
</g>
<g>
</g>
<g>
</g>
<g>
</g>
<g>
</g>
<g>
</g>
<g>
</g>
<g>
</g>
</svg>
