<svg id="Layer_1" data-name="Layer 1" xmlns="http://www.w3.org/2000/svg" viewBox="0 0 145.2 63.14"><defs><style>.cls-1,.cls-13{opacity:0.58;}.cls-13,.cls-2{fill:#5b607c;}.cls-3{fill:#c77246;}.cls-19,.cls-4{fill:#640e1a;}.cls-5{fill:#9d5544;}.cls-6{fill:#cc7f6e;}.cls-7{fill:#bf8172;}.cls-8{fill:#a15c4b;}.cls-9{fill:#4e171c;}.cls-10,.cls-39{fill:#753931;}.cls-11{fill:#d7dce2;}.cls-12{fill:#fff;}.cls-13,.cls-19,.cls-39{isolation:isolate;}.cls-14{fill:#6ea5a1;}.cls-15{fill:#8ac5bf;}.cls-16{fill:#637d8b;}.cls-17{fill:#eabc5a;}.cls-18{fill:#ffd673;}.cls-19{opacity:0.19;}.cls-20{fill:#e05b59;}.cls-21{fill:#cf403e;}.cls-22{fill:#f37476;}.cls-23{fill:#f7f0ee;}.cls-24{fill:#ead9d3;}.cls-25{fill:#cfe1df;}.cls-26{fill:#a5ccca;}.cls-27{fill:#e3f3f1;}.cls-28{fill:#f38821;}.cls-29{fill:#df7526;}.cls-30{fill:#f9a357;}.cls-31{fill:#edaf5d;}.cls-32{fill:#fcd4b7;}.cls-33{fill:#edb67a;}.cls-34{fill:#ffeddc;}.cls-35{fill:#b0ccc9;}.cls-36{fill:#b9d67b;}.cls-37{fill:#d98656;}.cls-38{fill:#f2e6da;}.cls-39{opacity:0.75;}.cls-40{fill:#e8b592;}</style></defs><title>single-color</title><g id="Layer_1-2" data-name="Layer 1-2"><g class="cls-1"><rect id="_Rectangle_" data-name=" Rectangle " class="cls-2" x="87.64" y="10.2" width="11.78" height="9.47"/><rect id="_Rectangle_2" data-name=" Rectangle 2" class="cls-2" x="87.64" y="0.79" width="5.26" height="5.52"/><rect id="_Rectangle_3" data-name=" Rectangle 3" class="cls-2" x="55.97" y="10.2" width="11.78" height="9.47"/><rect id="_Rectangle_4" data-name=" Rectangle 4" class="cls-2" x="62.25" y="0.79" width="5.26" height="5.52"/><rect id="_Rectangle_5" data-name=" Rectangle 5" class="cls-2" x="70.91" y="3.92" width="11.78" height="9.47"/></g><path class="cls-3" d="M85.62,22.44H83.36A2.54,2.54,0,0,0,80.81,25V34.3s4.55-1.34,3.07-7.5c-.06-.24-1.06-.42-1.06-.42Z" transform="translate(-7.27 -4.43)"/><path class="cls-4" d="M80.56,34.64V25a2.8,2.8,0,0,1,2.8-2.8H86.1l-2.84,4c.79.2.85.44.87.53,1.51,6.31-3.2,7.78-3.25,7.8Zm2.8-11.95A2.3,2.3,0,0,0,81.07,25v9c1-.43,3.75-2.12,2.59-7a2.87,2.87,0,0,0-.86-.26l-.39-.07,2.73-3.88Z" transform="translate(-7.27 -4.43)"/><path class="cls-5" d="M45.49,37.6H91.65a6.66,6.66,0,0,1,6.66,6.67h0V66H38.83V44.28a6.66,6.66,0,0,1,6.65-6.68h0Z" transform="translate(-7.27 -4.43)"/><path class="cls-4" d="M98.56,66.24h-60v-22a6.92,6.92,0,0,1,6.9-6.93H91.65a6.92,6.92,0,0,1,6.91,6.92Zm-59.48-.5h59V44.28a6.42,6.42,0,0,0-6.41-6.43H45.48a6.42,6.42,0,0,0-6.4,6.43Z" transform="translate(-7.27 -4.43)"/><path class="cls-6" d="M46.69,37.6H92.85a6.66,6.66,0,0,1,6.66,6.66h0V66H40V44.28a6.66,6.66,0,0,1,6.65-6.68h0Z" transform="translate(-7.27 -4.43)"/><path class="cls-4" d="M99.78,66.24h-60v-22a6.94,6.94,0,0,1,6.92-6.94H92.85a6.94,6.94,0,0,1,6.93,6.93ZM40.3,65.71H99.24V44.26a6.4,6.4,0,0,0-6.4-6.4H46.68a6.4,6.4,0,0,0-6.38,6.41Z" transform="translate(-7.27 -4.43)"/><rect class="cls-7" x="32.76" y="61.53" width="2.82" height="1.34"/><path class="cls-4" d="M43.1,67.56H39.78V65.71H43.1Zm-2.82-.5h2.31v-.84H40.28Z" transform="translate(-7.27 -4.43)"/><rect class="cls-8" x="32.76" y="49.53" width="57.87" height="12"/><path class="cls-9" d="M98.16,66.23H39.76V53.69h58.4ZM40.3,65.7H97.63V54.23H40.3Z" transform="translate(-7.27 -4.43)"/><path class="cls-6" d="M46.73,40.22H92.81a4.09,4.09,0,0,1,4.08,4.09v7.37H42.64V44.31A4.09,4.09,0,0,1,46.73,40.22Z" transform="translate(-7.27 -4.43)"/><path class="cls-4" d="M97.16,52H42.37V44.31A4.36,4.36,0,0,1,46.73,40H92.81a4.37,4.37,0,0,1,4.34,4.36ZM42.9,51.42H96.62V44.31a3.83,3.83,0,0,0-3.81-3.83H46.73a3.83,3.83,0,0,0-3.83,3.83Z" transform="translate(-7.27 -4.43)"/><path class="cls-10" d="M58.52,51.43h-13a4.17,4.17,0,0,1-3-1.34L41,48.56,42.51,47a4.17,4.17,0,0,1,3-1.34H58.52a4.14,4.14,0,0,1,2.87,1.25l1.68,1.62-1.68,1.62A4.14,4.14,0,0,1,58.52,51.43Z" transform="translate(-7.27 -4.43)"/><path class="cls-11" d="M97.9,49.81v7H40V54.21a4.4,4.4,0,0,1,4.4-4.4Z" transform="translate(-7.27 -4.43)"/><path class="cls-4" d="M97.9,57.05H40a.29.29,0,0,1-.29-.29V54.21a4.7,4.7,0,0,1,4.69-4.69H97.9a.29.29,0,0,1,.29.29v7A.29.29,0,0,1,97.9,57.05Zm-57.58-.58H97.61V50.1H44.43a4.12,4.12,0,0,0-4.11,4.11Z" transform="translate(-7.27 -4.43)"/><path class="cls-12" d="M61,50v2.14H52.43A2.13,2.13,0,0,1,50.3,50H61Z" transform="translate(-7.27 -4.43)"/><rect class="cls-6" x="89.63" y="54.09" width="51.14" height="7.44"/><path class="cls-4" d="M148.31,66.23H96.63v-8h51.68ZM97.17,65.7h50.61V58.79H97.17Z" transform="translate(-7.27 -4.43)"/><rect class="cls-5" x="89.63" y="61.53" width="2.82" height="1.34"/><path class="cls-4" d="M100,67.56H96.65V65.71H100Zm-2.82-.5h2.31v-.84H97.15Z" transform="translate(-7.27 -4.43)"/><path class="cls-11" d="M84.82,49.81H71.77a4.17,4.17,0,0,1-3-1.34L67.3,46.94l1.52-1.53a4.17,4.17,0,0,1,3-1.34H84.82a4.14,4.14,0,0,1,2.87,1.25l1.68,1.62-1.68,1.62A4.14,4.14,0,0,1,84.82,49.81Z" transform="translate(-7.27 -4.43)"/><path class="cls-4" d="M84.82,50.1H71.77a4.49,4.49,0,0,1-3.17-1.43l-1.51-1.52a.29.29,0,0,1,0-.41l1.52-1.53a4.48,4.48,0,0,1,3.15-1.43H84.82a4.41,4.41,0,0,1,3.08,1.34l1.67,1.61a.29.29,0,0,1,0,.42l-1.68,1.62a4.4,4.4,0,0,1-3.06,1.33ZM67.71,46.94,69,48.26a3.91,3.91,0,0,0,2.76,1.25h13a3.83,3.83,0,0,0,2.66-1.16l1.47-1.42-1.46-1.41a3.83,3.83,0,0,0-2.67-1.17h-13A3.9,3.9,0,0,0,69,45.6Z" transform="translate(-7.27 -4.43)"/><path class="cls-12" d="M90.82,49.81h-13a4.17,4.17,0,0,1-3-1.34L73.31,47l1.52-1.53a4.17,4.17,0,0,1,3-1.34H90.83a4.14,4.14,0,0,1,2.87,1.25L95.38,47l-1.69,1.62A4.14,4.14,0,0,1,90.82,49.81Z" transform="translate(-7.27 -4.43)"/><path class="cls-4" d="M90.82,50.06H77.77a4.46,4.46,0,0,1-3.14-1.42L73,47l1.7-1.71a4.45,4.45,0,0,1,3.13-1.41H90.83a4.37,4.37,0,0,1,3,1.33L95.74,47l-1.88,1.8a4.36,4.36,0,0,1-3,1.31ZM73.66,47,75,48.29a4,4,0,0,0,2.78,1.27h13a3.87,3.87,0,0,0,2.69-1.16L95,47l-1.49-1.44a3.87,3.87,0,0,0-2.7-1.18h-13A3.94,3.94,0,0,0,75,45.59Z" transform="translate(-7.27 -4.43)"/><rect class="cls-5" x="137.63" y="61.53" width="2.82" height="1.34"/><path class="cls-4" d="M148,67.56h-3.32V65.71H148Zm-2.82-.5h2.31v-.84h-2.31Z" transform="translate(-7.27 -4.43)"/><path class="cls-11" d="M65.63,47,64,48.57a4.14,4.14,0,0,1-2.87,1.24H48a4.18,4.18,0,0,1-3-1.34l-.1-.1-1.42-1.43,1.52-1.53a4.17,4.17,0,0,1,3-1.34h13a4.14,4.14,0,0,1,2.87,1.25Z" transform="translate(-7.27 -4.43)"/><path class="cls-4" d="M48,50.1a4.5,4.5,0,0,1-3.17-1.43l-1.51-1.52a.29.29,0,0,1,0-.41l1.52-1.53A4.48,4.48,0,0,1,48,43.78h13a4.41,4.41,0,0,1,3.08,1.34l1.68,1.63a.29.29,0,0,1,0,.42l-1.68,1.62a4.4,4.4,0,0,1-3.07,1.32ZM44,46.94l1.32,1.33A3.92,3.92,0,0,0,48,49.52h13a3.82,3.82,0,0,0,2.67-1.15L65.22,47l-1.47-1.42a3.84,3.84,0,0,0-2.67-1.17H48A3.9,3.9,0,0,0,45.3,45.6Z" transform="translate(-7.27 -4.43)"/><path class="cls-13" d="M58.4,48.38v1.43H48a4.18,4.18,0,0,1-3-1.34l-.1-.1Z" transform="translate(-7.27 -4.43)"/><path class="cls-12" d="M67.09,49.81H54a4.17,4.17,0,0,1-3-1.34l-1.52-1.53,1.52-1.53a4.17,4.17,0,0,1,3-1.34H67.09A4.14,4.14,0,0,1,70,45.32l1.68,1.62L70,48.56A4.14,4.14,0,0,1,67.09,49.81Z" transform="translate(-7.27 -4.43)"/><path class="cls-4" d="M67.09,50.06H54a4.46,4.46,0,0,1-3.14-1.42l-1.69-1.7,1.7-1.71A4.44,4.44,0,0,1,54,43.82H67.09a4.37,4.37,0,0,1,3,1.33L72,46.94l-1.87,1.8a4.36,4.36,0,0,1-3,1.32ZM49.92,46.94l1.34,1.35A4,4,0,0,0,54,49.56h13a3.87,3.87,0,0,0,2.69-1.18l1.5-1.44L69.78,45.5a3.87,3.87,0,0,0-2.7-1.18H54a3.94,3.94,0,0,0-2.77,1.26Z" transform="translate(-7.27 -4.43)"/><path class="cls-14" d="M105.75,48.91v9.9H54.29V55.26a6.35,6.35,0,0,1,6.35-6.35Z" transform="translate(-7.27 -4.43)"/><path class="cls-4" d="M106,59.06H54v-3.8a6.61,6.61,0,0,1,6.6-6.6H106Zm-51.46-.5h51V49.16H60.64a6.11,6.11,0,0,0-6.09,6.09Z" transform="translate(-7.27 -4.43)"/><path class="cls-15" d="M104.07,49.09v2.48H55.79a6.33,6.33,0,0,1,5-2.48Z" transform="translate(-7.27 -4.43)"/><path class="cls-16" d="M76.82,48.91v9.9h1.89V55.26c0-3.49,1.41-6.35,3.16-6.35Z" transform="translate(-7.27 -4.43)"/><path class="cls-16" d="M82,48.91v0H73v0l-.34,9.74H69.94V53.21A5.53,5.53,0,0,1,71,49.92l.75-1Z" transform="translate(-7.27 -4.43)"/><path class="cls-15" d="M106.79,48.91h31.35a9.9,9.9,0,0,1,9.9,9.9H96.89a9.9,9.9,0,0,1,9.9-9.9Z" transform="translate(-7.27 -4.43)"/><path class="cls-4" d="M148.29,59.06H96.64v-.25a10.16,10.16,0,0,1,10.15-10.15h31.35a10.16,10.16,0,0,1,10.15,10.15Zm-51.15-.5h50.64a9.66,9.66,0,0,0-9.64-9.39H106.79A9.66,9.66,0,0,0,97.14,58.56Z" transform="translate(-7.27 -4.43)"/><rect class="cls-4" x="38.14" y="58.57" width="47.1" height="0.5"/><rect class="cls-4" x="94.52" y="58.57" width="43.43" height="0.5"/><rect class="cls-17" x="47.02" y="54.37" width="42.61" height="1.15"/><path class="cls-4" d="M96.9,60.21H54.29A.25.25,0,0,1,54,60V58.81a.25.25,0,0,1,.25-.25H96.9a.25.25,0,0,1,.25.25V60A.25.25,0,0,1,96.9,60.21Zm-42.36-.5H96.65v-.65H54.54Z" transform="translate(-7.27 -4.43)"/><rect class="cls-18" x="89.63" y="54.37" width="51.14" height="1.15"/><path class="cls-4" d="M148,60.21H96.9a.25.25,0,0,1-.25-.25V58.81a.25.25,0,0,1,.25-.25H148a.25.25,0,0,1,.25.25V60A.25.25,0,0,1,148,60.21Zm-50.89-.5h50.64v-.65H97.15Z" transform="translate(-7.27 -4.43)"/><rect class="cls-4" y="62.62" width="145.2" height="0.5"/><path class="cls-5" d="M12.48,51.8h6.17V67.3H9.92V54.36a2.56,2.56,0,0,1,2.55-2.56h0Z" transform="translate(-7.27 -4.43)"/><path class="cls-4" d="M18.9,67.56H9.66V54.36a2.81,2.81,0,0,1,2.8-2.81H18.9Zm-8.73-.5H18.4V52H12.47a2.31,2.31,0,0,0-2.3,2.31Z" transform="translate(-7.27 -4.43)"/><rect class="cls-6" x="8.56" y="52.53" width="27.24" height="10.34"/><path class="cls-4" d="M43.34,67.57H15.56V56.69H43.34ZM16.09,67H42.8V57.23H16.09Z" transform="translate(-7.27 -4.43)"/><rect class="cls-6" x="10.07" y="55.87" width="24.21" height="5.88"/><path class="cls-4" d="M41.82,66.45H17.08V60H41.82Zm-24.21-.53H41.29V60.57H17.61Z" transform="translate(-7.27 -4.43)"/><rect class="cls-7" x="10.07" y="48.94" width="24.21" height="3.59"/><path class="cls-4" d="M41.8,57.21H17.09v-4.1H41.8Zm-24.21-.5H41.3V53.62H17.59Z" transform="translate(-7.27 -4.43)"/><path class="cls-7" d="M41.5,51.8H17.41a1.57,1.57,0,0,0-1.57,1.57H43.08a1.57,1.57,0,0,0-1.57-1.57Z" transform="translate(-7.27 -4.43)"/><path class="cls-4" d="M43.34,53.62H15.59v-.25a1.83,1.83,0,0,1,1.82-1.82h24.1a1.83,1.83,0,0,1,1.82,1.82Zm-27.22-.5H42.81A1.32,1.32,0,0,0,41.51,52H17.41A1.32,1.32,0,0,0,16.12,53.12Z" transform="translate(-7.27 -4.43)"/><rect class="cls-7" x="8.56" y="48.94" width="1.52" height="3.59"/><path class="cls-4" d="M17.59,57.21h-2v-4.1h2Zm-1.52-.5h1V53.62h-1Z" transform="translate(-7.27 -4.43)"/><rect class="cls-7" x="34.28" y="48.94" width="1.52" height="3.59"/><path class="cls-4" d="M43.32,57.21h-2v-4.1h2Zm-1.52-.5h1V53.62h-1Z" transform="translate(-7.27 -4.43)"/><path class="cls-17" d="M30.15,63.94H28.74a.7.7,0,0,1-.7-.7h0a.7.7,0,0,1,.7-.7h1.42a.7.7,0,0,1,.7.7h0A.7.7,0,0,1,30.15,63.94Z" transform="translate(-7.27 -4.43)"/><path class="cls-4" d="M30.15,64.19H28.74a1,1,0,1,1,0-1.9h1.42a1,1,0,1,1,0,1.9Zm-1.42-1.4a.45.45,0,1,0,0,.89h1.42a.45.45,0,1,0,0-.89Z" transform="translate(-7.27 -4.43)"/><path class="cls-19" d="M30.78,63.55a.7.7,0,0,1-.63.4H28.74a.7.7,0,0,1-.63-.4.67.67,0,0,1,.13-.19.7.7,0,0,1,.49-.2h1.42A.7.7,0,0,1,30.78,63.55Z" transform="translate(-7.27 -4.43)"/><rect class="cls-10" x="10.07" y="48.94" width="24.21" height="3.59"/><path class="cls-9" d="M41.82,57.23H17.08V53.1H41.82Zm-24.21-.53H41.29V53.64H17.61Z" transform="translate(-7.27 -4.43)"/><g id="_Group_" data-name=" Group "><path id="_Path_" data-name=" Path " class="cls-20" d="M24.16,54.57v.79h.24v.25H19.48a.65.65,0,1,1,0-1.3H24.4v.25Z" transform="translate(-7.27 -4.43)"/><path class="cls-4" d="M19.48,55.86a.9.9,0,0,1,0-1.8h5.17v.76h-.24v.29h.24v.76H19.48Zm0-1.3a.4.4,0,0,0-.4.4.4.4,0,0,0,.4.4h4.43v-.79Z" transform="translate(-7.27 -4.43)"/><path id="_Path_2" data-name=" Path 2" class="cls-21" d="M21.74,55v.65H19.48a.62.62,0,0,1-.65-.58.48.48,0,0,1,0-.07Z" transform="translate(-7.27 -4.43)"/><path class="cls-4" d="M19.48,55.86a.9.9,0,0,1,0-1.8h5.17v.76h-.24v.29h.24v.76H19.48Zm0-1.3a.4.4,0,0,0-.4.4.4.4,0,0,0,.4.4h4.43v-.79Z" transform="translate(-7.27 -4.43)"/><path id="_Path_4" data-name=" Path 4" class="cls-22" d="M26.33,54.57v.79h.11a.13.13,0,0,1,.13.13h0a.13.13,0,0,1-.13.13H21.66A.66.66,0,0,1,21,55a.65.65,0,0,1,.64-.66h4.8a.13.13,0,0,1,.13.13h0a.13.13,0,0,1-.13.13h-.11Z" transform="translate(-7.27 -4.43)"/><path class="cls-4" d="M21.65,55.87a.92.92,0,0,1-.91-.88.9.9,0,0,1,.89-.92h4.81a.38.38,0,0,1,.14.73v.34a.38.38,0,0,1-.14.73H21.65Zm0-1.3a.4.4,0,0,0-.39.4.41.41,0,0,0,.41.39h4.42v-.79Zm4.82-.25h0Z" transform="translate(-7.27 -4.43)"/><path class="cls-4" d="M20.06,55.87a.9.9,0,0,1,0-1.8h.1a.25.25,0,0,1,0,.5h-.09a.4.4,0,1,0,0,.79h.11a.25.25,0,1,1,0,.5h-.11Z" transform="translate(-7.27 -4.43)"/><path class="cls-4" d="M20.82,55.87a.9.9,0,0,1,0-1.8h.08a.25.25,0,0,1,0,.5h-.08a.4.4,0,1,0,0,.79h.11a.25.25,0,0,1,0,.5h-.11Z" transform="translate(-7.27 -4.43)"/><path id="_Path_7" data-name=" Path 7" class="cls-23" d="M26.33,55.36H21.69a.4.4,0,0,1-.4-.4h0a.4.4,0,0,1,.4-.4h4.64Z" transform="translate(-7.27 -4.43)"/><path class="cls-4" d="M26.58,55.61H21.69a.65.65,0,1,1,0-1.3h4.89Zm-4.89-.79a.14.14,0,1,0,0,.29h4.39v-.29Z" transform="translate(-7.27 -4.43)"/><path id="_Path_8" data-name=" Path 8" class="cls-23" d="M20.82,55.61h-.76a.65.65,0,0,1,0-1.3h.77a.65.65,0,0,0,0,1.3Z" transform="translate(-7.27 -4.43)"/><path class="cls-4" d="M20.06,55.87a.9.9,0,0,1,0-1.8h.77v.5a.4.4,0,0,0,0,.79v.5h-.76Zm0-1.3a.4.4,0,0,0-.35.4.4.4,0,0,0,.35.39.9.9,0,0,1,0-.79Z" transform="translate(-7.27 -4.43)"/><path id="_Path_9" data-name=" Path 9" class="cls-24" d="M20.82,55.61h-.76a.65.65,0,0,1-.65-.65h.76a.65.65,0,0,0,.65.65Z" transform="translate(-7.27 -4.43)"/><path id="_Path_10" data-name=" Path 10" class="cls-24" d="M26.33,54.57v.25H21.69a.4.4,0,0,0-.38.27.4.4,0,0,1,.25-.5l.13,0Z" transform="translate(-7.27 -4.43)"/><path class="cls-4" d="M20.06,55.87a.9.9,0,0,1,0-1.8h.77v.5a.4.4,0,0,0,0,.79v.5h-.76Zm0-1.3a.4.4,0,0,0-.35.4.4.4,0,0,0,.35.39.9.9,0,0,1,0-.79Z" transform="translate(-7.27 -4.43)"/><path class="cls-4" d="M26.58,55.61H21.69a.65.65,0,1,1,0-1.3h4.89Zm-4.89-.79a.14.14,0,1,0,0,.29h4.39v-.29Z" transform="translate(-7.27 -4.43)"/></g><path id="_Path_13" data-name=" Path 13" class="cls-25" d="M31.92,55.44v1.11h.34v.36H27.85a.91.91,0,0,1-.12-1.82h4.53v.36Z" transform="translate(-7.27 -4.43)"/><path id="_Path_14" data-name=" Path 14" class="cls-26" d="M31.68,56v.91H27.85a.87.87,0,0,1-.91-.82.67.67,0,0,1,0-.1Z" transform="translate(-7.27 -4.43)"/><path class="cls-4" d="M27.78,57.16a1.17,1.17,0,0,1-.06-2.33h4.79v.86h-.34v.61h.34v.86H27.78Zm0-1.83a.66.66,0,0,0,.09,1.32h3.83V55.34Z" transform="translate(-7.27 -4.43)"/><path id="_Path_16" data-name=" Path 16" class="cls-27" d="M38.18,55.44v1.11h.17a.18.18,0,0,1,.18.18h0a.18.18,0,0,1-.18.18H31.63a.93.93,0,0,1-.94-.9.91.91,0,0,1,.9-.93h6.75a.18.18,0,0,1,.18.18h0a.18.18,0,0,1-.18.18Z" transform="translate(-7.27 -4.43)"/><path class="cls-4" d="M31.62,57.16A1.19,1.19,0,0,1,30.44,56a1.17,1.17,0,0,1,1.15-1.19h6.76a.43.43,0,0,1,.09.85v.63a.43.43,0,0,1-.09.85H31.62Zm6.73-.36h0Zm-6.75-1.47a.66.66,0,0,0-.65.67.68.68,0,0,0,.68.65h6.31V55.34Zm6.75-.15h0Z" transform="translate(-7.27 -4.43)"/><path id="_Rectangle_6" data-name=" Rectangle 6" class="cls-23" d="M31.68,55.44h6.52v1.11H31.68a.56.56,0,0,1-.56-.56h0a.56.56,0,0,1,.56-.56Z" transform="translate(-7.27 -4.43)"/><path class="cls-4" d="M38.44,56.81H31.68a.81.81,0,1,1,0-1.62h6.77Zm-6.77-1.11a.3.3,0,0,0,0,.61h6.26v-.61Z" transform="translate(-7.27 -4.43)"/><path id="_Path_17" data-name=" Path 17" class="cls-23" d="M30.13,56.91h-.39a.91.91,0,0,1-.12-1.82h.51A.91.91,0,0,0,30,56.91h.12Z" transform="translate(-7.27 -4.43)"/><path class="cls-4" d="M29.67,57.17a1.17,1.17,0,0,1-.06-2.33h.54l0,.5H30a.66.66,0,0,0,0,1.32h.1v.5h-.46Z" transform="translate(-7.27 -4.43)"/><path id="_Path_18" data-name=" Path 18" class="cls-24" d="M30.13,56.91h-.39a.91.91,0,0,1-.91-.91h.39a.91.91,0,0,0,.91.91Z" transform="translate(-7.27 -4.43)"/><path id="_Path_19" data-name=" Path 19" class="cls-24" d="M38.18,55.44v.36h-6.5a.56.56,0,0,0-.53.38.56.56,0,0,1,.35-.7l.18,0Z" transform="translate(-7.27 -4.43)"/><path class="cls-4" d="M30,57.16h-.29A.25.25,0,0,1,29.5,57a1.17,1.17,0,0,1-.32-.25,1.17,1.17,0,0,1-.09-1.43h0a.25.25,0,1,1,0-.5h1.08l0,.5H30a.66.66,0,0,0,0,1.32Z" transform="translate(-7.27 -4.43)"/><path class="cls-4" d="M29.69,57.16a1.17,1.17,0,0,1-1.16-1.11,1.17,1.17,0,0,1,1.09-1.22h.12a.25.25,0,1,1,0,.5h-.1a.66.66,0,0,0-.39,1.15.65.65,0,0,0,.48.17.26.26,0,0,1,.26.24.25.25,0,0,1-.24.26Z" transform="translate(-7.27 -4.43)"/><path class="cls-4" d="M38.44,56.81H31.68a.81.81,0,1,1,0-1.62h6.77Zm-6.77-1.11a.3.3,0,0,0,0,.61h6.26v-.61Z" transform="translate(-7.27 -4.43)"/><g id="_Group_2" data-name=" Group 2"><path id="_Path_22" data-name=" Path 22" class="cls-28" d="M23.2,55.87v.79h.24v.25H18.52a.65.65,0,0,1,0-1.3h4.93v.25Z" transform="translate(-7.27 -4.43)"/><path class="cls-4" d="M23.69,57.16H18.52a.9.9,0,0,1,0-1.8H23.7v.76h-.25v.29h.24Zm-5.18-1.3a.4.4,0,0,0,0,.79h4.43v-.79Z" transform="translate(-7.27 -4.43)"/><path id="_Path_23" data-name=" Path 23" class="cls-29" d="M20.77,56.26v.65H18.52a.62.62,0,0,1-.65-.58.48.48,0,0,1,0-.07Z" transform="translate(-7.27 -4.43)"/><path class="cls-4" d="M23.69,57.16H18.52a.9.9,0,0,1,0-1.8H23.7v.76h-.25v.29h.24Zm-5.18-1.3a.4.4,0,0,0,0,.79h4.43v-.79Z" transform="translate(-7.27 -4.43)"/><path id="_Path_25" data-name=" Path 25" class="cls-30" d="M25.36,55.87v.79h.12a.13.13,0,0,1,.13.13h0a.13.13,0,0,1-.13.13H20.69a.66.66,0,0,1-.67-.64.65.65,0,0,1,.64-.66h4.81a.13.13,0,0,1,.13.13h0a.13.13,0,0,1-.13.13h-.12Z" transform="translate(-7.27 -4.43)"/><path class="cls-4" d="M20.68,57.17a.92.92,0,0,1-.91-.88.9.9,0,0,1,.89-.92h4.81a.38.38,0,0,1,.14.73v.33a.38.38,0,0,1-.13.74H20.68Zm0-1.3a.4.4,0,0,0-.39.4.41.41,0,0,0,.41.39h4.42v-.79Zm4.82-.25h0Z" transform="translate(-7.27 -4.43)"/><path id="_Path_26" data-name=" Path 26" class="cls-23" d="M25.36,56.66H20.72a.4.4,0,0,1-.4-.4h0a.4.4,0,0,1,.4-.4h4.64Z" transform="translate(-7.27 -4.43)"/><path class="cls-4" d="M25.61,56.91H20.72a.65.65,0,0,1,0-1.3h4.89Zm-4.89-.79a.14.14,0,0,0,0,.29h4.39v-.29Z" transform="translate(-7.27 -4.43)"/><path id="_Path_27" data-name=" Path 27" class="cls-24" d="M25.36,55.87v.25H20.72a.4.4,0,0,0-.38.27.4.4,0,0,1,.25-.5l.13,0Z" transform="translate(-7.27 -4.43)"/><path class="cls-4" d="M25.61,56.91H20.72a.65.65,0,0,1,0-1.3h4.89Zm-4.89-.79a.14.14,0,0,0,0,.29h4.39v-.29Z" transform="translate(-7.27 -4.43)"/><path class="cls-4" d="M19,57.16a.9.9,0,0,1,0-1.8h.77v.5a.4.4,0,0,0-.4.4.4.4,0,0,0,.4.4v.5H19Zm0-1.3a.4.4,0,0,0,0,.79.9.9,0,0,1,0-.79Z" transform="translate(-7.27 -4.43)"/></g><polygon id="_Path_30" data-name=" Path 30" class="cls-4" points="20.45 47.38 23.12 47.38 23.12 40.97 20.45 47.38 20.45 47.38"/><polygon id="_Path_31" data-name=" Path 31" class="cls-20" points="22.98 47.42 28.75 47.42 27.55 39.96 21.79 39.96 22.98 47.42"/><path class="cls-4" d="M36.32,52.1H30l-1.28-8H35Zm-5.85-.5h5.26l-1.12-7H29.35Z" transform="translate(-7.27 -4.43)"/><polygon id="_Path_32" data-name=" Path 32" class="cls-25" points="24.18 46.01 27.55 46.01 26.75 41.38 23.38 41.38 24.18 46.01"/><path class="cls-4" d="M35.12,50.69H31.24l-.89-5.13h3.89Zm-3.46-.5h2.87l-.71-4.13H30.95Z" transform="translate(-7.27 -4.43)"/><polygon id="_Path_33" data-name=" Path 33" class="cls-12" points="27 46.01 27.55 46.01 27.29 44.48 26.04 41.38 24.86 41.38 27 46.01"/><polygon id="_Path_34" data-name=" Path 34" class="cls-12" points="26.48 46.01 26.75 46.01 24.61 41.38 24.34 41.38 26.48 46.01"/><path class="cls-4" d="M35.12,50.69H31.24l-.89-5.13h3.89Zm-3.46-.5h2.87l-.71-4.13H30.95Z" transform="translate(-7.27 -4.43)"/><polygon id="_Path_36" data-name=" Path 36" class="cls-4" points="10.87 47.36 14.38 47.36 14.38 38.95 10.87 47.36 10.87 47.36"/><polygon id="_Path_37" data-name=" Path 37" class="cls-18" points="14.38 47.42 21.78 47.42 20.21 37.62 12.81 37.62 14.38 47.42"/><path class="cls-4" d="M29.05,52.1h-7.4a.25.25,0,0,1-.25-.21l-1.57-9.8a.25.25,0,0,1,.25-.29h7.4a.25.25,0,0,1,.25.21l1.57,9.8a.25.25,0,0,1-.25.29Zm-7.19-.5h6.89L27.26,42.3H20.37Z" transform="translate(-7.27 -4.43)"/><polygon id="_Path_38" data-name=" Path 38" class="cls-25" points="15.77 45.56 20.21 45.56 19.16 39.48 14.72 39.48 15.77 45.56"/><path class="cls-4" d="M27.78,50.24h-5l-1.13-6.58h4.95Zm-4.53-.5h3.93l-1-5.57H22.29Z" transform="translate(-7.27 -4.43)"/><polygon id="_Path_39" data-name=" Path 39" class="cls-12" points="19.49 45.56 20.21 45.56 19.86 43.55 18.22 39.48 16.68 39.48 19.49 45.56"/><polygon id="_Path_40" data-name=" Path 40" class="cls-12" points="18.8 45.56 19.16 45.56 16.35 39.48 15.99 39.48 18.8 45.56"/><path class="cls-4" d="M27.78,50.24h-5l-1.13-6.58h4.95Zm-4.53-.5h3.93l-1-5.57H22.29Z" transform="translate(-7.27 -4.43)"/><rect id="_Rectangle_8" data-name=" Rectangle 8" class="cls-12" x="88.27" y="9.66" width="11.78" height="9.47"/><path class="cls-4" d="M107.57,23.82H95.28v-10h12.29Zm-11.78-.5h11.28v-9H95.79Z" transform="translate(-7.27 -4.43)"/><rect id="_Rectangle_9" data-name=" Rectangle 9" class="cls-15" x="88.27" y="0.25" width="5.26" height="5.52"/><path class="cls-4" d="M101,10.46H95.28v-6H101ZM95.79,10h4.76v-5H95.79Z" transform="translate(-7.27 -4.43)"/><rect id="_Rectangle_10" data-name=" Rectangle 10" class="cls-25" x="89.18" y="1.23" width="3.43" height="3.63"/><path class="cls-4" d="M100.13,9.54H96.2V5.41h3.93ZM96.7,9h2.92V5.91H96.7Z" transform="translate(-7.27 -4.43)"/><rect id="_Rectangle_11" data-name=" Rectangle 11" class="cls-25" x="89.58" y="10.95" width="9.07" height="6.86"/><path class="cls-4" d="M106.17,22.49H96.59V15.13h9.58ZM97.1,22h8.57V15.63H97.1Z" transform="translate(-7.27 -4.43)"/><polygon class="cls-12" points="92.04 17.81 91.21 17.81 93.74 10.95 94.57 10.95 92.04 17.81"/><polygon class="cls-12" points="94.57 17.81 92.89 17.81 95.42 10.95 97.1 10.95 94.57 17.81"/><polygon class="cls-12" points="89.9 4.86 89.39 4.86 90.53 1.23 91.04 1.23 89.9 4.86"/><polygon class="cls-12" points="91.47 4.86 90.43 4.86 91.57 1.23 92.61 1.23 91.47 4.86"/><rect class="cls-4" x="89.58" y="10.7" width="9.07" height="0.5"/><path class="cls-4" d="M100.13,9.54H96.2V5.41h3.93ZM96.7,9h2.92V5.91H96.7Z" transform="translate(-7.27 -4.43)"/><rect id="_Rectangle_13" data-name=" Rectangle 13" class="cls-18" x="56.6" y="9.66" width="11.78" height="9.47"/><path class="cls-4" d="M75.65,23.82H63.87a.25.25,0,0,1-.25-.25V14.1a.25.25,0,0,1,.25-.25H75.65a.25.25,0,0,1,.25.25v9.47A.25.25,0,0,1,75.65,23.82Zm-11.53-.5H75.4v-9H64.12Z" transform="translate(-7.27 -4.43)"/><rect id="_Rectangle_14" data-name=" Rectangle 14" class="cls-20" x="62.88" y="0.25" width="5.26" height="5.52"/><path class="cls-4" d="M75.66,10.46H69.9v-6h5.76ZM70.4,10h4.76v-5H70.4Z" transform="translate(-7.27 -4.43)"/><rect id="_Rectangle_15" data-name=" Rectangle 15" class="cls-25" x="63.8" y="1.23" width="3.43" height="3.63"/><path class="cls-4" d="M74.75,9.54H70.82V5.41h3.93ZM71.32,9h2.92V5.91H71.32Z" transform="translate(-7.27 -4.43)"/><rect id="_Rectangle_16" data-name=" Rectangle 16" class="cls-25" x="57.9" y="10.95" width="9.07" height="6.86"/><path class="cls-4" d="M74.5,22.49H64.92V15.13H74.5ZM65.43,22H74V15.63H65.43Z" transform="translate(-7.27 -4.43)"/><polygon class="cls-12" points="60.37 17.81 59.54 17.81 62.07 10.95 62.9 10.95 60.37 17.81"/><polygon class="cls-12" points="62.9 17.81 61.22 17.81 63.75 10.95 65.43 10.95 62.9 17.81"/><polygon class="cls-12" points="64.52 4.86 64.01 4.86 65.14 1.23 65.66 1.23 64.52 4.86"/><polygon class="cls-12" points="66.08 4.86 65.05 4.86 66.18 1.23 67.22 1.23 66.08 4.86"/><rect class="cls-4" x="57.9" y="10.7" width="9.07" height="0.5"/><path class="cls-4" d="M74.75,9.54H70.82V5.41h3.93ZM71.32,9h2.92V5.91H71.32Z" transform="translate(-7.27 -4.43)"/><rect id="_Rectangle_18" data-name=" Rectangle 18" class="cls-6" x="71.53" y="3.38" width="11.78" height="9.47"/><path class="cls-4" d="M90.85,17.55H78.54v-10H90.85ZM79.07,17H90.32V8.08H79.07Z" transform="translate(-7.27 -4.43)"/><rect id="_Rectangle_19" data-name=" Rectangle 19" class="cls-25" x="72.84" y="4.67" width="9.07" height="6.86"/><path class="cls-4" d="M89.43,16.21H79.86V8.85h9.58Zm-9.07-.5h8.57V9.35H80.36Z" transform="translate(-7.27 -4.43)"/><polygon class="cls-12" points="75.31 11.53 74.48 11.53 77.01 4.67 77.83 4.67 75.31 11.53"/><polygon class="cls-12" points="77.83 11.53 76.16 11.53 78.69 4.67 80.36 4.67 77.83 11.53"/><rect class="cls-4" x="72.84" y="4.42" width="9.07" height="0.5"/><path class="cls-4" d="M86.42,16.21H81a.25.25,0,0,1,0-.5h5.43a.25.25,0,1,1,0,.5Z" transform="translate(-7.27 -4.43)"/><path class="cls-4" d="M71.28,22.49H65.85a.25.25,0,0,1,0-.5h5.43a.25.25,0,1,1,0,.5Z" transform="translate(-7.27 -4.43)"/><path class="cls-4" d="M103.1,22.49H97.67a.25.25,0,0,1,0-.5h5.44a.25.25,0,1,1,0,.5Z" transform="translate(-7.27 -4.43)"/><path class="cls-18" d="M135.9,48.66a.48.48,0,0,1-.46.33h0l-7.59,0-9.46,0V45.55l9.72,1.19,3,.36.62-.67a.6.6,0,0,1,.7-.12l3.23,1.76A.48.48,0,0,1,135.9,48.66Z" transform="translate(-7.27 -4.43)"/><path class="cls-4" d="M135.44,49.24l-17.3-.06V45.27L131,46.84l.54-.58a.85.85,0,0,1,1-.17l3.23,1.76a.73.73,0,0,1,.39.88h0A.73.73,0,0,1,135.44,49.24Zm-16.8-.57,16.8.06a.23.23,0,0,0,.22-.16.23.23,0,0,0-.13-.28l-3.25-1.77a.34.34,0,0,0-.4.07l-.71.76-12.53-1.53Z" transform="translate(-7.27 -4.43)"/><g id="_Group_3" data-name=" Group 3"><path id="_Path_42" data-name=" Path 42" class="cls-20" d="M96.14,48.66a1,1,0,0,0,1.14.11l7-4.1a1,1,0,1,0-.94-1.71h0l0,0-7,4.1a1,1,0,0,0-.15,1.57Z" transform="translate(-7.27 -4.43)"/><path class="cls-4" d="M96.39,49.22,96,48.85a1.23,1.23,0,0,1,.19-2l7-4.13a1.23,1.23,0,1,1,1.19,2.15l-7,4.1a1.23,1.23,0,0,1-1,.11Zm-.13-.78,0,0a.72.72,0,0,0,.84.08l7-4.11a.73.73,0,0,0,.29-1,.72.72,0,0,0-1-.29l-7,4.13a.72.72,0,0,0-.26,1A.74.74,0,0,0,96.26,48.44Z" transform="translate(-7.27 -4.43)"/></g><path id="_Path_43" data-name=" Path 43" class="cls-18" d="M100.87,42.08l1.58.8c2.84,0,5.33-2.36,4.66-5.12l-1-5.51a3.91,3.91,0,0,0-4.18-2.91h0A3.78,3.78,0,0,0,98.11,33a.58.58,0,0,0,0,.25V37.7A4.92,4.92,0,0,0,100.87,42.08Z" transform="translate(-7.27 -4.43)"/><path class="cls-4" d="M102.45,43.14h-.06l-1.63-.83a5.14,5.14,0,0,1-2.85-4.61V33.29a.84.84,0,0,1,0-.3,4,4,0,0,1,4-3.9h0c2.33,0,3.86,1.07,4.42,3.1l1,5.53a4,4,0,0,1-.79,3.48A5.25,5.25,0,0,1,102.45,43.14Zm-.56-13.55A3.52,3.52,0,0,0,98.36,33a.33.33,0,0,0,0,.14l0,0V37.7A4.64,4.64,0,0,0,101,41.86h0l1.52.78a4.81,4.81,0,0,0,3.66-1.75,3.52,3.52,0,0,0,.69-3.06l-1-5.52a3.7,3.7,0,0,0-3.93-2.71Z" transform="translate(-7.27 -4.43)"/><path id="_Path_44" data-name=" Path 44" class="cls-31" d="M105.29,40.92c-.26-.11-.38-.63-.68-.63l-.22.17c0-.06-.21.06-.2,0s-1.12.43-.82-.81l.16-1.1a3.41,3.41,0,0,0,1-2.36l.45-2.36v-.1l.84,3.56A4.77,4.77,0,0,1,105.29,40.92Z" transform="translate(-7.27 -4.43)"/><path id="_Path_45" data-name=" Path 45" class="cls-20" d="M106.43,42.57l3.33,1.12a3,3,0,0,0,1.87,0h0a3,3,0,0,1,1.75,0l5,1.48-.29,2a2.13,2.13,0,0,1-2.11,1.81h-5.84l-11.28-4L98,43.49v-1a2.38,2.38,0,0,1,2.38-2.38h3.86C105.87,40.16,106.43,41.24,106.43,42.57Z" transform="translate(-7.27 -4.43)"/><path class="cls-4" d="M115.95,49.31H110l-11.37-4-.87-1.74v-1a2.64,2.64,0,0,1,2.63-2.63h3.86a2.27,2.27,0,0,1,2.4,2.49l3.16,1.07a2.77,2.77,0,0,0,1.71,0,3.28,3.28,0,0,1,1.89,0L118.63,45l-.32,2.25A2.37,2.37,0,0,1,115.95,49.31Zm-5.8-.5h5.8a1.87,1.87,0,0,0,1.86-1.6l.26-1.82L113.3,44a2.78,2.78,0,0,0-1.6,0,3.27,3.27,0,0,1-2,0l-3.5-1.18v-.18c0-1.43-.64-2.16-1.9-2.17h-3.86a2.13,2.13,0,0,0-2.13,2.13v.9L99,44.89Zm-3.47-6.23h0Z" transform="translate(-7.27 -4.43)"/><path id="_Path_46" data-name=" Path 46" class="cls-32" d="M103.31,38.3v1.48a2.38,2.38,0,0,1-1.39.46h-.48a1.94,1.94,0,0,1-.89-.22h0V38.86h0Z" transform="translate(-7.27 -4.43)"/><path class="cls-20" d="M104.9,42.89,108.83,47s.06.11,0,.11h-5.5V49h6.75a1.46,1.46,0,0,0,1.09-2.4l-4.37-4.85-.41-.68a2,2,0,0,0-1.69-1h-1.39v-2l-2.76-.29v2.39l-1.37,2.46h.09" transform="translate(-7.27 -4.43)"/><path class="cls-4" d="M103.33,49.29h-.25V46.9h5.27l-3.63-3.84a.25.25,0,1,1,.37-.35L109,46.87a.35.35,0,0,1,.08.37.29.29,0,0,1-.26.16h-5.24v1.37h6.5a1.2,1.2,0,0,0,.9-2l-4.39-4.88-.41-.68a1.72,1.72,0,0,0-1.47-.83h-1.64v-2l-2.26-.24v2.18l-1.29,2.32a.26.26,0,0,1,0,.08.25.25,0,0,1-.25.25h-.52l1.54-2.78v-2.6l3.27.34v2h1.14a2.23,2.23,0,0,1,1.9,1.07l.39.66,4.35,4.83a1.71,1.71,0,0,1-1.27,2.82Zm5.31-2.08h0Z" transform="translate(-7.27 -4.43)"/><path id="_Path_47" data-name=" Path 47" class="cls-20" d="M104.68,43.62A1.91,1.91,0,0,1,105,44.7h0a1.92,1.92,0,0,1-1.92,1.91h-4a1.92,1.92,0,0,1-1.92-1.92h0A1.91,1.91,0,0,1,98,43.12" transform="translate(-7.27 -4.43)"/><path class="cls-4" d="M103.09,46.86h-4a2.17,2.17,0,0,1-1.24-3.95.25.25,0,0,1,.29.41,1.66,1.66,0,0,0,.95,3h4a1.67,1.67,0,0,0,1.66-1.66,1.65,1.65,0,0,0-.28-.93.25.25,0,0,1,.42-.28,2.16,2.16,0,0,1-1.8,3.37Z" transform="translate(-7.27 -4.43)"/><path id="_Path_48" data-name=" Path 48" class="cls-33" d="M98.55,37.09c0-1.37.55-3.49-.06-4.23-.32-.39-1.16.2-1.16.23Z" transform="translate(-7.27 -4.43)"/><path class="cls-4" d="M98.8,38.77l-1.73-5.68c0-.28.62-.51.69-.53.54-.19.81,0,.92.14.49.58.36,1.74.23,3a14.08,14.08,0,0,0-.11,1.43Zm-1.19-5.58.78,2.55v-.13c.11-1,.23-2.16-.12-2.58a.12.12,0,0,0-.1,0A1.2,1.2,0,0,0,97.61,33.19Z" transform="translate(-7.27 -4.43)"/><path id="_Path_49" data-name=" Path 49" class="cls-34" d="M104.7,33.8v2.36h0a3.39,3.39,0,0,1-3.39,3.39h0a3.39,3.39,0,0,1-3.39-3.39h0V33.25a1.75,1.75,0,0,1,1.75-1.75H103a1.75,1.75,0,0,1,1.75,1.75v.84" transform="translate(-7.27 -4.43)"/><path id="_Path_50" data-name=" Path 50" class="cls-32" d="M104.7,33.8v2.36h0a3.39,3.39,0,0,1-3.39,3.39h-.66a3.39,3.39,0,0,0,3.27-3.39h0V33.25a1.75,1.75,0,0,0-1.75-1.75h.77a1.75,1.75,0,0,1,1.75,1.75v.55Z" transform="translate(-7.27 -4.43)"/><path class="cls-4" d="M101.32,39.79a3.65,3.65,0,0,1-3.64-3.64V33.21a2,2,0,0,1,2-2H103a2,2,0,0,1,2,2v.84a.25.25,0,0,1,0,.09v2a3.64,3.64,0,0,1-3.64,3.64Zm-1.64-8.07a1.5,1.5,0,0,0-1.49,1.49v2.93a3.14,3.14,0,1,0,6.27,0V33.78a.25.25,0,0,1,0-.09v-.47A1.5,1.5,0,0,0,103,31.72Z" transform="translate(-7.27 -4.43)"/><path class="cls-4" d="M99.91,36.88a.77.77,0,0,1-.76-.76.25.25,0,0,1,.5,0,.26.26,0,0,0,.26.26.25.25,0,1,1,0,.5Z" transform="translate(-7.27 -4.43)"/><path class="cls-4" d="M99.28,34.71a.25.25,0,0,1-.21-.11L99,34.5a.59.59,0,0,0-.83.06.25.25,0,0,1-.38-.33,1.09,1.09,0,0,1,1.72.08.25.25,0,0,1-.21.4Z" transform="translate(-7.27 -4.43)"/><circle id="_Path_54" data-name=" Path 54" class="cls-12" cx="91.28" cy="30.65" r="0.42"/><path class="cls-4" d="M98.55,35.75a.67.67,0,1,1,.67-.67A.67.67,0,0,1,98.55,35.75Zm0-.83a.16.16,0,1,0,.16.16A.16.16,0,0,0,98.55,34.92Z" transform="translate(-7.27 -4.43)"/><circle id="_Path_55" data-name=" Path 55" class="cls-4" cx="91.22" cy="30.78" r="0.21"/><circle id="_Path_56" data-name=" Path 56" class="cls-12" cx="93.93" cy="30.65" r="0.42"/><path class="cls-4" d="M101.2,35.75a.67.67,0,1,1,.67-.67A.67.67,0,0,1,101.2,35.75Zm0-.83a.16.16,0,1,0,.16.16A.16.16,0,0,0,101.2,34.92Z" transform="translate(-7.27 -4.43)"/><ellipse id="_Path_57" data-name=" Path 57" class="cls-4" cx="93.88" cy="30.78" rx="0.2" ry="0.21"/><path id="_Path_58" data-name=" Path 58" class="cls-20" d="M99.27,37.75l.1.15a.5.5,0,0,0,.2.19.86.86,0,0,0,.72,0,.51.51,0,0,0,.18-.16l.13-.19c-.25,0-.33-.17-.47-.17h-.47C99.53,37.56,99.51,37.77,99.27,37.75Z" transform="translate(-7.27 -4.43)"/><path class="cls-20" d="M99.93,38.41a1.1,1.1,0,0,1-.46-.1.76.76,0,0,1-.31-.28l-.09-.13a.25.25,0,0,1,.22-.41h0l0,0a.43.43,0,0,1,.34-.14h.45a.53.53,0,0,1,.3.1.28.28,0,0,0,.17.06.25.25,0,0,1,.21.4l-.13.19a.76.76,0,0,1-.27.24A1.14,1.14,0,0,1,99.93,38.41Zm-.26-.56h0a.6.6,0,0,0,.5,0h0l0,0H99.7Zm0,0h0Z" transform="translate(-7.27 -4.43)"/><path class="cls-4" d="M102,34.71a.25.25,0,0,1-.21-.11l-.1-.11a.59.59,0,0,0-.83.06.25.25,0,0,1-.38-.33,1.09,1.09,0,0,1,1.72.08.25.25,0,0,1-.21.4Z" transform="translate(-7.27 -4.43)"/><path id="_Path_60" data-name=" Path 60" class="cls-18" d="M103.93,35.68V34.2a.22.22,0,0,0-.22-.22c-1.41,0-5,.2-6.38-.89h0a4.14,4.14,0,0,1,4.4-4.08h0a4.21,4.21,0,0,1,4.4,3.43l.52,2.77" transform="translate(-7.27 -4.43)"/><path class="cls-4" d="M104.18,35.68h-.5V34.23h-.55c-1.74,0-4.66.07-6-1l-.1-.08v-.12a4.4,4.4,0,0,1,4.65-4.33,4.45,4.45,0,0,1,4.65,3.64l.52,2.77-.5.09-.52-2.77a4.23,4.23,0,0,0-8.3.47c1.22.83,4,.8,5.54.77h.58a.48.48,0,0,1,.48.47Z" transform="translate(-7.27 -4.43)"/><path id="_Path_61" data-name=" Path 61" class="cls-32" d="M103.93,35.77a.85.85,0,1,1,.43.74" transform="translate(-7.27 -4.43)"/><path class="cls-4" d="M104.77,36.87h0a1.1,1.1,0,0,1-.54-.14.25.25,0,0,1,.25-.44.6.6,0,0,0,.29.08h0a.6.6,0,1,0,0-1.19h0a.6.6,0,0,0-.6.6.25.25,0,0,1-.25.25h0a.25.25,0,0,1-.25-.25,1.1,1.1,0,0,1,1.1-1.1h0a1.1,1.1,0,0,1,0,2.2Z" transform="translate(-7.27 -4.43)"/><path id="_Path_62" data-name=" Path 62" class="cls-34" d="M100.79,39l.61,1.16a.31.31,0,0,1-.1.41h0a.31.31,0,0,1-.43-.09v0l-.47-.85" transform="translate(-7.27 -4.43)"/><path class="cls-4" d="M101.12,40.84a.57.57,0,0,1-.48-.26l0-.06v0l-.43-.79a.25.25,0,1,1,.44-.24l.48.87a.06.06,0,0,0,.06,0,.06.06,0,0,0,0-.08l-.61-1.16a.25.25,0,1,1,.45-.23l.61,1.16a.56.56,0,0,1-.5.83Z" transform="translate(-7.27 -4.43)"/><path class="cls-4" d="M105.12,36a.25.25,0,0,1-.25-.25.09.09,0,0,0-.09-.09.25.25,0,1,1,0-.5.6.6,0,0,1,.6.6A.25.25,0,0,1,105.12,36Z" transform="translate(-7.27 -4.43)"/><circle id="_Path_64" data-name=" Path 64" class="cls-12" cx="97.45" cy="32.03" r="0.22"/><g id="_Group_4" data-name=" Group 4"><path class="cls-4" d="M98.77,40a.25.25,0,0,1-.23-.15L98,38.78a.25.25,0,1,1,.46-.21L99,39.65a.25.25,0,0,1-.13.33Z" transform="translate(-7.27 -4.43)"/><path id="_Path_66" data-name=" Path 66" class="cls-34" d="M98.69,39.41a.24.24,0,0,0,.29-.33L98.49,38a.24.24,0,0,0-.44.2l.49,1.08A.24.24,0,0,0,98.69,39.41Z" transform="translate(-7.27 -4.43)"/><path class="cls-4" d="M98.76,39.67l-.14,0h0a.49.49,0,0,1-.31-.27l-.49-1.08A.5.5,0,0,1,98,37.7a.5.5,0,0,1,.68.17l.5,1.1a.5.5,0,0,1,0,.34.5.5,0,0,1-.48.36Z" transform="translate(-7.27 -4.43)"/></g><g id="_Group_5" data-name=" Group 5"><path id="_Path_67" data-name=" Path 67" class="cls-34" d="M96.76,48.86a1,1,0,0,0,.93-.67l2.54-7.69a1,1,0,0,0-1.84-.66v0l-2.54,7.68a1,1,0,0,0,.93,1.28Z" transform="translate(-7.27 -4.43)"/><path class="cls-4" d="M96.51,49.11v0l-.13,0a1.23,1.23,0,0,1-.78-1.55l2.55-7.72a1.23,1.23,0,1,1,2.32.82l-2.54,7.69a1.23,1.23,0,0,1-1.16.84Zm2.8-9.67a.73.73,0,0,0-.68.48v0l-2.54,7.69a.72.72,0,0,0,.46.91.74.74,0,0,0,.23,0h.13a.72.72,0,0,0,.56-.49L100,40.41a.72.72,0,0,0-.68-1Z" transform="translate(-7.27 -4.43)"/></g><path id="_Path_68" data-name=" Path 68" class="cls-34" d="M100.16,40.7l.69-1.21a.47.47,0,0,0-.17-.63l0,0-1.48-.63a.47.47,0,0,0-.65.39l-.12,1.31" transform="translate(-7.27 -4.43)"/><path class="cls-4" d="M100.16,41a.25.25,0,0,1-.22-.38l.69-1.21a.21.21,0,0,0-.08-.29l0,0L99,38.43a.22.22,0,0,0-.16,0,.21.21,0,0,0-.12.11.2.2,0,0,0,0,.07l-.12,1.31a.25.25,0,0,1-.5,0l.12-1.31a.7.7,0,0,1,.06-.22.72.72,0,0,1,.94-.37l1.55.67a.72.72,0,0,1,.27,1l-.69,1.21A.25.25,0,0,1,100.16,41Z" transform="translate(-7.27 -4.43)"/><path class="cls-4" d="M101.11,49.29a.25.25,0,0,1-.24-.17l-2-5.79a.25.25,0,1,1,.48-.16l2,5.79a.25.25,0,0,1-.16.32Z" transform="translate(-7.27 -4.43)"/><polygon class="cls-25" points="88.31 36.68 91.85 38.81 97.52 38.81 99.37 44.6 93.84 44.6 90.04 42.63 88.31 36.68"/><path class="cls-4" d="M106.64,49.29h-5.53l-.12,0-3.8-2a.25.25,0,0,1-.13-.15l-1.73-6a.25.25,0,0,1,.37-.29L99.19,43h5.6a.25.25,0,0,1,.24.18L106.88,49a.25.25,0,0,1-.24.33Zm-5.47-.5h5.12L104.6,43.5H99.12a.25.25,0,0,1-.13,0l-3-1.8,1.52,5.23Z" transform="translate(-7.27 -4.43)"/><path class="cls-18" d="M118.38,49.06l-1.75,0,.38-.4a2.53,2.53,0,0,0,.66-2.16L117.6,46a1.58,1.58,0,0,0-1.08-1.4h0l-1.7-5.12-1-3-.74-.63a.46.46,0,0,1-.13-.55h0l1.78-3.82a.58.58,0,0,1,1.09.24.65.65,0,0,1,0,.08l-.51,3.41L117,38.58l3.54,7.19a2.28,2.28,0,0,1-2.14,3.28Z" transform="translate(-7.27 -4.43)"/><path class="cls-4" d="M118.47,49.31h-.1l-2.32,0,.78-.81a2.29,2.29,0,0,0,.6-1.95l-.08-.46a1.34,1.34,0,0,0-.91-1.21l-.12,0-2.72-8.2-.69-.58a.71.71,0,0,1-.19-.85l1.78-3.82a.83.83,0,0,1,1.57.34.93.93,0,0,1,0,.11l-.5,3.36,5.16,10.49a2.53,2.53,0,0,1-2.27,3.65Zm-1.26-.52h1.17a2,2,0,0,0,1.9-2.92l-5.23-10.64.52-3.49h0v0a.33.33,0,0,0-.62-.14l-1.77,3.8a.21.21,0,0,0,.06.25l.8.68,2.69,8.1A1.82,1.82,0,0,1,117.85,46l.08.43A2.79,2.79,0,0,1,117.22,48.79Z" transform="translate(-7.27 -4.43)"/><polyline class="cls-34" points="100.84 44.6 95.26 44.6 95.26 42.72 100.84 42.72"/><path class="cls-4" d="M108.11,49.29h-5.83V46.9h5.83a.25.25,0,1,1,0,.5h-5.32v1.38h5.32a.25.25,0,1,1,0,.5Z" transform="translate(-7.27 -4.43)"/><path id="_Path_69" data-name=" Path 69" class="cls-34" d="M103.74,47.16H102a.31.31,0,0,0-.31.31h0a.31.31,0,0,0,.31.31h1.71" transform="translate(-7.27 -4.43)"/><path class="cls-4" d="M103.74,48H102a.57.57,0,1,1,0-1.13h1.71a.25.25,0,0,1,0,.5H102a.06.06,0,0,0,0,.13h1.71a.25.25,0,0,1,0,.5Z" transform="translate(-7.27 -4.43)"/><path id="_Path_70" data-name=" Path 70" class="cls-34" d="M103.74,47.77H102a.31.31,0,0,0-.31.31h0a.31.31,0,0,0,.31.31h1.71" transform="translate(-7.27 -4.43)"/><path class="cls-4" d="M103.74,48.65H102a.57.57,0,1,1,0-1.13h1.71a.25.25,0,0,1,0,.5H102a.06.06,0,0,0,0,.13h1.71a.25.25,0,0,1,0,.5Z" transform="translate(-7.27 -4.43)"/><path id="_Path_71" data-name=" Path 71" class="cls-34" d="M103.74,48.41H102a.31.31,0,0,0-.31.31h0A.31.31,0,0,0,102,49h1.71" transform="translate(-7.27 -4.43)"/><path class="cls-4" d="M103.74,49.29H102a.57.57,0,1,1,0-1.13h1.71a.25.25,0,0,1,0,.5H102a.06.06,0,0,0,0,.13h1.71a.25.25,0,0,1,0,.5Z" transform="translate(-7.27 -4.43)"/><polygon class="cls-35" points="88.31 36.68 90.04 42.63 93.84 44.6 91.85 38.81 88.31 36.68"/><path class="cls-4" d="M101.11,49.29a.25.25,0,0,1-.12,0l-3.8-2a.25.25,0,0,1-.13-.15l-1.73-6a.25.25,0,0,1,.37-.29L99.25,43a.25.25,0,0,1,.11.13l2,5.79a.25.25,0,0,1-.24.33Zm-3.59-2.4,3.14,1.63-1.76-5.11L96,41.66Z" transform="translate(-7.27 -4.43)"/><path class="cls-20" d="M117,38.58l-2.14.91-1-3-.72-.6a.49.49,0,0,1-.15-.56h0l1.78-3.83a.58.58,0,0,1,1.09.24.65.65,0,0,1,0,.08l-.51,3.41Z" transform="translate(-7.27 -4.43)"/><path class="cls-4" d="M114.68,39.83l-1.07-3.22-.66-.55a.74.74,0,0,1-.22-.85l1.78-3.84a.83.83,0,0,1,1.57.34.93.93,0,0,1,0,.11l-.5,3.36,1.74,3.54Zm.57-8.41h-.09a.33.33,0,0,0-.2.16l-1.77,3.81a.23.23,0,0,0,.08.26l.78.65.94,2.84,1.65-.7-1.58-3.21.52-3.49h0v0a.33.33,0,0,0-.33-.31Z" transform="translate(-7.27 -4.43)"/><polygon class="cls-12" points="106.84 32.89 107.09 33.65 109.08 32.89 108.74 32.2 106.84 32.89"/><path class="cls-4" d="M114.2,38.41l-.41-1.24,2.34-.86.57,1.15Zm.22-.93.09.28,1.49-.57-.12-.24Z" transform="translate(-7.27 -4.43)"/><path class="cls-4" d="M115.75,32.5h-.08l-1.2-.38a.25.25,0,1,1,.15-.48l1.2.38a.25.25,0,0,1-.08.49Z" transform="translate(-7.27 -4.43)"/><path class="cls-4" d="M113.83,36.71l-.09,0a.25.25,0,0,1-.14-.33l.06-.14a1.73,1.73,0,0,0-.35-1.87.25.25,0,1,1,.36-.35,2.23,2.23,0,0,1,.46,2.41l-.05.13A.25.25,0,0,1,113.83,36.71Z" transform="translate(-7.27 -4.43)"/><path class="cls-20" d="M135.9,48.66a.48.48,0,0,1-.46.33H127l.25-2.37,3.78.46.62-.67a.6.6,0,0,1,.72-.1l3.23,1.76A.48.48,0,0,1,135.9,48.66Z" transform="translate(-7.27 -4.43)"/><path class="cls-4" d="M135.44,49.24h-8.69l.31-2.9,3.91.48.54-.58a.86.86,0,0,1,1-.15l3.22,1.76a.73.73,0,0,1,.39.88h0A.73.73,0,0,1,135.44,49.24Zm-8.13-.5h8.13a.23.23,0,0,0,.22-.16.23.23,0,0,0-.13-.28l-3.25-1.77a.35.35,0,0,0-.42.06l-.71.76-3.66-.45Zm8.59-.08h0Z" transform="translate(-7.27 -4.43)"/><path class="cls-20" d="M135.32,47.9l-.07,0a1,1,0,0,0-.4,1h0" transform="translate(-7.27 -4.43)"/><path class="cls-4" d="M134.85,49.25a.25.25,0,0,1-.25-.2,1.27,1.27,0,0,1,.49-1.31l.07,0a.25.25,0,1,1,.3.41l-.07,0a.77.77,0,0,0-.3.79.25.25,0,0,1-.19.3Z" transform="translate(-7.27 -4.43)"/><path class="cls-20" d="M131.05,47.11l.06,0a1.82,1.82,0,0,0,1.88-.49h0" transform="translate(-7.27 -4.43)"/><path class="cls-4" d="M131.66,47.46a2.05,2.05,0,0,1-.63-.1l-.05,0a.25.25,0,1,1,.15-.48l.06,0a1.57,1.57,0,0,0,1.62-.42.25.25,0,1,1,.37.34A2.08,2.08,0,0,1,131.66,47.46Z" transform="translate(-7.27 -4.43)"/><polygon class="cls-12" points="121.18 42.35 120.94 44.58 121.81 44.58 122.03 42.46 121.18 42.35"/><path class="cls-4" d="M127.93,49.26l.3-2.76,1.35.17-.26,2.59Zm.74-2.2-.18,1.69h.37l.17-1.65Z" transform="translate(-7.27 -4.43)"/><path class="cls-4" d="M108.11,49.25a.25.25,0,0,1-.25-.25V47.16a.25.25,0,1,1,.5,0V49A.25.25,0,0,1,108.11,49.25Z" transform="translate(-7.27 -4.43)"/><path class="cls-34" d="M81.75,34.49,81.12,40s-4.35,3.26-4.45,3.29H76a.56.56,0,0,0-.56.56h0v.91a.78.78,0,0,0,.78.78h1l4.66-3.16a3.65,3.65,0,0,0,1.3-1.53l.87-6Z" transform="translate(-7.27 -4.43)"/><path class="cls-4" d="M77.27,45.81h-1a1,1,0,0,1-1-1v-.91a.82.82,0,0,1,.82-.82h.59c.38-.26,2.7-2,4.28-3.17l.65-5.69,2.77.51L83.38,41A3.9,3.9,0,0,1,82,42.6ZM76,43.56a.31.31,0,0,0-.31.31v.91a.53.53,0,0,0,.53.53h.89l4.59-3.12a3.4,3.4,0,0,0,1.2-1.39l.83-5.69L82,34.78l-.62,5.37-.09.07c-4.38,3.29-4.48,3.31-4.53,3.33H76Z" transform="translate(-7.27 -4.43)"/><path id="_Path_72" data-name=" Path 72" class="cls-18" d="M84.92,29.3h0a2.27,2.27,0,0,1-1.39-1.58l-.13-.53c-.43-.31-.77.15-.74-.38l-.31-1.75a3.86,3.86,0,0,1,3.74-4.54h.06a3.71,3.71,0,0,1,3.71,3.58.56.56,0,0,1,0,.24l-.14,3C89.67,29.2,86.54,28.48,84.92,29.3Z" transform="translate(-7.27 -4.43)"/><path class="cls-4" d="M84.93,29.58l-.1,0a2.52,2.52,0,0,1-1.54-1.75l-.1-.43a.48.48,0,0,0-.26,0,.47.47,0,0,1-.39-.1.52.52,0,0,1-.12-.41l-.31-1.72a4.11,4.11,0,0,1,4-4.84h.07a3.94,3.94,0,0,1,4,3.83.83.83,0,0,1-.05.31l-.14,3c0,1.35-1.41,1.51-2.77,1.66a6.61,6.61,0,0,0-2.11.46ZM83,26.82a.85.85,0,0,1,.52.17l.07.05.15.62A2,2,0,0,0,84.91,29a7.44,7.44,0,0,1,2.18-.46c1.44-.16,2.33-.31,2.33-1.17l.15-3.1,0,0a.31.31,0,0,0,0-.13,3.44,3.44,0,0,0-3.45-3.34h-.06A3.61,3.61,0,0,0,82.6,25l.32,1.78v0H83Z" transform="translate(-7.27 -4.43)"/><path class="cls-12" d="M83.22,45.4v3.38h-8.6v0l-.34,9.74H71.19V48.08c0-1.62,1.12-2.68,3.43-2.68Z" transform="translate(-7.27 -4.43)"/><path class="cls-4" d="M74.53,58.81H70.94V48.08c0-1.86,1.34-2.93,3.68-2.93h8.86V49h-8.6Zm-3.09-.5H74l.34-9.5v-.28H83V45.65H74.62c-2,0-3.18.86-3.18,2.42Z" transform="translate(-7.27 -4.43)"/><path id="_Path_73" data-name=" Path 73" class="cls-36" d="M90.35,33.92l.16,11.76c-.22,1.69-1.19,1.61-2.89,1.62l-4.75,1.16-.52-9.9-.76-2.72V33.91a2.64,2.64,0,0,1,2.64-2.64h3.47a2.64,2.64,0,0,1,2.64,2.64h0Z" transform="translate(-7.27 -4.43)"/><path class="cls-4" d="M82.87,48.72a.25.25,0,0,1-.25-.24l-.52-9.87-.75-2.7a.25.25,0,0,1,0-.07V33.91a2.9,2.9,0,0,1,2.9-2.9h3.47a2.9,2.9,0,0,1,2.9,2.9h0l.16,11.76a.25.25,0,0,1,0,0c-.24,1.83-1.36,1.83-2.92,1.83h-.2l-4.72,1.16Zm-1-12.91.75,2.69a.25.25,0,0,1,0,.05l.5,9.59,4.45-1.09h.29c1.58,0,2.23,0,2.42-1.38L90.1,33.92h0a2.39,2.39,0,0,0-2.39-2.39H84.24a2.39,2.39,0,0,0-2.39,2.39Z" transform="translate(-7.27 -4.43)"/><path id="_Path_74" data-name=" Path 74" class="cls-34" d="M87.19,29.07v2a1.59,1.59,0,0,1-1.43,1.62H85a1,1,0,0,1-.9-1.12V28.67Z" transform="translate(-7.27 -4.43)"/><path class="cls-4" d="M85.77,32.95H85a1.28,1.28,0,0,1-1.15-1.37v-3.2l3.62.47v2.22A1.85,1.85,0,0,1,85.77,32.95Zm-1.44-4v2.62c0,.48.29.87.65.87h.79a1.35,1.35,0,0,0,1.18-1.39V29.3Z" transform="translate(-7.27 -4.43)"/><path id="_Path_75" data-name=" Path 75" class="cls-32" d="M87.25,29.07v2.14a2.8,2.8,0,0,1-1.57.49h-.54a2.3,2.3,0,0,1-1-.24h0V28.77Z" transform="translate(-7.27 -4.43)"/><path id="_Path_76" data-name=" Path 76" class="cls-33" d="M89.45,28.11c0-1.34-.54-3.42.06-4.15.32-.38,1.15.2,1.14.22Z" transform="translate(-7.27 -4.43)"/><path class="cls-4" d="M89.2,29.8V28.11a13.85,13.85,0,0,0-.11-1.4c-.13-1.2-.25-2.33.23-2.91.26-.31.75-.29,1.31.05.13.08.33.21.26.41Zm.5-1.69h0Zm.12-4h0a.11.11,0,0,0-.09,0c-.34.42-.22,1.54-.12,2.54v.09l.76-2.47A1.24,1.24,0,0,0,89.82,24.08Z" transform="translate(-7.27 -4.43)"/><path id="_Path_77" data-name=" Path 77" class="cls-34" d="M83.4,24.88v2.33h0a3.33,3.33,0,0,0,3.33,3.33h0a3.32,3.32,0,0,0,3.32-3.32V24.35a1.71,1.71,0,0,0-1.71-1.71H85.11a1.71,1.71,0,0,0-1.71,1.71v.82" transform="translate(-7.27 -4.43)"/><path id="_Path_78" data-name=" Path 78" class="cls-32" d="M83.4,24.88v2.33h0a3.33,3.33,0,0,0,3.33,3.32h.65a3.33,3.33,0,0,1-3.2-3.32h0V24.35a1.71,1.71,0,0,1,1.7-1.71h-.76a1.71,1.71,0,0,0-1.71,1.71v.54Z" transform="translate(-7.27 -4.43)"/><path class="cls-4" d="M86.73,30.77a3.58,3.58,0,0,1-3.58-3.58V24.86a.26.26,0,0,1,0,0v-.49a2,2,0,0,1,2-2h3.24a2,2,0,0,1,2,2v2.86A3.58,3.58,0,0,1,86.73,30.77Zm-3.08-5.58v2a3.08,3.08,0,0,0,6.15,0V24.33a1.46,1.46,0,0,0-1.45-1.45H85.11a1.46,1.46,0,0,0-1.45,1.45v.82A.26.26,0,0,1,83.66,25.19Z" transform="translate(-7.27 -4.43)"/><path class="cls-4" d="M88.11,27.91a.25.25,0,0,1,0-.5.25.25,0,0,0,.25-.25.25.25,0,1,1,.5,0A.76.76,0,0,1,88.11,27.91Z" transform="translate(-7.27 -4.43)"/><path id="_Path_81" data-name=" Path 81" class="cls-20" d="M88.74,28.75l-.1.15a.49.49,0,0,1-.2.18.84.84,0,0,1-.7,0,.5.5,0,0,1-.18-.16l-.13-.19c.25,0,.32-.16.46-.16h.46C88.48,28.56,88.51,28.77,88.74,28.75Z" transform="translate(-7.27 -4.43)"/><path class="cls-20" d="M88.09,29.41a1.08,1.08,0,0,1-.46-.1.76.76,0,0,1-.28-.25l-.13-.18a.25.25,0,0,1,.21-.4.26.26,0,0,0,.16-.06.52.52,0,0,1,.29-.1h.45a.42.42,0,0,1,.33.14l0,0a.26.26,0,0,1,.25.13.25.25,0,0,1,0,.27l-.09.12a.74.74,0,0,1-.3.27A1.12,1.12,0,0,1,88.09,29.41Zm-.24-.56h0a.58.58,0,0,0,.48,0h0l0,0h-.43s0,0,0,0Z" transform="translate(-7.27 -4.43)"/><path id="_Path_82" data-name=" Path 82" class="cls-37" d="M82.52,27l-.29-2a4.17,4.17,0,0,1,4-4.8h.06a4.06,4.06,0,0,1,4.32,4h0c-1.37,1.07-3.84.5-5.72.15a.21.21,0,0,0-.22.2h0v1.38a.82.82,0,0,1-.82.82h0" transform="translate(-7.27 -4.43)"/><path class="cls-4" d="M82.52,27.2a.25.25,0,0,1-.25-.21L82,25a4.42,4.42,0,0,1,4.29-5.09h.07a4.32,4.32,0,0,1,4.57,4.25v.12l-.1.08c-1.36,1.07-3.68.63-5.53.27L85,24.6v1.32A1.07,1.07,0,0,1,83.89,27a.25.25,0,0,1,0-.5.56.56,0,0,0,.56-.56v-1.4a.46.46,0,0,1,.49-.43h0l.39.07c1.71.33,3.83.73,5-.1a3.85,3.85,0,0,0-4.06-3.62h-.06A3.92,3.92,0,0,0,82.48,25l.29,2a.25.25,0,0,1-.21.29Z" transform="translate(-7.27 -4.43)"/><path id="_Path_83" data-name=" Path 83" class="cls-32" d="M84.17,26.81a.83.83,0,1,0-.42.72" transform="translate(-7.27 -4.43)"/><path class="cls-4" d="M83.34,27.89A1.08,1.08,0,0,1,82.57,26a1,1,0,0,1,.77-.32,1.08,1.08,0,0,1,1.08,1.08.25.25,0,0,1-.25.25h0a.25.25,0,0,1-.25-.25.58.58,0,0,0-.58-.58h0a.58.58,0,0,0,0,1.16h0a.58.58,0,0,0,.29-.08.25.25,0,1,1,.25.44A1.25,1.25,0,0,1,83.34,27.89Z" transform="translate(-7.27 -4.43)"/><path class="cls-4" d="M83,27.06h0a.25.25,0,0,1-.25-.26.59.59,0,0,1,.59-.58.25.25,0,0,1,0,.5.09.09,0,0,0-.09.08A.25.25,0,0,1,83,27.06Z" transform="translate(-7.27 -4.43)"/><circle id="_Path_85" data-name=" Path 85" class="cls-12" cx="76.12" cy="23.06" r="0.22"/><path id="_Path_86" data-name=" Path 86" class="cls-32" d="M80.94,45,80,44a.41.41,0,0,1,0-.58h0a.41.41,0,0,1,.58,0l.92,1a.41.41,0,0,1,0,.58h0A.41.41,0,0,1,80.94,45Z" transform="translate(-7.27 -4.43)"/><path class="cls-4" d="M81.22,45.35a.66.66,0,0,1-.45-.18h0l-.94-1a.66.66,0,0,1,.94-.94l.93,1a.67.67,0,0,1,0,.93A.67.67,0,0,1,81.22,45.35Zm-.11-.54a.15.15,0,1,0,.21-.22l-.93-1a.16.16,0,0,0-.22.23Z" transform="translate(-7.27 -4.43)"/><path id="_Path_87" data-name=" Path 87" class="cls-36" d="M85.69,38.58h-3a2.14,2.14,0,0,1-2-2.17h0a2.17,2.17,0,0,1,.93-1.78" transform="translate(-7.27 -4.43)"/><path class="cls-4" d="M85.69,38.83h-3a2.42,2.42,0,0,1-1.22-4.41.25.25,0,0,1,.29.41,1.91,1.91,0,0,0-.82,1.57,1.89,1.89,0,0,0,1.75,1.91h3a.25.25,0,0,1,0,.5Z" transform="translate(-7.27 -4.43)"/><path id="_Path_88" data-name=" Path 88" class="cls-32" d="M80.4,45.25H78.27a.41.41,0,0,1-.41-.41h0a.41.41,0,0,1,.41-.41H80.4" transform="translate(-7.27 -4.43)"/><path class="cls-4" d="M80.4,45.51H78.27a.67.67,0,0,1,0-1.33H80.4a.25.25,0,0,1,0,.5H78.27a.16.16,0,0,0,0,.32H80.4a.25.25,0,0,1,0,.5Z" transform="translate(-7.27 -4.43)"/><path id="_Path_89" data-name=" Path 89" class="cls-34" d="M82.13,45a.41.41,0,0,1-.29.12.41.41,0,0,1-.29-.13l-.92-1a.41.41,0,0,1,.53-.63l.05.05.2.21.72.75a.41.41,0,0,1,0,.58h0Z" transform="translate(-7.27 -4.43)"/><path class="cls-4" d="M81.84,45.37h0a.67.67,0,0,1-.47-.2l-.92-1a.64.64,0,0,1-.22-.43.67.67,0,0,1,1.09-.57l.08.08.91.94a.66.66,0,0,1,0,.89h0l0,.05A.66.66,0,0,1,81.84,45.37Zm.28-.37h0Zm-1.24-1.44h0a.16.16,0,0,0-.11.06.16.16,0,0,0,0,.12.16.16,0,0,0,.06.11l.94,1a.16.16,0,0,0,.11,0,.14.14,0,0,0,.08,0l0,0a.16.16,0,0,0,0-.11.16.16,0,0,0,0-.11l-.93-1,0,0A.16.16,0,0,0,80.89,43.56Z" transform="translate(-7.27 -4.43)"/><path id="_Path_90" data-name=" Path 90" class="cls-12" d="M83.3,45.71H78.16a.9.9,0,0,1-.75-.4l-3.61-5.4a.42.42,0,0,1,.35-.65h5.14a.9.9,0,0,1,.75.4L83.65,45a.42.42,0,0,1-.35.66Z" transform="translate(-7.27 -4.43)"/><path class="cls-4" d="M83.31,46H78.16a1.15,1.15,0,0,1-1-.51l-3.61-5.4a.67.67,0,0,1,.55-1h5.15a1.15,1.15,0,0,1,1,.51l3.61,5.39a.67.67,0,0,1-.16.93A.68.68,0,0,1,83.31,46Zm-5.15-.5h5.15a.15.15,0,0,0,.1,0,.17.17,0,0,0,0-.23L79.83,39.8a.65.65,0,0,0-.54-.29H74.14l-.09,0a.17.17,0,0,0,0,.23l3.61,5.4a.65.65,0,0,0,.54.29Z" transform="translate(-7.27 -4.43)"/><path class="cls-34" d="M87.57,35.94,87.07,40s-4.35,3.25-4.45,3.28h-2.1V44c-.54.23-.93.48-.85.73a1.16,1.16,0,0,0,.85.79v.06h2.62l4.66-3.16h0a3.3,3.3,0,0,0,1.39-2.27l.75-5.2Z" transform="translate(-7.27 -4.43)"/><path class="cls-4" d="M83.23,45.82H80.28v-.12a1.42,1.42,0,0,1-.84-.91c-.14-.47.47-.8.84-1v-.77h2.28c.38-.26,2.7-2,4.28-3.17l.51-4.11,2.94-1.25-.82,5.64A3.56,3.56,0,0,1,88,42.61l-.08,0Zm-2.45-.5h2.29l4.67-3.16A3.05,3.05,0,0,0,89,40.1l.69-4.76-1.85.78-.5,4-.09.06c-4.39,3.28-4.47,3.31-4.53,3.32H80.78v.6l-.15.06c-.66.28-.71.44-.71.44a.92.92,0,0,0,.67.6ZM87.07,40h0Z" transform="translate(-7.27 -4.43)"/><path id="_Path_91" data-name=" Path 91" class="cls-34" d="M81.68,44.06H79.75a.38.38,0,0,1-.38-.38h0a.38.38,0,0,1,.38-.38h1.93" transform="translate(-7.27 -4.43)"/><path class="cls-4" d="M81.68,44.31H79.75a.63.63,0,1,1,0-1.25h1.93a.25.25,0,0,1,0,.5H79.75a.12.12,0,0,0,0,.25h1.93a.25.25,0,1,1,0,.5Z" transform="translate(-7.27 -4.43)"/><path id="_Path_92" data-name=" Path 92" class="cls-34" d="M81.68,44.81H79.75a.38.38,0,0,1-.38-.38h0a.38.38,0,0,1,.38-.38h1.93" transform="translate(-7.27 -4.43)"/><path class="cls-4" d="M81.68,45.06H79.75a.63.63,0,1,1,0-1.25h1.93a.25.25,0,1,1,0,.5H79.75a.12.12,0,1,0,0,.25h1.93a.25.25,0,0,1,0,.5Z" transform="translate(-7.27 -4.43)"/><path id="_Path_93" data-name=" Path 93" class="cls-34" d="M81.68,45.55H79.75a.38.38,0,0,1-.38-.38h0a.38.38,0,0,1,.38-.38h1.93" transform="translate(-7.27 -4.43)"/><path class="cls-4" d="M81.68,45.81H79.75a.63.63,0,1,1,0-1.25h1.93a.25.25,0,1,1,0,.5H79.75a.12.12,0,0,0,0,.25h1.93a.25.25,0,1,1,0,.5Z" transform="translate(-7.27 -4.43)"/><path class="cls-10" d="M71.88,62.83l-4.72,1.68a.5.5,0,0,1-.49-.6l0-.08a.54.54,0,0,1,.15-.2c.49-.43,1-.87,1.46-1.36l1.62-1.88V58.73h2.74l0,1.65.17.92A1.37,1.37,0,0,1,71.88,62.83Z" transform="translate(-7.27 -4.43)"/><path class="cls-10" d="M76.22,62.83l-4.72,1.68a.5.5,0,0,1-.49-.6l0-.08a.54.54,0,0,1,.15-.2c.49-.43,1-.87,1.46-1.36l1.62-1.88V58.73H77l0,1.65.17.92A1.37,1.37,0,0,1,76.22,62.83Z" transform="translate(-7.27 -4.43)"/><path class="cls-18" d="M73.19,61.74l-4.72,1.68a.5.5,0,0,1-.49-.6l0-.08a.54.54,0,0,1,.15-.2c.49-.43,1-.87,1.46-1.36l1.62-1.88v-.78H74l0,.79.17.92A1.37,1.37,0,0,1,73.19,61.74Z" transform="translate(-7.27 -4.43)"/><path class="cls-4" d="M68.47,63.68a.75.75,0,0,1-.74-.91.67.67,0,0,1,0-.12.8.8,0,0,1,.22-.3c.4-.35.93-.83,1.44-1.34L71,59.2v-.94h3.25l0,1,.16.89A1.62,1.62,0,0,1,73.28,62l-4.81,1.7Zm3-4.91v.62l-1.68,2c-.53.54-1.07,1-1.48,1.39a.29.29,0,0,0-.08.11v0a.27.27,0,0,0,0,.06.25.25,0,0,0,.21.25l4.68-1.67a1.12,1.12,0,0,0,.73-1.24l-.17-.94,0-.56Z" transform="translate(-7.27 -4.43)"/><path class="cls-4" d="M69.53,63.16H69v-.08a.68.68,0,0,0-.49-.66l.15-.48a1.19,1.19,0,0,1,.85,1.14Z" transform="translate(-7.27 -4.43)"/><path class="cls-16" d="M87,48.91a3.24,3.24,0,0,1-1.08.18H77.15v0l-.35,9.56-2.59-.15.58-9.44Z" transform="translate(-7.27 -4.43)"/><path class="cls-4" d="M72.86,62h-.5a2.49,2.49,0,0,1,1.54-2.27l.1,0h0V60l.06.16A2,2,0,0,0,72.86,62Z" transform="translate(-7.27 -4.43)"/><path class="cls-12" d="M90.52,45.69l-.06.41a3.28,3.28,0,0,1-3.24,2.82H78.4l.36,0-.34,9.56H75.32V48.21a2.5,2.5,0,0,1,2.11-2.47l-.07,0,2.08,0Z" transform="translate(-7.27 -4.43)"/><path class="cls-4" d="M78.66,58.77H75.07V48.21a2.74,2.74,0,0,1,1.66-2.53l-.46-.22,3.18,0H90.81l-.1.7a3.54,3.54,0,0,1-3.49,3H79Zm-3.09-.5h2.6l.33-9.09h-.12l0-.5h8.81a3,3,0,0,0,3-2.6l0-.12H79.44l-1.78,0-.19,0a2.24,2.24,0,0,0-1.9,2.23Z" transform="translate(-7.27 -4.43)"/><path id="_Path_94" data-name=" Path 94" class="cls-38" d="M78,40.78c.23.29.16.54-.16.54a1.46,1.46,0,0,1-1-.54c-.23-.29-.16-.54.16-.54A1.46,1.46,0,0,1,78,40.78Z" transform="translate(-7.27 -4.43)"/><path class="cls-18" d="M77.31,61.74l-4.72,1.68a.5.5,0,0,1-.49-.6l0-.08a.54.54,0,0,1,.15-.2c.49-.43,1-.87,1.46-1.36l1.62-1.88v-.78h2.74l0,.79.17.92A1.37,1.37,0,0,1,77.31,61.74Z" transform="translate(-7.27 -4.43)"/><path class="cls-4" d="M72.58,63.68a.75.75,0,0,1-.75-.75.77.77,0,0,1,0-.15.69.69,0,0,1,0-.12.8.8,0,0,1,.22-.3c.4-.35.94-.83,1.44-1.34l1.54-1.8v-.94h3.25l0,1,.16.89A1.62,1.62,0,0,1,77.39,62l-4.81,1.7Zm3-4.91v.62l-1.68,2c-.53.54-1.07,1-1.48,1.39a.29.29,0,0,0-.08.11v0a.27.27,0,0,0,0,.06.25.25,0,0,0,.21.25l4.68-1.67A1.12,1.12,0,0,0,78,60.26l-.17-.94,0-.56Z" transform="translate(-7.27 -4.43)"/><polyline class="cls-36" points="82.75 30.29 82.47 32.08 80.25 31.69 80.45 30.17"/><path class="cls-4" d="M89.74,36.77h0l-2.22-.39a.25.25,0,0,1-.21-.28l.2-1.52a.25.25,0,0,1,.5.07l-.17,1.28,1.73.31.24-1.54a.25.25,0,0,1,.5.08L90,36.55a.25.25,0,0,1-.25.21Z" transform="translate(-7.27 -4.43)"/><path id="_Path_95" data-name=" Path 95" class="cls-34" d="M76.45,44.81h.61a.38.38,0,0,1,.38.38h0a.38.38,0,0,1-.38.38h-1" transform="translate(-7.27 -4.43)"/><path class="cls-4" d="M77.07,45.81h-1a.25.25,0,0,1,0-.5h1a.12.12,0,0,0,0-.25h-.61a.25.25,0,0,1,0-.5h.61a.63.63,0,1,1,0,1.25Z" transform="translate(-7.27 -4.43)"/><path id="_Path_96" data-name=" Path 96" class="cls-34" d="M76.45,44.06h.61a.38.38,0,0,1,.38.38h0a.38.38,0,0,1-.38.38h-.65" transform="translate(-7.27 -4.43)"/><path class="cls-4" d="M77.07,45.06h-.65a.25.25,0,0,1,0-.5h.65a.12.12,0,0,0,0-.25h-.61a.25.25,0,0,1,0-.5h.61a.63.63,0,1,1,0,1.25Z" transform="translate(-7.27 -4.43)"/><path id="_Path_97" data-name=" Path 97" class="cls-34" d="M75.83,43.3h1.24a.38.38,0,0,1,.38.38h0a.38.38,0,0,1-.38.38h-.73" transform="translate(-7.27 -4.43)"/><path class="cls-4" d="M77.07,44.32h-.73a.25.25,0,1,1,0-.5h.73a.12.12,0,0,0,.12-.12.13.13,0,0,0-.12-.14H75.83a.25.25,0,0,1,0-.5h1.24a.63.63,0,0,1,0,1.27Z" transform="translate(-7.27 -4.43)"/><path class="cls-4" d="M73.64,63.16h-.5v-.08a.68.68,0,0,0-.49-.66l.15-.48a1.19,1.19,0,0,1,.85,1.14Z" transform="translate(-7.27 -4.43)"/><path class="cls-4" d="M77,62h-.5A2.49,2.49,0,0,1,78,59.69l.1,0h0V60l.06.16A2,2,0,0,0,77,62Z" transform="translate(-7.27 -4.43)"/><path class="cls-12" d="M11.94,61.21h0a.49.49,0,0,1-.49-.49h0V57.83h1v2.89a.49.49,0,0,1-.49.49Z" transform="translate(-7.27 -4.43)"/><path class="cls-39" d="M43.07,53.37l-9.33,14s9.33.27,9.33,0Z" transform="translate(-7.27 -4.43)"/><path id="_Path_98" data-name=" Path 98" class="cls-40" d="M89.75,25.7a.13.13,0,0,1-.2.14.86.86,0,0,0-.4-.1c-.51,0-.6.27-.6.27a.54.54,0,0,1,.58-.72C89.57,25.3,89.71,25.51,89.75,25.7Z" transform="translate(-7.27 -4.43)"/><path class="cls-4" d="M88.58,25.68a.18.18,0,0,1-.15-.28.92.92,0,0,1,1.45-.07.18.18,0,0,1-.27.23.56.56,0,0,0-.79-.06l-.1.11A.18.18,0,0,1,88.58,25.68Z" transform="translate(-7.27 -4.43)"/><path class="cls-4" d="M85.94,25.68a.18.18,0,0,1-.15-.28.92.92,0,0,1,1.45-.07.18.18,0,0,1-.27.23.56.56,0,0,0-.79-.06l-.1.11A.18.18,0,0,1,85.94,25.68Z" transform="translate(-7.27 -4.43)"/><path id="_Path_101" data-name=" Path 101" class="cls-40" d="M87.05,25.7a.13.13,0,0,1-.2.14.86.86,0,0,0-.4-.1c-.51,0-.6.27-.6.27a.54.54,0,0,1,.58-.72C86.87,25.3,87,25.51,87.05,25.7Z" transform="translate(-7.27 -4.43)"/><circle id="_Path_102" data-name=" Path 102" class="cls-12" cx="81.95" cy="21.7" r="0.42"/><path class="cls-4" d="M89.21,26.77a.63.63,0,1,1,.63-.63A.64.64,0,0,1,89.21,26.77Zm0-.83a.2.2,0,1,0,.2.2A.2.2,0,0,0,89.21,25.94Z" transform="translate(-7.27 -4.43)"/><circle id="_Path_103" data-name=" Path 103" class="cls-4" cx="82" cy="21.84" r="0.21"/><circle id="_Path_104" data-name=" Path 104" class="cls-12" cx="79.29" cy="21.7" r="0.42"/><path class="cls-4" d="M86.56,26.77a.63.63,0,1,1,.63-.63A.64.64,0,0,1,86.56,26.77Zm0-.83a.2.2,0,1,0,.2.2A.2.2,0,0,0,86.56,25.94Z" transform="translate(-7.27 -4.43)"/><ellipse id="_Path_105" data-name=" Path 105" class="cls-4" cx="79.34" cy="21.84" rx="0.2" ry="0.21"/></g></svg>