<svg xmlns="http://www.w3.org/2000/svg" width="20" height="20" viewBox="0 0 20 20">
    <g fill="none" fill-rule="evenodd">
        <path fill="#F6FDFD" d="M19 10a9 9 0 0 1-9 9 9 9 0 0 1-9-9 9 9 0 0 1 9-9 9 9 0 0 1 9 9"/>
        <path stroke="#1DBDC0" stroke-linecap="round" stroke-linejoin="round" stroke-width="1.26" d="M19 10a9 9 0 0 1-9 9 9 9 0 0 1-9-9 9 9 0 0 1 9-9 9 9 0 0 1 9 9z"/>
        <path stroke="#1DBDC0" stroke-linecap="round" stroke-linejoin="round" stroke-width="1.26" d="M6 10.146L8.545 13 13 8"/>
    </g>
</svg>
