<?xml version="1.0" encoding="iso-8859-1"?>
<!-- Generator: Adobe Illustrator 19.0.0, SVG Export Plug-In . SVG Version: 6.00 Build 0)  -->
<svg version="1.1" id="Layer_1" xmlns="http://www.w3.org/2000/svg" xmlns:xlink="http://www.w3.org/1999/xlink" x="0px" y="0px"
	 viewBox="0 0 512 512" style="enable-background:new 0 0 512 512;" xml:space="preserve">
<g>
	<g>
		<path d="M474.464,96.482L428.749,5.053C427.2,1.957,424.035,0,420.572,0s-6.628,1.957-8.177,5.053L366.68,96.482
			c-0.635,1.27-0.965,2.67-0.965,4.089v89.049l-22.484-14.454c-1.474-0.948-3.191-1.452-4.944-1.452H173.715
			c-1.753,0-3.47,0.504-4.944,1.452l-128,82.286c-3.413,2.194-4.971,6.375-3.828,10.268c1.143,3.892,4.715,6.566,8.772,6.566h27.429
			v228.571c0,5.049,4.094,9.143,9.143,9.143h146.286h54.857h146.286h36.571c5.049,0,9.143-4.094,9.143-9.143V274.286v-9.143V100.571
			C475.429,99.152,475.098,97.752,474.464,96.482z M274.286,493.714h-36.571v-54.857h36.571V493.714z M420.572,493.714h-128v-64
			c0-5.049-4.094-9.143-9.143-9.143h-54.857c-5.049,0-9.143,4.094-9.143,9.143v64h-128V274.286h329.143V493.714z M429.715,256
			H82.286h-5.442l99.556-64h159.201l99.556,64H429.715z M457.143,493.714h-18.286V274.286h18.286V493.714z M457.143,248.396
			l-73.165-47.034c0.002-0.075,0.022-0.144,0.022-0.219V102.73l36.571-73.143l36.571,73.143V248.396z"/>
	</g>
</g>
<g>
	<g>
		<path d="M164.572,292.571H128c-5.049,0-9.143,4.094-9.143,9.143v36.571c0,5.049,4.094,9.143,9.143,9.143h36.571
			c5.049,0,9.143-4.094,9.143-9.143v-36.571C173.715,296.665,169.621,292.571,164.572,292.571z M155.429,329.143h-18.286v-18.286
			h18.286V329.143z"/>
	</g>
</g>
<g>
	<g>
		<path d="M237.715,292.571h-36.571c-5.049,0-9.143,4.094-9.143,9.143v36.571c0,5.049,4.094,9.143,9.143,9.143h36.571
			c5.049,0,9.143-4.094,9.143-9.143v-36.571C246.858,296.665,242.764,292.571,237.715,292.571z M228.572,329.143h-18.286v-18.286
			h18.286V329.143z"/>
	</g>
</g>
<g>
	<g>
		<path d="M310.858,292.571h-36.571c-5.049,0-9.143,4.094-9.143,9.143v36.571c0,5.049,4.094,9.143,9.143,9.143h36.571
			c5.049,0,9.143-4.094,9.143-9.143v-36.571C320,296.665,315.907,292.571,310.858,292.571z M301.715,329.143h-18.286v-18.286h18.286
			V329.143z"/>
	</g>
</g>
<g>
	<g>
		<path d="M384,292.571h-36.571c-5.049,0-9.143,4.094-9.143,9.143v36.571c0,5.049,4.094,9.143,9.143,9.143H384
			c5.049,0,9.143-4.094,9.143-9.143v-36.571C393.143,296.665,389.05,292.571,384,292.571z M374.858,329.143h-18.286v-18.286h18.286
			V329.143z"/>
	</g>
</g>
<g>
	<g>
		<path d="M169.143,374.857c-17.645,0-32,14.386-32,32.068V448c0,5.049,4.094,9.143,9.143,9.143H192
			c5.049,0,9.143-4.094,9.143-9.143v-41.075C201.143,389.243,186.788,374.857,169.143,374.857z M182.858,438.857h-27.429v-31.932
			c0-7.599,6.152-13.782,13.714-13.782s13.714,6.183,13.714,13.782V438.857z"/>
	</g>
</g>
<g>
	<g>
		<path d="M342.858,374.857c-17.645,0-32,14.386-32,32.068V448c0,5.049,4.094,9.143,9.143,9.143h45.714
			c5.049,0,9.143-4.094,9.143-9.143v-41.075C374.858,389.243,360.503,374.857,342.858,374.857z M356.572,438.857h-27.429v-31.932
			c0-7.599,6.152-13.782,13.714-13.782s13.714,6.183,13.714,13.782V438.857z"/>
	</g>
</g>
<g>
</g>
<g>
</g>
<g>
</g>
<g>
</g>
<g>
</g>
<g>
</g>
<g>
</g>
<g>
</g>
<g>
</g>
<g>
</g>
<g>
</g>
<g>
</g>
<g>
</g>
<g>
</g>
<g>
</g>
</svg>
