<svg id="Capa_1" data-name="Capa 1" xmlns="http://www.w3.org/2000/svg" viewBox="0 0 351.72 455"><defs><style>.cls-1{fill:#f99bab;}</style></defs><title>icon1</title><path class="cls-1" d="M211.72,286.24a7.5,7.5,0,0,0-7.5,7.5v75.57H15V180.1H72.74a7.5,7.5,0,1,0,0-15H15V133.33a23.94,23.94,0,0,1,23.92-23.92h10.8a7.5,7.5,0,0,0,0-15H38.92A39,39,0,0,0,0,133.33V416.08A39,39,0,0,0,38.92,455H180.3a39,39,0,0,0,38.92-38.92V293.74A7.5,7.5,0,0,0,211.72,286.24ZM180.3,440H38.92A23.94,23.94,0,0,1,15,416.08V384.32H204.22v31.77A24,24,0,0,1,180.3,440Z"/><path class="cls-1" d="M310.07,32.45C283.72,11.52,248.79,0,211.72,0s-72,11.52-98.36,32.45C86.51,53.78,71.72,82.29,71.72,112.73c0,53.44,46,99,110.15,110.16A58.39,58.39,0,0,1,165.23,268a7.5,7.5,0,0,0,5.33,12.78c34.3,0,63.75-24.48,70.69-57.82,64.35-11.06,110.47-56.69,110.47-110.22C351.72,82.29,336.93,53.78,310.07,32.45ZM233.54,209a7.5,7.5,0,0,0-6.46,7.94v.1a57.79,57.79,0,0,1-39.59,46.15A73.68,73.68,0,0,0,196.36,217h0a7.5,7.5,0,0,0-6.46-7.94c-59.77-8.26-103.15-48.73-103.15-96.23,0-53.89,56.07-97.73,125-97.73s125,43.84,125,97.73C336.72,160.24,293.36,200.71,233.54,209Z"/></svg>