<svg id="Layer_1" data-name="Layer 1" xmlns="http://www.w3.org/2000/svg" viewBox="0 0 490.67 467.33"><defs><style>.cls-1{fill:#8ed6dc;}</style></defs><title>icon2</title><path class="cls-1" d="M468.76,148.33l-43.33-31.51a10.66,10.66,0,0,0-12.54,17.24l43.33,31.51A32.57,32.57,0,0,1,469.33,192V425.67c0,17.64-13.52,32-30.14,32H51.48c-16.62,0-30.14-14.36-30.14-32V192a32.64,32.64,0,0,1,13.12-26.41l43.78-31.83a10.66,10.66,0,0,0-12.54-17.24L21.91,148.31A54,54,0,0,0,0,192V425.66C0,455.06,23.08,479,51.48,479H439.19c28.37,0,51.48-23.94,51.48-53.33V192A53.87,53.87,0,0,0,468.76,148.33Z" transform="translate(0 -11.67)"/><path class="cls-1" d="M339.2,54.06,309.87,32.73a109.42,109.42,0,0,0-129.07,0L151.13,54.31a10.67,10.67,0,1,0,12.54,17.26L193.34,50a88.17,88.17,0,0,1,104,0L326.66,71.3A10.66,10.66,0,1,0,339.2,54.06Z" transform="translate(0 -11.67)"/><path class="cls-1" d="M446.19,206.42a10.64,10.64,0,0,0-14.78-3l-138,92a86.38,86.38,0,0,1-96.08,0l-138-92A10.66,10.66,0,1,0,47.4,221.2l138,92a107.56,107.56,0,0,0,119.72,0l138-92A10.66,10.66,0,0,0,446.19,206.42Z" transform="translate(0 -11.67)"/><path class="cls-1" d="M416,52.33H74.67A10.67,10.67,0,0,0,64,63V223a10.67,10.67,0,0,0,21.33,0V73.66h320V223a10.67,10.67,0,1,0,21.33,0V63A10.67,10.67,0,0,0,416,52.33Z" transform="translate(0 -11.67)"/><path class="cls-1" d="M330.67,265.66H149.33a10.67,10.67,0,1,0,0,21.33H330.67a10.67,10.67,0,0,0,0-21.33Z" transform="translate(0 -11.67)"/><path class="cls-1" d="M373.33,95H330.67a10.67,10.67,0,0,0,0,21.33h42.67a10.67,10.67,0,0,0,0-21.33Z" transform="translate(0 -11.67)"/><path class="cls-1" d="M160,223H117.33a10.67,10.67,0,0,0,0,21.33H160A10.67,10.67,0,0,0,160,223Z" transform="translate(0 -11.67)"/><path class="cls-1" d="M286.88,113.64H256.76A27.37,27.37,0,0,1,267,132.26h19.9v9.13H267.17c-1.83,18.62-16.62,30.49-40,31.22,14.24,14.79,29.76,33.41,45.1,52.22H254.75c-14.24-17.16-27.57-33-44.73-51.31V162.2h10c19.72,0,30.31-8.22,31.59-20.81H210v-9.13H251.1c-2.56-10.59-12.23-15.89-28.12-15.89H210V104.51h76.87Z" transform="translate(0 -11.67)"/></svg>