<svg id="Layer_1" data-name="Layer 1" xmlns="http://www.w3.org/2000/svg" viewBox="0 0 469.33 469.34"><defs><style>.cls-1{fill:#8ed6dc;}</style></defs><title>icon3</title><path class="cls-1" d="M448,236.64v-66a42.58,42.58,0,0,0-39.27-42.32l-61.26-107a42.22,42.22,0,0,0-57.92-15.6L79.55,128H42.67A42.71,42.71,0,0,0,0,170.67v256a42.71,42.71,0,0,0,42.67,42.67H405.34A42.71,42.71,0,0,0,448,426.67v-66a32,32,0,0,0,21.33-30v-64A32,32,0,0,0,448,236.64ZM383.94,128H291l69.73-40.6ZM350.1,68.9,248.57,128H206.46l133.11-77.5ZM300.3,24.18A20.63,20.63,0,0,1,316.14,22,20.92,20.92,0,0,1,329,32l0,0L164.06,128H122ZM426.67,426.67A21.36,21.36,0,0,1,405.34,448H42.67a21.36,21.36,0,0,1-21.33-21.33v-256a21.36,21.36,0,0,1,21.33-21.33H405.34a21.36,21.36,0,0,1,21.33,21.33v64h-64a64,64,0,1,0,0,128h64v64Zm21.33-96a10.67,10.67,0,0,1-10.67,10.67H362.67a42.67,42.67,0,0,1,0-85.33h74.67A10.67,10.67,0,0,1,448,266.67Z" transform="translate(0 0)"/><path class="cls-1" d="M362.67,277.34A21.33,21.33,0,1,0,384,298.67,21.36,21.36,0,0,0,362.67,277.34Z" transform="translate(0 0)"/></svg>