<svg id="Layer_1" data-name="Layer 1" xmlns="http://www.w3.org/2000/svg" viewBox="0 0 490.67 467.33"><defs><style>.cls-1{fill:#f99bab;}</style></defs><title>icon2</title><path class="cls-1" d="M468.76,136.66l-43.33-31.51a10.66,10.66,0,0,0-12.54,17.24l43.33,31.51a32.57,32.57,0,0,1,13.11,26.43V414c0,17.64-13.52,32-30.14,32H51.48c-16.62,0-30.14-14.36-30.14-32V180.33a32.64,32.64,0,0,1,13.12-26.41l43.78-31.83A10.66,10.66,0,0,0,65.7,104.85L21.91,136.64A54,54,0,0,0,0,180.33V414c0,29.4,23.08,53.34,51.48,53.34H439.19c28.37,0,51.48-23.94,51.48-53.33V180.33A53.87,53.87,0,0,0,468.76,136.66Z" transform="translate(0 0)"/><path class="cls-1" d="M339.2,42.39,309.87,21.06a109.42,109.42,0,0,0-129.07,0L151.13,42.64a10.67,10.67,0,1,0,12.15,17.55l.39-.29,29.67-21.57a88.17,88.17,0,0,1,104,0l29.32,21.3a10.66,10.66,0,0,0,12.76-17.08Z" transform="translate(0 0)"/><path class="cls-1" d="M446.19,194.75a10.64,10.64,0,0,0-14.74-3l0,0-138,92a86.38,86.38,0,0,1-96.08,0l-138-92A10.71,10.71,0,1,0,47.4,209.53h0l138,92a107.56,107.56,0,0,0,119.72,0l138-92a10.66,10.66,0,0,0,3.09-14.76Z" transform="translate(0 0)"/><path class="cls-1" d="M416,40.66H74.67A10.67,10.67,0,0,0,64,51.33v160a10.67,10.67,0,0,0,21.33,0V62h320V211.33a10.67,10.67,0,0,0,21.33.65q0-.33,0-.65v-160A10.67,10.67,0,0,0,416,40.66Z" transform="translate(0 0)"/><path class="cls-1" d="M330.67,254H149.33a10.67,10.67,0,1,0-.65,21.33h182a10.67,10.67,0,0,0,0-21.33Z" transform="translate(0 0)"/><path class="cls-1" d="M373.33,83.33H330.67a10.67,10.67,0,0,0,0,21.33h42.67a10.67,10.67,0,0,0,0-21.33Z" transform="translate(0 0)"/><path class="cls-1" d="M160,211.33H117.33a10.67,10.67,0,0,0,0,21.33H160a10.67,10.67,0,0,0,0-21.33Z" transform="translate(0 0)"/><path class="cls-1" d="M286.88,102H256.76A27.37,27.37,0,0,1,267,120.59h19.9v9.13H267.17c-1.83,18.62-16.62,30.49-40,31.22,14.24,14.79,29.76,33.41,45.1,52.22H254.75c-14.24-17.16-27.57-33-44.73-51.31V150.53h10c19.72,0,30.31-8.22,31.59-20.81H210v-9.13h41.1C248.54,110,238.87,104.7,223,104.7H210V92.84h76.87Z" transform="translate(0 0)"/></svg>