<svg id="Capa_1" data-name="Capa 1" xmlns="http://www.w3.org/2000/svg" viewBox="0 0 351.71 455"><defs><style>.cls-1{fill:#8ed6dc;}</style></defs><title>icon1</title><path class="cls-1" d="M263.36,286.24a7.5,7.5,0,0,0-7.5,7.5v75.57H66.64V180.1h57.74a7.5,7.5,0,0,0,0-15H66.64V133.33a23.94,23.94,0,0,1,23.92-23.92h10.8a7.5,7.5,0,1,0,0-15H90.56a39,39,0,0,0-38.92,38.92V416.08A39,39,0,0,0,90.56,455H231.94a39,39,0,0,0,38.92-38.92V293.74A7.5,7.5,0,0,0,263.36,286.24ZM231.94,440H90.56a23.94,23.94,0,0,1-23.92-23.92V384.32H255.86v31.77A24,24,0,0,1,231.94,440Z" transform="translate(-51.64)"/><path class="cls-1" d="M361.71,32.45C335.36,11.52,300.43,0,263.36,0s-72,11.52-98.36,32.45c-26.85,21.33-41.64,49.84-41.64,80.28,0,53.44,46,99,110.15,110.16A58.39,58.39,0,0,1,216.87,268a7.5,7.5,0,0,0,5.33,12.78c34.3,0,63.75-24.48,70.69-57.82,64.35-11.06,110.47-56.69,110.47-110.22C403.36,82.29,388.57,53.78,361.71,32.45ZM285.18,209a7.5,7.5,0,0,0-6.46,7.94v.1a57.79,57.79,0,0,1-39.59,46.15A73.68,73.68,0,0,0,248,217v0a7.5,7.5,0,0,0-6.46-7.94c-59.77-8.26-103.15-48.73-103.15-96.23,0-53.89,56.07-97.73,125-97.73s125,43.84,125,97.73C388.36,160.24,345,200.71,285.18,209Z" transform="translate(-51.64)"/></svg>