<svg id="Layer_1" data-name="Layer 1" xmlns="http://www.w3.org/2000/svg" viewBox="0 0 90.1 90.1"><defs><style>.cls-1{fill:#f04844;}.cls-2{fill:#fff;}</style></defs><title>na-icon-red</title><circle class="cls-1" cx="45.05" cy="45.05" r="45.05"/><path class="cls-2" d="M78.63,31.4a10.84,10.84,0,0,0-1.74-1.95h0c-.28-.24-.56-.45-.84-.65s-.24-.18-.37-.25l-.48-.29a11.06,11.06,0,0,0-2.5-1,.15.15,0,0,1-.08,0c-.29-.08-.59-.13-.88-.19l-.31,0a7.44,7.44,0,0,0-.8-.09l-.76,0c-.13,0-.27,0-.4,0a10.5,10.5,0,0,0-6.67,2.82l-.3.28a.66.66,0,0,0-.09.09,11.34,11.34,0,0,0-2,2.49,9.37,9.37,0,0,0-.54,1.07c-.06.11-.12.22-.18.34h0s-3.42,8.41-6.58,12.11a19.91,19.91,0,0,1-14.33,7h-.15a18,18,0,0,1-8.52-1.51c-.35-.15-.71-.32-1.08-.51L28.94,51c-.35-.18-.71-.37-1.06-.58l-.37-.24c-.27-.17-.54-.32-.81-.52s-.81-.56-1.21-.87a1.7,1.7,0,0,0-.23-.2c-.33-.28-.65-.56-1-.87l-.32-.3a11.78,11.78,0,0,1-2.12-2.93,23.68,23.68,0,0,0-.61,6.28,23.39,23.39,0,0,0,45.86,5.42c.08-.28.14-.54.21-.81a36.23,36.23,0,0,0,.8-3.76c.13-.85.17-1.36.17-1.36.06-.4.12-.77.17-1.15s.08-.49.11-.73.07-.35.1-.54c2.94-17.22,9.55-16.33,10.12-16.22h0l-.16-.2" transform="translate(-4.95 -4.95)"/></svg>